<svg width="36" height="36" viewBox="0 0 36 36" fill="none" xmlns="http://www.w3.org/2000/svg">
<g clip-path="url(#clip0_2_8)">
<path d="M18 12.1289C17.8957 12.1289 17.7937 12.1599 17.707 12.2178C17.6203 12.2758 17.5527 12.3581 17.5128 12.4545C17.4729 12.5508 17.4624 12.6569 17.4828 12.7592C17.5031 12.8615 17.5534 12.9554 17.6271 13.0292C17.7009 13.1029 17.7948 13.1531 17.8971 13.1735C17.9994 13.1938 18.1054 13.1834 18.2018 13.1435C18.2982 13.1036 18.3805 13.036 18.4385 12.9493C18.4964 12.8625 18.5273 12.7606 18.5273 12.6563C18.5273 12.5164 18.4718 12.3823 18.3729 12.2834C18.274 12.1845 18.1399 12.1289 18 12.1289ZM35.8455 29.3651L30.1108 23.6304C30.0371 23.5567 29.9431 23.5064 29.8408 23.4861C29.7385 23.4658 29.6325 23.4762 29.5362 23.5161C29.4398 23.556 29.3575 23.6236 29.2995 23.7103C29.2416 23.7971 29.2106 23.899 29.2106 24.0033V26.6379H25.4712C26.7126 25.567 27.7084 24.241 28.3908 22.7504C29.0733 21.2597 29.4263 19.6395 29.4258 18C29.4258 11.6999 24.3002 6.57425 18 6.57425C15.8627 6.57184 13.7681 7.17261 11.957 8.30748H6.26204C6.19278 8.30748 6.12421 8.32111 6.06023 8.34761C5.99625 8.37412 5.93811 8.41296 5.88914 8.46193C5.84017 8.5109 5.80133 8.56903 5.77483 8.63301C5.74833 8.697 5.73469 8.76557 5.73469 8.83482V10.7236L1.27311 6.26203L5.73469 1.80048V3.68931C5.73469 3.75856 5.74833 3.82713 5.77483 3.89112C5.80133 3.9551 5.84017 4.01323 5.88914 4.0622C5.93811 4.11117 5.99625 4.15001 6.06023 4.17651C6.12421 4.20301 6.19278 4.21665 6.26204 4.21665H15.7423C15.8821 4.21665 16.0163 4.16109 16.1152 4.06219C16.2141 3.9633 16.2696 3.82917 16.2696 3.68931C16.2696 3.54945 16.2141 3.41531 16.1152 3.31642C16.0163 3.21752 15.8821 3.16196 15.7423 3.16196H6.78938V0.527372C6.78937 0.423078 6.75844 0.321129 6.70049 0.234413C6.64255 0.147698 6.56019 0.0801102 6.46384 0.0401958C6.36748 0.000281438 6.26146 -0.0101674 6.15917 0.0101702C6.05688 0.0305079 5.96291 0.0807189 5.88915 0.154455L0.154461 5.88911C0.055561 5.98802 0 6.12216 0 6.26203C0 6.4019 0.055561 6.53604 0.154461 6.63495L5.88915 12.3697C5.96291 12.4434 6.05688 12.4936 6.15917 12.514C6.26146 12.5343 6.36748 12.5238 6.46384 12.4839C6.56019 12.444 6.64255 12.3764 6.70049 12.2897C6.75844 12.203 6.78937 12.1011 6.78938 11.9968V9.36217H10.5288C9.28745 10.4331 8.29162 11.759 7.60917 13.2497C6.92673 14.7403 6.57372 16.3606 6.57422 18C6.57422 24.3002 11.6998 29.4258 18 29.4258C20.1373 29.4282 22.2319 28.8275 24.043 27.6926H29.738C29.8072 27.6926 29.8758 27.6789 29.9398 27.6524C30.0038 27.6259 30.0619 27.5871 30.1109 27.5381C30.1598 27.4892 30.1987 27.431 30.2252 27.367C30.2517 27.3031 30.2653 27.2345 30.2653 27.1652V25.2764L34.7269 29.738L30.2653 34.1996V32.3108C30.2653 32.2415 30.2517 32.1729 30.2252 32.1089C30.1987 32.045 30.1598 31.9868 30.1109 31.9379C30.0619 31.8889 30.0038 31.85 29.9398 31.8235C29.8758 31.797 29.8072 31.7834 29.738 31.7834H20.2577C20.1179 31.7834 19.9837 31.839 19.8848 31.9379C19.7859 32.0368 19.7304 32.1709 19.7304 32.3108C19.7304 32.4506 19.7859 32.5847 19.8848 32.6836C19.9837 32.7825 20.1179 32.8381 20.2577 32.8381H29.2106V35.4727C29.2106 35.577 29.2416 35.6789 29.2995 35.7657C29.3574 35.8524 29.4398 35.92 29.5362 35.9599C29.6325 35.9998 29.7385 36.0102 29.8408 35.9899C29.9431 35.9696 30.0371 35.9193 30.1108 35.8456L35.8455 30.1109C35.9444 30.012 36 29.8779 36 29.738C36 29.5982 35.9444 29.464 35.8455 29.3651ZM18 28.3711C12.2814 28.3711 7.62891 23.7187 7.62891 18C7.62891 12.2814 12.2814 7.62894 18 7.62894C23.7186 7.62894 28.3711 12.2814 28.3711 18C28.3711 23.7187 23.7186 28.3711 18 28.3711ZM23.9964 14.5245C23.9939 14.5007 23.9897 14.4771 23.984 14.4538C23.9829 14.4494 23.9818 14.445 23.9806 14.4406C23.9682 14.3943 23.9496 14.35 23.9252 14.3088C23.9228 14.3047 23.9203 14.3006 23.9177 14.2965C23.9052 14.2764 23.8913 14.2571 23.8762 14.2388C23.8746 14.2369 23.8728 14.2351 23.8711 14.2332C23.8564 14.2162 23.8405 14.2001 23.8237 14.185C23.8217 14.1832 23.82 14.181 23.8179 14.1792L18.808 9.81721C18.5835 9.62315 18.2967 9.51635 18 9.51635C17.7033 9.51635 17.4165 9.62315 17.192 9.81721L12.1821 14.1792C12.18 14.181 12.1783 14.1832 12.1763 14.185C12.1595 14.2001 12.1436 14.2162 12.1289 14.2332C12.1272 14.2351 12.1254 14.2369 12.1238 14.2388C12.1087 14.2571 12.0948 14.2764 12.0823 14.2965C12.0797 14.3006 12.0772 14.3047 12.0748 14.3088C12.0504 14.35 12.0318 14.3943 12.0194 14.4406C12.0182 14.445 12.0171 14.4494 12.016 14.4538C12.0103 14.4771 12.0061 14.5007 12.0036 14.5245C12.0035 14.5255 12.0036 14.5264 12.0035 14.5274C12.002 14.5437 12.001 14.5602 12.001 14.5769V15.9831C12.0014 16.3094 12.1311 16.6221 12.3618 16.8528C12.5925 17.0835 12.9052 17.2132 13.2314 17.2136H13.2539V21.3731C13.0953 21.4415 12.9529 21.5425 12.8359 21.6697C12.719 21.7968 12.6302 21.9471 12.5753 22.1109L12.0284 23.7409C12.0018 23.8202 11.9944 23.9047 12.0069 23.9874C12.0194 24.0701 12.0514 24.1486 12.1002 24.2165C12.1491 24.2844 12.2134 24.3398 12.2878 24.3779C12.3622 24.4161 12.4447 24.436 12.5283 24.436H23.4717C23.5553 24.436 23.6378 24.4161 23.7122 24.3779C23.7866 24.3398 23.8509 24.2844 23.8998 24.2165C23.9486 24.1486 23.9806 24.0701 23.9931 23.9874C24.0056 23.9047 23.9982 23.8202 23.9716 23.7409L23.4247 22.1108C23.3698 21.9471 23.281 21.7967 23.1641 21.6696C23.0471 21.5425 22.9047 21.4415 22.7461 21.3731V17.2136H22.7685C23.0948 17.2132 23.4075 17.0835 23.6382 16.8528C23.8689 16.6221 23.9986 16.3094 23.999 15.9831V14.5769C23.999 14.5602 23.998 14.5437 23.9965 14.5274C23.9964 14.5264 23.9965 14.5255 23.9964 14.5245ZM17.8846 10.6126C17.9166 10.5849 17.9576 10.5697 18 10.5697C18.0424 10.5697 18.0834 10.5849 18.1154 10.6126L22.0629 14.0496H13.9371L17.8846 10.6126ZM13.2615 23.3813L13.5752 22.4465C13.5868 22.4115 13.6092 22.3812 13.6391 22.3596C13.669 22.3381 13.705 22.3266 13.7418 22.3266H22.2582C22.295 22.3266 22.3309 22.3381 22.3608 22.3596C22.3907 22.3811 22.4131 22.4115 22.4248 22.4464L22.7385 23.3813H13.2615ZM14.3086 21.2719V17.2136H15.3633V21.2719H14.3086ZM16.418 21.2719V17.2136H17.4727V21.2719H16.418ZM18.5273 21.2719V17.2136H19.582V21.2719H18.5273ZM20.6367 21.2719V17.2136H21.6914V21.2719H20.6367ZM22.9443 15.9831C22.9443 16.0298 22.9257 16.0744 22.8928 16.1074C22.8598 16.1403 22.8152 16.1589 22.7685 16.1589H13.2315C13.1848 16.1589 13.1402 16.1403 13.1072 16.1074C13.0743 16.0744 13.0557 16.0298 13.0557 15.9831V15.1042H22.9443V15.9831Z" fill="#3178F6"/>
</g>
<defs>
<clipPath id="clip0_2_8">
<rect width="36" height="36" fill="white"/>
</clipPath>
</defs>
</svg>
