<svg width="192" height="160" viewBox="0 0 192 160" fill="none" xmlns="http://www.w3.org/2000/svg">
<g clip-path="url(#clip0_1211_591)">
<path d="M114.079 12.7637C120.311 12.7637 125.361 17.7839 125.361 23.985C119.136 23.9784 114.079 18.9582 114.079 12.7637Z" fill="#DEE1E6"/>
<path d="M124.684 24.7773C124.684 30.2198 120.244 34.6331 114.77 34.6331C114.763 29.1907 119.203 24.7773 124.684 24.7773Z" fill="#84E8F4"/>
<path d="M21.08 150.441C21.08 154.762 17.556 158.259 13.216 158.259C13.216 153.944 16.74 150.441 21.08 150.441Z" fill="#B3B3B3"/>
<path d="M114.485 -9.50195C120.278 -9.50195 124.97 -4.83135 124.97 0.921148C119.177 0.921148 114.485 -3.74945 114.485 -9.50195Z" fill="#B3B3B3"/>
<path d="M23.244 103.754C29.097 103.754 33.842 108.471 33.842 114.289C27.989 114.289 23.244 109.572 23.244 103.754Z" fill="#84E8F4"/>
<path d="M114.71 36.0508C120.251 36.0508 124.737 40.5169 124.737 46.0253C119.203 46.0187 114.71 41.5592 114.71 36.0508Z" fill="#DEE1E6"/>
<path d="M48.322 32.7063C48.322 29.3881 51.03 26.7031 54.361 26.7031C54.361 30.0148 51.654 32.7063 48.322 32.7063Z" fill="#84E8F4"/>
<path d="M34.359 23.9249C34.359 17.7897 39.362 12.8223 45.527 12.8223C45.527 18.9508 40.524 23.9249 34.359 23.9249Z" fill="#B3B3B3"/>
<path d="M9.79898 22.3959C5.33198 22.3959 1.70898 18.794 1.70898 14.3477C6.17498 14.3477 9.79898 17.9496 9.79898 22.3959Z" fill="#B3B3B3"/>
<path d="M78.011 22.2228C73.731 22.2228 70.26 18.7726 70.26 14.5176C74.541 14.5176 78.011 17.9678 78.011 22.2228Z" fill="#B3B3B3"/>
<path d="M0.793991 11.971C0.793991 6.52856 5.23298 2.11523 10.708 2.11523C10.708 7.55768 6.26899 11.971 0.793991 11.971Z" fill="#B3B3B3"/>
<path d="M13.728 48.9668C17.504 48.9668 20.563 52.008 20.563 55.7682C16.794 55.7682 13.728 52.7204 13.728 48.9668Z" fill="#84E8F4"/>
<path d="M8.83002 66.7587C5.43202 66.7587 2.67801 64.0209 2.67801 60.6367C6.07601 60.6367 8.83002 63.3744 8.83002 66.7587Z" fill="#B3B3B3"/>
<path d="M139.303 10.2689C139.303 6.69999 142.21 3.81055 145.8 3.81055C145.8 7.37947 142.887 10.2689 139.303 10.2689Z" fill="#84E8F4"/>
<path d="M12.593 68.2302C12.593 63.2231 16.674 59.166 21.711 59.166C21.711 64.1731 17.623 68.2302 12.593 68.2302Z" fill="#DEE1E6"/>
<path d="M31.911 117.014C31.911 120.708 28.898 123.696 25.188 123.696C25.182 120.002 28.194 117.014 31.911 117.014Z" fill="#84E8F4"/>
<path d="M36.696 117.127C40.286 117.127 43.192 120.016 43.192 123.585C39.602 123.585 36.696 120.696 36.696 117.127Z" fill="#DEE1E6"/>
<path d="M1.25198 79.5047C1.25198 74.5636 5.27999 70.5527 10.257 70.5527C10.25 75.5004 6.22198 79.5047 1.25198 79.5047Z" fill="#84E8F4"/>
<path d="M82.684 94.8613C85.83 94.8613 88.385 97.4011 88.385 100.528C85.232 100.521 82.684 97.9883 82.684 94.8613Z" fill="#84E8F4"/>
<path d="M-11.344 46.6987C-11.344 40.4383 -6.24101 35.3652 0.0499878 35.3652C0.0499878 41.6257 -5.05301 46.6987 -11.344 46.6987Z" fill="#B3B3B3"/>
<path d="M8.77002 44.0384C5.43202 44.0384 2.73102 41.3468 2.73102 38.0352C6.06902 38.0286 8.77002 40.7201 8.77002 44.0384Z" fill="#84E8F4"/>
<path d="M1.19197 56.8962C1.19197 51.8891 5.27397 47.832 10.311 47.832C10.311 52.8391 6.22897 56.8962 1.19197 56.8962Z" fill="#B3B3B3"/>
<path d="M0.621002 126.586C6.288 126.586 10.88 131.151 10.88 136.785C5.21301 136.785 0.621002 132.22 0.621002 126.586Z" fill="#84E8F4"/>
<path d="M36.41 71.5156C40.312 71.5156 43.478 74.6623 43.478 78.5413C39.575 78.5413 36.41 75.3946 36.41 71.5156Z" fill="#DEE1E6"/>
<path d="M69.066 12.0847C69.066 6.51693 73.606 1.99805 79.213 1.99805C79.206 7.56583 74.667 12.0847 69.066 12.0847Z" fill="#84E8F4"/>
<path d="M46.211 126.586C51.879 126.586 56.4709 131.151 56.4709 136.785C50.8039 136.785 46.211 132.22 46.211 126.586Z" fill="#DEE1E6"/>
<path d="M54.706 117.014C54.706 120.708 51.693 123.696 47.983 123.696C47.977 120.002 50.99 117.014 54.706 117.014Z" fill="#DEE1E6"/>
<path d="M104.165 25.5684C108.757 25.5684 112.487 29.2692 112.487 33.8409C107.895 33.8409 104.165 30.1334 104.165 25.5684Z" fill="#84E8F4"/>
<path d="M103.542 45.7947C103.542 40.537 107.829 36.2754 113.118 36.2754C113.111 41.5331 108.831 45.7947 103.542 45.7947Z" fill="#B3B3B3"/>
<path d="M59.889 49.5352C63.035 49.5352 65.59 52.075 65.59 55.2019C62.437 55.2019 59.889 52.6621 59.889 49.5352Z" fill="#DEE1E6"/>
<path d="M33.503 23.2991C28.028 23.2991 23.589 18.8858 23.589 13.4434C29.064 13.4434 33.503 17.8567 33.503 23.2991Z" fill="#DEE1E6"/>
<path d="M9.85199 116.275C9.85199 120.781 6.17499 124.436 1.64299 124.436C1.64899 119.93 5.31899 116.275 9.85199 116.275Z" fill="#84E8F4"/>
<path d="M104.112 22.5663C104.112 17.9353 107.888 14.1816 112.547 14.1816C112.547 18.8127 108.771 22.5663 104.112 22.5663Z" fill="#B3B3B3"/>
<path d="M35.614 2.73633C40.398 2.73633 44.274 6.58892 44.274 11.3453C39.489 11.3453 35.614 7.4927 35.614 2.73633Z" fill="#84E8F4"/>
<path d="M34.871 0.750731C34.871 -4.81706 39.41 -9.33594 45.018 -9.33594C45.018 -3.76155 40.472 0.750731 34.871 0.750731Z" fill="#B3B3B3"/>
<path d="M0.0499878 126.02C0.0499878 132.28 -5.05301 137.353 -11.344 137.353C-11.344 131.093 -6.24101 126.02 0.0499878 126.02Z" fill="#DEE1E6"/>
<path d="M136.51 12.3669C130.591 12.3669 125.799 7.59733 125.799 1.71289C131.712 1.71289 136.51 6.48245 136.51 12.3669Z" fill="#DEE1E6"/>
<path d="M35.216 47.6602C40.439 47.6602 44.673 51.869 44.673 57.0673C39.45 57.0673 35.216 52.8585 35.216 47.6602Z" fill="#B3B3B3"/>
<path d="M36.696 66.9232C36.696 63.3543 39.602 60.4648 43.192 60.4648C43.192 64.0338 40.286 66.9232 36.696 66.9232Z" fill="#DEE1E6"/>
<path d="M160.161 12.1957C160.161 6.50259 164.806 1.88477 170.533 1.88477C170.527 7.57789 165.888 12.1957 160.161 12.1957Z" fill="#84E8F4"/>
<path d="M81.543 3.07227C85.949 3.07227 89.519 6.6214 89.519 11.0017C85.113 11.0083 81.543 7.45261 81.543 3.07227Z" fill="#84E8F4"/>
<path d="M100.575 3.41602C100.575 7.42034 97.3097 10.666 93.2816 10.666C93.2816 6.66169 96.5466 3.41602 100.575 3.41602Z" fill="#84E8F4"/>
<path d="M82.173 49.0273C85.889 49.0273 88.895 52.0223 88.895 55.71C85.179 55.71 82.173 52.715 82.173 49.0273Z" fill="#84E8F4"/>
<path d="M56.186 92.877C56.186 98.1941 51.846 102.508 46.497 102.508C46.497 97.1913 50.837 92.877 56.186 92.877Z" fill="#84E8F4"/>
<path d="M59.717 21.3723C59.717 18.0541 62.424 15.3691 65.756 15.3691C65.756 18.6874 63.055 21.3723 59.717 21.3723Z" fill="#DEE1E6"/>
<path d="M58.521 2.84766C63.18 2.84766 66.956 6.60129 66.956 11.2323C62.297 11.2323 58.521 7.47868 58.521 2.84766Z" fill="#B3B3B3"/>
<path d="M125.136 46.9805C125.136 52.9243 120.292 57.7466 114.306 57.7466C114.313 51.8028 119.157 46.9805 125.136 46.9805Z" fill="#B3B3B3"/>
<path d="M93.8534 60.6367C97.2511 60.6367 100.005 63.3744 100.005 66.7587C96.6074 66.7587 93.8534 64.0143 93.8534 60.6367Z" fill="#84E8F4"/>
<path d="M70.434 82.6777C74.528 82.6777 77.84 85.9762 77.84 90.0465C73.745 90.0465 70.434 86.748 70.434 82.6777Z" fill="#DEE1E6"/>
<path d="M77.269 94.5781C77.269 98.0217 74.462 100.812 70.998 100.812C70.998 97.3686 73.805 94.5781 77.269 94.5781Z" fill="#84E8F4"/>
<path d="M58.177 93.1602C63.214 93.1602 67.295 97.2173 67.295 102.224C62.258 102.224 58.177 98.1672 58.177 93.1602Z" fill="#B3B3B3"/>
<path d="M103.31 0.697172C103.31 -4.81124 107.802 -9.27734 113.337 -9.27734C113.344 -3.76893 108.851 0.697172 103.31 0.697172Z" fill="#84E8F4"/>
<path d="M25.015 10.553C25.015 6.67407 28.18 3.52734 32.083 3.52734C32.076 7.40632 28.917 10.553 25.015 10.553Z" fill="#DEE1E6"/>
<path d="M11.79 1.71289C17.709 1.71289 22.5 6.48245 22.5 12.3669C16.588 12.3669 11.79 7.59733 11.79 1.71289Z" fill="#84E8F4"/>
<path d="M33.164 0.295431C28.068 0.295431 23.933 -3.81444 23.933 -8.88086C29.03 -8.88086 33.164 -4.77099 33.164 0.295431Z" fill="#84E8F4"/>
<path d="M12.134 0.697172C12.134 -4.81124 16.627 -9.27734 22.162 -9.27734C22.162 -3.76893 17.676 0.697172 12.134 0.697172Z" fill="#84E8F4"/>
<path d="M11.166 91.7408C5.18699 91.7408 0.335983 86.9184 0.335983 80.9746C6.31498 80.9746 11.166 85.797 11.166 91.7408Z" fill="#DEE1E6"/>
<path d="M13.044 113.102C13.044 108.596 16.721 104.941 21.253 104.941C21.253 109.447 17.577 113.102 13.044 113.102Z" fill="#DEE1E6"/>
<path d="M0.10997 103.412C6.34197 103.412 11.392 108.432 11.392 114.633C5.15997 114.633 0.10997 109.613 0.10997 103.412Z" fill="#84E8F4"/>
<path d="M9.401 94.0645C9.401 98.0688 6.136 101.314 2.108 101.314C2.108 97.3167 5.372 94.0645 9.401 94.0645Z" fill="#B3B3B3"/>
<path d="M81.085 22.791C81.085 17.9093 85.066 13.9512 89.977 13.9512C89.977 18.8329 85.995 22.791 81.085 22.791Z" fill="#84E8F4"/>
<path d="M135.998 34.5201C130.649 34.5201 126.309 30.2058 126.309 24.8887C131.658 24.8887 135.998 29.1964 135.998 34.5201Z" fill="#B3B3B3"/>
<path d="M48.036 83.0742C51.686 83.0742 54.646 86.0164 54.646 89.6447C50.996 89.6447 48.036 86.7025 48.036 83.0742Z" fill="#84E8F4"/>
<path d="M58.236 90.8387C58.236 85.8976 62.265 81.8867 67.242 81.8867C67.242 86.8278 63.207 90.8387 58.236 90.8387Z" fill="#DEE1E6"/>
<path d="M79.605 24.2617C79.605 30.2715 74.708 35.14 68.662 35.14C68.662 29.1368 73.566 24.2617 79.605 24.2617Z" fill="#84E8F4"/>
<path d="M70.148 37.0664C74.554 37.0664 78.125 40.6155 78.125 44.9959C73.718 45.0025 70.148 41.4467 70.148 37.0664Z" fill="#84E8F4"/>
<path d="M82.339 44.2036C82.339 40.7007 85.2 37.8574 88.723 37.8574C88.723 41.367 85.87 44.2036 82.339 44.2036Z" fill="#B3B3B3"/>
<path d="M80.573 24.7773C86.048 24.7773 90.488 29.1907 90.488 34.6331C85.013 34.6331 80.573 30.2198 80.573 24.7773Z" fill="#84E8F4"/>
<path d="M23.815 81.6543C29.037 81.6543 33.271 85.8631 33.271 91.0615C28.049 91.0615 23.815 86.8527 23.815 81.6543Z" fill="#84E8F4"/>
<path d="M12.819 90.6656C12.819 85.9092 16.694 82.0566 21.479 82.0566C21.479 86.813 17.603 90.6656 12.819 90.6656Z" fill="#84E8F4"/>
<path d="M24.73 150.553C28.951 150.553 32.368 153.95 32.368 158.146C28.148 158.146 24.73 154.748 24.73 150.553Z" fill="#DEE1E6"/>
<path d="M31.453 140.129C31.453 143.322 28.852 145.908 25.64 145.908C25.64 142.715 28.241 140.129 31.453 140.129Z" fill="#84E8F4"/>
<path d="M36.125 139.219C40.346 139.219 43.763 142.616 43.763 146.812C39.543 146.812 36.125 143.414 36.125 139.219Z" fill="#DEE1E6"/>
</g>
<defs>
<clipPath id="clip0_1211_591">
<rect width="192" height="160" fill="white" transform="matrix(-1 0 0 1 192 0)"/>
</clipPath>
</defs>
</svg>
