<svg width="192" height="160" viewBox="0 0 192 160" fill="none" xmlns="http://www.w3.org/2000/svg">
<path d="M77.9206 12.7637C71.6893 12.7637 66.6392 17.7839 66.6392 23.985C72.8639 23.9784 77.9206 18.9582 77.9206 12.7637Z" fill="#DEE1E6"/>
<path d="M67.3159 24.7773C67.3159 30.2198 71.7555 34.6331 77.2303 34.6331C77.237 29.1907 72.7974 24.7773 67.3159 24.7773Z" fill="#84E8F4"/>
<path d="M170.92 150.441C170.92 154.762 174.444 158.259 178.784 158.259C178.784 153.944 175.26 150.441 170.92 150.441Z" fill="#B3B3B3"/>
<path d="M77.5152 -9.50195C71.7218 -9.50195 67.03 -4.83135 67.03 0.921151C72.8234 0.921151 77.5152 -3.74945 77.5152 -9.50195Z" fill="#B3B3B3"/>
<path d="M168.756 103.754C162.903 103.754 158.158 108.471 158.158 114.289C164.011 114.289 168.756 109.572 168.756 103.754Z" fill="#84E8F4"/>
<path d="M77.2899 36.0508C71.7487 36.0508 67.2627 40.5169 67.2627 46.0253C72.7973 46.0187 77.2899 41.5592 77.2899 36.0508Z" fill="#DEE1E6"/>
<path d="M143.678 32.7063C143.678 29.3881 140.97 26.7031 137.639 26.7031C137.639 30.0148 140.346 32.7063 143.678 32.7063Z" fill="#84E8F4"/>
<path d="M157.641 23.9249C157.641 17.7897 152.638 12.8223 146.473 12.8223C146.473 18.9508 151.476 23.9249 157.641 23.9249Z" fill="#B3B3B3"/>
<path d="M182.201 22.3959C186.668 22.3959 190.291 18.794 190.291 14.3477C185.825 14.3477 182.201 17.9496 182.201 22.3959Z" fill="#B3B3B3"/>
<path d="M113.989 22.2228C118.269 22.2228 121.74 18.7726 121.74 14.5176C117.459 14.5176 113.989 17.9678 113.989 22.2228Z" fill="#B3B3B3"/>
<path d="M191.206 11.971C191.206 6.52856 186.767 2.11523 181.292 2.11523C181.292 7.55768 185.731 11.971 191.206 11.971Z" fill="#B3B3B3"/>
<path d="M178.272 48.9668C174.496 48.9668 171.437 52.008 171.437 55.7682C175.206 55.7682 178.272 52.7204 178.272 48.9668Z" fill="#84E8F4"/>
<path d="M183.17 66.7587C186.568 66.7587 189.322 64.0209 189.322 60.6367C185.924 60.6367 183.17 63.3744 183.17 66.7587Z" fill="#B3B3B3"/>
<path d="M52.6965 10.2689C52.6965 6.69999 49.7899 3.81055 46.1997 3.81055C46.1997 7.37947 49.113 10.2689 52.6965 10.2689Z" fill="#84E8F4"/>
<path d="M179.407 68.2302C179.407 63.2231 175.326 59.166 170.289 59.166C170.289 64.1731 174.377 68.2302 179.407 68.2302Z" fill="#DEE1E6"/>
<path d="M160.089 117.014C160.089 120.708 163.102 123.696 166.812 123.696C166.818 120.002 163.806 117.014 160.089 117.014Z" fill="#84E8F4"/>
<path d="M155.304 117.127C151.714 117.127 148.808 120.016 148.808 123.585C152.398 123.585 155.304 120.696 155.304 117.127Z" fill="#DEE1E6"/>
<path d="M190.748 79.5047C190.748 74.5636 186.72 70.5527 181.743 70.5527C181.75 75.5004 185.778 79.5047 190.748 79.5047Z" fill="#84E8F4"/>
<path d="M109.316 94.8613C106.17 94.8613 103.615 97.4011 103.615 100.528C106.768 100.521 109.316 97.9883 109.316 94.8613Z" fill="#84E8F4"/>
<path d="M203.344 46.6987C203.344 40.4383 198.241 35.3652 191.95 35.3652C191.95 41.6257 197.053 46.6987 203.344 46.6987Z" fill="#B3B3B3"/>
<path d="M183.23 44.0384C186.568 44.0384 189.269 41.3468 189.269 38.0352C185.931 38.0286 183.23 40.7201 183.23 44.0384Z" fill="#84E8F4"/>
<path d="M190.808 56.8962C190.808 51.8891 186.726 47.832 181.689 47.832C181.689 52.8391 185.771 56.8962 190.808 56.8962Z" fill="#B3B3B3"/>
<path d="M191.379 126.586C185.712 126.586 181.12 131.151 181.12 136.785C186.787 136.785 191.379 132.22 191.379 126.586Z" fill="#84E8F4"/>
<path d="M155.59 71.5156C151.688 71.5156 148.522 74.6623 148.522 78.5413C152.425 78.5413 155.59 75.3946 155.59 71.5156Z" fill="#DEE1E6"/>
<path d="M122.934 12.0847C122.934 6.51693 118.394 1.99805 112.787 1.99805C112.794 7.56583 117.333 12.0847 122.934 12.0847Z" fill="#84E8F4"/>
<path d="M145.789 126.586C140.121 126.586 135.529 131.151 135.529 136.785C141.196 136.785 145.789 132.22 145.789 126.586Z" fill="#DEE1E6"/>
<path d="M137.294 117.014C137.294 120.708 140.307 123.696 144.017 123.696C144.023 120.002 141.01 117.014 137.294 117.014Z" fill="#DEE1E6"/>
<path d="M87.8347 25.5684C83.2425 25.5684 79.5129 29.2692 79.5129 33.8409C84.1052 33.8409 87.8347 30.1334 87.8347 25.5684Z" fill="#84E8F4"/>
<path d="M88.4583 45.7947C88.4583 40.537 84.1713 36.2754 78.8823 36.2754C78.889 41.5331 83.1693 45.7947 88.4583 45.7947Z" fill="#B3B3B3"/>
<path d="M132.111 49.5352C128.965 49.5352 126.41 52.075 126.41 55.2019C129.563 55.2019 132.111 52.6621 132.111 49.5352Z" fill="#DEE1E6"/>
<path d="M158.497 23.2991C163.972 23.2991 168.411 18.8858 168.411 13.4434C162.936 13.4434 158.497 17.8567 158.497 23.2991Z" fill="#DEE1E6"/>
<path d="M182.148 116.275C182.148 120.781 185.825 124.436 190.357 124.436C190.351 119.93 186.681 116.275 182.148 116.275Z" fill="#84E8F4"/>
<path d="M87.8877 22.5663C87.8877 17.9353 84.1117 14.1816 79.4531 14.1816C79.4531 18.8127 83.2291 22.5663 87.8877 22.5663Z" fill="#B3B3B3"/>
<path d="M156.386 2.73633C151.602 2.73633 147.726 6.58892 147.726 11.3453C152.511 11.3453 156.386 7.4927 156.386 2.73633Z" fill="#84E8F4"/>
<path d="M157.129 0.750729C157.129 -4.81706 152.59 -9.33594 146.982 -9.33594C146.982 -3.76155 151.528 0.750729 157.129 0.750729Z" fill="#B3B3B3"/>
<path d="M191.95 126.02C191.95 132.28 197.053 137.353 203.344 137.353C203.344 131.093 198.241 126.02 191.95 126.02Z" fill="#DEE1E6"/>
<path d="M55.49 12.3669C61.4094 12.3669 66.2008 7.59733 66.2008 1.71289C60.2879 1.71289 55.49 6.48245 55.49 12.3669Z" fill="#DEE1E6"/>
<path d="M156.784 47.6602C151.561 47.6602 147.327 51.869 147.327 57.0673C152.55 57.0673 156.784 52.8585 156.784 47.6602Z" fill="#B3B3B3"/>
<path d="M155.304 66.9232C155.304 63.3543 152.398 60.4648 148.808 60.4648C148.808 64.0338 151.714 66.9232 155.304 66.9232Z" fill="#DEE1E6"/>
<path d="M31.8389 12.1957C31.8389 6.5026 27.1936 1.88477 21.4666 1.88477C21.4732 7.57789 26.1119 12.1957 31.8389 12.1957Z" fill="#84E8F4"/>
<path d="M110.457 3.07227C106.051 3.07227 102.481 6.6214 102.481 11.0017C106.887 11.0083 110.457 7.45261 110.457 3.07227Z" fill="#84E8F4"/>
<path d="M91.4253 3.41602C91.4253 7.42034 94.6903 10.666 98.7184 10.666C98.7184 6.66169 95.4534 3.41602 91.4253 3.41602Z" fill="#84E8F4"/>
<path d="M109.827 49.0273C106.111 49.0273 103.105 52.0223 103.105 55.71C106.821 55.71 109.827 52.715 109.827 49.0273Z" fill="#84E8F4"/>
<path d="M135.814 92.877C135.814 98.1941 140.154 102.508 145.503 102.508C145.503 97.1913 141.163 92.877 135.814 92.877Z" fill="#84E8F4"/>
<path d="M132.283 21.3723C132.283 18.0541 129.576 15.3691 126.244 15.3691C126.244 18.6874 128.945 21.3723 132.283 21.3723Z" fill="#DEE1E6"/>
<path d="M133.479 2.84766C128.82 2.84766 125.044 6.60129 125.044 11.2323C129.703 11.2323 133.479 7.47868 133.479 2.84766Z" fill="#B3B3B3"/>
<path d="M66.8638 46.9805C66.8638 52.9243 71.7082 57.7466 77.694 57.7466C77.6873 51.8028 72.8429 46.9805 66.8638 46.9805Z" fill="#B3B3B3"/>
<path d="M98.1466 60.6367C94.7489 60.6367 91.9949 63.3744 91.9949 66.7587C95.3926 66.7587 98.1466 64.0143 98.1466 60.6367Z" fill="#84E8F4"/>
<path d="M121.566 82.6777C117.472 82.6777 114.16 85.9762 114.16 90.0465C118.255 90.0465 121.566 86.748 121.566 82.6777Z" fill="#DEE1E6"/>
<path d="M114.731 94.5781C114.731 98.0217 117.538 100.812 121.002 100.812C121.002 97.3686 118.195 94.5781 114.731 94.5781Z" fill="#84E8F4"/>
<path d="M133.823 93.1602C128.786 93.1602 124.705 97.2173 124.705 102.224C129.742 102.224 133.823 98.1672 133.823 93.1602Z" fill="#B3B3B3"/>
<path d="M88.6903 0.697176C88.6903 -4.81124 84.1977 -9.27734 78.6631 -9.27734C78.6565 -3.76893 83.1491 0.697176 88.6903 0.697176Z" fill="#84E8F4"/>
<path d="M166.985 10.553C166.985 6.67407 163.82 3.52734 159.917 3.52734C159.924 7.40632 163.083 10.553 166.985 10.553Z" fill="#DEE1E6"/>
<path d="M180.21 1.71289C174.291 1.71289 169.5 6.48245 169.5 12.3669C175.412 12.3669 180.21 7.59733 180.21 1.71289Z" fill="#84E8F4"/>
<path d="M158.836 0.29543C163.932 0.29543 168.067 -3.81444 168.067 -8.88086C162.97 -8.88086 158.836 -4.77099 158.836 0.29543Z" fill="#84E8F4"/>
<path d="M179.866 0.697176C179.866 -4.81124 175.373 -9.27734 169.838 -9.27734C169.838 -3.76893 174.324 0.697176 179.866 0.697176Z" fill="#84E8F4"/>
<path d="M180.834 91.7408C186.813 91.7408 191.664 86.9184 191.664 80.9746C185.685 80.9746 180.834 85.797 180.834 91.7408Z" fill="#DEE1E6"/>
<path d="M178.956 113.102C178.956 108.596 175.279 104.941 170.747 104.941C170.747 109.447 174.423 113.102 178.956 113.102Z" fill="#DEE1E6"/>
<path d="M191.89 103.412C185.658 103.412 180.608 108.432 180.608 114.633C186.84 114.633 191.89 109.613 191.89 103.412Z" fill="#84E8F4"/>
<path d="M182.599 94.0645C182.599 98.0688 185.864 101.314 189.892 101.314C189.892 97.3167 186.628 94.0645 182.599 94.0645Z" fill="#B3B3B3"/>
<path d="M110.915 22.791C110.915 17.9093 106.934 13.9512 102.023 13.9512C102.023 18.8329 106.005 22.791 110.915 22.791Z" fill="#84E8F4"/>
<path d="M56.0017 34.5201C61.3505 34.5201 65.6905 30.2058 65.6905 24.8887C60.3418 24.8887 56.0017 29.1964 56.0017 34.5201Z" fill="#B3B3B3"/>
<path d="M143.964 83.0742C140.314 83.0742 137.354 86.0164 137.354 89.6447C141.004 89.6447 143.964 86.7025 143.964 83.0742Z" fill="#84E8F4"/>
<path d="M133.764 90.8387C133.764 85.8976 129.735 81.8867 124.758 81.8867C124.758 86.8278 128.793 90.8387 133.764 90.8387Z" fill="#DEE1E6"/>
<path d="M112.395 24.2617C112.395 30.2715 117.292 35.14 123.338 35.14C123.338 29.1368 118.434 24.2617 112.395 24.2617Z" fill="#84E8F4"/>
<path d="M121.852 37.0664C117.446 37.0664 113.875 40.6155 113.875 44.9959C118.282 45.0025 121.852 41.4467 121.852 37.0664Z" fill="#84E8F4"/>
<path d="M109.661 44.2036C109.661 40.7007 106.8 37.8574 103.277 37.8574C103.277 41.367 106.13 44.2036 109.661 44.2036Z" fill="#B3B3B3"/>
<path d="M111.427 24.7773C105.952 24.7773 101.512 29.1907 101.512 34.6331C106.987 34.6331 111.427 30.2198 111.427 24.7773Z" fill="#84E8F4"/>
<path d="M168.185 81.6543C162.963 81.6543 158.729 85.8631 158.729 91.0615C163.951 91.0615 168.185 86.8527 168.185 81.6543Z" fill="#84E8F4"/>
<path d="M179.181 90.6656C179.181 85.9092 175.306 82.0566 170.521 82.0566C170.521 86.813 174.397 90.6656 179.181 90.6656Z" fill="#84E8F4"/>
<path d="M167.27 150.553C163.049 150.553 159.632 153.95 159.632 158.146C163.852 158.146 167.27 154.748 167.27 150.553Z" fill="#DEE1E6"/>
<path d="M160.547 140.129C160.547 143.322 163.148 145.908 166.36 145.908C166.36 142.715 163.759 140.129 160.547 140.129Z" fill="#84E8F4"/>
<path d="M155.875 139.219C151.654 139.219 148.237 142.616 148.237 146.812C152.457 146.812 155.875 143.414 155.875 139.219Z" fill="#DEE1E6"/>
</svg>
