<svg width="36" height="36" viewBox="0 0 36 36" fill="none" xmlns="http://www.w3.org/2000/svg">
<path d="M29.299 28.4436H7.55643V6.701C7.55643 6.23763 7.16435 5.84555 6.70099 5.84555C6.23762 5.84555 5.84554 6.23763 5.84554 6.701V29.299C5.84554 29.7624 6.23762 30.1545 6.70099 30.1545H29.299C29.7624 30.1545 30.1544 29.7624 30.1544 29.299C30.1544 28.8356 29.7624 28.4436 29.299 28.4436V28.4436Z" fill="#3178F6"/>
<path d="M15.8614 25.1287V12.796C15.8614 12.3327 15.4693 11.9406 15.0059 11.9406C14.5426 11.9406 14.1505 12.3327 14.1505 12.796V25.1644C14.1505 25.6277 14.5426 26.0198 15.0059 26.0198C15.4693 26.0198 15.8614 25.6277 15.8614 25.1287ZM11.7267 25.1287V12.796C11.7267 12.3327 11.3347 11.9406 10.8713 11.9406C10.4079 11.9406 10.0158 12.3327 10.0158 12.796V25.1644C10.0158 25.6277 10.4079 26.0198 10.8713 26.0198C11.3347 25.9842 11.7267 25.6277 11.7267 25.1287ZM24.1663 25.1287V12.796C24.1663 12.3327 23.7743 11.9406 23.3109 11.9406C22.8475 11.9406 22.4554 12.3327 22.4554 12.796V25.1644C22.4554 25.6277 22.8475 26.0198 23.3109 26.0198C23.7743 25.9842 24.1663 25.6277 24.1663 25.1287ZM28.301 25.1287V18.9624C28.301 18.499 27.9089 18.1069 27.4455 18.1069C26.9822 18.1069 26.5901 18.499 26.5901 18.9624V25.1287C26.5901 25.5921 26.9822 25.9842 27.4455 25.9842C27.9089 25.9842 28.301 25.6277 28.301 25.1287ZM19.996 25.1287V18.9624C19.996 18.499 19.604 18.1069 19.1406 18.1069C18.6772 18.1069 18.2851 18.499 18.2851 18.9624V25.1287C18.2851 25.5921 18.6772 25.9842 19.1406 25.9842C19.604 25.9842 19.996 25.6277 19.996 25.1287Z" fill="#3178F6"/>
</svg>
