<svg width="36" height="36" viewBox="0 0 36 36" fill="none" xmlns="http://www.w3.org/2000/svg">
<path d="M33.3633 6.85547H6.85547C6.24015 6.8564 5.64447 7.07217 5.17129 7.4655C4.6981 7.85884 4.37711 8.40506 4.26375 9.00984C3.7406 9.10807 3.25931 9.362 2.88292 9.73839C2.50653 10.1148 2.2526 10.5961 2.15437 11.1192C1.54959 11.2326 1.00337 11.5536 0.610034 12.0268C0.216698 12.4999 0.000934437 13.0956 0 13.7109L0 26.5078C0.000744487 27.2069 0.27878 27.8771 0.773099 28.3714C1.26742 28.8658 1.93765 29.1438 2.63672 29.1445H29.1445C29.7598 29.1436 30.3555 28.9278 30.8287 28.5345C31.3019 28.1412 31.6229 27.5949 31.7362 26.9902C32.2594 26.8919 32.7407 26.638 33.1171 26.2616C33.4935 25.8852 33.7474 25.4039 33.8456 24.8808C34.4504 24.7674 34.9966 24.4464 35.39 23.9732C35.7833 23.5001 35.9991 22.9044 36 22.2891V9.49219C35.9993 8.79311 35.7212 8.12289 35.2269 7.62857C34.7326 7.13425 34.0624 6.85621 33.3633 6.85547V6.85547ZM1.05469 13.7109C1.05506 13.2915 1.22186 12.8893 1.51847 12.5927C1.81507 12.2961 2.21725 12.1293 2.63672 12.1289H4.18359C4.06896 12.918 3.70241 13.6489 3.13857 14.2128C2.57473 14.7766 1.84379 15.1432 1.05469 15.2578V13.7109ZM2.63672 28.0898C2.21725 28.0895 1.81507 27.9227 1.51847 27.6261C1.22186 27.3295 1.05506 26.9273 1.05469 26.5078V24.9609C1.84328 25.0761 2.57359 25.4429 3.13687 26.0067C3.70015 26.5705 4.0663 27.3011 4.18078 28.0898H2.63672ZM30.7266 26.5078C30.7262 26.9273 30.5594 27.3295 30.2628 27.6261C29.9662 27.9227 29.564 28.0895 29.1445 28.0898H27.5977C27.7123 27.3007 28.0788 26.5698 28.6427 26.006C29.2065 25.4421 29.9375 25.0756 30.7266 24.9609V26.5078ZM30.7266 23.8999C29.6571 24.0212 28.6604 24.5016 27.8994 25.2626C27.1383 26.0237 26.6579 27.0204 26.5366 28.0898H5.24461C5.12337 27.0204 4.64296 26.0237 3.8819 25.2626C3.12084 24.5016 2.12414 24.0212 1.05469 23.8999V16.3188C2.12414 16.1976 3.12084 15.7172 3.8819 14.9561C4.64296 14.1951 5.12337 13.1984 5.24461 12.1289H26.5366C26.6579 13.1984 27.1383 14.1951 27.8994 14.9561C28.6604 15.7172 29.6571 16.1976 30.7266 16.3188V23.8999ZM30.7266 15.2515C29.9384 15.1364 29.2084 14.7701 28.6451 14.2068C28.0819 13.6436 27.7155 12.9136 27.6005 12.1254H29.1473C29.5669 12.1265 29.9689 12.2941 30.265 12.5914C30.5611 12.8887 30.7271 13.2913 30.7266 13.7109V15.2515ZM32.8359 24.3921C32.8355 24.7191 32.7339 25.038 32.545 25.305C32.3562 25.572 32.0894 25.774 31.7812 25.8834V13.7109C31.7805 13.0119 31.5025 12.3416 31.0082 11.8473C30.5138 11.353 29.8436 11.075 29.1445 11.0742H3.25477C3.36416 10.766 3.56621 10.4992 3.8332 10.3104C4.1002 10.1216 4.41907 10.02 4.74609 10.0195H31.2539C31.6734 10.0199 32.0756 10.1867 32.3722 10.4833C32.6688 10.7799 32.8356 11.1821 32.8359 11.6016V24.3921ZM34.9453 22.2827C34.9449 22.6098 34.8432 22.9286 34.6544 23.1956C34.4656 23.4626 34.1988 23.6647 33.8906 23.7741V11.6016C33.8899 10.9025 33.6118 10.2323 33.1175 9.73794C32.6232 9.24362 31.953 8.96559 31.2539 8.96484H5.36414C5.47353 8.65666 5.67558 8.38987 5.94258 8.20104C6.20958 8.01222 6.52845 7.91061 6.85547 7.91016H33.3633C33.7827 7.91053 34.1849 8.07733 34.4815 8.37393C34.7781 8.67054 34.9449 9.07272 34.9453 9.49219V22.2827ZM28.5469 20.6304C28.6512 20.6304 28.7531 20.5995 28.8399 20.5415C28.9266 20.4836 28.9942 20.4012 29.0341 20.3049C29.074 20.2085 29.0844 20.1025 29.0641 20.0002C29.0437 19.8979 28.9935 19.8039 28.9198 19.7302C28.846 19.6564 28.752 19.6062 28.6498 19.5858C28.5475 19.5655 28.4414 19.5759 28.3451 19.6158C28.2487 19.6558 28.1663 19.7233 28.1084 19.8101C28.0505 19.8968 28.0195 19.9987 28.0195 20.103C28.0187 20.1728 28.0317 20.2421 28.0578 20.3068C28.084 20.3715 28.1227 20.4304 28.1717 20.48C28.2208 20.5297 28.2792 20.5691 28.3436 20.596C28.408 20.6229 28.4771 20.6367 28.5469 20.6367V20.6304ZM3.23438 19.5757C3.13008 19.5757 3.02812 19.6066 2.9414 19.6646C2.85468 19.7225 2.78709 19.8049 2.74717 19.9012C2.70726 19.9976 2.69682 20.1036 2.71716 20.2059C2.73751 20.3082 2.78774 20.4022 2.86149 20.4759C2.93524 20.5497 3.0292 20.5999 3.1315 20.6203C3.23379 20.6406 3.33982 20.6302 3.43618 20.5903C3.53254 20.5503 3.6149 20.4827 3.67285 20.396C3.73079 20.3093 3.76172 20.2073 3.76172 20.103C3.76005 19.9643 3.70376 19.8318 3.60504 19.7342C3.50633 19.6367 3.37315 19.582 3.23438 19.582V19.5757ZM15.8906 13.0781C14.2639 13.0781 12.6875 13.6421 11.43 14.6741C10.1725 15.706 9.31178 17.1421 8.9944 18.7376C8.67702 20.333 8.92267 21.9892 9.68948 23.4238C10.4563 24.8585 11.6968 25.9828 13.1997 26.6054C14.7026 27.2279 16.3748 27.3101 17.9315 26.8379C19.4882 26.3657 20.833 25.3683 21.7368 24.0158C22.6405 22.6632 23.0474 21.0391 22.8879 19.4203C22.7285 17.8014 22.0127 16.2879 20.8624 15.1376C20.2111 14.4826 19.4362 13.9633 18.5828 13.6098C17.7294 13.2563 16.8144 13.0756 15.8906 13.0781ZM20.1164 24.3352C19.1386 25.3128 17.8521 25.9212 16.476 26.0566C15.0999 26.1921 13.7195 25.8462 12.5699 25.0779C11.4202 24.3096 10.5726 23.1665 10.1713 21.8433C9.77 20.52 9.83994 19.0986 10.3692 17.8212C10.8984 16.5438 11.8542 15.4894 13.0737 14.8377C14.2932 14.186 15.701 13.9773 17.0571 14.2472C18.4132 14.5171 19.6338 15.2488 20.5109 16.3177C21.388 17.3867 21.8673 18.7267 21.8672 20.1094C21.8694 20.8945 21.7158 21.6723 21.4152 22.3977C21.1147 23.1231 20.6732 23.7816 20.1164 24.3352V24.3352ZM18.6588 16.9263C18.6588 16.7865 18.6033 16.6523 18.5044 16.5534C18.4055 16.4545 18.2713 16.399 18.1315 16.399H13.6498C13.5099 16.399 13.3758 16.4545 13.2769 16.5534C13.178 16.6523 13.1224 16.7865 13.1224 16.9263C13.1224 17.0662 13.178 17.2003 13.2769 17.2992C13.3758 17.3981 13.5099 17.4537 13.6498 17.4537H15.2163C15.4864 17.4542 15.7502 17.5346 15.9746 17.6848C16.1991 17.8349 16.3741 18.0481 16.4777 18.2974H13.6498C13.5099 18.2974 13.3758 18.353 13.2769 18.4519C13.178 18.5508 13.1224 18.6849 13.1224 18.8248C13.1224 18.9646 13.178 19.0988 13.2769 19.1977C13.3758 19.2965 13.5099 19.3521 13.6498 19.3521H16.4777C16.3736 19.6008 16.1983 19.8132 15.9739 19.9627C15.7495 20.1122 15.486 20.1921 15.2163 20.1923H13.6455H13.6153H13.5928L13.5668 20.1966C13.5584 20.1966 13.5499 20.1966 13.5415 20.2008L13.5218 20.2057L13.4916 20.2134L13.4754 20.2191L13.4437 20.231C13.4356 20.2346 13.4276 20.2386 13.4198 20.243C13.4124 20.2461 13.4051 20.2496 13.398 20.2535C13.3901 20.2578 13.3823 20.2625 13.3748 20.2676L13.3537 20.2802L13.3355 20.2936L13.3123 20.3112L13.2975 20.3252L13.2736 20.347L13.2623 20.3597C13.2553 20.3674 13.2483 20.3752 13.242 20.3836C13.2356 20.392 13.2321 20.3963 13.2272 20.4026L13.2117 20.4251C13.2068 20.4321 13.2026 20.4398 13.1984 20.4469C13.1936 20.4541 13.1894 20.4616 13.1857 20.4694L13.1738 20.4926C13.1738 20.5003 13.1667 20.508 13.1639 20.5158C13.1611 20.5235 13.1576 20.532 13.1548 20.5404C13.152 20.5488 13.1491 20.5566 13.147 20.565C13.1449 20.5734 13.1421 20.5819 13.14 20.5903C13.1379 20.5987 13.1365 20.6065 13.1344 20.6149C13.1323 20.6234 13.1344 20.6332 13.1344 20.6423C13.1344 20.6515 13.1344 20.6578 13.1309 20.6655C13.1273 20.6733 13.1309 20.6866 13.1309 20.6972C13.1309 20.7077 13.1309 20.7084 13.1309 20.7141V20.7176C13.1309 20.7288 13.1309 20.7394 13.1309 20.7506C13.1309 20.7619 13.1309 20.764 13.1309 20.7703C13.1309 20.7766 13.1309 20.79 13.1358 20.7998C13.1407 20.8097 13.1358 20.8146 13.1358 20.8216C13.1358 20.8287 13.14 20.8392 13.1421 20.8477C13.1442 20.8561 13.1456 20.8638 13.1484 20.8716C13.1512 20.8793 13.1548 20.8898 13.1583 20.899C13.1618 20.9081 13.1632 20.913 13.166 20.9194C13.1688 20.9257 13.1766 20.9419 13.1822 20.9531C13.184 20.9575 13.1861 20.9617 13.1885 20.9658C13.1936 20.9752 13.1993 20.9844 13.2054 20.9932C13.2083 20.9988 13.2115 21.0042 13.2152 21.0094C13.2199 21.0167 13.2251 21.0238 13.2307 21.0305C13.2355 21.0376 13.2406 21.0444 13.2462 21.0509L13.2609 21.067L13.282 21.0895L16.6711 24.3689C16.7208 24.4175 16.7796 24.4558 16.8441 24.4816C16.9086 24.5074 16.9776 24.5202 17.0471 24.5192C17.1166 24.5183 17.1852 24.5036 17.249 24.476C17.3128 24.4485 17.3705 24.4086 17.4188 24.3586C17.4672 24.3087 17.5051 24.2497 17.5306 24.185C17.556 24.1203 17.5684 24.0513 17.5671 23.9818C17.5658 23.9123 17.5507 23.8438 17.5228 23.7801C17.4949 23.7165 17.4547 23.659 17.4045 23.6109L14.952 21.2379H15.2156C15.7652 21.237 16.2981 21.0497 16.7273 20.7064C17.1565 20.3632 17.4565 19.8845 17.5781 19.3486H18.1294C18.2692 19.3486 18.4034 19.293 18.5023 19.1941C18.6012 19.0952 18.6567 18.9611 18.6567 18.8212C18.6567 18.6814 18.6012 18.5473 18.5023 18.4484C18.4034 18.3495 18.2692 18.2939 18.1294 18.2939H17.5781C17.5114 17.9918 17.3873 17.7054 17.2125 17.4502H18.1266C18.1959 17.4508 18.2647 17.4378 18.3291 17.4118C18.3934 17.3858 18.4519 17.3474 18.5014 17.2987C18.5508 17.25 18.5902 17.1921 18.6172 17.1282C18.6442 17.0643 18.6584 16.9957 18.6588 16.9263V16.9263Z" fill="#3178F6"/>
</svg>
