<svg width="34" height="36" viewBox="0 0 34 36" fill="none" xmlns="http://www.w3.org/2000/svg">
<path d="M19.7823 12.8353C22.3227 14.2518 23.3369 17.3667 22.0404 19.9647C20.6899 22.6709 17.3436 23.7915 14.5661 22.4675C11.7886 21.1434 10.6318 17.8762 11.9823 15.17C12.8212 13.489 14.4638 12.3705 16.332 12.1504C16.7213 12.1045 17.0757 12.3753 17.1236 12.7551C17.1716 13.1349 16.8949 13.48 16.5057 13.5258C15.1103 13.6903 13.8857 14.5241 13.2596 15.7788C12.252 17.7978 13.115 20.2352 15.1871 21.223C17.2592 22.2107 19.7557 21.3748 20.7632 19.3558C21.7707 17.3368 20.9077 14.8994 18.8357 13.9116C18.5362 13.7689 18.3851 13.4482 18.4513 13.1443C18.3943 13.0446 18.3618 12.9299 18.3618 12.8077V1.38462H15.6382V6.06103L15.0452 6.15796C12.0946 6.64029 9.46103 8.21001 7.66162 10.5159L7.28278 11.0014L2.91307 8.54316L1.55125 10.8415L6.02502 13.3582L5.84731 13.8913C5.47056 15.0217 5.27644 16.2091 5.27644 17.4231C5.27644 18.9641 5.58937 20.4613 6.18911 21.85L6.43215 22.4128L1.55125 25.1585L2.91307 27.4568L7.9024 24.6501L8.28742 25.0664C10.0529 26.9757 12.4269 28.2602 15.0452 28.6882L15.6382 28.7851V34.6154H18.3618V28.7851L18.9548 28.6882C21.5731 28.2602 23.9471 26.9757 25.7126 25.0664L26.0976 24.6501L31.0869 27.4568L32.4487 25.1585L27.5678 22.4128L27.8109 21.85C28.4106 20.4613 28.7236 18.9641 28.7236 17.4231C28.7236 16.2091 28.5294 15.0217 28.1527 13.8913L27.975 13.3582L32.4487 10.8415L31.0869 8.54316L26.7172 11.0014L26.3384 10.5159C25.1791 9.03034 23.6621 7.83824 21.9246 7.05348C21.5686 6.89267 21.4138 6.48111 21.5788 6.13422C21.7439 5.78733 22.1663 5.63647 22.5223 5.79727C24.2802 6.59131 25.8361 7.75658 27.0777 9.19974L30.6841 7.17097C31.1938 6.8842 31.8456 7.05438 32.1399 7.55107L33.857 10.4489C34.1513 10.9456 33.9767 11.5807 33.4669 11.8675L29.6706 14.0032C29.9839 15.1074 30.1446 16.255 30.1446 17.4231C30.1446 18.9407 29.8733 20.4223 29.3505 21.8168L33.4669 24.1325C33.9767 24.4193 34.1513 25.0544 33.857 25.5511L32.1399 28.4489C31.8456 28.9456 31.1938 29.1158 30.6841 28.829L26.3722 26.4034C24.5808 28.1784 22.2956 29.415 19.7829 29.943V34.9615C19.7829 35.5351 19.3057 36 18.7171 36H15.2829C14.6943 36 14.2171 35.5351 14.2171 34.9615V29.943C11.7044 29.415 9.41916 28.1784 7.62783 26.4034L3.31592 28.829C2.80617 29.1158 2.15435 28.9456 1.86004 28.4489L0.142967 25.5511C-0.151339 25.0544 0.023307 24.4193 0.533061 24.1325L4.64947 21.8168C4.12673 20.4223 3.8554 18.9407 3.8554 17.4231C3.8554 16.255 4.01611 15.1074 4.32941 14.0032L0.533061 11.8675C0.023307 11.5807 -0.151339 10.9456 0.142967 10.4489L1.86004 7.55107C2.15435 7.05438 2.80617 6.8842 3.31592 7.17097L6.92224 9.19972C8.79207 7.02584 11.3539 5.50493 14.2171 4.90316V1.03846C14.2171 0.464935 14.6943 0 15.2829 0H18.7171C19.3057 0 19.7829 0.464935 19.7829 1.03846V12.8077C19.7829 12.8169 19.7827 12.8261 19.7823 12.8353Z" fill="#3178F6"/>
</svg>
