<svg width="250" height="253" viewBox="0 0 250 253" fill="none" xmlns="http://www.w3.org/2000/svg">
<path d="M125 250C194.036 250 250 194.036 250 125C250 55.9644 194.036 0 125 0C55.9644 0 0 55.9644 0 125C0 194.036 55.9644 250 125 250Z" fill="url(#paint0_linear_1215_1005)"/>
<g filter="url(#filter0_d_1215_1005)">
<mask id="mask0_1215_1005" style="mask-type:alpha" maskUnits="userSpaceOnUse" x="0" y="0" width="250" height="250">
<path d="M125 250C194.036 250 250 194.036 250 125C250 55.9644 194.036 0 125 0C55.9644 0 0 55.9644 0 125C0 194.036 55.9644 250 125 250Z" fill="url(#paint1_linear_1215_1005)"/>
</mask>
<g mask="url(#mask0_1215_1005)">
<path d="M196.667 71.666H53.3333C48.731 71.666 45 75.397 45 79.9993V254.999C45 259.602 48.731 263.333 53.3333 263.333H196.667C201.269 263.333 205 259.602 205 254.999V79.9993C205 75.397 201.269 71.666 196.667 71.666Z" fill="white"/>
</g>
</g>
<path d="M110 88.334H66.6665C63.9051 88.334 61.6665 90.5726 61.6665 93.334C61.6665 96.0954 63.9051 98.334 66.6665 98.334H110C112.761 98.334 115 96.0954 115 93.334C115 90.5726 112.761 88.334 110 88.334Z" fill="#E1EBFA"/>
<path d="M110 158.334H66.6665C63.9051 158.334 61.6665 160.573 61.6665 163.334C61.6665 166.095 63.9051 168.334 66.6665 168.334H110C112.761 168.334 115 166.095 115 163.334C115 160.573 112.761 158.334 110 158.334Z" fill="#E1EBFA"/>
<path d="M180 113.332H69.9997C66.3178 113.332 63.333 116.317 63.333 119.999V136.665C63.333 140.347 66.3178 143.332 69.9997 143.332H180C183.682 143.332 186.666 140.347 186.666 136.665V119.999C186.666 116.317 183.682 113.332 180 113.332Z" stroke="#3178F6" stroke-width="2"/>
<path d="M180 181.666H69.9998C65.3975 181.666 61.6665 185.397 61.6665 189.999V203.333C61.6665 207.935 65.3975 211.666 69.9998 211.666H180C184.602 211.666 188.333 207.935 188.333 203.333V189.999C188.333 185.397 184.602 181.666 180 181.666Z" fill="#DFEAFB"/>
<path d="M88.3332 53.3333C92.0151 53.3333 94.9998 50.3486 94.9998 46.6667C94.9998 42.9848 92.0151 40 88.3332 40C84.6513 40 81.6665 42.9848 81.6665 46.6667C81.6665 50.3486 84.6513 53.3333 88.3332 53.3333Z" fill="white"/>
<path d="M125 53.3333C128.682 53.3333 131.666 50.3486 131.666 46.6667C131.666 42.9848 128.682 40 125 40C121.318 40 118.333 42.9848 118.333 46.6667C118.333 50.3486 121.318 53.3333 125 53.3333Z" fill="#3178F6"/>
<path d="M161.667 53.3333C165.349 53.3333 168.333 50.3486 168.333 46.6667C168.333 42.9848 165.349 40 161.667 40C157.985 40 155 42.9848 155 46.6667C155 50.3486 157.985 53.3333 161.667 53.3333Z" fill="white"/>
<path d="M143.333 146.667C147.936 146.667 151.667 142.936 151.667 138.333C151.667 133.731 147.936 130 143.333 130C138.731 130 135 133.731 135 138.333C135 142.936 138.731 146.667 143.333 146.667Z" fill="#DFEAFB"/>
<path d="M149.845 173.949C148.512 173.949 147.267 173.949 146.133 173.878C144.737 173.783 143.395 173.306 142.252 172.497C141.11 171.689 140.213 170.581 139.66 169.296L132.628 155.399C132.113 154.799 131.855 154.019 131.912 153.229C131.969 152.44 132.335 151.705 132.932 151.184C133.42 150.792 134.03 150.58 134.657 150.586C135.118 150.599 135.571 150.713 135.985 150.918C136.398 151.124 136.762 151.416 137.052 151.776L140.245 156.134L140.293 156.191V139.633C140.293 138.811 140.62 138.023 141.201 137.442C141.782 136.861 142.569 136.535 143.391 136.535C144.212 136.535 145 136.861 145.581 137.442C146.162 138.023 146.488 138.811 146.488 139.633V150.466C146.452 150.067 146.5 149.666 146.628 149.286C146.756 148.907 146.961 148.559 147.231 148.263C147.501 147.968 147.83 147.732 148.196 147.57C148.562 147.409 148.958 147.325 149.358 147.325C149.759 147.325 150.155 147.409 150.521 147.57C150.887 147.732 151.216 147.968 151.486 148.263C151.756 148.559 151.961 148.907 152.089 149.286C152.217 149.666 152.264 150.067 152.228 150.466V152.724C152.192 152.326 152.24 151.924 152.368 151.545C152.496 151.165 152.701 150.817 152.971 150.521C153.241 150.226 153.57 149.99 153.936 149.828C154.302 149.667 154.698 149.584 155.098 149.584C155.499 149.584 155.895 149.667 156.261 149.828C156.627 149.99 156.956 150.226 157.226 150.521C157.496 150.817 157.701 151.165 157.829 151.545C157.957 151.924 158.004 152.326 157.968 152.724V154.464C157.932 154.066 157.98 153.664 158.108 153.285C158.236 152.905 158.441 152.557 158.711 152.261C158.981 151.966 159.31 151.73 159.676 151.568C160.042 151.407 160.438 151.324 160.838 151.324C161.239 151.324 161.635 151.407 162.001 151.568C162.367 151.73 162.696 151.966 162.966 152.261C163.236 152.557 163.441 152.905 163.569 153.285C163.697 153.664 163.744 154.066 163.708 154.464V165.026C163.652 168.274 162.183 173.751 157.018 173.751C156.643 173.768 153.467 173.951 149.852 173.951L149.845 173.949Z" fill="#3178F6" stroke="white"/>
<defs>
<filter id="filter0_d_1215_1005" x="39" y="62.666" width="172" height="190.334" filterUnits="userSpaceOnUse" color-interpolation-filters="sRGB">
<feFlood flood-opacity="0" result="BackgroundImageFix"/>
<feColorMatrix in="SourceAlpha" type="matrix" values="0 0 0 0 0 0 0 0 0 0 0 0 0 0 0 0 0 0 127 0" result="hardAlpha"/>
<feOffset dy="-3"/>
<feGaussianBlur stdDeviation="3"/>
<feColorMatrix type="matrix" values="0 0 0 0 0.788235 0 0 0 0 0.803922 0 0 0 0 0.85098 0 0 0 0.349 0"/>
<feBlend mode="normal" in2="BackgroundImageFix" result="effect1_dropShadow_1215_1005"/>
<feBlend mode="normal" in="SourceGraphic" in2="effect1_dropShadow_1215_1005" result="shape"/>
</filter>
<linearGradient id="paint0_linear_1215_1005" x1="125" y1="0" x2="125" y2="250" gradientUnits="userSpaceOnUse">
<stop stop-color="#E3ECFA"/>
<stop offset="1" stop-color="#DAE7FF"/>
</linearGradient>
<linearGradient id="paint1_linear_1215_1005" x1="125" y1="0" x2="125" y2="250" gradientUnits="userSpaceOnUse">
<stop stop-color="#E3ECFA"/>
<stop offset="1" stop-color="#DAE7FF"/>
</linearGradient>
</defs>
</svg>
