<svg width="36" height="36" viewBox="0 0 36 36" fill="none" xmlns="http://www.w3.org/2000/svg">
<path d="M7.76812 23.9344C7.55437 23.7206 7.21125 23.7206 6.9975 23.9344L5.8725 25.0594L4.7475 23.9344C4.53375 23.7206 4.19062 23.7206 3.97687 23.9344C3.76312 24.1481 3.76312 24.4912 3.97687 24.705L5.10187 25.83L3.97687 26.955C3.76312 27.1687 3.76312 27.5119 3.97687 27.7256C4.08375 27.8325 4.22437 27.8831 4.365 27.8831C4.50562 27.8831 4.64625 27.8325 4.75312 27.7256L5.87812 26.6006L7.00312 27.7256C7.11 27.8325 7.25062 27.8831 7.39125 27.8831C7.53187 27.8831 7.6725 27.8325 7.77937 27.7256C7.99312 27.5119 7.99312 27.1687 7.77937 26.955L6.65437 25.83L7.77937 24.705C7.98187 24.4969 7.98187 24.1481 7.76812 23.9344Z" fill="#3178F6"/>
<path d="M34.7625 9.56812H33.9694V4.8375C33.9694 4.53375 33.7275 4.29187 33.4237 4.29187H7.0875C5.33813 4.29187 3.90937 5.71499 3.90937 7.46999C3.90937 7.51499 3.915 7.55437 3.915 7.59937C3.915 7.605 3.90937 7.61625 3.90937 7.62187V20.3006C1.63687 21.1106 0 23.2819 0 25.83C0 29.07 2.6325 31.7025 5.8725 31.7025C7.79625 31.7025 9.50062 30.7687 10.575 29.3344H34.0031C35.1056 29.3344 36 28.44 36 27.3375V10.8056C36 10.125 35.4431 9.56812 34.7625 9.56812ZM34.9088 21.7912H30.7575C29.5763 21.7912 28.6144 20.8294 28.6144 19.6481C28.6144 18.4669 29.5763 17.505 30.7575 17.505H34.9088V21.7912ZM7.0875 5.38312H32.8725V9.55687H7.0875C5.93438 9.55687 5.00063 8.62312 5.00063 7.46999C5.00063 6.32249 5.94 5.38312 7.0875 5.38312ZM5.8725 30.6169C3.23437 30.6169 1.09125 28.4737 1.09125 25.8356C1.09125 23.1975 3.23437 21.0544 5.8725 21.0544C8.51062 21.0544 10.6538 23.1975 10.6538 25.8356C10.6538 28.4737 8.51062 30.6169 5.8725 30.6169ZM34.0031 28.2487H11.2219C11.5594 27.5119 11.745 26.6962 11.745 25.8356C11.745 22.5956 9.1125 19.9631 5.8725 19.9631C5.57437 19.9631 5.2875 19.9912 5.00625 20.0362V9.86625C5.56312 10.3556 6.29437 10.6537 7.09312 10.6537H33.0469C33.0637 10.6537 33.075 10.665 33.0919 10.665H34.7625C34.8412 10.665 34.9088 10.7325 34.9088 10.8112V16.425H30.7575C28.9744 16.425 27.5231 17.8762 27.5231 19.6594C27.5231 21.4425 28.9744 22.8937 30.7575 22.8937H34.9088V27.3544C34.9088 27.8437 34.5038 28.2487 34.0031 28.2487Z" fill="#3178F6"/>
<path d="M8.81438 8.17313H29.8181C30.1219 8.17313 30.3638 7.93125 30.3638 7.6275C30.3638 7.32375 30.1219 7.08188 29.8181 7.08188H8.81438C8.51063 7.08188 8.26875 7.32375 8.26875 7.6275C8.26875 7.92563 8.51625 8.17313 8.81438 8.17313ZM30.0994 19.6481C30.0994 20.565 30.8419 21.3075 31.7588 21.3075C32.6756 21.3075 33.4181 20.565 33.4181 19.6481C33.4181 18.7313 32.6756 17.9888 31.7588 17.9888C30.8419 17.9888 30.0994 18.7369 30.0994 19.6481ZM31.7588 19.08C32.0738 19.08 32.3269 19.3331 32.3269 19.6481C32.3269 19.9631 32.0738 20.2163 31.7588 20.2163C31.4438 20.2163 31.1906 19.9631 31.1906 19.6481C31.1906 19.3388 31.4494 19.08 31.7588 19.08Z" fill="#3178F6"/>
</svg>
