<svg width="88" height="88" viewBox="0 0 88 88" fill="none" xmlns="http://www.w3.org/2000/svg">
<path d="M22.5 18.0605V17.7528L22.2253 17.6142C19.5707 16.2744 18.1 13.7394 18.1 11.4136C18.1 9.67604 18.7878 8.01133 19.5012 6.75827C19.8554 6.13613 20.2098 5.62606 20.475 5.27238C20.48 5.26581 20.4848 5.25929 20.4897 5.25283C21.464 6.67515 22.584 7.67487 24.1757 8.32012C25.9496 9.03922 28.2675 9.29999 31.5333 9.29999C37.3336 9.29999 42.0333 13.9997 42.0333 19.8V26.4C42.0333 30.0951 39.9792 33.3115 36.95 34.9712L36.6198 35.1522L36.7025 35.5195L37.5568 39.3155C37.5181 39.3325 37.4766 39.3506 37.4322 39.3696C37.1216 39.5027 36.6764 39.6808 36.1419 39.859C35.0668 40.2173 33.6577 40.5667 32.2667 40.5667C30.8756 40.5667 29.4665 40.2173 28.3915 39.859C27.8569 39.6808 27.4117 39.5027 27.1011 39.3696C27.0568 39.3506 27.0152 39.3325 26.9765 39.3155L27.8309 35.5195L27.9135 35.1522L27.5833 34.9712C24.5542 33.3115 22.5 30.0951 22.5 26.4V18.0605Z" fill="white" fill-opacity="0.2" stroke="white"/>
<path d="M59.1667 57.9885C61.8286 58.7866 63.8078 61.1645 64.0153 64.0333H59.1667V57.9885Z" fill="white" fill-opacity="0.2" stroke="white"/>
<path d="M63.1007 67.9667C61.9169 70.0003 59.7192 71.3667 57.2 71.3667C55.9715 71.3667 54.8241 71.0329 53.8267 70.4589L57.5187 67.9667H63.1007Z" fill="white" fill-opacity="0.2" stroke="white"/>
<path d="M51.0978 67.5543C50.6365 66.6395 50.3666 65.6205 50.3666 64.5333C50.3666 61.4437 52.418 58.8339 55.2333 57.9887V64.7633L51.0978 67.5543Z" fill="white" fill-opacity="0.2" stroke="white"/>
<path d="M40.1 58.6667C40.1 58.1317 40.5317 57.7 41.0666 57.7H46.9333C47.4682 57.7 47.9 58.1317 47.9 58.6667C47.9 59.2016 47.4682 59.6333 46.9333 59.6333H41.0666C40.5317 59.6333 40.1 59.2016 40.1 58.6667Z" fill="white" fill-opacity="0.2" stroke="white"/>
<path d="M40.1 64.5333C40.1 63.9984 40.5317 63.5667 41.0666 63.5667H45.4666C46.0016 63.5667 46.4333 63.9984 46.4333 64.5333C46.4333 65.0683 46.0016 65.5 45.4666 65.5H41.0666C40.5317 65.5 40.1 65.0683 40.1 64.5333Z" fill="white" fill-opacity="0.2" stroke="white"/>
<path d="M20.0333 69.4333V68.9333V60.1333C20.0333 59.0461 20.9128 58.1667 22 58.1667C23.0872 58.1667 23.9667 59.0461 23.9667 60.1333V65.5H28.8333V54.2667C28.8333 49.9469 32.3469 46.4333 36.6667 46.4333H49.3543C48.6915 45.6394 47.9203 44.935 47.0461 44.3515L20.0333 69.4333ZM20.0333 69.4333H20.5333M20.0333 69.4333H20.5333M20.5333 69.4333H32.2667C34.4194 69.4333 36.1667 71.1793 36.1667 73.3333C36.1667 75.4873 34.4194 77.2333 32.2667 77.2333H16.1333C13.1755 77.2333 10.7667 74.8348 10.7667 71.8799V71.8798C10.7652 63.7771 11.876 56.2228 12.728 51.6209L12.7281 51.6207M20.5333 69.4333L12.7281 51.6207M12.7281 51.6207C13.2775 48.6488 14.9811 46.0246 17.4874 44.3514L12.7281 51.6207ZM41.5075 41.76L39.6689 42.6714C39.6688 42.6715 39.6686 42.6716 39.6685 42.6716C39.2897 42.8602 35.9113 44.5 32.2667 44.5C28.6259 44.5 25.2507 42.8637 24.866 42.6722C24.8655 42.672 24.865 42.6717 24.8644 42.6714L23.01 41.7639C22.5075 41.9871 21.9722 42.212 21.4389 42.4361C21.0041 42.6187 20.5707 42.8008 20.1577 42.9808C19.1408 43.4242 18.2072 43.8715 17.4875 44.3513L41.5075 41.76ZM41.5075 41.76C42.0055 41.9804 42.5364 42.2029 43.0653 42.4247C43.5077 42.6101 43.9487 42.795 44.3682 42.9776C45.3879 43.4216 46.324 43.8701 47.0459 44.3513L41.5075 41.76Z" fill="white" fill-opacity="0.2" stroke="white"/>
<path d="M71.3667 77.7333V78.2333H71.8667H74.3V80.6667C74.3 82.8207 72.5528 84.5667 70.4 84.5667H33.7333C31.7499 84.5667 30.1107 83.0845 29.8651 81.1667H32.2667C34.7302 81.1667 36.9075 80.0078 38.3403 78.2333H67.4667H67.9667V77.7333V54.2667V53.7667H67.4667H36.6667H36.1667V54.2667V66.5689C35.1564 65.977 34.0049 65.5975 32.7667 65.5163V54.2667C32.7667 52.1127 34.5139 50.3667 36.6667 50.3667H67.4667C69.6194 50.3667 71.3667 52.1127 71.3667 54.2667V77.7333Z" fill="white" fill-opacity="0.2" stroke="white"/>
<path d="M19.5667 84.5667V81.1667H25.9163C25.9975 82.4049 26.377 83.5564 26.9689 84.5667H19.5667Z" fill="white" fill-opacity="0.2" stroke="white"/>
<path d="M60.1334 33.2333H59.982L59.856 33.3173L51.6236 38.8056C51.3361 38.9973 50.997 39.1 50.6514 39.1C49.685 39.1 48.9 38.316 48.9 37.3487V11.7333C48.9 10.3903 49.9903 9.3 51.3334 9.3H76.2667C77.6097 9.3 78.7 10.3903 78.7 11.7333V30.8C78.7 32.1431 77.6097 33.2333 76.2667 33.2333H60.1334ZM67.4667 15.6333H54.2667C53.1795 15.6333 52.3 16.5128 52.3 17.6C52.3 18.6872 53.1795 19.5667 54.2667 19.5667H67.4667C68.5539 19.5667 69.4334 18.6872 69.4334 17.6C69.4334 16.5128 68.5539 15.6333 67.4667 15.6333ZM54.2667 26.9H73.3334C74.4206 26.9 75.3 26.0205 75.3 24.9333C75.3 23.8461 74.4206 22.9667 73.3334 22.9667H54.2667C53.1795 22.9667 52.3 23.8461 52.3 24.9333C52.3 26.0205 53.1795 26.9 54.2667 26.9Z" fill="white" fill-opacity="0.2" stroke="white"/>
</svg>
