<svg width="36" height="36" viewBox="0 0 36 36" fill="none" xmlns="http://www.w3.org/2000/svg">
<path d="M29.8828 22.6687V10.2164C29.8828 9.82969 29.5664 9.5625 29.1797 9.5625H26.4586C26.0719 9.5625 25.7344 9.82969 25.7344 10.2164V21.4523C25.2844 21.4664 24.8344 21.5227 24.3984 21.6281V13.8867C24.3984 13.5 24.068 13.2188 23.6812 13.2188H20.9602C20.5734 13.2188 20.25 13.493 20.25 13.8867V24.3844C19.4133 25.5586 18.9633 26.9719 18.9703 28.4203C18.9703 32.2734 22.0922 35.3953 25.9383 35.3953C29.7914 35.3953 32.9133 32.2734 32.9133 28.4273C32.9133 26.1211 31.7813 23.9695 29.8828 22.6687ZM27.1406 10.9688H28.4766V21.9234C28.0477 21.7547 27.5977 21.6281 27.1406 21.5578V10.9688ZM21.6563 14.625H22.9922V22.1133C22.5211 22.3312 22.0711 22.5984 21.6563 22.9148V14.625ZM25.9453 33.982C22.8727 33.982 20.3836 31.4859 20.3836 28.4203C20.3836 26.1703 21.7406 24.1383 23.8219 23.2805C23.9062 23.2664 23.9836 23.2313 24.0539 23.1891C24.6586 22.9641 25.3055 22.8516 25.9523 22.8516C26.1 22.8516 26.2406 22.8586 26.3883 22.8727H26.3953C27.2391 22.9359 28.0617 23.1961 28.7859 23.632C31.4297 25.2 32.3016 28.6102 30.7336 31.2539C29.7281 32.9484 27.907 33.982 25.9453 33.982Z" fill="#3178F6"/>
<path d="M28.7367 25.2422C28.7367 24.8555 28.4203 24.5391 28.0336 24.5391H23.85C23.4633 24.5391 23.1469 24.8555 23.1469 25.2422C23.1469 25.6289 23.4633 25.9453 23.85 25.9453H25.0453C25.3617 25.9453 25.664 26.0719 25.882 26.2969H23.843C23.4562 26.2969 23.1398 26.6133 23.1398 27C23.1398 27.3867 23.4562 27.7031 23.843 27.7031H25.875C25.8539 27.7734 25.8328 27.7664 25.8117 27.7875C25.6078 27.9984 25.3265 28.118 25.0383 28.125H23.843C23.4633 28.118 23.1469 28.4133 23.1398 28.793C23.1328 28.9898 23.2172 29.1797 23.3578 29.3133L26.3531 32.1398C26.6344 32.407 27.0844 32.393 27.3515 32.1117C27.6187 31.8305 27.6047 31.3805 27.3234 31.1133L25.5586 29.4398C26.0367 29.3414 26.4656 29.1023 26.8101 28.7578C27.1125 28.4625 27.3305 28.0969 27.443 27.6891H28.0336C28.4203 27.6891 28.7367 27.3727 28.7367 26.9859C28.7367 26.5992 28.4203 26.2828 28.0336 26.2828H27.443C27.4008 26.1633 27.3515 26.0438 27.2883 25.9313H28.0265C28.4273 25.9453 28.7367 25.6289 28.7367 25.2422ZM13.3594 19.5469C13.3594 19.1602 13.043 18.8438 12.6562 18.8438H9.91406C9.52734 18.8438 9.21093 19.1602 9.21093 19.5469V30.5859C9.21093 30.9727 9.52734 31.2891 9.91406 31.2891H12.6562C13.043 31.2891 13.3594 30.9727 13.3594 30.5859V19.5469ZM11.9531 29.9531H10.6172V20.25H11.9531V29.9531ZM18.9141 17.9297C18.9141 17.543 18.5976 17.2266 18.2109 17.2266H15.4687C15.082 17.2266 14.7656 17.543 14.7656 17.9297V30.6563C14.7656 31.043 15.082 31.3594 15.4687 31.3594H18.2109C18.5976 31.3594 18.9141 31.043 18.9141 30.6563V17.9297ZM17.5078 29.9531H16.1719V18.6328H17.5078V29.9531ZM7.80468 25.5938C7.80468 25.207 7.48828 24.8906 7.10156 24.8906H4.35937C3.97265 24.8906 3.65625 25.207 3.65625 25.5938V30.5859C3.65625 30.9727 3.97265 31.2891 4.35937 31.2891H7.10156C7.48828 31.2891 7.80468 30.9727 7.80468 30.5859V25.5938ZM6.39843 29.9531H5.0625V26.2969H6.39843V29.9531ZM4.28906 21.4875L17.2969 8.47969L19.9617 11.1656C20.0883 11.3063 20.2711 11.3836 20.4609 11.3906C20.6508 11.3836 20.8266 11.2992 20.9601 11.1656L29.0742 3.04453L29.0672 6.17344C29.0672 6.56719 29.3765 6.8836 29.7703 6.89766C30.164 6.89063 30.4734 6.56719 30.4734 6.17344L30.4805 1.35C30.4805 0.963284 30.164 0.639847 29.7773 0.639847L24.968 0.646877C24.5812 0.639846 24.2648 0.956253 24.2578 1.34297C24.2508 1.72969 24.5672 2.0461 24.9539 2.05313C24.9609 2.05313 24.9609 2.05313 24.968 2.05313L28.0828 2.0461L20.4539 9.64688L17.7891 7.00313C17.6555 6.87657 17.4726 6.81328 17.2898 6.82032C17.107 6.81328 16.9242 6.87657 16.7906 7.00313L3.29062 20.5031C3.0164 20.7773 3.02343 21.2203 3.29765 21.4945C3.57187 21.7617 4.01484 21.7617 4.28906 21.4875Z" fill="#3178F6"/>
</svg>
