<svg width="88" height="88" viewBox="0 0 88 88" fill="none" xmlns="http://www.w3.org/2000/svg">
<g clip-path="url(#clip0_620_377)">
<path d="M16.1333 55.7344V88.001" stroke="white" stroke-width="2" stroke-miterlimit="10"/>
<path d="M42.5337 55.7344V88.001" stroke="white" stroke-width="2" stroke-miterlimit="10"/>
<path d="M9.67133 75.6724L3.1168 68.0633C2.052 66.8284 1.4668 65.2532 1.4668 63.6237C1.4668 62.1893 1.92 60.793 2.76186 59.6314L12.5181 46.166C13.6929 44.5468 15.3107 43.3016 17.1792 42.5829L24.9335 39.6012V34.0234" stroke="white" stroke-width="2" stroke-miterlimit="10"/>
<path d="M16.1335 71.2935L9.32666 63.3926" stroke="white" stroke-width="2" stroke-miterlimit="10"/>
<path d="M6.2963 71.7559C5.1303 72.6931 4.3999 74.038 4.3999 75.534C4.3999 78.3705 7.0267 80.6673 10.2666 80.6673C13.5064 80.6673 16.1332 78.0405 16.1332 74.8007" stroke="white" stroke-width="2" stroke-miterlimit="10"/>
<path d="M42.5334 59.8602L50.4138 66.4133C51.2527 67.1085 52.3586 67.4678 53.5334 67.4678C55.0514 67.4678 56.4169 66.8093 57.3555 65.7606L66.3433 55.7374C67.0429 54.9586 67.4667 53.9305 67.4667 52.8012C67.4667 50.3709 65.4955 48.4012 63.0667 48.4012C61.9374 48.4012 60.9093 48.825 60.1305 49.5246L53.1301 55.802L46.1487 46.1674C44.9739 44.5482 43.3562 43.303 41.4877 42.5844L33.7334 39.6012V34.0234" stroke="white" stroke-width="2" stroke-miterlimit="10"/>
<path d="M58.9045 50.6354L55.1807 40.7398L75.142 33.2246L85.4248 60.5325L65.462 68.0491L62.4597 60.0778" stroke="white" stroke-width="2" stroke-miterlimit="10"/>
<path d="M72.2627 59.2214L78.9786 56.6914" stroke="white" stroke-width="2" stroke-miterlimit="10"/>
<path d="M72.9492 40.3184L61.9287 44.4661" stroke="white" stroke-width="2" stroke-miterlimit="10"/>
<path d="M74.7999 46.3262L66.0923 49.6042" stroke="white" stroke-width="2" stroke-miterlimit="10"/>
<path d="M20.5337 23.466V16.6445" stroke="white" stroke-width="2" stroke-miterlimit="10"/>
<path d="M26.4002 19.0674C22.4124 19.0674 19.0669 16.775 19.0669 12.2533C19.0669 10.2674 20.5336 8.80078 20.5336 8.80078C20.5336 8.80078 23.4669 11.7341 27.8669 11.7341H29.9437C34.4669 11.7341 38.1336 15.4008 38.1336 19.9225V26.4008C38.1336 31.2598 34.1926 35.2008 29.3336 35.2008C24.473 35.2008 20.5336 31.2598 20.5336 26.4008V22.0008" stroke="white" stroke-width="2" stroke-miterlimit="10"/>
<path d="M58.667 5.86719V10.2672" stroke="white" stroke-width="2" stroke-miterlimit="10"/>
<path d="M54.2666 19.0676C54.2666 20.6868 55.5807 22.0009 57.1999 22.0009H60.1333C61.7525 22.0009 63.0666 20.6868 63.0666 19.0676C63.0666 17.4484 61.7525 16.1342 60.1333 16.1342H57.1999C55.5807 16.1342 54.2666 14.8201 54.2666 13.2009C54.2666 11.5817 55.5807 10.2676 57.1999 10.2676H60.1333C61.7525 10.2676 63.0666 11.5817 63.0666 13.2009" stroke="white" stroke-width="2" stroke-miterlimit="10"/>
<path d="M58.667 26.4V22" stroke="white" stroke-width="2" stroke-miterlimit="10"/>
<path d="M49.8402 28.8232L43.8841 30.7489C43.0818 31.0085 42.325 30.2488 42.5832 29.4465L44.5089 23.4919C44.1789 22.5679 44 21.5735 44 20.5336V11.7336C44 6.87453 47.9394 2.93359 52.8 2.93359H64.5333C69.3924 2.93359 73.3333 6.87453 73.3333 11.7336V20.5336C73.3333 25.3927 69.3924 29.3336 64.5333 29.3336H52.8C51.763 29.3336 50.7642 29.1532 49.8402 28.8232Z" stroke="white" stroke-width="2" stroke-miterlimit="10"/>
<path d="M33.7336 39.5996C33.7336 39.5996 32.2669 42.5329 29.3336 42.5329C26.4003 42.5329 24.9336 39.5996 24.9336 39.5996" stroke="white" stroke-width="2" stroke-miterlimit="10"/>
</g>
<defs>
<clipPath id="clip0_620_377">
<rect width="88" height="88" fill="white"/>
</clipPath>
</defs>
</svg>
