<svg width="88" height="88" viewBox="0 0 88 88" fill="none" xmlns="http://www.w3.org/2000/svg">
<path d="M57.4978 70.2988L57.4981 70.2987L73.4382 59.581C73.4385 59.5808 73.4389 59.5805 73.4392 59.5803C73.8315 59.3183 74.3051 59.1667 74.8176 59.1667C76.1374 59.1667 77.2333 60.2879 77.2333 61.6176C77.2333 62.3553 76.887 63.0126 76.3459 63.4625L76.3404 63.467L76.3351 63.4718L58.8763 78.8514C56.7259 80.648 54.0122 81.6334 51.2101 81.6334H39.5897C37.6671 81.6334 35.7459 81.4972 33.8423 81.2248L33.8422 81.2248L16.6333 78.7664V64.9432L28.3739 62.5948L28.374 62.5948C30.0194 62.2655 31.6952 62.1 33.374 62.1H51.8584C53.6667 62.1 55.2333 63.4774 55.2333 65.2359C55.2333 67.0009 53.8322 68.4225 52.0887 68.4334H44C42.9143 68.4334 42.0333 69.3143 42.0333 70.4C42.0333 71.4858 42.9143 72.3667 44 72.3667H50.71C53.1281 72.3667 55.4912 71.6463 57.4978 70.2988Z" fill="white" fill-opacity="0.2" stroke="white"/>
<path d="M6.36667 59.1667H10.2667C11.6097 59.1667 12.7 60.257 12.7 61.6V82.1334C12.7 83.4764 11.6097 84.5667 10.2667 84.5667H6.36667V59.1667Z" fill="white" fill-opacity="0.2" stroke="white"/>
<path d="M46.9333 5.29474C47.0428 5.46202 47.1723 5.66283 47.3189 5.89572C47.8176 6.68771 48.5154 7.85033 49.3079 9.32703C50.8349 12.1727 52.7107 16.1799 54.1906 20.9449C51.8566 21.2953 49.4277 21.5 46.9333 21.5C44.439 21.5 42.0101 21.2953 39.6761 20.9449C41.156 16.1799 43.0318 12.1727 44.5588 9.32703C45.3513 7.85033 46.0491 6.68771 46.5478 5.89572C46.6944 5.66283 46.8238 5.46202 46.9333 5.29474Z" fill="white" fill-opacity="0.2" stroke="white"/>
<path d="M37.1667 36.6667C37.1667 33.0016 37.6061 29.479 38.3029 26.1959C41.0574 26.6363 43.9461 26.9 46.9334 26.9C49.9207 26.9 52.8093 26.6363 55.5638 26.1959C56.2606 29.479 56.7 33.0016 56.7 36.6667C56.7 40.3317 56.2606 43.8544 55.5638 47.1375C52.8093 46.6971 49.9207 46.4333 46.9334 46.4333C43.9461 46.4333 41.0574 46.6971 38.3029 47.1375C37.6061 43.8544 37.1667 40.3317 37.1667 36.6667Z" fill="white" fill-opacity="0.2" stroke="white"/>
<path d="M40.453 5.57285C39.6315 7.03478 38.6806 8.86322 37.7158 10.9844C37.2022 9.55537 36.484 8.2228 35.5867 7.02752C37.158 6.42197 38.7798 5.92622 40.453 5.57285Z" fill="white" fill-opacity="0.2" stroke="white"/>
<path d="M23.6306 34.3753C23.571 34.4306 23.5163 34.4811 23.4667 34.5266C23.4171 34.4811 23.3623 34.4306 23.3027 34.3753C22.9859 34.0811 22.532 33.6499 21.9869 33.1048C20.896 32.0139 19.4426 30.4695 17.9904 28.6543C16.5372 26.8378 15.093 24.7596 14.0139 22.6014C12.933 20.4396 12.2333 18.227 12.2333 16.1334C12.2333 9.92977 17.2631 4.90002 23.4667 4.90002C29.6703 4.90002 34.7 9.92977 34.7 16.1334C34.7 18.227 34.0004 20.4396 32.9195 22.6014C31.8403 24.7596 30.3961 26.8378 28.9429 28.6543C27.4908 30.4695 26.0373 32.0139 24.9465 33.1048C24.4013 33.6499 23.9475 34.0811 23.6306 34.3753ZM18.5667 16.1334C18.5667 18.8398 20.7603 21.0334 23.4667 21.0334C26.1731 21.0334 28.3667 18.8398 28.3667 16.1334C28.3667 13.4269 26.1731 11.2334 23.4667 11.2334C20.7603 11.2334 18.5667 13.4269 18.5667 16.1334Z" fill="white" fill-opacity="0.2" stroke="white"/>
<path d="M25.7275 37.7836C26.3506 37.2384 29.2128 34.6591 32.0821 31.0527C31.8841 32.876 31.7667 34.7477 31.7667 36.6666C31.7667 40.7305 32.2489 44.6163 33.0105 48.2248C27.8007 49.5361 23.2653 51.3785 19.7406 53.0845C16.8415 48.2925 15.1667 42.6759 15.1667 36.6666C15.1667 35.0467 15.3006 33.4584 15.5406 31.9012C18.1651 35.0572 20.6324 37.2817 21.2057 37.7835L21.2059 37.7837L23.1375 39.4733L23.4667 39.7612L23.7958 39.4733L25.7274 37.7837L25.7275 37.7836Z" fill="white" fill-opacity="0.2" stroke="white"/>
<path d="M66.5 20.5333C66.5 15.9504 70.2157 12.2333 74.8 12.2333C79.3829 12.2333 83.1 15.9504 83.1 20.5333C83.1 21.8867 82.5886 23.4547 81.7778 25.0764C80.971 26.69 79.8898 28.3136 78.8 29.7667C77.7114 31.2182 76.6215 32.4898 75.8034 33.3989C75.3945 33.8531 75.0541 34.2162 74.8164 34.4652C74.8109 34.471 74.8054 34.4767 74.8 34.4824C74.7946 34.4767 74.7891 34.471 74.7836 34.4652C74.5459 34.2162 74.2055 33.8531 73.7966 33.3989C72.9785 32.4898 71.8886 31.2182 70.8 29.7667C69.7102 28.3136 68.629 26.69 67.8222 25.0764C67.0114 23.4547 66.5 21.8867 66.5 20.5333Z" fill="white" fill-opacity="0.2" stroke="white"/>
<path d="M59.5145 19.8716C57.6783 13.7726 55.2262 8.79129 53.4115 5.57039C58.312 6.58724 62.792 8.74149 66.5821 11.7326C64.5445 13.5848 63.1384 16.1163 62.7123 18.9651C61.6782 19.2881 60.6128 19.5943 59.5145 19.8716Z" fill="white" fill-opacity="0.2" stroke="white"/>
<path d="M54.1894 52.3896C53.542 54.4764 52.8167 56.4159 52.078 58.1785C52.0106 58.1717 51.9365 58.1666 51.8584 58.1666H41.783C41.0469 56.4058 40.3237 54.471 39.6763 52.3884C42.0102 52.0381 44.4391 51.8333 46.9333 51.8333C49.4278 51.8333 51.8567 52.0381 54.1894 52.3896Z" fill="white" fill-opacity="0.2" stroke="white"/>
<path d="M22.9859 57.5294C26.1023 56.0792 29.9774 54.5654 34.3538 53.4617C34.8548 55.1221 35.4032 56.688 35.9698 58.1666H33.374C31.4416 58.1666 29.5007 58.3591 27.6016 58.738L27.6014 58.7381L24.6983 59.3187C24.1046 58.7396 23.5299 58.1467 22.9859 57.5294Z" fill="white" fill-opacity="0.2" stroke="white"/>
<path d="M59.1233 64.4691C58.9353 62.8201 58.1492 61.3541 57.0014 60.2507C57.8537 58.2243 58.7758 55.8859 59.5137 53.4631C63.503 54.4692 67.0576 55.8157 70.0164 57.1455L59.1233 64.4691Z" fill="white" fill-opacity="0.2" stroke="white"/>
<path d="M74.4464 39.7013L74.8001 40.055L75.1537 39.7012C75.4721 39.3825 75.7585 39.0969 76.0207 38.8355C77.149 37.7105 77.8287 37.0328 78.6764 36.0958C78.6918 36.3094 78.7 36.5072 78.7 36.6667C78.7 42.676 77.0252 48.2926 74.1261 53.0832C70.6014 51.3785 66.0673 49.536 60.8561 48.2234C61.6177 44.6163 62.1 40.7305 62.1 36.6667C62.1 32.6014 61.6174 28.7143 60.8553 25.1047C61.5659 24.9145 62.3239 24.6791 63.0223 24.4621C63.1152 24.4333 63.2071 24.4048 63.2976 24.3767C65.336 30.3681 70.7101 35.9649 74.4464 39.7013Z" fill="white" fill-opacity="0.2" stroke="white"/>
</svg>
