<svg width="88" height="88" viewBox="0 0 88 88" fill="none" xmlns="http://www.w3.org/2000/svg">
<path d="M8.33114 12.2029C8.02302 11.8935 7.83334 11.4689 7.83334 11C7.83334 10.0605 8.59487 9.29999 9.53334 9.29999C10.0023 9.29999 10.4269 9.48966 10.7363 9.79777C10.7364 9.79787 10.7365 9.79796 10.7366 9.79806L15.1353 14.1968C15.1354 14.1969 15.1355 14.197 15.1356 14.1971C15.4437 14.5065 15.6333 14.9311 15.6333 15.4C15.6333 16.3395 14.8718 17.1 13.9333 17.1C13.4644 17.1 13.0399 16.9103 12.7305 16.6023C12.7304 16.6022 12.7302 16.602 12.7301 16.6019L8.33141 12.2032C8.33132 12.2031 8.33123 12.203 8.33114 12.2029Z" fill="white" fill-opacity="0.2" stroke="white"/>
<path d="M19.6251 7.01262L19.6251 7.01262L19.6243 7.0097C19.5876 6.86625 19.5667 6.7318 19.5667 6.60002C19.5667 5.66052 20.3282 4.90002 21.2667 4.90002C22.0589 4.90002 22.7229 5.44596 22.9083 6.18743L24.3749 12.0541L24.3749 12.0541L24.3757 12.057C24.4125 12.2005 24.4333 12.3349 24.4333 12.4667C24.4333 13.4062 23.6718 14.1667 22.7333 14.1667C21.9411 14.1667 21.2771 13.6208 21.0918 12.8793L19.6251 7.01262Z" fill="white" fill-opacity="0.2" stroke="white"/>
<path d="M5.543 21.091L5.543 21.091L5.54592 21.0917L11.4126 22.5584C12.1541 22.7438 12.7 23.4078 12.7 24.2C12.7 25.1385 11.9395 25.9 11 25.9C10.8682 25.9 10.7338 25.8791 10.5903 25.8423L10.5903 25.8423L10.5874 25.8416L4.72072 24.3749C3.97925 24.1896 3.43332 23.5256 3.43332 22.7333C3.43332 21.7949 4.19381 21.0333 5.13332 21.0333C5.26509 21.0333 5.39954 21.0542 5.543 21.091Z" fill="white" fill-opacity="0.2" stroke="white"/>
<path d="M80.1667 11C80.1667 11.4689 79.9771 11.8935 79.669 12.2029C79.6689 12.203 79.6688 12.2031 79.6686 12.2032L75.2699 16.6019C75.2699 16.602 75.2698 16.6021 75.2697 16.6022C74.9603 16.9103 74.5357 17.1 74.0667 17.1C73.1282 17.1 72.3667 16.3395 72.3667 15.4C72.3667 14.931 72.5564 14.5064 72.8646 14.197C72.8646 14.1969 72.8647 14.1968 72.8648 14.1968L77.2635 9.79806C77.2636 9.79795 77.2637 9.79784 77.2638 9.79773C77.5732 9.48964 77.9978 9.29999 78.4667 9.29999C79.4052 9.29999 80.1667 10.0605 80.1667 11Z" fill="white" fill-opacity="0.2" stroke="white"/>
<path d="M68.3757 7.0097L68.3756 7.0097L68.3749 7.01262L66.9082 12.8793C66.7229 13.6208 66.0589 14.1667 65.2667 14.1667C64.3282 14.1667 63.5667 13.4062 63.5667 12.4667C63.5667 12.3349 63.5875 12.2005 63.6243 12.057L63.6243 12.057L63.6251 12.0541L65.0917 6.18743C65.2771 5.44596 65.9411 4.90002 66.7333 4.90002C67.6718 4.90002 68.4333 5.66052 68.4333 6.60002C68.4333 6.7318 68.4124 6.86625 68.3757 7.0097Z" fill="white" fill-opacity="0.2" stroke="white"/>
<path d="M82.4541 21.0917L82.4541 21.0917L82.457 21.091C82.6004 21.0542 82.7349 21.0333 82.8667 21.0333C83.8062 21.0333 84.5667 21.7949 84.5667 22.7333C84.5667 23.5256 84.0207 24.1896 83.2792 24.3749L77.4126 25.8416L77.4126 25.8416L77.4097 25.8423C77.2662 25.8791 77.1318 25.9 77 25.9C76.0605 25.9 75.3 25.1385 75.3 24.2C75.3 23.4078 75.8459 22.7438 76.5874 22.5584L82.4541 21.0917Z" fill="white" fill-opacity="0.2" stroke="white"/>
<path d="M53.7667 14.6667C53.7667 20.0607 49.394 24.4334 44 24.4334C38.606 24.4334 34.2333 20.0607 34.2333 14.6667C34.2333 9.27271 38.606 4.90002 44 4.90002C49.394 4.90002 53.7667 9.27271 53.7667 14.6667Z" fill="white" fill-opacity="0.2" stroke="white"/>
<path d="M60.2348 58.416L71.4233 50.5373L71.4338 50.53L71.4338 50.5301C72.3066 49.9483 72.8319 48.9663 72.8319 47.916C72.8319 47.3609 72.6839 46.8141 72.404 46.3327C72.404 46.3327 72.4039 46.3326 72.4039 46.3325L66.0301 35.4065L66.0301 35.4064C64.018 31.9565 60.3222 29.8333 56.3259 29.8333H31.6741C27.6779 29.8333 23.982 31.9564 21.9684 35.4079C21.9684 35.4079 21.9684 35.4079 21.9684 35.4079L15.5946 46.334L60.2348 58.416ZM60.2348 58.416L63.1564 50.6245L63.1573 50.622C63.4287 49.8868 63.5667 49.1434 63.5667 48.4C63.5667 47.2371 63.2315 46.1645 62.6943 45.2368C62.6942 45.2367 62.6942 45.2367 62.6941 45.2366L58.8694 38.6094L58.8695 38.6093L58.8649 38.6016C58.531 38.0465 57.9336 37.6333 57.2 37.6333C56.1143 37.6333 55.2333 38.5142 55.2333 39.6C55.2333 39.9974 55.3738 40.3304 55.5346 40.5975C55.5349 40.5979 55.5351 40.5983 55.5353 40.5987L56.3932 42.0333H31.6068L32.4646 40.5987C32.4648 40.5984 32.465 40.5981 32.4652 40.5978C32.6261 40.3306 32.7667 39.9975 32.7667 39.6C32.7667 38.5142 31.8857 37.6333 30.8 37.6333C30.0664 37.6333 29.4689 38.0465 29.1351 38.6016L29.135 38.6016L29.1305 38.6094L25.3059 45.2366C24.7685 46.1643 24.4333 47.237 24.4333 48.4C24.4333 49.1434 24.5713 49.8864 24.8407 50.6223L24.8407 50.6223L24.8421 50.6259L27.7637 58.4174L16.5752 50.5388L16.5753 50.5386L16.5651 50.5318C15.6917 49.9483 15.1667 48.9675 15.1667 47.9174C15.1667 47.3626 15.3145 46.8158 15.5943 46.3346L60.2348 58.416Z" fill="white" fill-opacity="0.2" stroke="white"/>
<path d="M66.8927 74.1444L66.893 74.1445C68.6505 74.8064 69.9 76.4858 69.9 78.4667C69.9 81.0256 67.8256 83.1 65.2667 83.1C64.8191 83.1 64.3856 83.0142 63.9475 82.8833L63.9472 82.8832L50.5322 78.8847L66.4733 73.9862L66.8927 74.1444Z" fill="white" fill-opacity="0.2" stroke="white"/>
<path d="M57.2 45.9667C58.5432 45.9667 59.6333 47.0556 59.6333 48.4C59.6333 48.6917 59.5743 48.9725 59.4729 49.244C59.4729 49.2442 59.4728 49.2443 59.4728 49.2445L55.068 60.9939C55.0679 60.9942 55.0678 60.9946 55.0676 60.995C54.7168 61.9153 53.8352 62.5667 52.8 62.5667H35.2C34.1649 62.5667 33.2832 61.9153 32.9324 60.9951C32.9323 60.9947 32.9321 60.9943 32.932 60.9939L28.5272 49.2445C28.5272 49.2444 28.5272 49.2443 28.5271 49.2442C28.4258 48.9726 28.3667 48.6918 28.3667 48.4C28.3667 47.0556 29.4568 45.9667 30.8 45.9667H57.2Z" fill="white" fill-opacity="0.2" stroke="white"/>
<path d="M73.396 53.9531L73.396 53.9532L73.4032 53.9482C73.979 53.5478 74.7934 53.3 75.5333 53.3C76.7429 53.3 77.8891 53.9999 78.7535 55.2348C79.6168 56.4682 80.1667 58.1986 80.1667 60.1333C80.1667 63.4658 78.55 66.0843 76.5794 66.7683L24.2526 82.8463L24.2452 82.8486L24.2378 82.8511C23.7654 83.0125 23.2612 83.1 22.7333 83.1C20.1744 83.1 18.1 81.0256 18.1 78.4667C18.1 76.5486 19.2662 74.9027 20.9301 74.1982L43.4013 66.5H52.8C54.2224 66.5 55.5594 66.0033 56.6438 65.1745L73.396 53.9531Z" fill="white" fill-opacity="0.2" stroke="white"/>
<path d="M14.5968 53.9482L14.5968 53.9483L14.6035 53.9528L32.6052 66.0413L21.4709 69.8567L11.4207 66.7683C9.45004 66.0843 7.83334 63.4658 7.83334 60.1333C7.83334 58.1986 8.38317 56.4682 9.24648 55.2348C10.1109 53.9999 11.2571 53.3 12.4667 53.3C13.2066 53.3 14.021 53.5478 14.5968 53.9482Z" fill="white" fill-opacity="0.2" stroke="white"/>
</svg>
