<svg width="36" height="36" viewBox="0 0 36 36" fill="none" xmlns="http://www.w3.org/2000/svg">
<path d="M28.6875 29.5312H24.4688V25.3125H26.1562V27.8438H28.6875V29.5312Z" fill="#3178F6"/>
<path d="M25.0312 12.0938H6.46875V4.21875H25.0312V12.0938ZM8.15625 10.4062H23.3438V5.90625H8.15625V10.4062ZM11.5312 18.8438H6.46875V13.7812H11.5312V18.8438ZM8.15625 17.1562H9.84375V15.4688H8.15625V17.1562ZM18.2812 18.8438H13.2188V13.7812H18.2812V18.8438ZM14.9062 17.1562H16.5938V15.4688H14.9062V17.1562ZM25.0312 18.8438H19.9688V13.7812H25.0312V18.8438ZM21.6562 17.1562H23.3438V15.4688H21.6562V17.1562ZM11.5312 24.4688H6.46875V19.4062H11.5312V24.4688ZM8.15625 22.7812H9.84375V21.0938H8.15625V22.7812ZM18.2812 24.4688H13.2188V19.4062H18.2812V24.4688ZM14.9062 22.7812H16.5938V21.0938H14.9062V22.7812Z" fill="#3178F6"/>
<path d="M21.6562 22.1062H19.9688V19.4062H24.1875V21.0937H21.6562V22.1062Z" fill="#3178F6"/>
<path d="M18.09 27.8438H3.65625V1.40625H27.8438V20.34H26.1562V3.09375H5.34375V26.1562H18.09V27.8438Z" fill="#3178F6"/>
<path d="M25.875 34.5938C24.5956 34.5938 23.3449 34.2144 22.2812 33.5036C21.2174 32.7928 20.3883 31.7825 19.8987 30.6005C19.4091 29.4185 19.281 28.1178 19.5305 26.863C19.7801 25.6082 20.3962 24.4556 21.3009 23.5509C22.2056 22.6462 23.3582 22.0301 24.613 21.7805C25.8678 21.531 27.1685 21.6591 28.3505 22.1487C29.5325 22.6383 30.5428 23.4674 31.2536 24.5312C31.9644 25.5949 32.3438 26.8456 32.3438 28.125C32.3408 29.8397 31.6583 31.4833 30.4458 32.6958C29.2333 33.9083 27.5897 34.5908 25.875 34.5938V34.5938ZM25.875 23.3438C24.9294 23.3438 24.005 23.6242 23.2187 24.1495C22.4324 24.6749 21.8196 25.4216 21.4577 26.2953C21.0958 27.169 21.0011 28.1303 21.1856 29.0578C21.3701 29.9853 21.8255 30.8372 22.4941 31.5059C23.1628 32.1745 24.0148 32.6299 24.9422 32.8144C25.8697 32.9989 26.831 32.9042 27.7047 32.5423C28.5784 32.1804 29.3251 31.5676 29.8505 30.7813C30.3758 29.995 30.6563 29.0706 30.6563 28.125C30.6563 26.8569 30.1525 25.6408 29.2559 24.7441C28.3592 23.8475 27.1431 23.3438 25.875 23.3438V23.3438Z" fill="#3178F6"/>
</svg>
