<svg width="36" height="36" viewBox="0 0 36 36" fill="none" xmlns="http://www.w3.org/2000/svg">
<g clip-path="url(#clip0_2_22)">
<path d="M10.9204 22.5006C11.2187 22.5008 11.5046 22.6195 11.7155 22.8304C11.9265 23.0413 12.0451 23.3273 12.0454 23.6256C12.0454 23.7747 12.1046 23.9178 12.2101 24.0233C12.3156 24.1288 12.4587 24.1881 12.6079 24.1881C12.7571 24.1881 12.9001 24.1288 13.0056 24.0233C13.1111 23.9178 13.1704 23.7747 13.1704 23.6256C13.1689 23.1281 13.0024 22.6452 12.697 22.2524C12.3917 21.8597 11.9646 21.5794 11.4829 21.4554V20.8131C11.4829 20.6639 11.4236 20.5208 11.3181 20.4153C11.2126 20.3098 11.0696 20.2506 10.9204 20.2506C10.7712 20.2506 10.6281 20.3098 10.5226 20.4153C10.4171 20.5208 10.3579 20.6639 10.3579 20.8131V21.4554C9.82778 21.5913 9.36557 21.9161 9.0581 22.3688C8.75063 22.8215 8.61908 23.3709 8.68816 23.9138C8.75724 24.4566 9.02221 24.9556 9.43326 25.3168C9.84431 25.6781 10.3731 25.8768 10.9204 25.8756C11.1429 25.8756 11.3604 25.9415 11.5454 26.0651C11.7304 26.1888 11.8746 26.3645 11.9597 26.57C12.0449 26.7756 12.0672 27.0018 12.0238 27.22C11.9803 27.4383 11.8732 27.6387 11.7159 27.796C11.5585 27.9534 11.3581 28.0605 11.1399 28.1039C10.9216 28.1473 10.6954 28.1251 10.4899 28.0399C10.2843 27.9548 10.1086 27.8106 9.98497 27.6256C9.86135 27.4406 9.79537 27.2231 9.79537 27.0006C9.79537 26.8514 9.73611 26.7083 9.63062 26.6028C9.52513 26.4973 9.38206 26.4381 9.23287 26.4381C9.08369 26.4381 8.94062 26.4973 8.83513 26.6028C8.72964 26.7083 8.67037 26.8514 8.67037 27.0006C8.67185 27.498 8.83832 27.9809 9.1437 28.3737C9.44908 28.7664 9.8761 29.0467 10.3579 29.1707V29.8131C10.3579 29.9622 10.4171 30.1053 10.5226 30.2108C10.6281 30.3163 10.7712 30.3756 10.9204 30.3756C11.0696 30.3756 11.2126 30.3163 11.3181 30.2108C11.4236 30.1053 11.4829 29.9622 11.4829 29.8131V29.1707C12.013 29.0348 12.4752 28.71 12.7826 28.2573C13.0901 27.8046 13.2217 27.2552 13.1526 26.7123C13.0835 26.1695 12.8185 25.6705 12.4075 25.3093C11.9964 24.948 11.4676 24.7493 10.9204 24.7506C10.622 24.7506 10.3359 24.632 10.1249 24.421C9.9139 24.2101 9.79537 23.9239 9.79537 23.6256C9.79537 23.3272 9.9139 23.041 10.1249 22.8301C10.3359 22.6191 10.622 22.5006 10.9204 22.5006V22.5006ZM34.6979 15.0687L35.1826 14.5838C35.4443 14.3239 35.6515 14.0143 35.7919 13.6732C35.9323 13.3321 36.003 12.9663 36 12.5975C35.999 12.229 35.9253 11.8643 35.7832 11.5243C35.641 11.1843 35.4332 10.8756 35.1716 10.6161L25.608 1.05246C25.5385 0.977462 25.4624 0.908886 25.3806 0.847563C24.9212 0.39017 24.3005 0.131645 23.6523 0.127746C23.0041 0.123846 22.3803 0.374884 21.9155 0.826717C21.8167 0.893228 21.728 0.973504 21.6519 1.06512L8.11698 14.625H2.8125C2.06682 14.6258 1.3519 14.9223 0.824627 15.4496C0.297351 15.9769 0.000783221 16.6918 0 17.4375L0 33.1875C0.000783221 33.9332 0.297351 34.6481 0.824627 35.1754C1.3519 35.7026 2.06682 35.9992 2.8125 36H33.1875C33.9332 35.9992 34.6481 35.7026 35.1754 35.1754C35.7026 34.6481 35.9992 33.9332 36 33.1875V17.4375C36.001 16.9648 35.8821 16.4995 35.6544 16.0852C35.4267 15.6709 35.0976 15.3212 34.698 15.0687H34.6979ZM22.4473 1.85943C22.4583 1.84899 22.5341 1.77155 22.544 1.76056C22.5891 1.72513 22.632 1.68698 22.6725 1.6463C22.8064 1.51891 22.9642 1.41934 23.1368 1.35334C23.3094 1.28734 23.4934 1.25622 23.6782 1.26179C23.8629 1.26736 24.0447 1.3095 24.213 1.38578C24.3813 1.46206 24.5329 1.57095 24.6588 1.70617C24.7178 1.75332 24.7733 1.80472 24.8247 1.85998L34.3762 11.4115C34.5335 11.5675 34.6585 11.753 34.7441 11.9573C34.8297 12.1617 34.8742 12.3809 34.875 12.6024C34.8767 12.8226 34.8344 13.0409 34.7506 13.2446C34.6669 13.4482 34.5433 13.6331 34.3872 13.7884L33.5093 14.6659C33.403 14.6456 33.2955 14.6319 33.1875 14.625H31.9466L32.8535 13.7175C32.9369 13.6341 32.992 13.5266 33.0109 13.4102C33.0298 13.2937 33.0117 13.1743 32.959 13.0688C32.8871 12.9231 32.8498 12.7627 32.8502 12.6002C32.8511 12.4302 32.8902 12.2626 32.9645 12.1097C33.0139 12.0048 33.0298 11.8871 33.01 11.7728C32.9901 11.6584 32.9355 11.553 32.8535 11.4709L24.7423 3.35962C24.6587 3.2759 24.5509 3.22069 24.4341 3.20185C24.3173 3.18301 24.1976 3.20151 24.0919 3.2547C23.9443 3.3247 23.783 3.3611 23.6196 3.3613C23.4563 3.36149 23.2949 3.32547 23.1471 3.25583C23.0431 3.20863 22.9271 3.19439 22.8148 3.21501C22.7025 3.23563 22.5991 3.29013 22.5187 3.37119L11.2643 14.625H9.70518L22.4473 1.85943ZM31.8032 13.1776L30.3563 14.625H24.4811C24.4305 13.77 24.0551 12.9666 23.4318 12.3791C22.8085 11.7916 21.9843 11.4644 21.1278 11.4644C20.2712 11.4644 19.447 11.7916 18.8237 12.3791C18.2004 12.9666 17.825 13.77 17.7744 14.625H12.8551L23.0648 4.4154C23.4379 4.51427 23.8306 4.51275 24.2029 4.411L31.8044 12.0124C31.7518 12.2039 31.7252 12.4016 31.7253 12.6002C31.7253 12.7953 31.7515 12.9895 31.8032 13.1776H31.8032ZM23.3561 14.625H18.8994C18.9497 14.0687 19.2062 13.5514 19.6186 13.1746C20.0309 12.7978 20.5692 12.5889 21.1278 12.5889C21.6863 12.5889 22.2247 12.7978 22.637 13.1746C23.0493 13.5514 23.3059 14.0687 23.3561 14.625ZM34.875 28.125H24.1875C23.7648 28.1265 23.3473 28.0323 22.9662 27.8494C22.5851 27.6666 22.2503 27.3998 21.9869 27.0692C21.593 26.5681 21.3776 25.9499 21.375 25.3125C21.375 25.2055 21.3849 25.0985 21.3948 24.9916C21.4674 24.3605 21.7517 23.7727 22.2012 23.324C22.6507 22.8752 23.2389 22.5919 23.8701 22.5202C23.977 22.5104 24.0817 22.5 24.1875 22.5H34.875V28.125ZM34.875 21.375H24.1875C24.0457 21.375 23.9051 21.3865 23.7645 21.3997L23.762 21.4005L23.7601 21.4003C22.8693 21.4976 22.0383 21.896 21.4046 22.5297C20.771 23.1634 20.3725 23.9943 20.2752 24.8852L20.2754 24.887L20.2741 24.8912C20.2621 25.0313 20.25 25.1724 20.25 25.3125C20.2529 26.2031 20.5538 27.0671 21.1047 27.7668C21.473 28.231 21.9418 28.6057 22.4757 28.8626C23.0097 29.1195 23.595 29.2519 24.1875 29.25H34.875V33.1875C34.8745 33.6349 34.6966 34.0638 34.3802 34.3802C34.0638 34.6966 33.6349 34.8745 33.1875 34.875H2.8125C2.3651 34.8745 1.93616 34.6966 1.6198 34.3802C1.30343 34.0638 1.12549 33.6349 1.125 33.1875V17.4375C1.12549 16.9901 1.30343 16.5612 1.6198 16.2448C1.93616 15.9284 2.3651 15.7505 2.8125 15.75H33.1875C33.3165 15.7495 33.445 15.7657 33.5698 15.7984L33.5852 15.8022C33.9532 15.8892 34.2809 16.0982 34.5151 16.3951C34.7492 16.692 34.8761 17.0594 34.875 17.4375V21.375ZM22.5 25.3125C22.5 25.6463 22.599 25.9725 22.7844 26.25C22.9698 26.5275 23.2334 26.7438 23.5417 26.8715C23.8501 26.9993 24.1894 27.0327 24.5167 26.9676C24.8441 26.9025 25.1447 26.7417 25.3807 26.5057C25.6167 26.2697 25.7775 25.9691 25.8426 25.6417C25.9077 25.3144 25.8743 24.9751 25.7465 24.6667C25.6188 24.3584 25.4025 24.0948 25.125 23.9094C24.8475 23.724 24.5213 23.625 24.1875 23.625C23.7401 23.6255 23.3112 23.8034 22.9948 24.1198C22.6784 24.4362 22.5005 24.8651 22.5 25.3125ZM24.75 25.3125C24.75 25.4238 24.717 25.5325 24.6552 25.625C24.5934 25.7175 24.5055 25.7896 24.4028 25.8322C24.3 25.8748 24.1869 25.8859 24.0778 25.8642C23.9686 25.8425 23.8684 25.7889 23.7898 25.7102C23.7111 25.6316 23.6575 25.5314 23.6358 25.4222C23.6141 25.3131 23.6252 25.2 23.6678 25.0972C23.7104 24.9945 23.7825 24.9066 23.875 24.8448C23.9675 24.783 24.0762 24.75 24.1875 24.75C24.3366 24.7502 24.4796 24.8095 24.585 24.915C24.6905 25.0204 24.7498 25.1634 24.75 25.3125V25.3125ZM10.6875 18C9.24122 18 7.82743 18.4289 6.62489 19.2324C5.42236 20.0359 4.4851 21.1779 3.93163 22.5141C3.37816 23.8503 3.23335 25.3206 3.51551 26.7391C3.79766 28.1576 4.49411 29.4605 5.51678 30.4832C6.53945 31.5059 7.84242 32.2023 9.2609 32.4845C10.6794 32.7666 12.1497 32.6218 13.4859 32.0684C14.8221 31.5149 15.9641 30.5776 16.7676 29.3751C17.5711 28.1726 18 26.7588 18 25.3125C17.9978 23.3738 17.2266 21.5151 15.8557 20.1443C14.4849 18.7734 12.6262 18.0022 10.6875 18ZM10.6875 31.5C9.46373 31.5 8.26744 31.1371 7.24991 30.4572C6.23238 29.7773 5.43931 28.811 4.971 27.6804C4.50268 26.5497 4.38015 25.3056 4.61889 24.1054C4.85764 22.9051 5.44694 21.8026 6.31228 20.9373C7.17761 20.0719 8.28012 19.4826 9.48038 19.2439C10.6806 19.0051 11.9247 19.1277 13.0554 19.596C14.186 20.0643 15.1523 20.8574 15.8322 21.8749C16.5121 22.8924 16.875 24.0887 16.875 25.3125C16.8731 26.9529 16.2205 28.5256 15.0606 29.6856C13.9006 30.8455 12.3279 31.4981 10.6875 31.5V31.5Z" fill="#3178F6"/>
</g>
<defs>
<clipPath id="clip0_2_22">
<rect width="36" height="36" fill="white"/>
</clipPath>
</defs>
</svg>
