<svg width="88" height="88" viewBox="0 0 88 88" fill="none" xmlns="http://www.w3.org/2000/svg">
<path d="M40.5667 77.2333H6.36667V49.8667C6.36667 42.0439 12.7091 35.7 20.5333 35.7H26.4C34.2242 35.7 40.5667 42.0439 40.5667 49.8667V77.2333Z" fill="white" fill-opacity="0.2" stroke="white"/>
<path d="M34.7 19.0667C34.7 25.2707 29.6707 30.3 23.4667 30.3C17.2627 30.3 12.2333 25.2707 12.2333 19.0667C12.2333 12.8627 17.2627 7.83334 23.4667 7.83334C29.6707 7.83334 34.7 12.8627 34.7 19.0667Z" fill="white" fill-opacity="0.2" stroke="white"/>
<path d="M72.8333 16.1333C72.8333 21.5273 68.4606 25.9 63.0667 25.9C57.6727 25.9 53.3 21.5273 53.3 16.1333C53.3 10.7394 57.6727 6.36667 63.0667 6.36667C68.4606 6.36667 72.8333 10.7394 72.8333 16.1333Z" fill="white" fill-opacity="0.2" stroke="white"/>
<path d="M70.4 72.8333H70.1835L70.0354 72.9912L60.8122 82.8212C60.6348 82.9949 60.3954 83.1 60.1334 83.1C59.5984 83.1 59.1667 82.6683 59.1667 82.1333V51.3333C59.1667 50.7984 59.5984 50.3667 60.1334 50.3667C60.3759 50.3667 60.598 50.4566 60.7699 50.6058C60.77 50.606 60.7702 50.6061 60.7704 50.6063L84.2347 71.1376C84.2348 71.1376 84.2349 71.1377 84.235 71.1378C84.4394 71.3179 84.5667 71.5781 84.5667 71.8667C84.5667 72.4016 84.1349 72.8333 83.6 72.8333H70.4Z" fill="white" fill-opacity="0.2" stroke="white"/>
<path d="M60.1333 44.9667C56.6233 44.9667 53.7667 47.8216 53.7667 51.3333V65.5H47.4333V45.4667C47.4333 37.6424 53.7758 31.3 61.6 31.3H64.5333C72.3576 31.3 78.7 37.6424 78.7 45.4667V59.1193L64.3317 46.5454C64.3317 46.5454 64.3317 46.5453 64.3317 46.5453C63.1701 45.5286 61.6804 44.9667 60.1333 44.9667Z" fill="white" fill-opacity="0.2" stroke="white"/>
</svg>
