<svg width="36" height="36" viewBox="0 0 36 36" fill="none" xmlns="http://www.w3.org/2000/svg">
<path d="M30.375 6.75H28.125C27.9758 6.75003 27.8328 6.80932 27.7273 6.91481L25.875 8.76713L24.75 7.64213V1.6875C24.75 1.53832 24.6907 1.39524 24.5852 1.28975C24.4798 1.18426 24.3367 1.125 24.1875 1.125H21.9375C21.7883 1.12503 21.6453 1.18432 21.5398 1.28981L19.6875 3.14212L17.8352 1.28981C17.7297 1.18432 17.5867 1.12503 17.4375 1.125H15.1875C15.0383 1.12503 14.8953 1.18432 14.7898 1.28981L12.9375 3.14212L11.0852 1.28981C10.9797 1.18432 10.8367 1.12503 10.6875 1.125H8.4375C8.28833 1.12503 8.14528 1.18432 8.03981 1.28981L6.1875 3.14212L4.33519 1.28981C4.22972 1.18432 4.08667 1.12503 3.9375 1.125H1.6875C1.53832 1.125 1.39524 1.18426 1.28975 1.28975C1.18426 1.39524 1.125 1.53832 1.125 1.6875V28.6875C1.125 28.8367 1.18426 28.9798 1.28975 29.0852C1.39524 29.1907 1.53832 29.25 1.6875 29.25H3.9375C4.08667 29.25 4.22972 29.1907 4.33519 29.0852L6.1875 27.2329L7.3125 28.3579V34.3125C7.3125 34.4617 7.37176 34.6048 7.47725 34.7102C7.58274 34.8157 7.72582 34.875 7.875 34.875H10.125C10.2742 34.875 10.4172 34.8157 10.5227 34.7102L12.375 32.8579L14.2273 34.7102C14.3328 34.8157 14.4758 34.875 14.625 34.875H16.875C17.0242 34.875 17.1672 34.8157 17.2727 34.7102L19.125 32.8579L20.9773 34.7102C21.0828 34.8157 21.2258 34.875 21.375 34.875H23.625C23.7742 34.875 23.9172 34.8157 24.0227 34.7102L25.875 32.8579L27.7273 34.7102C27.8328 34.8157 27.9758 34.875 28.125 34.875H30.375C30.5242 34.875 30.6673 34.8157 30.7727 34.7102C30.8782 34.6048 30.9375 34.4617 30.9375 34.3125V7.3125C30.9375 7.16332 30.8782 7.02024 30.7727 6.91475C30.6673 6.80926 30.5242 6.75 30.375 6.75ZM5.78981 26.0398L3.70462 28.125H2.25V2.25H3.70462L5.78981 4.33519C5.8953 4.44064 6.03835 4.49988 6.1875 4.49988C6.33665 4.49988 6.4797 4.44064 6.58519 4.33519L8.67037 2.25H10.4546L12.5398 4.33519C12.6453 4.44064 12.7883 4.49988 12.9375 4.49988C13.0867 4.49988 13.2297 4.44064 13.3352 4.33519L15.4204 2.25H17.2046L19.2898 4.33519C19.3953 4.44064 19.5383 4.49988 19.6875 4.49988C19.8367 4.49988 19.9797 4.44064 20.0852 4.33519L22.1704 2.25H23.625V28.125H22.1704L20.0852 26.0398C19.9797 25.9344 19.8367 25.8751 19.6875 25.8751C19.5383 25.8751 19.3953 25.9344 19.2898 26.0398L17.2046 28.125H15.4204L13.3352 26.0398C13.2297 25.9344 13.0867 25.8751 12.9375 25.8751C12.7883 25.8751 12.6453 25.9344 12.5398 26.0398L10.4546 28.125H8.67037L6.58519 26.0398C6.4797 25.9344 6.33665 25.8751 6.1875 25.8751C6.03835 25.8751 5.8953 25.9344 5.78981 26.0398V26.0398ZM29.8125 33.75H28.3579L26.2727 31.6648C26.1672 31.5594 26.0242 31.5001 25.875 31.5001C25.7258 31.5001 25.5828 31.5594 25.4773 31.6648L23.3921 33.75H21.6079L19.5227 31.6648C19.4172 31.5594 19.2742 31.5001 19.125 31.5001C18.9758 31.5001 18.8328 31.5594 18.7273 31.6648L16.6421 33.75H14.8579L12.7727 31.6648C12.6672 31.5594 12.5242 31.5001 12.375 31.5001C12.2258 31.5001 12.0828 31.5594 11.9773 31.6648L9.89213 33.75H8.4375V29.25H10.6875C10.8367 29.25 10.9797 29.1907 11.0852 29.0852L12.9375 27.2329L14.7898 29.0852C14.8953 29.1907 15.0383 29.25 15.1875 29.25H17.4375C17.5867 29.25 17.7297 29.1907 17.8352 29.0852L19.6875 27.2329L21.5398 29.0852C21.6453 29.1907 21.7883 29.25 21.9375 29.25H24.1875C24.3367 29.25 24.4798 29.1907 24.5852 29.0852C24.6907 28.9798 24.75 28.8367 24.75 28.6875V9.23287L25.4773 9.96019C25.5828 10.0656 25.7258 10.1249 25.875 10.1249C26.0242 10.1249 26.1672 10.0656 26.2727 9.96019L28.3579 7.875H29.8125V33.75Z" fill="#3178F6"/>
<path d="M8.4375 16.875V11.8125H10.125V10.6875H5.625V11.8125H7.3125V16.875H8.4375Z" fill="#3178F6"/>
<path d="M15.1875 16.875V13.5C15.1876 13.4127 15.1674 13.3267 15.1284 13.2486L14.0034 10.9986C13.9567 10.9051 13.8849 10.8264 13.7959 10.7715C13.707 10.7165 13.6045 10.6875 13.5 10.6875H12.375C12.2705 10.6875 12.168 10.7165 12.0791 10.7715C11.9901 10.8264 11.9183 10.9051 11.8716 10.9986L10.7466 13.2486C10.7076 13.3267 10.6874 13.4127 10.6875 13.5V16.875H11.8125V15.1875H14.0625V16.875H15.1875ZM11.8125 14.0625V13.6328L12.7226 11.8125H13.1524L14.0625 13.6328V14.0625H11.8125ZM20.25 11.8125V10.6875H19.125C19.0162 10.6875 18.9097 10.719 18.8184 10.7784C18.7272 10.8377 18.6551 10.9222 18.6109 11.0216L18 12.3964L17.3891 11.0216C17.3449 10.9222 17.2728 10.8377 17.1816 10.7784C17.0903 10.719 16.9838 10.6875 16.875 10.6875H15.75V11.8125H16.5094L17.3846 13.7812L16.5094 15.75H15.75V16.875H16.875C16.9838 16.875 17.0903 16.8435 17.1816 16.7841C17.2728 16.7248 17.3449 16.6403 17.3891 16.5409L18 15.1661L18.6109 16.5409C18.6551 16.6403 18.7272 16.7248 18.8184 16.7841C18.9097 16.8435 19.0162 16.875 19.125 16.875H20.25V15.75H19.4906L18.6154 13.7812L19.4906 11.8125H20.25Z" fill="#3178F6"/>
<path d="M21.375 18H4.5V19.125H21.375V18Z" fill="#3178F6"/>
<path d="M21.375 8.4375H4.5V9.5625H21.375V8.4375Z" fill="#3178F6"/>
</svg>
