<svg width="26" height="26" viewBox="0 0 26 26" fill="none" xmlns="http://www.w3.org/2000/svg">
<path d="M14.4424 22.7731C13.8861 23.8656 12.3254 23.8656 11.7691 22.7731L6.63844 12.6977C6.22728 11.8903 6.62037 10.9055 7.47451 10.6031L12.1139 8.96059C12.893 8.68476 13.7446 8.69355 14.5178 8.9854L18.7767 10.5928C19.6128 10.9084 19.9892 11.8805 19.5837 12.6768L14.4424 22.7731Z" fill="white" fill-opacity="0.2" stroke="white"/>
<path d="M13.4828 8.10253C15.5319 8.10253 17.1931 6.44136 17.1931 4.39221C17.1931 2.34305 15.5319 0.681885 13.4828 0.681885C11.4336 0.681885 9.77246 2.34305 9.77246 4.39221C9.77246 6.44136 11.4336 8.10253 13.4828 8.10253Z" fill="white" fill-opacity="0.2" stroke="white"/>
</svg>
