<svg width="26" height="26" viewBox="0 0 26 26" fill="none" xmlns="http://www.w3.org/2000/svg">
<path d="M15.8252 8.08341L15.8251 8.08342L15.8275 8.08483C16.2523 8.33643 16.4885 8.58582 16.5675 9.03081L16.5675 9.03082L16.568 9.03354C16.6087 9.25358 16.6081 9.4761 16.5698 9.68899C16.5697 9.68883 16.5696 9.68867 16.5695 9.68852C16.6137 9.31144 16.4894 8.92116 16.1781 8.68319L16.1781 8.68314L16.1727 8.67914C16.0099 8.55903 15.8142 8.48463 15.6038 8.48463C15.603 8.48463 15.6021 8.48463 15.6013 8.48463C15.5797 8.30006 15.4718 8.12728 15.286 8.03883C15.1626 7.97817 15.0276 7.9509 14.9018 7.9509C14.8836 7.9509 14.8656 7.95145 14.8477 7.95253C14.9594 7.92028 15.0745 7.90391 15.1905 7.90391C15.4053 7.90391 15.6264 7.9638 15.8252 8.08341ZM13.8272 9.67876C13.7866 9.45952 13.787 9.27896 13.8182 9.11718C13.804 9.45866 13.9315 9.80026 14.2179 10.015C14.3858 10.1507 14.5795 10.2237 14.7881 10.2275C14.7946 10.2695 14.8052 10.3089 14.8184 10.3447C14.8617 10.4617 14.949 10.5838 15.0869 10.6577L15.0869 10.6579L15.0969 10.6629C15.2274 10.7282 15.3696 10.7534 15.5005 10.7534C15.6843 10.7534 15.8458 10.6956 15.9835 10.6136C16.0116 10.6223 16.0401 10.6284 16.0687 10.6322C15.8201 10.8644 15.5145 10.9847 15.1976 10.9847C14.9783 10.9847 14.7583 10.9244 14.565 10.8065L14.565 10.8065L14.5626 10.805C14.1905 10.5815 13.9163 10.1771 13.8276 9.68103L13.8272 9.67876ZM9.81794 9.57747L8.72513 11.418H5.32367C5.06245 11.4107 4.90869 11.348 4.82192 11.2785C4.74547 11.2173 4.68397 11.1216 4.66367 10.9535V10.0523C4.66367 9.74563 4.87715 9.57747 5.04045 9.57747H9.81794Z" fill="white" fill-opacity="0.2" stroke="white" stroke-width="0.8"/>
<path d="M16.4745 4.25752C16.7581 4.25752 17.0351 4.18177 17.2721 4.03733L17.8263 4.41564C17.7547 4.40358 17.6818 4.39737 17.6078 4.39737C17.5163 4.39737 17.4308 4.40771 17.3552 4.42057L17.3552 4.42042L17.3444 4.42256C16.9875 4.49344 16.6843 4.70596 16.4872 5.00528L16.4872 5.00525L16.4832 5.01155C16.2939 5.31122 16.2194 5.67412 16.288 6.0245L16.288 6.02451L16.2886 6.02758C16.3606 6.38054 16.5632 6.68682 16.8535 6.88936L16.8534 6.88944L16.8606 6.89425C17.0809 7.04096 17.3361 7.12264 17.6044 7.12264C18.0554 7.12264 18.4731 6.89053 18.7231 6.51746L18.7232 6.51749L18.7269 6.51164C19.0198 6.05761 19.0127 5.48424 18.7482 5.04503L19.2866 5.41256C19.2252 5.82902 19.339 6.26059 19.5919 6.6108L17.7461 9.43238C17.7439 9.27003 17.7268 9.10681 17.6944 8.94468L17.6943 8.94427C17.5412 8.18308 17.0684 7.52772 16.3884 7.15731C16.0204 6.95486 15.6069 6.85569 15.1935 6.85569C14.8584 6.85569 14.5319 6.92056 14.23 7.04408L16.0806 4.20888C16.2065 4.2396 16.339 4.25752 16.4745 4.25752ZM11.375 11.4181L12.6362 9.48592C12.6379 9.64585 12.6542 9.80659 12.6855 9.96624C12.797 10.5358 13.0889 11.0425 13.5124 11.4181H11.375Z" fill="white" fill-opacity="0.2" stroke="white" stroke-width="0.8"/>
<path d="M21.5815 6.16853C21.5471 5.99846 21.4435 5.86614 21.328 5.78178L21.3281 5.78164L21.3181 5.77477C21.0573 5.59618 21.0386 5.32044 21.1174 5.19825L21.1174 5.19827L21.1199 5.19433C21.1602 5.13019 21.1881 5.05959 21.2032 4.98657L21.9984 5.52895L21.5815 6.16853ZM17.3117 2.33229C17.2421 2.37887 17.1832 2.43805 17.1379 2.5037L17.1378 2.50365L17.133 2.51102C17.0882 2.57914 17.0037 2.63397 16.8708 2.63397C16.7719 2.63397 16.6628 2.60205 16.5635 2.53507C16.4481 2.45432 16.3211 2.42703 16.213 2.42703C16.1655 2.42703 16.119 2.43234 16.0742 2.44247L16.5047 1.78182L17.3117 2.33229ZM21.5233 11.6606C21.2532 11.5336 20.9609 11.4659 20.6584 11.4659H19.611L20.6764 9.83062H21.1354C21.3399 9.83062 21.5233 10.0052 21.5233 10.2362V11.6606ZM19.7457 17.7675H21.0949V20.1418H19.755C20.0576 19.8412 20.2449 19.4221 20.2449 18.9602C20.2449 18.4957 20.0545 18.0707 19.7457 17.7675Z" fill="white" fill-opacity="0.2" stroke="white" stroke-width="0.8"/>
<path d="M18.7882 18.9394C18.7882 19.043 18.7031 19.129 18.5973 19.129C18.4914 19.129 18.4063 19.043 18.4063 18.9394C18.4063 18.8335 18.4938 18.7472 18.5973 18.7472C18.7007 18.7472 18.7882 18.8335 18.7882 18.9394Z" fill="white" fill-opacity="0.2" stroke="white" stroke-width="0.8"/>
<path d="M4.81358 12.9947L4.81358 12.9948H4.82261H20.2235C20.6938 12.9948 21.0895 13.3887 21.0895 13.8875V16.4841H17.8971C16.6424 16.4841 15.6397 17.5285 15.6397 18.788V19.0695C15.6397 20.3328 16.6424 21.3734 17.8935 21.3734H21.0895V24.3516C21.0895 24.6482 20.8583 24.8702 20.595 24.8702H4.65309C4.39345 24.8702 4.16222 24.6482 4.16222 24.3553V12.8995C4.36642 12.9593 4.58558 12.9896 4.81358 12.9947ZM17.7042 5.60722L17.7115 5.6123L17.719 5.61705C17.7464 5.63447 17.7645 5.66396 17.7685 5.69042L17.7704 5.70367L17.7733 5.71676C17.7808 5.75105 17.776 5.79269 17.7466 5.83967C17.7192 5.88252 17.674 5.9053 17.6302 5.9053C17.5964 5.9053 17.572 5.89502 17.559 5.88552L17.5591 5.88539L17.5496 5.87894C17.5169 5.85654 17.4906 5.81785 17.4818 5.77679C17.4734 5.73008 17.483 5.68693 17.5077 5.64893C17.5303 5.61412 17.5646 5.59122 17.5955 5.58307C17.6183 5.57949 17.628 5.57926 17.6302 5.57926C17.6459 5.57926 17.6719 5.58469 17.7042 5.60722Z" fill="white" fill-opacity="0.2" stroke="white" stroke-width="0.8"/>
</svg>
