<svg width="22" height="22" viewBox="0 0 22 22" fill="none" xmlns="http://www.w3.org/2000/svg">
<path d="M11.1334 12.1C11.1334 12.2289 11.2379 12.3334 11.3668 12.3334C11.4956 12.3334 11.6001 12.2289 11.6001 12.1C11.6001 11.9712 11.4956 11.8667 11.3668 11.8667C11.2379 11.8667 11.1334 11.9712 11.1334 12.1Z" fill="white" fill-opacity="0.2" stroke="white"/>
<path d="M8.56657 11.1833C8.56657 11.4134 8.75312 11.5999 8.98324 11.5999C9.21335 11.5999 9.3999 11.4134 9.3999 11.1833C9.3999 10.9531 9.21335 10.7666 8.98324 10.7666C8.75312 10.7666 8.56657 10.9531 8.56657 11.1833Z" fill="white" fill-opacity="0.2" stroke="white"/>
<path d="M3.51862 20.0333H7.88426L6.13437 14.4333H1.65183L3.51862 20.0333Z" fill="white" fill-opacity="0.2" stroke="white"/>
<path d="M12.1002 19.5667H9.55909C9.56883 19.5981 9.57762 19.6272 9.58539 19.6538C9.62523 19.7907 9.65109 19.9059 9.66155 20.0333H12.3335V19.8C12.3335 19.6713 12.2288 19.5667 12.1002 19.5667Z" fill="white" fill-opacity="0.2" stroke="white"/>
<path d="M14.412 11.5944L14.0383 11.4375C13.3885 11.1645 12.9668 10.5844 12.9668 9.90011V6.96678C12.9668 6.23983 13.4728 5.72183 14.0197 5.62596L14.412 11.5944ZM14.412 11.5944L14.3358 11.9924M14.412 11.5944L14.3358 11.9924M14.3358 11.9924L14.1088 13.1792C14.3113 13.3353 14.5768 13.4334 14.8501 13.4334C15.1234 13.4334 15.3889 13.3354 15.5914 13.1793L15.3674 12.0125L15.2889 11.6033L15.6772 11.4523C16.3303 11.1983 16.7335 10.636 16.7335 9.90011V6.96678V6.73495M14.3358 11.9924L16.7335 6.73495M16.7335 6.73495L16.9104 6.58516M16.7335 6.73495L16.9104 6.58516M16.9104 6.58516C17.1441 6.3873 17.2688 6.25249 17.3452 6.11294C17.4162 5.98313 17.4668 5.80877 17.4668 5.50011C17.4668 5.20884 17.4402 5.02908 17.3972 4.89616M16.9104 6.58516L17.3972 4.89616M17.3972 4.89616C17.3242 4.97086 17.2477 5.0378 17.1663 5.09684C16.8944 5.29419 16.6111 5.37258 16.3192 5.41063C16.131 5.43515 15.9078 5.4454 15.6722 5.45621C15.5748 5.46068 15.4753 5.46525 15.3753 5.47097C15.0137 5.49162 14.5748 5.52882 14.0198 5.62594L17.3972 4.89616Z" fill="white" fill-opacity="0.2" stroke="white"/>
<path d="M19.1403 18.3847L19.1398 18.3834L18.405 16.5457C18.4049 16.5456 18.4049 16.5455 18.4048 16.5453C18.2269 16.099 17.7206 15.8842 17.2777 16.0619M19.1403 18.3847L17.4637 16.526M19.1403 18.3847C19.1843 18.4955 19.1998 18.6014 19.1998 18.7H18.6998L19.1998 18.699C19.2006 19.1447 18.8458 19.5666 18.3382 19.5666H18.3218H18.3054H18.2892H18.2731H18.2571H18.2411H18.2253H18.2096H18.194H18.1786H18.1632H18.1479H18.1327H18.1177H18.1027H18.0878H18.0731H18.0584H18.0439H18.0294H18.0151H18.0009H17.9867H17.9727H17.9587H17.9449H17.9311H17.9175H17.9039H17.8905H17.8771H17.8639H17.8507H17.8377H17.8247H17.8118H17.799H17.7863H17.7738H17.7613H17.7488H17.7365H17.7243H17.7122H17.7001H17.6882H17.6763H17.6646H17.6529H17.6413H17.6298H17.6184H17.6071H17.5958H17.5847H17.5736H17.5626H17.5517H17.5409H17.5302H17.5196H17.509H17.4986H17.4882H17.4779H17.4676H17.4575H17.4474H17.4375H17.4276H17.4177H17.408H17.3983H17.3888H17.3792H17.3698H17.3605H17.3512H17.342H17.3329H17.3238H17.3149H17.306H17.2972H17.2884H17.2797H17.2711H17.2626H17.2542H17.2458H17.2375H17.2292H17.2211H17.213H17.2049H17.197H17.1891H17.1813H17.1735H17.1658H17.1582H17.1506H17.1431H17.1357H17.1284H17.1211H17.1138H17.1067H17.0996H17.0925H17.0856H17.0786H17.0718H17.065H17.0583H17.0516H17.045H17.0384H17.032H17.0255H17.0191H17.0128H17.0066H17.0004H16.9942H16.9881H16.9821H16.9761H16.9702H16.9643H16.9585H16.9528H16.9471H16.9414H16.9358H16.9303H16.9248H16.9193H16.9139H16.9086H16.9033H16.898H16.8928H16.8877H16.8826H16.8775H16.8725H16.8676H16.8627H16.8578H16.853H16.8482H16.8435H16.8388H16.8341H16.8295H16.825H16.8204H16.816H16.8115H16.8071H16.8028H16.7985H16.7942H16.79H16.7858H16.7816H16.7775H16.7734H16.7694H16.7654H16.7614H16.7575H16.7536H16.7497H16.7459H16.7421H16.7383H16.7346H16.7309H16.7273H16.7236H16.72H16.7165H16.7129H16.7094H16.706H16.7025H16.6991H16.6957H16.6923H16.689H16.6857H16.6824H16.6792H16.6759H16.6727H16.6696H16.6664H16.6633H16.6602H16.6571H16.6541H16.651H16.648H16.645H16.6421H16.6391H16.6362H16.6333H16.6304H16.6275H16.6247H16.6218H16.619H16.6162H16.6134H16.6107H16.6079H16.6052H16.6025H16.5998H16.5971H16.5944H16.5918H16.5891H16.5865H16.5839H16.5812H16.5786H16.5761H16.5735H16.5709H16.5684H16.5658H16.5633H16.5607H16.5582H16.5557H16.5532H16.5507H16.5482H16.5457H16.5432H16.5407H16.5382H16.5358H16.5333H16.5308H16.5284H16.5259H16.5235H16.521H16.5185H16.5161H16.5136H16.5112H16.5087H16.5062H16.5038H16.5013H16.4989H16.4964H16.4939H16.4914H16.489H16.4865H16.484H16.4815H16.479H16.4765H16.474H16.4715H16.4689H16.4664H16.4638H16.4613H16.4587H16.4562H16.4536H16.451H16.4484H16.4457H16.4431H16.4405H16.4378H16.4352H16.4325H16.4298H16.4271H16.4243H16.4216H16.4188H16.4161H16.4133H16.4105H16.4076H16.4048H16.4019H16.3991H16.3962H16.3932H16.3903H16.3873H16.3844H16.3814H16.3783H16.3753H16.3722H16.3691H16.366H16.3629H16.3597H16.3565H16.3533H16.3501H16.3468H16.3435H16.3402H16.3368H16.3335H16.33H16.3266H16.3231H16.3197H16.3161H16.3126H16.309H16.3054H16.3017H16.298H16.2943H16.2906H16.2868H16.283H16.2791H16.2753H16.2713H16.2674H16.2634H16.2594H16.2553H16.2512H16.2471H16.2429H16.2387H16.2344H16.2301H16.2258H16.2214H16.217H16.2125H16.208H16.2035H16.1989H16.1943H16.1896H16.1849H16.1801H16.1753H16.1705H16.1656H16.1607H16.1557H16.1506H16.1455H16.1404H16.1352H16.13H16.1247H16.1194H16.114H16.1086H16.1031H16.0976H16.092H16.0864H16.0807H16.075H16.0692H16.0633H16.0574H16.0515H16.0455H16.0394H16.0333H16.0271H16.0209H16.0146H16.0082H16.0018H15.9954H15.9888H15.9822H15.9756H15.9689H15.9621H15.9553H15.9484H15.9415H15.9345H15.9274H15.9202H15.913H15.9058H15.8984H15.891H15.8836H15.8761H15.8685H15.8608H15.8531H15.8453H15.8374H15.8295H15.8215H15.8134H15.8053H15.797H15.7888H15.7804H15.772H15.7635H15.7549H15.7463H15.7376H15.7288H15.7199H15.711H15.702H15.6929H15.6837H15.6745H15.6651H15.6557H15.6463H15.6367H15.6271H15.6174H15.6076H15.5977H15.5878H15.5778H15.5676H15.5575H15.5472H15.5368H15.5264H15.5159H15.5053H15.4946H15.4838H15.4729H15.462H15.451H15.4399H15.4287H15.4174H15.406H15.3945H15.383H15.3713H15.3596H15.3478H15.3359H15.3239H15.3118H15.2996H15.2873H15.275H15.2625H15.2499H15.2373H15.2245H15.2117H15.1988H15.1858H15.1726H15.1594H15.1461H15.1327H15.1192H15.1056H15.0919H15.0781H15.0642H15.0502H15.0361H15.0219H15.0075H14.9931H14.9786H14.964H14.9493H14.9345H14.9196H14.9046H14.8894H14.8742H14.8589H14.8434H14.8279H14.8122H14.7964H14.7806H14.7646H14.7485H14.7323H14.716H14.6996H14.6831H14.6664C14.5636 19.5666 14.5168 19.6012 14.4911 19.6298C14.458 19.6667 14.4326 19.7272 14.4327 19.799C14.4329 19.8699 14.4579 19.9273 14.491 19.9627C14.5172 19.9907 14.5738 20.0333 14.7053 20.0333H19.7994C20.089 20.0333 20.2144 19.9613 20.2709 19.9048C20.3274 19.8483 20.3994 19.7229 20.3994 19.4333C20.3994 18.9678 20.2328 18.28 20.0001 17.5353C19.8521 17.0619 19.6922 16.6087 19.5489 16.2025C19.4672 15.9709 19.3909 15.7546 19.3253 15.5587L19.3253 15.5587C19.163 15.0738 18.9367 14.7004 18.6579 14.4518C18.3882 14.2112 18.0474 14.0667 17.5994 14.0667H17.1228C16.5932 14.7364 15.7674 15.1667 14.8494 15.1667C13.9314 15.1667 13.1057 14.7364 12.576 14.0667M19.1403 18.3847L12.576 14.0667M17.2777 16.0619C17.2776 16.062 17.2774 16.062 17.2773 16.0621L17.4637 16.526M17.2777 16.0619C17.2779 16.0618 17.278 16.0618 17.2782 16.0617L17.4637 16.526M17.2777 16.0619C16.8338 16.2396 16.6172 16.7436 16.7948 17.1882L16.7949 17.1884L17.053 17.8333M17.4637 16.526C17.2756 16.6012 17.184 16.8146 17.2591 17.0027L17.5915 17.8333H17.053M17.053 17.8333L17.253 18.3333H17.7915H12.4462L12.6462 17.8333M17.053 17.8333H12.6462M12.6462 17.8333H12.1077L11.9076 18.3333L12.44 17.0027C12.5152 16.8146 12.4235 16.6012 12.2354 16.526M12.6462 17.8333L12.9043 17.1884L12.9043 17.1882C13.082 16.7436 12.8654 16.2396 12.4215 16.0619M12.4215 16.0619C12.4216 16.062 12.4218 16.062 12.4219 16.0621L12.2354 16.526M12.4215 16.0619C12.4213 16.0618 12.4211 16.0618 12.421 16.0617L12.2354 16.526M12.4215 16.0619C11.9785 15.8841 11.4721 16.0991 11.2943 16.5456C11.2943 16.5456 11.2942 16.5457 11.2942 16.5457L11.7588 16.7306C11.8339 16.5418 12.0484 16.4509 12.2354 16.526M11.1182 18.3333H9.47303C9.51384 18.1693 9.55978 18.0019 9.60913 17.8333M11.1182 18.3333L12.0994 13.5667C10.9613 13.5667 10.2606 14.3209 9.89942 15.4C9.83933 15.5794 9.76634 15.7867 9.68684 16.0124C9.4954 16.5559 9.26627 17.2064 9.08901 17.8333H9.60913M11.1182 18.3333L10.6539 18.1477L10.7796 17.8333M11.1182 18.3333V17.8333H10.7796M9.60913 17.8333C9.77302 17.2736 9.97454 16.7013 10.1507 16.201C10.2326 15.9685 10.309 15.7516 10.3735 15.5587L10.3736 15.5587C10.5358 15.0738 10.7622 14.7004 11.0409 14.4518C11.3106 14.2112 11.6514 14.0667 12.0994 14.0667H12.576M9.60913 17.8333H10.7796M12.576 14.0667L10.7796 17.8333" fill="white" fill-opacity="0.2" stroke="white"/>
<path d="M3.66 3.43907L3.67523 3.46518L3.71717 3.4512L4.91834 3.05081L4.7763 2.80055C4.65873 2.59339 4.44921 2.46655 4.21673 2.46655C3.85785 2.46655 3.56673 2.75767 3.56673 3.11655C3.56673 3.22216 3.59643 3.33012 3.66 3.43907ZM6.67634 2.76011L8.74963 3.4512L9.40212 3.6687L9.4334 3.65619V3.67913L9.50387 3.70262C9.22414 2.97936 8.52199 2.46655 7.70007 2.46655C7.32388 2.46655 6.97359 2.57362 6.67634 2.76011ZM9.61127 4.99244L9.4334 5.06655V5.13322V7.69989V8.37692L9.13878 8.49477C9.20713 8.52035 9.27797 8.53322 9.35006 8.53322C9.70895 8.53322 10.0001 8.2421 10.0001 7.88322C10.0001 7.85113 9.9946 7.80164 9.97158 7.7164L9.77595 6.99198L10.4168 6.60164C10.6132 6.48204 10.7334 6.27726 10.7334 6.04989C10.7334 5.7756 10.558 5.53477 10.2959 5.44241L9.60439 5.19874L9.61127 4.99244ZM6.86673 9.6386C6.99119 9.5351 7.09943 9.41261 7.18698 9.27549L6.97146 9.3617L6.86673 9.40359V9.6386ZM6.61505 9.80958L6.2334 9.65692L5.60007 9.91025V9.40359L5.49534 9.3617L4.36428 8.90927L4.43918 9.07517C4.68671 9.62342 5.23405 9.99989 5.86673 9.99989C6.13747 9.99989 6.39252 9.931 6.61505 9.80958ZM2.10007 6.59989C2.10007 7.29997 2.47361 7.91388 3.0334 8.25231V7.69989V5.13322V5.06655L2.92288 5.0205C2.4236 5.37112 2.10007 5.94853 2.10007 6.59989Z" fill="white" fill-opacity="0.2" stroke="white" stroke-width="2"/>
</svg>
