<svg width="24" height="24" viewBox="0 0 24 24" fill="none" xmlns="http://www.w3.org/2000/svg">
<path d="M3.51779 11.3822L3.51713 11.3826C3.34531 11.5008 3.23455 11.6979 3.23455 11.9173L3.23455 15.8526C3.23455 16.1287 3.40762 16.3618 3.64797 16.4569C3.648 16.4569 3.64803 16.457 3.64806 16.457L11.2133 19.4505C11.2135 19.4506 11.2137 19.4507 11.2139 19.4508C11.2933 19.4823 11.3765 19.4976 11.4586 19.4976C11.5815 19.4976 11.7061 19.4634 11.8156 19.3933C11.8157 19.3933 11.8159 19.3932 11.816 19.3931L11.5461 18.9722C11.59 18.9441 11.6162 18.897 11.6162 18.8467L3.51779 11.3822ZM3.51779 11.3822C3.68881 11.265 3.9037 11.236 4.09751 11.299L4.09773 11.2991L3.94289 11.7745M3.51779 11.3822L3.94289 11.7745M3.94289 11.7745L4.09779 11.2991L4.09798 11.2992L4.09871 11.2994L4.10162 11.3004L4.11311 11.3041L4.15795 11.3187L4.32827 11.3742L4.9373 11.5726L6.79534 12.1778C7.87007 12.5279 8.95806 12.8824 9.40102 13.0269L3.94289 11.7745Z" fill="white" fill-opacity="0.2" stroke="white"/>
<path d="M12.1618 5.5194L12.1618 5.5194C12.0798 5.50009 11.9594 5.48821 11.8353 5.5182M12.1618 5.5194L11.9528 6.00421M12.1618 5.5194L12.1644 5.52002L20.5584 7.54416L20.5586 7.5442C20.6816 7.57392 20.8051 7.64047 20.9006 7.74957C20.9006 7.74959 20.9007 7.74961 20.9007 7.74963C20.9008 7.74973 20.9009 7.74984 20.901 7.74995L22.3447 9.39775C22.3447 9.39775 22.3447 9.39776 22.3447 9.39776C22.4882 9.56155 22.5434 9.79609 22.4631 10.018L22.4629 10.0185C22.3855 10.2316 22.2096 10.3641 22.0324 10.4155L22.0322 10.4156L14.9343 12.473L14.9341 12.4731C14.872 12.4911 14.8081 12.5 14.7445 12.5C14.5773 12.5 14.3953 12.4374 14.2597 12.2946L14.2596 12.2945L12.4703 10.4109L12.1612 10.4836C12.161 10.4836 12.1608 10.4837 12.1607 10.4837C12.1606 10.4837 12.1606 10.4837 12.1605 10.4837C12.0594 10.5075 11.9539 10.5078 11.8529 10.4848M12.1618 5.5194L11.8529 10.4848M11.8353 5.5182L11.9528 6.00421M11.8353 5.5182L11.8356 5.51814L11.9528 6.00421M11.8353 5.5182L3.44171 7.54224L3.55881 8.02834M11.9528 6.00421L3.55881 8.02834M3.55881 8.02834L3.4416 7.54227M3.55881 8.02834L3.4416 7.54227M3.4416 7.54227C3.31771 7.57214 3.19446 7.63907 3.09927 7.74776L1.65536 9.39582C1.51175 9.55972 1.45682 9.79393 1.53664 10.0154L1.53707 10.0166C1.61448 10.2297 1.79038 10.3622 1.96753 10.4137L1.96773 10.4137L9.06564 12.4712L9.06588 12.4712C9.12865 12.4894 9.19259 12.4981 9.25549 12.4981C9.42233 12.4981 9.60445 12.4357 9.74029 12.2927L9.74038 12.2926L11.5297 10.409M3.4416 7.54227L11.5297 10.409M2.24634 9.45332L2.23474 9.49328L2.23444 9.49362L2.24614 9.45326L2.24634 9.45332ZM2.24634 9.45332L2.265 9.45873L2.26456 9.45923C2.2584 9.45702 2.25231 9.45505 2.24634 9.45332ZM11.8529 10.4848C11.8485 10.4839 11.8437 10.4828 11.8384 10.4816L11.5297 10.409M11.8529 10.4848L11.5297 10.409M2.4314 10.0275L2.40799 10.0543C2.41557 10.0456 2.42276 10.0365 2.42954 10.027L2.4314 10.0275ZM21.5925 10.0568L21.5925 10.0567C21.5925 10.0568 21.5925 10.0568 21.5925 10.0568ZM15.8429 8.01268L11.9955 7.09032L8.15394 8.01146L11.9957 8.91037L15.8429 8.01268Z" fill="white" fill-opacity="0.2" stroke="white"/>
<path d="M12.7861 19.4532L20.3522 16.4593L20.3522 16.4593C20.5921 16.3643 20.7656 16.1314 20.7656 15.8549L20.7656 11.9196C20.7656 11.7004 20.6551 11.503 20.4828 11.3847L20.4824 11.3844L20.4824 11.3844C20.3113 11.2672 20.0965 11.2383 19.9028 11.3012L19.9024 11.3014L20.0573 11.7768L19.9024 11.3014L19.9022 11.3014L19.9015 11.3017L19.8986 11.3026L19.8871 11.3064L19.8422 11.321L19.6719 11.3764L19.0629 11.5748L17.2049 12.1801C16.1301 12.5302 15.0421 12.8847 14.5992 13.0291L13.0462 11.1922C13.0461 11.1921 13.046 11.192 13.046 11.1919C12.8672 10.9805 12.58 10.9087 12.3287 10.9938L12.7861 19.4532ZM12.7861 19.4532C12.786 19.4532 12.786 19.4533 12.786 19.4533M12.7861 19.4532L12.786 19.4533M12.786 19.4533C12.7859 19.4533 12.7859 19.4533 12.7858 19.4533M12.786 19.4533L12.7858 19.4533M12.7858 19.4533C12.7068 19.4846 12.6238 19.4999 12.5417 19.4999C12.4185 19.4999 12.2937 19.4656 12.1842 19.3954M12.7858 19.4533L12.1842 19.3954M12.1842 19.3954C12.0023 19.2788 11.884 19.0759 11.884 18.849M12.1842 19.3954L11.884 18.849M11.884 18.849L11.884 11.6096M11.884 18.849L11.884 11.6096M11.884 11.6096C11.884 11.3201 12.0736 11.0802 12.3286 10.9938L11.884 11.6096Z" fill="white" fill-opacity="0.2" stroke="white"/>
</svg>
