<svg width="26" height="26" viewBox="0 0 26 26" fill="none" xmlns="http://www.w3.org/2000/svg">
<mask id="path-1-inside-1_1165_528" fill="white">
<path d="M24.8553 14.2973C24.7838 14.1707 24.6881 14.0598 24.5736 13.971C24.4591 13.8822 24.3282 13.8172 24.1885 13.7799C24.0489 13.7426 23.9032 13.7337 23.7601 13.7538C23.617 13.7738 23.4792 13.8224 23.355 13.8967L17.5037 17.313C17.4286 17.2298 17.3536 17.1542 17.2711 17.0787L23.0849 13.481C23.1253 13.4562 23.1605 13.4236 23.1884 13.3851C23.2163 13.3466 23.2364 13.303 23.2475 13.2566C23.2587 13.2103 23.2606 13.1622 23.2533 13.1151C23.246 13.068 23.2296 13.0229 23.2049 12.9822L19.8067 7.35893C19.7827 7.31774 19.7502 7.28225 19.7113 7.25486C19.6725 7.22747 19.6283 7.20883 19.5816 7.20021C19.4947 7.16642 19.3985 7.16642 19.3116 7.20021L16.6035 8.9159L15.2532 9.76996L12.6876 11.3572C12.6464 11.3809 12.6109 11.4136 12.5837 11.4528C12.5564 11.492 12.5381 11.5368 12.5301 11.5839C12.4965 11.6715 12.4965 11.7685 12.5301 11.856L15.1631 16.1717C14.9362 16.1489 14.7075 16.1489 14.4805 16.1717L6.60374 2.75604L6.34119 2.30255C6.31001 2.24703 6.26296 2.20225 6.20616 2.17407C6.03645 2.05658 5.83439 1.99577 5.62853 2.00023H2.01272C1.74413 2.00023 1.48654 2.10773 1.29662 2.29908C1.1067 2.49043 1 2.74996 1 3.02057C1 3.29119 1.1067 3.55071 1.29662 3.74207C1.48654 3.93342 1.74413 4.04092 2.01272 4.04092H4.49578L12.335 17.381C11.7884 18.0085 11.4848 18.8135 11.4798 19.6484C11.5214 20.5513 11.9067 21.4034 12.5556 22.0276C13.2045 22.6517 14.0672 23 14.9644 23C15.8615 23 16.7242 22.6517 17.3731 22.0276C18.022 21.4034 18.4073 20.5513 18.4489 19.6484C18.4566 19.5327 18.4566 19.4165 18.4489 19.3007L24.4502 15.7711C24.5758 15.6991 24.6859 15.6026 24.7741 15.4873C24.8622 15.3719 24.9267 15.24 24.9637 15.0993C25.0007 14.9586 25.0095 14.8118 24.9896 14.6676C24.9697 14.5235 24.9215 14.3847 24.8478 14.2595L24.8553 14.2973ZM16.4009 15.7258L14.0604 11.8787L15.5607 10.9717L15.9808 11.7275C16.0074 11.7764 16.045 11.8183 16.0906 11.8498C16.1362 11.8813 16.1886 11.9015 16.2434 11.9089H16.2959C16.391 11.9068 16.482 11.8691 16.551 11.8031L17.0911 11.2589L17.7512 11.0624C17.8036 11.0453 17.8515 11.0168 17.8917 10.9789C17.9319 10.941 17.9633 10.8947 17.9838 10.8432C18.0061 10.7933 18.0177 10.7392 18.0177 10.6845C18.0177 10.6298 18.0061 10.5757 17.9838 10.5258L17.5562 9.76996L19.1915 8.75718L21.7496 12.9519L16.8217 16.2917C16.8217 16.2917 16.8217 16.2917 16.4009 15.7258Z"/>
</mask>
<path d="M24.8553 14.2973C24.7838 14.1707 24.6881 14.0598 24.5736 13.971C24.4591 13.8822 24.3282 13.8172 24.1885 13.7799C24.0489 13.7426 23.9032 13.7337 23.7601 13.7538C23.617 13.7738 23.4792 13.8224 23.355 13.8967L17.5037 17.313C17.4286 17.2298 17.3536 17.1542 17.2711 17.0787L23.0849 13.481C23.1253 13.4562 23.1605 13.4236 23.1884 13.3851C23.2163 13.3466 23.2364 13.303 23.2475 13.2566C23.2587 13.2103 23.2606 13.1622 23.2533 13.1151C23.246 13.068 23.2296 13.0229 23.2049 12.9822L19.8067 7.35893C19.7827 7.31774 19.7502 7.28225 19.7113 7.25486C19.6725 7.22747 19.6283 7.20883 19.5816 7.20021C19.4947 7.16642 19.3985 7.16642 19.3116 7.20021L16.6035 8.9159L15.2532 9.76996L12.6876 11.3572C12.6464 11.3809 12.6109 11.4136 12.5837 11.4528C12.5564 11.492 12.5381 11.5368 12.5301 11.5839C12.4965 11.6715 12.4965 11.7685 12.5301 11.856L15.1631 16.1717C14.9362 16.1489 14.7075 16.1489 14.4805 16.1717L6.60374 2.75604L6.34119 2.30255C6.31001 2.24703 6.26296 2.20225 6.20616 2.17407C6.03645 2.05658 5.83439 1.99577 5.62853 2.00023H2.01272C1.74413 2.00023 1.48654 2.10773 1.29662 2.29908C1.1067 2.49043 1 2.74996 1 3.02057C1 3.29119 1.1067 3.55071 1.29662 3.74207C1.48654 3.93342 1.74413 4.04092 2.01272 4.04092H4.49578L12.335 17.381C11.7884 18.0085 11.4848 18.8135 11.4798 19.6484C11.5214 20.5513 11.9067 21.4034 12.5556 22.0276C13.2045 22.6517 14.0672 23 14.9644 23C15.8615 23 16.7242 22.6517 17.3731 22.0276C18.022 21.4034 18.4073 20.5513 18.4489 19.6484C18.4566 19.5327 18.4566 19.4165 18.4489 19.3007L24.4502 15.7711C24.5758 15.6991 24.6859 15.6026 24.7741 15.4873C24.8622 15.3719 24.9267 15.24 24.9637 15.0993C25.0007 14.9586 25.0095 14.8118 24.9896 14.6676C24.9697 14.5235 24.9215 14.3847 24.8478 14.2595L24.8553 14.2973ZM16.4009 15.7258L14.0604 11.8787L15.5607 10.9717L15.9808 11.7275C16.0074 11.7764 16.045 11.8183 16.0906 11.8498C16.1362 11.8813 16.1886 11.9015 16.2434 11.9089H16.2959C16.391 11.9068 16.482 11.8691 16.551 11.8031L17.0911 11.2589L17.7512 11.0624C17.8036 11.0453 17.8515 11.0168 17.8917 10.9789C17.9319 10.941 17.9633 10.8947 17.9838 10.8432C18.0061 10.7933 18.0177 10.7392 18.0177 10.6845C18.0177 10.6298 18.0061 10.5757 17.9838 10.5258L17.5562 9.76996L19.1915 8.75718L21.7496 12.9519L16.8217 16.2917C16.8217 16.2917 16.8217 16.2917 16.4009 15.7258Z" fill="white" fill-opacity="0.2"/>
<path d="M24.8553 14.2973L24.2458 14.6415L25.5419 14.161L24.8553 14.2973ZM23.355 13.8967L23.7079 14.5012L23.7141 14.4976L23.355 13.8967ZM17.5037 17.313L16.984 17.7819L17.3652 18.2044L17.8566 17.9175L17.5037 17.313ZM17.2711 17.0787L16.9028 16.4834L16.1162 16.9701L16.7983 17.5949L17.2711 17.0787ZM23.0849 13.481L22.7187 12.8844L22.7166 12.8858L23.0849 13.481ZM23.2049 12.9822L22.6058 13.3442L22.6062 13.3449L23.2049 12.9822ZM19.8067 7.35893L19.2018 7.71141L19.2076 7.72098L19.8067 7.35893ZM19.5816 7.20021L19.328 7.85264L19.3895 7.87654L19.4543 7.88854L19.5816 7.20021ZM19.3116 7.20021L19.0579 6.54778L18.9945 6.57245L18.9369 6.60889L19.3116 7.20021ZM16.6035 8.9159L16.9777 9.50749L16.9781 9.50722L16.6035 8.9159ZM15.2532 9.76997L15.6215 10.3653L15.6274 10.3616L15.2532 9.76997ZM12.6876 11.3572L13.0375 11.9634L13.0468 11.9581L13.0559 11.9525L12.6876 11.3572ZM12.5301 11.5839L13.1838 11.8343L13.2084 11.77L13.22 11.7021L12.5301 11.5839ZM12.5301 11.856L11.8764 12.1064L11.8992 12.166L11.9325 12.2206L12.5301 11.856ZM15.1631 16.1717L15.0932 16.8682L16.4939 17.0088L15.7607 15.8071L15.1631 16.1717ZM14.4805 16.1717L13.8768 16.5261L14.104 16.913L14.5504 16.8682L14.4805 16.1717ZM6.60374 2.75604L5.99794 3.10678L6.0001 3.11046L6.60374 2.75604ZM6.34119 2.30255L5.73075 2.64526L5.7354 2.65329L6.34119 2.30255ZM6.20616 2.17407L5.80773 2.74961L5.8495 2.77853L5.895 2.80111L6.20616 2.17407ZM5.62853 2.00023V2.70023H5.6361L5.64368 2.70006L5.62853 2.00023ZM2.01272 2.00023V1.30023V2.00023ZM1 3.02057H0.3H1ZM2.01272 4.04092V4.74092V4.04092ZM4.49578 4.04092L5.09929 3.68627L4.89634 3.34092H4.49578V4.04092ZM12.335 17.381L12.8629 17.8407L13.1938 17.4608L12.9385 17.0263L12.335 17.381ZM11.4798 19.6484L10.7798 19.6442L10.7797 19.6624L10.7806 19.6806L11.4798 19.6484ZM14.9644 23V22.3V23ZM18.4489 19.6484L17.7504 19.602L17.7499 19.6091L17.7496 19.6162L18.4489 19.6484ZM18.4489 19.3007L18.094 18.6974L17.7218 18.9163L17.7504 19.3472L18.4489 19.3007ZM24.4502 15.7711L24.102 15.1638L24.0953 15.1677L24.4502 15.7711ZM24.8478 14.2595L25.451 13.9043L24.1612 14.3958L24.8478 14.2595ZM16.4009 15.7258L15.8029 16.0896L15.8198 16.1173L15.8392 16.1434L16.4009 15.7258ZM14.0604 11.8787L13.6983 11.2796L13.0975 11.6428L13.4624 12.2425L14.0604 11.8787ZM15.5607 10.9717L16.1726 10.6316L15.8199 9.99708L15.1986 10.3727L15.5607 10.9717ZM15.9808 11.7275L16.5958 11.393L16.5927 11.3874L15.9808 11.7275ZM16.2434 11.9089L16.1501 12.6027L16.1965 12.6089H16.2434V11.9089ZM16.2959 11.9089V12.6089H16.3036L16.3113 12.6087L16.2959 11.9089ZM16.551 11.8031L17.0348 12.309L17.0414 12.3027L17.0478 12.2962L16.551 11.8031ZM17.0911 11.2589L16.8914 10.588L16.7201 10.639L16.5942 10.7658L17.0911 11.2589ZM17.7512 11.0624L17.9509 11.7333L17.9598 11.7307L17.9687 11.7278L17.7512 11.0624ZM17.9838 10.8432L17.3451 10.5568L17.3388 10.5708L17.3331 10.585L17.9838 10.8432ZM17.9838 10.5258L18.6225 10.2393L18.6091 10.2095L18.593 10.1811L17.9838 10.5258ZM17.5562 9.76997L17.1876 9.17485L16.6156 9.52908L16.9469 10.1146L17.5562 9.76997ZM19.1915 8.75718L19.7892 8.39272L19.4222 7.79096L18.823 8.16206L19.1915 8.75718ZM21.7496 12.9519L22.1423 13.5314L22.6946 13.1571L22.3472 12.5875L21.7496 12.9519ZM16.8217 16.2917L16.2599 16.7094L16.6597 17.2471L17.2144 16.8712L16.8217 16.2917ZM25.4648 13.953C25.3478 13.7459 25.1908 13.5639 25.0027 13.4179L24.1445 14.524C24.1853 14.5557 24.2199 14.5956 24.2458 14.6415L25.4648 13.953ZM25.0027 13.4179C24.8146 13.272 24.5992 13.165 24.3691 13.1036L24.008 14.4562C24.0572 14.4694 24.1036 14.4923 24.1445 14.524L25.0027 13.4179ZM24.3691 13.1036C24.139 13.0422 23.8989 13.0275 23.663 13.0606L23.8572 14.447C23.9075 14.44 23.9588 14.4431 24.008 14.4562L24.3691 13.1036ZM23.663 13.0606C23.427 13.0936 23.2003 13.1737 22.9959 13.2958L23.7141 14.4976C23.7582 14.4712 23.8069 14.4541 23.8572 14.447L23.663 13.0606ZM23.002 13.2922L17.1507 16.7085L17.8566 17.9175L23.7079 14.5012L23.002 13.2922ZM18.0234 16.844C17.9335 16.7444 17.8428 16.6531 17.7439 16.5625L16.7983 17.5949C16.8644 17.6554 16.9238 17.7152 16.984 17.7819L18.0234 16.844ZM17.6395 17.6739L23.4533 14.0762L22.7166 12.8858L16.9028 16.4834L17.6395 17.6739ZM23.4511 14.0776C23.5701 14.0045 23.6734 13.9087 23.7551 13.7959L22.6216 12.9743C22.6475 12.9385 22.6805 12.9079 22.7187 12.8844L23.4511 14.0776ZM23.7551 13.7959C23.8369 13.6832 23.8956 13.5555 23.9281 13.4204L22.5669 13.0929C22.5772 13.0504 22.5957 13.0101 22.6216 12.9743L23.7551 13.7959ZM23.9281 13.4204C23.9606 13.2853 23.9664 13.1451 23.9451 13.0078L22.5616 13.2225C22.5549 13.1794 22.5567 13.1354 22.5669 13.0929L23.9281 13.4204ZM23.9451 13.0078C23.9238 12.8705 23.8758 12.7385 23.8036 12.6195L22.6062 13.3449C22.5834 13.3072 22.5683 13.2656 22.5616 13.2225L23.9451 13.0078ZM23.804 12.6201L20.4058 6.99688L19.2076 7.72098L22.6058 13.3442L23.804 12.6201ZM20.4115 7.0065C20.3371 6.87879 20.236 6.7683 20.1148 6.68282L19.3079 7.8269C19.2643 7.7962 19.2283 7.75669 19.2019 7.71136L20.4115 7.0065ZM20.1148 6.68282C19.9935 6.59732 19.8551 6.53892 19.7089 6.51188L19.4543 7.88854C19.4014 7.87874 19.3514 7.85762 19.3079 7.8269L20.1148 6.68282ZM19.8353 6.54778C19.5852 6.45057 19.308 6.45057 19.0579 6.54778L19.5652 7.85264C19.489 7.88228 19.4042 7.88228 19.328 7.85264L19.8353 6.54778ZM18.9369 6.60889L16.2288 8.32458L16.9781 9.50722L19.6862 7.79153L18.9369 6.60889ZM16.2293 8.3243L14.879 9.17837L15.6274 10.3616L16.9777 9.50749L16.2293 8.3243ZM14.8849 9.17467L12.3193 10.7619L13.0559 11.9525L15.6214 10.3653L14.8849 9.17467ZM12.3377 10.7509C12.2069 10.8264 12.0947 10.9298 12.0088 11.0534L13.1585 11.8522C13.1271 11.8974 13.0859 11.9355 13.0375 11.9634L12.3377 10.7509ZM12.0088 11.0534C11.9229 11.177 11.8654 11.3178 11.8401 11.4657L13.22 11.7021C13.2108 11.7557 13.1899 11.807 13.1585 11.8522L12.0088 11.0534ZM11.8764 11.3336C11.7811 11.5823 11.7811 11.8576 11.8764 12.1064L13.1838 11.6056C13.212 11.6793 13.212 11.7606 13.1838 11.8343L11.8764 11.3336ZM11.9325 12.2206L14.5656 16.5363L15.7607 15.8071L13.1276 11.4914L11.9325 12.2206ZM15.2331 15.4752C14.9596 15.4477 14.6841 15.4477 14.4106 15.4752L14.5504 16.8682C14.7309 16.8501 14.9127 16.8501 15.0932 16.8682L15.2331 15.4752ZM15.0841 15.8173L7.20739 2.40162L6.0001 3.11046L13.8768 16.5261L15.0841 15.8173ZM7.20954 2.4053L6.94698 1.95181L5.7354 2.65329L5.99795 3.10678L7.20954 2.4053ZM6.95157 1.95987C6.85182 1.78219 6.70074 1.63804 6.51731 1.54702L5.895 2.80111C5.82517 2.76646 5.76821 2.71186 5.7308 2.64523L6.95157 1.95987ZM6.60459 1.59852C6.31388 1.39727 5.96714 1.29273 5.61338 1.30039L5.64368 2.70006C5.70164 2.69881 5.75901 2.71589 5.80773 2.74961L6.60459 1.59852ZM5.62853 1.30023H2.01272V2.70023H5.62853V1.30023ZM2.01272 1.30023C1.55678 1.30023 1.12058 1.48276 0.799794 1.80596L1.79345 2.7922C1.8525 2.73269 1.93149 2.70023 2.01272 2.70023V1.30023ZM0.799794 1.80596C0.479182 2.12899 0.3 2.566 0.3 3.02057H1.7C1.7 2.93393 1.73421 2.85188 1.79345 2.7922L0.799794 1.80596ZM0.3 3.02057C0.3 3.47515 0.479182 3.91216 0.799794 4.23518L1.79345 3.24895C1.73421 3.18927 1.7 3.10722 1.7 3.02057H0.3ZM0.799794 4.23518C1.12058 4.55838 1.55678 4.74092 2.01272 4.74092V3.34092C1.93149 3.34092 1.8525 3.30845 1.79345 3.24895L0.799794 4.23518ZM2.01272 4.74092H4.49578V3.34092H2.01272V4.74092ZM3.89227 4.39557L11.7315 17.7356L12.9385 17.0263L5.09929 3.68627L3.89227 4.39557ZM11.8072 16.9212C11.1501 17.6755 10.7858 18.6424 10.7798 19.6442L12.1798 19.6526C12.1838 18.9847 12.4267 18.3414 12.8629 17.8407L11.8072 16.9212ZM10.7806 19.6806C10.8304 20.7618 11.2917 21.7831 12.0704 22.5321L13.0409 21.5231C12.5217 21.0237 12.2125 20.3409 12.1791 19.6162L10.7806 19.6806ZM12.0704 22.5321C12.8492 23.2812 13.8855 23.7 14.9644 23.7V22.3C14.2489 22.3 13.5599 22.0223 13.0409 21.5231L12.0704 22.5321ZM14.9644 23.7C16.0432 23.7 17.0795 23.2812 17.8583 22.5321L16.8878 21.5231C16.3688 22.0223 15.6798 22.3 14.9644 22.3V23.7ZM17.8583 22.5321C18.637 21.7831 19.0983 20.7618 19.1481 19.6806L17.7496 19.6162C17.7162 20.3409 17.407 21.0237 16.8878 21.5231L17.8583 22.5321ZM19.1473 19.6949C19.1571 19.5482 19.1571 19.401 19.1473 19.2543L17.7504 19.3472C17.7561 19.432 17.7561 19.5171 17.7504 19.602L19.1473 19.6949ZM18.8037 19.9041L24.8051 16.3745L24.0953 15.1677L18.094 18.6974L18.8037 19.9041ZM24.7984 16.3784C25.0049 16.26 25.1857 16.1014 25.3302 15.9124L24.2179 15.0622C24.1861 15.1038 24.1467 15.1383 24.1021 15.1638L24.7984 16.3784ZM25.3302 15.9124C25.4747 15.7233 25.5802 15.5074 25.6407 15.2774L24.2867 14.9213C24.2732 14.9727 24.2497 15.0206 24.2179 15.0622L25.3302 15.9124ZM25.6407 15.2774C25.7012 15.0473 25.7156 14.8076 25.6831 14.5719L24.2962 14.7634C24.3035 14.8161 24.3003 14.8698 24.2867 14.9213L25.6407 15.2774ZM25.6831 14.5719C25.6505 14.3363 25.5717 14.1094 25.451 13.9043L24.2446 14.6146C24.2713 14.66 24.2889 14.7106 24.2962 14.7634L25.6831 14.5719ZM24.1612 14.3958L24.1687 14.4335L25.5419 14.161L25.5344 14.1232L24.1612 14.3958ZM16.9989 15.3619L14.6584 11.5148L13.4624 12.2425L15.8029 16.0896L16.9989 15.3619ZM14.4225 12.4777L15.9229 11.5708L15.1986 10.3727L13.6983 11.2796L14.4225 12.4777ZM14.9489 11.3118L15.369 12.0676L16.5927 11.3874L16.1726 10.6316L14.9489 11.3118ZM15.3659 12.062C15.4447 12.2069 15.5565 12.3316 15.6927 12.4257L16.4885 11.2738C16.5335 11.3049 16.5701 11.3459 16.5958 11.3931L15.3659 12.062ZM15.6927 12.4257C15.829 12.5198 15.9856 12.5806 16.1501 12.6027L16.3367 11.2152C16.3915 11.2225 16.4435 11.2428 16.4885 11.2738L15.6927 12.4257ZM16.2434 12.6089H16.2959V11.2089H16.2434V12.6089ZM16.3113 12.6087C16.582 12.6028 16.8399 12.4954 17.0348 12.309L16.0671 11.2972C16.124 11.2428 16.2 11.2108 16.2805 11.2091L16.3113 12.6087ZM17.0478 12.2962L17.5879 11.752L16.5942 10.7658L16.0541 11.31L17.0478 12.2962ZM17.2908 11.9298L17.9509 11.7333L17.5515 10.3915L16.8914 10.588L17.2908 11.9298ZM17.9687 11.7278C18.1193 11.6785 18.2569 11.5967 18.3718 11.4883L17.4116 10.4695C17.4462 10.4369 17.4879 10.412 17.5338 10.397L17.9687 11.7278ZM18.3718 11.4883C18.4868 11.38 18.5763 11.2478 18.6344 11.1014L17.3331 10.585C17.3504 10.5416 17.377 10.5021 17.4116 10.4695L18.3718 11.4883ZM18.6225 11.1297C18.6853 10.9896 18.7177 10.8378 18.7177 10.6845H17.3177C17.3177 10.6406 17.327 10.5971 17.3451 10.5568L18.6225 11.1297ZM18.7177 10.6845C18.7177 10.5312 18.6853 10.3794 18.6225 10.2393L17.3451 10.8122C17.327 10.7719 17.3177 10.7284 17.3177 10.6845H18.7177ZM18.593 10.1811L18.1654 9.42528L16.9469 10.1146L17.3745 10.8705L18.593 10.1811ZM17.9247 10.3651L19.5601 9.3523L18.823 8.16206L17.1876 9.17485L17.9247 10.3651ZM18.5939 9.12163L21.152 13.3164L22.3472 12.5875L19.7892 8.39272L18.5939 9.12163ZM21.3569 12.3725L16.429 15.7122L17.2144 16.8712L22.1423 13.5314L21.3569 12.3725ZM16.8217 16.2917L17.3834 15.874C17.3834 15.874 17.3834 15.874 17.3834 15.874C17.3834 15.874 17.3835 15.8741 17.3834 15.874C17.3827 15.873 17.3841 15.8749 17.3833 15.8739C17.383 15.8735 17.3836 15.8743 17.3833 15.8738C17.3832 15.8737 17.3834 15.8739 17.3832 15.8738C17.3832 15.8738 17.3831 15.8736 17.3831 15.8736C17.3804 15.8699 17.3855 15.8767 17.3826 15.8729C17.3823 15.8725 17.3826 15.873 17.3823 15.8725C17.3811 15.8709 17.3832 15.8737 17.3821 15.8722C17.3817 15.8717 17.3822 15.8724 17.3818 15.8719C17.3807 15.8703 17.3825 15.8728 17.3813 15.8712C17.3809 15.8707 17.3814 15.8713 17.381 15.8708C17.3809 15.8706 17.3808 15.8704 17.3807 15.8703C17.379 15.8681 17.3809 15.8706 17.379 15.8681C17.3734 15.8605 17.3842 15.8751 17.3786 15.8675C17.3773 15.8658 17.3793 15.8684 17.378 15.8668C17.3765 15.8648 17.3784 15.8673 17.3769 15.8652C17.3453 15.8228 17.4058 15.9042 17.3741 15.8615C17.374 15.8613 17.371 15.8573 17.3706 15.8568C17.3635 15.8472 17.3737 15.861 17.3664 15.8511C17.3663 15.8509 17.3662 15.8508 17.3661 15.8507C17.366 15.8505 17.3659 15.8504 17.3658 15.8503C17.3654 15.8498 17.3655 15.8499 17.3652 15.8494C17.3641 15.848 17.365 15.8492 17.3639 15.8478C17.3605 15.8432 17.3648 15.8489 17.3613 15.8442C17.3605 15.8432 17.3606 15.8433 17.3598 15.8423C17.3598 15.8422 17.3591 15.8414 17.3591 15.8413C17.359 15.8411 17.3589 15.841 17.3587 15.8408C17.3586 15.8406 17.3585 15.8405 17.3584 15.8403C17.3366 15.8111 17.3771 15.8654 17.3552 15.8361C17.3501 15.8291 17.3571 15.8386 17.3519 15.8315C17.3478 15.826 17.3524 15.8323 17.3482 15.8266C17.3442 15.8212 17.3445 15.8217 17.3401 15.8158C17.3274 15.7986 17.3518 15.8314 17.339 15.8143C17.3388 15.814 17.3386 15.8138 17.3385 15.8135C17.3383 15.8133 17.3381 15.813 17.3379 15.8128C17.3378 15.8126 17.3358 15.81 17.3356 15.8097C17.3346 15.8083 17.332 15.8048 17.3308 15.8033C17.3063 15.7702 17.3454 15.8228 17.3204 15.7892C17.3184 15.7866 17.3195 15.788 17.3175 15.7854C17.3124 15.7784 17.3213 15.7904 17.3161 15.7834C17.3158 15.7831 17.3156 15.7828 17.3154 15.7825C17.3151 15.7821 17.3149 15.7818 17.3146 15.7815C17.3138 15.7803 17.314 15.7806 17.3131 15.7795C17.3129 15.7791 17.3126 15.7788 17.3124 15.7785C17.3121 15.7781 17.3119 15.7778 17.3116 15.7775C17.3072 15.7715 17.3146 15.7814 17.3101 15.7754C17.3098 15.7751 17.3096 15.7747 17.3093 15.7744C17.3091 15.774 17.3088 15.7737 17.3086 15.7733C17.2966 15.7572 17.2947 15.7546 17.2807 15.7359C17.2807 15.7359 17.2788 15.7333 17.2788 15.7333C17.2671 15.7176 17.2885 15.7463 17.2768 15.7306C17.2572 15.7043 17.2925 15.7517 17.2728 15.7252C17.2646 15.7141 17.277 15.7309 17.2687 15.7197C17.2642 15.7137 17.269 15.7202 17.2645 15.7141C17.2367 15.6766 17.2751 15.7284 17.2467 15.6901C17.2441 15.6866 17.2447 15.6874 17.242 15.6838C17.2365 15.6764 17.2427 15.6847 17.2372 15.6773C17.2307 15.6686 17.2412 15.6828 17.2347 15.674C17.2344 15.6735 17.2326 15.6712 17.2322 15.6707C17.2258 15.6621 17.2362 15.6759 17.2297 15.6673C17.2291 15.6665 17.2278 15.6648 17.2272 15.6639C17.2259 15.6622 17.2234 15.6588 17.2221 15.657C17.2206 15.655 17.2183 15.652 17.2168 15.6499C17.2012 15.629 17.2217 15.6564 17.2059 15.6353C17.2032 15.6317 17.1974 15.6239 17.1946 15.62C17.1897 15.6135 17.1878 15.6109 17.1828 15.6042C17.1679 15.5841 17.1856 15.6079 17.1705 15.5877C17.1609 15.5747 17.1739 15.5922 17.1642 15.5792C17.1637 15.5784 17.1631 15.5777 17.1626 15.577C17.1621 15.5763 17.1615 15.5756 17.161 15.5748C17.1605 15.5741 17.1599 15.5734 17.1594 15.5727C17.1588 15.5719 17.1583 15.5712 17.1578 15.5705C17.1196 15.5192 17.1695 15.5863 17.1307 15.5341C17.1241 15.5253 17.1337 15.5382 17.1272 15.5293C17.1266 15.5286 17.126 15.5278 17.1254 15.527C17.1248 15.5262 17.1242 15.5254 17.1236 15.5246C17.1134 15.5108 17.1267 15.5287 17.1164 15.5149C17.1044 15.4988 17.1137 15.5112 17.1016 15.4949C17.101 15.4942 17.0983 15.4906 17.0978 15.4898C17.0971 15.4889 17.0965 15.4881 17.0959 15.4872C17.0952 15.4864 17.0946 15.4855 17.0939 15.4847C17.0842 15.4715 17.096 15.4874 17.0862 15.4742C17.0807 15.4669 17.0838 15.471 17.0783 15.4636C17.0758 15.4603 17.0768 15.4616 17.0743 15.4582C17.0736 15.4573 17.073 15.4564 17.0723 15.4555C17.0716 15.4546 17.0709 15.4537 17.0703 15.4528C17.0557 15.4333 17.0685 15.4504 17.0538 15.4306C17.0462 15.4204 17.0572 15.4353 17.0496 15.425C17.0489 15.424 17.0482 15.4231 17.0475 15.4221C17.0468 15.4212 17.046 15.4202 17.0453 15.4193C17.0331 15.4028 17.0491 15.4243 17.0367 15.4077C17.0358 15.4064 17.029 15.3973 17.028 15.396C17.0273 15.395 17.0265 15.394 17.0258 15.393C17.0251 15.392 17.0243 15.391 17.0236 15.39C17.0228 15.389 17.0221 15.388 17.0213 15.387C17.0206 15.386 17.0199 15.385 17.0191 15.384C17.0082 15.3694 17.012 15.3744 17.0009 15.3595C17.0001 15.3585 16.9994 15.3574 16.9986 15.3564C16.9978 15.3554 16.997 15.3543 16.9963 15.3533C16.9925 15.3482 16.9953 15.352 16.9916 15.347C16.9908 15.3459 16.99 15.3449 16.9892 15.3438C16.9884 15.3427 16.9876 15.3417 16.9868 15.3406C16.9841 15.3369 16.9849 15.3379 16.9821 15.3342C16.9744 15.3238 16.9802 15.3317 16.9725 15.3213C16.972 15.3206 16.9681 15.3154 16.9676 15.3147C16.9648 15.311 16.9655 15.3119 16.9627 15.3081L15.8392 16.1434C15.8442 16.1502 15.8537 16.163 15.8586 16.1695C15.8711 16.1864 15.8556 16.1655 15.8681 16.1823C15.8724 16.1881 15.8685 16.1828 15.8728 16.1886C15.8735 16.1896 15.8743 16.1907 15.8751 16.1917C15.8759 16.1928 15.8766 16.1938 15.8774 16.1948C15.8813 16.2001 15.8919 16.2143 15.8956 16.2193C15.9204 16.2526 15.8887 16.21 15.9132 16.243C15.9181 16.2495 15.9427 16.2827 15.9468 16.2881C15.9474 16.289 15.9481 16.2899 15.9488 16.2908C15.9495 16.2918 15.9501 16.2927 15.9508 16.2936C15.9523 16.2955 15.9533 16.297 15.9548 16.2989C15.9681 16.3168 15.9495 16.2918 15.9627 16.3095C15.9817 16.3351 15.9592 16.3049 15.9781 16.3302C15.9795 16.3322 15.9804 16.3334 15.9818 16.3353C15.9824 16.3361 15.9831 16.337 15.9837 16.3378C15.9843 16.3386 15.9849 16.3395 15.9855 16.3403C16.0144 16.3791 15.9604 16.3065 15.9892 16.3452C15.9899 16.3461 15.9923 16.3493 15.9929 16.3502C15.9996 16.3592 16.0007 16.3606 16.0072 16.3694C16.0085 16.3711 16.0337 16.405 16.0343 16.4058C16.0662 16.4487 16.0531 16.4311 16.0824 16.4706C16.1099 16.5075 16.1388 16.5464 16.1572 16.5712C16.1849 16.6085 16.1593 16.574 16.1851 16.6086C16.1923 16.6184 16.1809 16.603 16.1881 16.6128C16.1898 16.615 16.1895 16.6146 16.1911 16.6168C16.1914 16.6171 16.1916 16.6175 16.1919 16.6178C16.1921 16.6181 16.1923 16.6184 16.1926 16.6188C16.1954 16.6225 16.1912 16.6169 16.194 16.6207C16.1943 16.621 16.1945 16.6213 16.1947 16.6217C16.195 16.622 16.1952 16.6223 16.1955 16.6226C16.1957 16.6229 16.1959 16.6232 16.1962 16.6236C16.1964 16.6239 16.1966 16.6242 16.1969 16.6245C16.2052 16.6358 16.1994 16.6279 16.2074 16.6386C16.222 16.6583 16.2289 16.6676 16.2378 16.6795C16.2387 16.6808 16.2422 16.6855 16.2429 16.6864C16.2469 16.6918 16.2411 16.684 16.2451 16.6894C16.2542 16.7016 16.2381 16.6799 16.2471 16.6921C16.2485 16.694 16.2494 16.6952 16.2506 16.6968C16.2731 16.727 16.2311 16.6706 16.2534 16.7005C16.2554 16.7032 16.2526 16.6995 16.2545 16.7021C16.2546 16.7021 16.2555 16.7034 16.2555 16.7034C16.2565 16.7047 16.2564 16.7046 16.2572 16.7056C16.2574 16.7059 16.2573 16.7058 16.2575 16.7061C16.2575 16.7061 16.2576 16.7061 16.2576 16.7062C16.2576 16.7062 16.2576 16.7062 16.2577 16.7063C16.2577 16.7063 16.2577 16.7064 16.2577 16.7064C16.2578 16.7064 16.2578 16.7065 16.2578 16.7065C16.2579 16.7066 16.258 16.7067 16.2581 16.7069C16.2583 16.7071 16.2582 16.707 16.2583 16.7072C16.2584 16.7073 16.2585 16.7074 16.2586 16.7075C16.2596 16.7089 16.2577 16.7064 16.2588 16.7078C16.2589 16.708 16.259 16.7081 16.2591 16.7083C16.26 16.7094 16.2589 16.7079 16.2596 16.7089C16.2606 16.7103 16.2589 16.7079 16.2598 16.7092C16.2599 16.7092 16.2599 16.7092 16.2599 16.7092C16.2599 16.7093 16.2598 16.7092 16.2599 16.7093C16.2599 16.7093 16.2599 16.7092 16.2599 16.7093C16.2599 16.7093 16.2599 16.7093 16.2599 16.7093C16.2599 16.7093 16.2599 16.7093 16.2599 16.7093C16.2599 16.7093 16.2599 16.7093 16.2599 16.7093C16.2599 16.7093 16.2599 16.7093 16.2599 16.7093C16.2599 16.7093 16.2599 16.7093 16.2599 16.7093C16.2599 16.7093 16.2599 16.7093 16.2599 16.7093C16.2599 16.7093 16.2599 16.7093 16.2599 16.7093C16.2599 16.7094 16.2599 16.7094 16.2599 16.7094C16.2599 16.7094 16.2599 16.7094 16.2599 16.7094C16.2599 16.7094 16.2599 16.7094 16.2599 16.7094C16.2599 16.7094 16.2599 16.7094 16.2599 16.7094L16.8217 16.2917Z" fill="white" mask="url(#path-1-inside-1_1165_528)"/>
<path d="M12.018 10.6997L12.018 10.6997L12.0169 10.698L9.25249 6.55031C9.24835 6.53254 9.24939 6.51436 9.25547 6.49698L9.2618 6.47887L9.26529 6.46001C9.2663 6.45457 9.26879 6.44819 9.27379 6.44153C9.27886 6.43479 9.28653 6.42778 9.29721 6.42209L9.29725 6.42218L9.30344 6.41864L11.3305 5.26172L11.3307 5.26163L12.7633 4.44542L12.7638 4.44515L14.8209 3.26723C14.821 3.26718 14.821 3.26714 14.8211 3.26709C14.8346 3.25948 14.8503 3.25397 14.8674 3.25148C14.8847 3.24897 14.9023 3.24967 14.919 3.25345C14.9358 3.25723 14.9507 3.26387 14.9631 3.27228C14.9754 3.28066 14.9846 3.29043 14.9911 3.30031L14.9915 3.30095L17.7352 7.46763L17.7351 7.46767L17.7385 7.47252C17.7444 7.48107 17.7477 7.48963 17.7491 7.49754C17.7505 7.50541 17.7502 7.51343 17.7481 7.52143L17.7461 7.52883L17.7446 7.53633C17.7435 7.54188 17.7408 7.54844 17.7355 7.55526C17.73 7.56215 17.7219 7.56923 17.7107 7.57481L17.7042 7.57803L17.6979 7.58161L12.1877 10.7332L12.1877 10.7332L12.1846 10.7351C12.1684 10.7446 12.1479 10.7504 12.1259 10.75L12.1259 10.7499L12.1212 10.7499C12.0981 10.7499 12.0763 10.7444 12.0579 10.7348C12.0397 10.7252 12.0264 10.7126 12.018 10.6997ZM11.6312 5.9184L11.5058 5.72108L11.3006 5.83292L10.1802 6.44337L9.93886 6.57485L10.0925 6.80269L12.2037 9.93302L12.3335 10.1255L12.5351 10.0102L16.8417 7.54715L17.0761 7.4131L16.9245 7.18971L14.8279 4.10197L14.6983 3.91107L14.4977 4.02499L13.385 4.65674L13.157 4.78615L13.2971 5.00772L13.8481 5.87946C13.8525 5.88884 13.8544 5.89815 13.8544 5.90694C13.8544 5.91706 13.8519 5.92787 13.8459 5.93868L13.8389 5.95132L13.8335 5.96469C13.8295 5.97428 13.8225 5.98464 13.8113 5.99404C13.8001 6.00349 13.7853 6.0114 13.7676 6.01583L13.7676 6.01582L13.7655 6.01637L13.0567 6.20092L12.9964 6.21663L12.9505 6.25879L12.3713 6.79116L12.3713 6.79116L12.3704 6.79199C12.3604 6.80134 12.3475 6.80961 12.332 6.81552C12.3166 6.82143 12.2996 6.82464 12.282 6.8246H12.2814H12.2559C12.2388 6.82092 12.2231 6.8145 12.2095 6.80611C12.1929 6.79576 12.1805 6.78304 12.1722 6.76996L11.6312 5.9184ZM12.2357 7.0746H12.2814H12.2357Z" fill="white" fill-opacity="0.2" stroke="white" stroke-width="0.5"/>
</svg>
