<svg width="24" height="24" viewBox="0 0 24 24" fill="none" xmlns="http://www.w3.org/2000/svg">
<path d="M9.70418 18.4866L9.04976 19.3H10.0938H20.0002C21.3811 19.3 22.5002 18.1809 22.5002 16.8V16V15.5H22.0002H10.8002H10.3002V16V16.8C10.3002 17.4377 10.0772 18.023 9.70418 18.4866Z" fill="white" fill-opacity="0.2" stroke="white"/>
<path d="M10.1001 16.8V15.3H20.8001H21.3001V14.8V5.19995C21.3001 4.21251 20.6185 3.38418 19.7001 3.15985V1.99995C19.7001 1.28221 19.1178 0.699951 18.4001 0.699951C17.6824 0.699951 17.1001 1.28221 17.1001 1.99995V4.99995C17.1001 5.05501 17.0552 5.09995 17.0001 5.09995C16.945 5.09995 16.9001 5.05501 16.9001 4.99995V3.59995V3.09995H16.4001H15.3001V1.99995C15.3001 1.28221 14.7178 0.699951 14.0001 0.699951C13.2824 0.699951 12.7001 1.28221 12.7001 1.99995V4.99995C12.7001 5.05501 12.6552 5.09995 12.6001 5.09995C12.545 5.09995 12.5001 5.05501 12.5001 4.99995V3.59995V3.09995H12.0001H10.9001V1.99995C10.9001 1.28221 10.3178 0.699951 9.6001 0.699951C8.88236 0.699951 8.3001 1.28221 8.3001 1.99995V4.99995C8.3001 5.05501 8.25516 5.09995 8.2001 5.09995C8.14504 5.09995 8.1001 5.05501 8.1001 4.99995V3.59995V3.09995H7.6001H7.2001C6.04036 3.09995 5.1001 4.04021 5.1001 5.19995V16.8C5.1001 18.1809 6.21916 19.3 7.6001 19.3C8.98104 19.3 10.1001 18.1809 10.1001 16.8ZM16.6057 8.61802L16.5994 8.6239L16.5933 8.63L13 12.2234C12.9472 12.2712 12.8779 12.3 12.8001 12.3C12.7167 12.3 12.6427 12.2668 12.5885 12.2125L12.5881 12.212L10.5881 10.212L10.5876 10.2115C10.5332 10.1573 10.5001 10.0833 10.5001 9.99995C10.5001 9.83449 10.6346 9.69995 10.8001 9.69995C10.8835 9.69995 10.9575 9.7331 11.0117 9.78742L11.0121 9.78791L12.4645 11.2403L12.8201 11.5959L13.1737 11.2383L16.201 8.17581C16.2537 8.12844 16.3227 8.09995 16.4001 8.09995C16.5656 8.09995 16.7001 8.23449 16.7001 8.39995C16.7001 8.48673 16.6642 8.5635 16.6057 8.61802Z" fill="white" fill-opacity="0.2" stroke="white"/>
<path d="M4.8998 5.19995V4.69995H4.3998H3.1998C2.70246 4.69995 2.2998 5.10261 2.2998 5.59995V22C2.2998 22.4973 2.70246 22.9 3.1998 22.9H17.5998C18.0971 22.9 18.4998 22.4973 18.4998 22V20V19.5H17.9998H7.5998C6.11155 19.5 4.8998 18.2882 4.8998 16.8V5.19995Z" fill="white" fill-opacity="0.2" stroke="white"/>
</svg>
