<svg width="22" height="22" viewBox="0 0 22 22" fill="none" xmlns="http://www.w3.org/2000/svg">
<g clip-path="url(#clip0_245_417)">
<path d="M6.4479 8.93325L6.4479 8.93327H6.4523C6.50189 8.93327 6.54275 8.92705 6.56699 8.9227C6.58689 8.91913 6.60875 8.91418 6.61268 8.91329C6.61299 8.91322 6.61319 8.91317 6.61326 8.91316L6.61328 8.91324L6.62225 8.91109L9.49545 8.22323L9.49545 8.22323L9.49711 8.22283C9.81811 8.14481 10.0334 7.85739 10.0334 7.5408C10.0334 7.48714 10.0273 7.43108 10.013 7.37395L9.39369 4.80722C9.39366 4.80708 9.39363 4.80694 9.39359 4.8068C9.39358 4.80674 9.39356 4.80668 9.39355 4.80662C9.30993 4.45945 9.00485 4.2666 8.70693 4.2666C8.50415 4.2666 8.27557 4.35456 8.12717 4.56769L5.86446 7.79535L6.27336 8.0831L5.86395 7.79609L5.86406 7.79592C5.7753 7.92231 5.7334 8.06613 5.7334 8.2074C5.7334 8.56061 6.01619 8.92945 6.4479 8.93325Z" fill="white" fill-opacity="0.2" stroke="white"/>
<path d="M5.86683 11.6001C3.36319 11.6001 1.3335 13.6298 1.3335 16.1334C1.3335 18.6371 3.36319 20.6668 5.86683 20.6668C8.37047 20.6668 10.4002 18.6371 10.4002 16.1334C10.4002 13.6298 8.37047 11.6001 5.86683 11.6001Z" fill="white" fill-opacity="0.2" stroke="white"/>
<path d="M20.1667 19.5666H20.6667V19.0666V11.3666V11.1595L20.5203 11.013L19.0536 9.54635L18.7001 9.1928L18.3465 9.54635L16.8798 11.013L16.7334 11.1595V11.3666V19.0666V19.5666H17.2334H20.1667Z" fill="white" fill-opacity="0.2" stroke="white"/>
<path d="M17.2334 19.3H16.7334V19.8V20.5334C16.7334 21.2143 17.2858 21.7667 17.9667 21.7667H19.4334C20.1143 21.7667 20.6667 21.2143 20.6667 20.5334V19.8V19.3H20.1667H17.2334Z" fill="white" fill-opacity="0.2" stroke="white"/>
<path d="M16.9758 3.16618L16.976 3.16688L18.4911 9.44054L18.5569 9.71316L18.3586 9.91147L16.9999 11.2702V18.1012V18.4944L16.6178 18.5871L9.67951 20.2715L16.9758 3.16618ZM16.9758 3.16618C16.8693 2.7277 16.4777 2.43412 16.0461 2.43335H16.0452M16.9758 3.16618L16.0452 2.43335M16.0452 2.43335C15.9715 2.43335 15.8976 2.44167 15.8242 2.45854L15.8242 2.45851M16.0452 2.43335L15.8242 2.45851M15.8242 2.45851L15.8193 2.45969M15.8242 2.45851L15.8193 2.45969M15.8193 2.45969L9.43934 3.99455L8.95315 4.11152M15.8193 2.45969L8.95315 4.11152M8.95315 4.11152L9.07018 4.59769M8.95315 4.11152L9.07018 4.59769M9.07018 4.59769L9.75401 7.43863L9.754 7.43863M9.07018 4.59769L9.754 7.43863M9.754 7.43863L9.75492 7.44233M9.754 7.43863L9.75492 7.44233M9.75492 7.44233C9.76221 7.47166 9.76649 7.50647 9.76653 7.548C9.76627 7.62125 9.7453 7.69825 9.70228 7.76826L9.70196 7.76879M9.75492 7.44233L9.70196 7.76879M9.70196 7.76879C9.64124 7.86789 9.54686 7.93649 9.43212 7.9638L9.43115 7.96403M9.70196 7.76879L9.43115 7.96403M9.43115 7.96403L6.37938 8.69663L5.89244 8.81352M9.43115 7.96403L5.89244 8.81352M5.89244 8.81352L6.01009 9.30028M5.89244 8.81352L6.01009 9.30028M6.01009 9.30028L6.57586 11.6411L6.6463 11.9325M6.01009 9.30028L6.6463 11.9325M6.6463 11.9325L6.93659 12.0077M6.6463 11.9325L6.93659 12.0077M6.93659 12.0077C8.77536 12.4835 10.1332 14.1488 10.1332 16.1333C10.1332 17.3753 9.59951 18.4902 8.74934 19.2717L8.38185 19.6094M6.93659 12.0077L8.38185 19.6094M8.38185 19.6094L8.71899 19.9775M8.38185 19.6094L8.71899 19.9775M8.71899 19.9775C8.94991 20.2296 9.31172 20.361 9.67902 20.2716L8.71899 19.9775ZM11.5371 12.235L11.5373 12.2349L14.4697 11.5018C14.4697 11.5018 14.4698 11.5018 14.4698 11.5018C14.4754 11.5004 14.4796 11.5 14.4832 11.5C14.5107 11.5 14.5332 11.5226 14.5332 11.55C14.5332 11.5729 14.5176 11.593 14.4959 11.5984L14.4958 11.5984L11.5634 12.3315C11.5633 12.3316 11.5633 12.3316 11.5632 12.3316C11.5575 12.333 11.5536 12.3333 11.5499 12.3333C11.5224 12.3333 11.4999 12.3108 11.4999 12.2833C11.4999 12.2603 11.5152 12.2404 11.5371 12.235ZM14.8626 13.7984L14.8624 13.7984L11.9301 14.5315C11.93 14.5316 11.9299 14.5316 11.9299 14.5316C11.9242 14.533 11.9203 14.5333 11.9165 14.5333C11.8891 14.5333 11.8665 14.5108 11.8665 14.4833C11.8665 14.4603 11.8819 14.4404 11.9038 14.435L11.904 14.4349L14.8363 13.7018C14.8364 13.7018 14.8365 13.7018 14.8366 13.7018C14.8421 13.7004 14.8463 13.7 14.8499 13.7C14.8773 13.7 14.8999 13.7226 14.8999 13.75C14.8999 13.7729 14.8843 13.793 14.8626 13.7984ZM14.6985 8.07943L14.345 7.72588L13.9914 8.07943L12.6857 9.38513L12.6851 9.38578C12.6762 9.39464 12.6645 9.40002 12.6499 9.40002C12.6362 9.40002 12.6237 9.39503 12.6133 9.38474C12.6132 9.38466 12.6131 9.38457 12.613 9.38448L12.2705 9.04121L11.9169 8.6869L11.563 9.04083L10.8524 9.75143L10.8517 9.75208C10.8467 9.75712 10.8412 9.76071 10.8358 9.76301C10.8307 9.76516 10.8246 9.76668 10.8165 9.76668C10.7889 9.76668 10.7665 9.74429 10.7665 9.71668C10.7665 9.70281 10.7716 9.69099 10.7811 9.68148L10.7818 9.68078L11.8797 8.58258C11.8797 8.58251 11.8798 8.58243 11.8799 8.58235C11.891 8.57144 11.9036 8.56668 11.9165 8.56668C11.9241 8.56668 11.9302 8.56812 11.9357 8.57043C11.9414 8.57287 11.9475 8.57677 11.9532 8.58236C11.9532 8.58244 11.9533 8.58251 11.9534 8.58258L12.2967 8.92587L12.6502 9.27942L13.0038 8.92587L13.9212 8.00847L14.2747 7.65492L13.9212 7.30136L13.7198 7.10002H14.8999V8.28078L14.6985 8.07943ZM13.2541 6.63431C13.2543 6.63446 13.2544 6.63461 13.2546 6.63476L13.2541 6.63431ZM15.3651 8.74603L15.3648 8.74571L15.3651 8.74603Z" fill="white" fill-opacity="0.2" stroke="white"/>
<path d="M6.0692 8.52752L6.06934 8.52748L6.0662 8.51612C6.0517 8.4635 6.03386 8.3964 6.01981 8.33051C6.01283 8.29777 6.00753 8.26877 6.00412 8.24466C6.00053 8.21937 6.00024 8.20791 6.00023 8.20757L6.00023 8.20756C6.00023 8.11534 6.02805 8.02691 6.0821 7.95038L6.08318 7.94884L8.37228 4.6811L8.37247 4.68082C8.4559 4.56155 8.58076 4.47645 8.72318 4.4422L8.72326 4.44218L12.5839 3.51305L12.9669 3.42087V3.02693V1.46676C12.9669 0.987855 12.5791 0.600098 12.1002 0.600098H2.93356C2.45465 0.600098 2.06689 0.987855 2.06689 1.46676V12.6989V13.8729L2.91336 13.0594C3.68125 12.3214 4.7203 11.8668 5.86689 11.8668C5.98153 11.8668 6.09869 11.8745 6.2278 11.8855L6.92538 11.9449L6.75524 11.2658L6.0692 8.52752Z" fill="white" fill-opacity="0.2" stroke="white"/>
</g>
<defs>
<clipPath id="clip0_245_417">
<rect width="22" height="22" fill="white"/>
</clipPath>
</defs>
</svg>
