<svg width="24" height="24" viewBox="0 0 24 24" fill="none" xmlns="http://www.w3.org/2000/svg">
<path d="M19 12.5H18.5V13V13.8C18.5 14.6497 19.09 15.5 20 15.5C20.91 15.5 21.5 14.6497 21.5 13.8V13V12.5H21H19Z" fill="white" fill-opacity="0.2" stroke="white"/>
<path d="M8.69785 9.49996H9.19785V8.99996V7.28567V7.28292V7.28016V7.27739V7.27461V7.27182V7.26903V7.26622V7.26341V7.26059V7.25776V7.25492V7.25207V7.24921V7.24635V7.24348V7.2406V7.23771V7.23481V7.23191V7.22899V7.22607V7.22314V7.22021V7.21726V7.21431V7.21135V7.20838V7.20541V7.20243V7.19944V7.19644V7.19344V7.19042V7.18741V7.18438V7.18135V7.17831V7.17526V7.17221V7.16915V7.16608V7.163V7.15992V7.15684V7.15374V7.15064V7.14753V7.14442V7.1413V7.13817V7.13504V7.1319V7.12876V7.12561V7.12245V7.11929V7.11612V7.11295V7.10977V7.10658V7.10339V7.10019V7.09699V7.09378V7.09057V7.08735V7.08412V7.08089V7.07766V7.07442V7.07117V7.06792V7.06467V7.06141V7.05814V7.05487V7.0516V7.04832V7.04504V7.04175V7.03845V7.03516V7.03185V7.02855V7.02524V7.02192V7.0186V7.01528V7.01195V7.00862V7.00528V7.00195V6.9986V6.99525V6.9919V6.98855V6.98519V6.98183V6.97846V6.9751V6.97172V6.96835V6.96497V6.96159V6.9582V6.95481V6.95142V6.94803V6.94463V6.94123V6.93783V6.93442V6.93101V6.9276V6.92419V6.92077V6.91735V6.91393V6.9105V6.90708V6.90365V6.90022V6.89678V6.89335V6.88991V6.88647V6.88303V6.87959V6.87614V6.8727V6.86925V6.8658V6.86235V6.85889V6.85544V6.85198V6.84852V6.84506V6.8416V6.83814V6.83468V6.83122V6.82775V6.82429V6.82082V6.81735V6.81388V6.81041V6.80694V6.80347V6.8V6.79653V6.79306V6.78958V6.78611V6.78264V6.77916V6.77569V6.77222V6.76874V6.76527V6.76179V6.75832V6.75484V6.75137V6.7479V6.74442V6.74095V6.73748V6.73401V6.73054V6.72706V6.72359V6.72012V6.71666V6.71319V6.70972V6.70625V6.70279V6.69932V6.69586V6.6924V6.68894V6.68548V6.68202V6.67856V6.67511V6.67165V6.6682V6.66475V6.6613V6.65785V6.65441V6.65096V6.64752V6.64408V6.64064V6.63721V6.63377V6.63034V6.62691V6.62349V6.62006V6.61664V6.61322V6.6098V6.60638V6.60297V6.59956V6.59616V6.59275V6.58935V6.58595V6.58255V6.57916V6.57577V6.57239V6.569V6.56562V6.56225V6.55887V6.5555V6.55213V6.54877V6.54541V6.54206V6.5387V6.53536V6.53201V6.52867V6.52533V6.522V6.51867V6.51535V6.51202V6.50871V6.5054V6.50209V6.49878V6.49548V6.49219V6.4889V6.48561V6.48233V6.47905V6.47578V6.47252V6.46925V6.466V6.46274V6.4595V6.45626V6.45302V6.44979V6.44656V6.44334V6.44012V6.43691V6.43371V6.43051V6.42731V6.42413V6.42094V6.41777V6.4146V6.41143V6.40827V6.40512V6.40197V6.39883V6.3957V6.39257V6.38944V6.38633V6.38322V6.38012V6.37702V6.37393V6.37085V6.36777V6.3647V6.36164V6.35858V6.35553V6.35249V6.34945V6.34642V6.3434V6.34039V6.33738V6.33438V6.33139V6.3284V6.32542V6.32245V6.31949V6.31654V6.31359V6.31065V6.30772V6.30479V6.30188V6.29897V6.29607V6.29318V6.29029V6.28742V6.28455V6.28169V6.27884V6.276V6.27316V6.27034V6.26752V6.26471V6.26191V6.25912V6.25634V6.25357V6.2508V6.24805V6.2453V6.24256V6.23983V6.23711V6.23441V6.2317V6.22901V6.22633V6.22366V6.221V6.21834V6.2157V6.21307V6.21044V6.20783V6.20523V6.20263V6.20005V6.19747V6.19491V6.19235V6.18981V6.18728V6.18475V6.18224V6.17974V6.17725V6.17477V6.1723V6.16984V6.16739V6.16495V6.16252V6.1601V6.1577V6.1553V6.15292V6.15054V6.14818V6.14583V6.14349V6.14117V6.13885V6.13654V6.13425V6.13197V6.1297V6.12744V6.12519V6.12296V6.12074V6.11852V6.11632V6.11414V6.11196V6.1098V6.10765V6.10551V6.10338V6.10127V6.09917V6.09708V6.095V6.09294V6.09088V6.08885V6.08682V6.08481V6.08281V6.08082V6.07884V6.07688V6.07493V6.073V6.07108V6.06917V6.06727V6.06539V6.06352V6.06166V6.05982V6.05799V6.05618V6.05438V6.05259V6.05082V6.04906V6.04731V6.04558V6.04386V6.04216V6.04047V6.0388V6.03714V6.03549V6.03386V6.03224V6.03064V6.02905V6.02747V6.02591V6.02437V6.02284V6.02132V6.01982V6.01834V6.01687V6.01541V6.01397V6.01255V6.01114V6.00974V6.00836V6.007V6.00565V6.00432V6.003V6.0017V6.00041V5.99914V5.99789V5.99665V5.99543V5.99422V5.99303V5.99185V5.9907V5.98955V5.98843V5.98732V5.98622V5.98515V5.98409V5.98304V5.98201V5.981V5.98001V5.97903V5.97807V5.97713V5.9762V5.97529V5.9744V5.97352V5.97266V5.97182V5.971V5.97019V5.9694V5.96863V5.96787V5.96713V5.96641V5.96571V5.96503V5.96436V5.96371V5.96308V5.96247V5.96187V5.9613V5.96074V5.9602V5.95967V5.95917V5.95868V5.95821V5.95777V5.95733V5.95692V5.95653V5.95615V5.9558V5.95546V5.95514V5.95484V5.95456V5.9543V5.95406V5.95383V5.95363V5.95344V5.95328V5.95313V5.953V5.95289V5.95281V5.95274V5.95269V5.95266L8.69785 5.95265H9.19785V5.45265H8.69785C8.44494 5.45265 7.04604 5.46451 5.71514 5.47632C5.04864 5.48224 4.39777 5.48815 3.91353 5.49259L3.33101 5.49795L3.16886 5.49945L3.12625 5.49984L3.11534 5.49995L3.11376 5.49996C2.15843 5.5015 1.5 6.36887 1.5 7.28567V8.99996V9.49996H2H8.69785Z" fill="white" fill-opacity="0.2" stroke="white"/>
<path d="M15.5 15V15.5H16H18H18.9012L18.4242 14.7354C18.2248 14.4157 18.0913 13.9733 18.0913 13.4706V3.14706C18.0913 2.74126 17.9781 2.3522 17.7691 2.05097C17.5615 1.75162 17.2254 1.5 16.7957 1.5C16.3659 1.5 16.0298 1.75162 15.8222 2.05097C15.6132 2.3522 15.5 2.74126 15.5 3.14706V15Z" fill="white" fill-opacity="0.2" stroke="white"/>
<path d="M3.5 4.62898V5.1078V5.12898H4H9.93269C10.9955 5.12898 11.8058 5.93391 11.8058 6.86424V19.8407V19.8619C11.8058 20.6364 12.3591 21.3454 13.1683 21.492L13.1686 21.4921C14.203 21.6786 15.1788 20.9352 15.1788 19.9032V19.882V3.13881C15.1788 2.83013 15.268 2.53943 15.4257 2.28345L15.8953 1.52118H15.8823L15.8953 1.5H15H5.18654C4.28364 1.5 3.5 2.19642 3.5 3.11763V3.13881V4.6078V4.62898Z" fill="white" fill-opacity="0.2" stroke="white"/>
<path d="M11.886 19.5317V7.08817C11.9196 6.55136 11.7247 6.1305 11.373 5.85008C11.0483 5.59118 10.6378 5.48998 10.2938 5.44975C9.9402 5.40839 9.59273 5.4245 9.34108 5.44865C9.2135 5.4609 9.10645 5.47562 9.03032 5.48747C8.99217 5.49341 8.96157 5.49865 8.93979 5.50256L8.91384 5.50734L8.90607 5.50883L8.90355 5.50933L8.90263 5.50951L8.90225 5.50959C8.90209 5.50962 8.90194 5.50965 9 5.99994L8.90194 5.50965L8.48466 5.59311L8.50034 6.01836L8.53935 7.07652L8.50799 9.00494L1.9949 9.0714L1.5 9.07645V9.57137V19.9285C1.5 20.835 2.29629 21.4999 3.17325 21.4999L11.5 21.4999H12.6842L11.8584 20.6513C11.8128 20.6044 11.7847 20.5524 11.7988 20.3683C11.8049 20.2896 11.8164 20.2111 11.8311 20.1112C11.8356 20.0809 11.8403 20.0487 11.8453 20.0139C11.865 19.8758 11.886 19.7093 11.886 19.5317ZM7.36139 18.2798L6.97517 18.3701V18.7667V18.8571C6.97517 18.9335 6.8923 19.0714 6.693 19.0714C6.4937 19.0714 6.41083 18.9335 6.41083 18.8571V18.7667V18.3725L6.02752 18.2805C5.16062 18.0725 4.64817 17.4846 4.47455 17.147C4.46041 17.1191 4.45542 17.0938 4.45542 17.0714C4.45542 16.9947 4.53892 16.8571 4.73758 16.8571C4.86888 16.8571 4.96465 16.9256 5.00091 16.9963L5.00487 17.004L5.00909 17.0116C5.07405 17.1281 5.56222 17.9285 6.693 17.9285C7.08861 17.9285 7.47344 17.8241 7.77401 17.6411C8.05717 17.4687 8.36625 17.1564 8.36625 16.7142C8.36625 16.272 8.05717 15.9598 7.77401 15.7874C7.47344 15.6044 7.08861 15.4999 6.693 15.4999C5.33891 15.4999 4.45542 14.6556 4.45542 13.8571C4.45542 13.1991 5.03461 12.5228 6.02461 12.2915L6.41083 12.2012V11.8046V11.7142C6.41083 11.6378 6.4937 11.4999 6.693 11.4999C6.8923 11.4999 6.97517 11.6378 6.97517 11.7142V11.8046V12.1988L7.35848 12.2908C8.22535 12.4988 8.7378 13.0867 8.91144 13.4243C8.92559 13.4522 8.93058 13.4775 8.93058 13.4999C8.93058 13.5767 8.84665 13.7144 8.64883 13.7142H8.64842C8.51811 13.7142 8.42174 13.6462 8.38467 13.5742L8.38091 13.5669L8.37691 13.5597C8.31195 13.4432 7.82378 12.6428 6.693 12.6428C6.29739 12.6428 5.91256 12.7472 5.61199 12.9302C5.32883 13.1027 5.01975 13.4149 5.01975 13.8571C5.01975 14.2993 5.32883 14.6115 5.61199 14.7839C5.91256 14.9669 6.29739 15.0714 6.693 15.0714C8.04709 15.0714 8.93058 15.9158 8.93058 16.7142C8.93058 17.3722 8.35139 18.0485 7.36139 18.2798Z" fill="white" fill-opacity="0.2" stroke="white"/>
</svg>
