<svg width="22" height="22" viewBox="0 0 22 22" fill="none" xmlns="http://www.w3.org/2000/svg">
<path d="M7.36877 17.1667H9.63104L7.05804 19.7397C6.97673 19.821 6.86638 19.8667 6.7517 19.8667H4.72367C4.71631 19.8667 4.71277 19.8653 4.71149 19.8648C4.7099 19.8641 4.70824 19.863 4.70649 19.8612C4.70203 19.8565 4.6999 19.8501 4.6999 19.8459C4.6999 19.841 4.70074 19.838 4.7014 19.8363C4.7019 19.8351 4.70311 19.8324 4.70737 19.8281L7.36877 17.1667ZM10.1999 17.3221V17.1667H11.7999V17.3221V19.8C11.7999 19.8371 11.7703 19.8667 11.7332 19.8667H10.2666C10.2295 19.8667 10.1999 19.8371 10.1999 19.8V17.3221ZM14.9418 19.7397L12.3688 17.1667H14.631L17.2924 19.8281C17.2967 19.8324 17.2979 19.8351 17.2984 19.8363C17.2991 19.838 17.2999 19.841 17.2999 19.8459C17.2999 19.8501 17.2978 19.8565 17.2933 19.8612C17.2916 19.863 17.2899 19.8641 17.2883 19.8648C17.287 19.8653 17.2835 19.8667 17.2761 19.8667H15.2481C15.1334 19.8667 15.0231 19.821 14.9418 19.7397Z" fill="white" fill-opacity="0.2" stroke="white" stroke-width="0.6"/>
<path d="M19.8001 4.09992H2.20013C1.96102 4.09992 1.7668 3.9057 1.7668 3.66658V2.56659C1.7668 2.32747 1.96102 2.13325 2.20013 2.13325H19.8001C20.0392 2.13325 20.2335 2.32747 20.2335 2.56659V3.66658C20.2335 3.9057 20.0392 4.09992 19.8001 4.09992Z" fill="white" fill-opacity="0.2" stroke="white" stroke-width="0.6"/>
<path d="M11.9954 6.60205L11.995 6.60236L10.5831 8.01471C10.583 8.01482 10.5829 8.01492 10.5828 8.01502C10.4286 8.16879 10.3331 8.38176 10.3331 8.61663C10.3331 9.08592 10.7138 9.46664 11.1831 9.46664C11.4181 9.46664 11.631 9.37109 11.7846 9.21743L11.7847 9.2174L13.0018 7.99997H15.0331H15.3331V7.69997V6.59997V6.29997H15.0331H12.7257C12.4517 6.29997 12.189 6.40896 11.9954 6.60205ZM6.89977 6.26263V5.91657L6.55721 5.96567C5.16879 6.16466 4.09977 7.35553 4.09977 8.79997C4.09977 10.3832 5.38322 11.6666 6.96644 11.6666C7.61086 11.6666 8.20355 11.4515 8.68144 11.0938L8.95863 10.8864L8.7138 10.6415L6.89977 8.8275V6.26263ZM7.03311 8.64817V8.77243L7.12097 8.8603L8.80801 10.5473L9.05283 10.7922L9.26031 10.515C9.61801 10.0371 9.83311 9.44439 9.83311 8.79997C9.83311 7.35553 8.76408 6.16466 7.37567 5.96567L7.03311 5.91657V6.26263V8.64817ZM16.2586 11.3432L16.7466 11.8327C16.7466 11.8328 16.7467 11.8328 16.7467 11.8329C16.8896 11.9763 17.0678 12.0333 17.2331 12.0333C17.5853 12.0333 17.8998 11.7491 17.8998 11.3567V9.16664C17.8998 8.79818 17.6016 8.49997 17.2331 8.49997H15.0393C14.6433 8.49997 14.3664 8.81932 14.3664 9.16664C14.3664 9.33398 14.4274 9.50943 14.5682 9.64776L15.0586 10.1392L13.7501 11.4476L12.5183 10.2158L12.5179 10.2154C12.3642 10.0622 12.1515 9.96663 11.9164 9.96663C11.6818 9.96663 11.4688 10.0622 11.3149 10.2154L11.3145 10.2159L9.48306 12.048C9.48301 12.0481 9.48295 12.0482 9.48289 12.0482C9.32863 12.202 9.23311 12.415 9.23311 12.65C9.23311 13.1193 9.61382 13.5 10.0831 13.5C10.318 13.5 10.531 13.4045 10.6847 13.2503C10.6848 13.2502 10.6849 13.2501 10.685 13.25L11.9164 12.0187L13.1478 13.2507L13.1483 13.2512C13.3021 13.4045 13.5152 13.5 13.7498 13.5C13.985 13.5 14.1982 13.4038 14.3517 13.2504L14.3517 13.2504L16.2586 11.3432ZM3.23311 13.9333V5.4333H18.7664V13.9333C18.7664 14.5776 18.2441 15.1 17.5998 15.1H4.39977C3.75549 15.1 3.23311 14.5776 3.23311 13.9333Z" fill="white" fill-opacity="0.2" stroke="white" stroke-width="0.6"/>
</svg>
