<svg width="22" height="22" viewBox="0 0 22 22" fill="none" xmlns="http://www.w3.org/2000/svg">
<path d="M3.76173 4.31495C3.49404 4.15901 3.44393 4.0567 3.4349 4.03328C3.44393 4.00987 3.49404 3.90756 3.76173 3.75162C4.07685 3.56806 4.5751 3.38441 5.25845 3.22354C6.61724 2.90365 8.5924 2.69995 10.9998 2.69995C13.4071 2.69995 15.3823 2.90365 16.7411 3.22354C17.4244 3.38441 17.9227 3.56806 18.2378 3.75162C18.5055 3.90756 18.5556 4.00987 18.5646 4.03328C18.5556 4.0567 18.5055 4.15901 18.2378 4.31495C17.9227 4.49851 17.4244 4.68216 16.7411 4.84303C15.3823 5.16292 13.4071 5.36662 10.9998 5.36662C8.5924 5.36662 6.61724 5.16292 5.25845 4.84303C4.5751 4.68216 4.07685 4.49851 3.76173 4.31495Z" fill="white" fill-opacity="0.2" stroke="white"/>
<path d="M3.76173 9.08182C3.46124 8.90677 3.43491 8.7993 3.43311 8.79515V6.19202C5.16984 6.97652 7.63634 7.46682 10.9998 7.46682C14.3632 7.46682 16.8297 6.97652 18.5664 6.19202V8.79515C18.5646 8.79929 18.5383 8.90676 18.2378 9.08182C17.9227 9.26538 17.4244 9.44902 16.7411 9.6099C15.3823 9.92978 13.4071 10.1335 10.9998 10.1335C8.5924 10.1335 6.61724 9.92978 5.25845 9.6099C4.5751 9.44902 4.07685 9.26538 3.76173 9.08182ZM18.4664 7.88349C18.4664 7.30374 17.9962 6.83349 17.4164 6.83349C16.8367 6.83349 16.3664 7.30374 16.3664 7.88349C16.3664 8.46323 16.8367 8.93349 17.4164 8.93349C17.9962 8.93349 18.4664 8.46323 18.4664 7.88349ZM15.8998 8.61682C15.8998 8.03708 15.4295 7.56682 14.8498 7.56682C14.27 7.56682 13.7998 8.03708 13.7998 8.61682C13.7998 9.19656 14.27 9.66682 14.8498 9.66682C15.4295 9.66682 15.8998 9.19656 15.8998 8.61682ZM12.9664 8.98349C12.9664 8.40374 12.4962 7.93349 11.9164 7.93349C11.3367 7.93349 10.8664 8.40374 10.8664 8.98349C10.8664 9.56323 11.3367 10.0335 11.9164 10.0335C12.4962 10.0335 12.9664 9.56323 12.9664 8.98349Z" fill="white" fill-opacity="0.2" stroke="white"/>
<path d="M3.76173 13.8484C3.46124 13.6734 3.43491 13.5659 3.43311 13.5617V10.9586C5.16984 11.7431 7.63635 12.2334 10.9998 12.2334C14.3632 12.2334 16.8297 11.7431 18.5664 10.9586V13.5617C18.5646 13.5659 18.5383 13.6734 18.2378 13.8484C17.9227 14.032 17.4244 14.2156 16.7411 14.3765C15.3823 14.6964 13.4071 14.9001 10.9998 14.9001C8.5924 14.9001 6.61724 14.6964 5.25845 14.3765C4.5751 14.2156 4.07685 14.032 3.76173 13.8484ZM18.4664 12.6501C18.4664 12.0703 17.9962 11.6001 17.4164 11.6001C16.8367 11.6001 16.3664 12.0703 16.3664 12.6501C16.3664 13.2298 16.8367 13.7001 17.4164 13.7001C17.9962 13.7001 18.4664 13.2298 18.4664 12.6501ZM15.8998 13.3834C15.8998 12.8037 15.4295 12.3334 14.8498 12.3334C14.27 12.3334 13.7998 12.8037 13.7998 13.3834C13.7998 13.9632 14.27 14.4334 14.8498 14.4334C15.4295 14.4334 15.8998 13.9632 15.8998 13.3834ZM12.9664 13.7501C12.9664 13.1703 12.4962 12.7001 11.9164 12.7001C11.3367 12.7001 10.8664 13.1703 10.8664 13.7501C10.8664 14.3298 11.3367 14.8001 11.9164 14.8001C12.4962 14.8001 12.9664 14.3298 12.9664 13.7501Z" fill="white" fill-opacity="0.2" stroke="white"/>
<path d="M3.76173 18.615C3.46124 18.44 3.43491 18.3325 3.43311 18.3283V15.7252C5.16984 16.5097 7.63635 17 10.9998 17C14.3632 17 16.8297 16.5097 18.5664 15.7252V18.3283C18.5646 18.3325 18.5383 18.44 18.2378 18.615C17.9227 18.7986 17.4244 18.9822 16.7411 19.1431C15.3823 19.463 13.4071 19.6667 10.9998 19.6667C8.5924 19.6667 6.61724 19.463 5.25845 19.1431C4.5751 18.9822 4.07685 18.7986 3.76173 18.615ZM18.4664 17.4167C18.4664 16.8369 17.9962 16.3667 17.4164 16.3667C16.8367 16.3667 16.3664 16.8369 16.3664 17.4167C16.3664 17.9964 16.8367 18.4667 17.4164 18.4667C17.9962 18.4667 18.4664 17.9964 18.4664 17.4167ZM15.8998 18.15C15.8998 17.5703 15.4295 17.1 14.8498 17.1C14.27 17.1 13.7998 17.5703 13.7998 18.15C13.7998 18.7298 14.27 19.2 14.8498 19.2C15.4295 19.2 15.8998 18.7298 15.8998 18.15ZM12.9664 18.5167C12.9664 17.9369 12.4962 17.4667 11.9164 17.4667C11.3367 17.4667 10.8664 17.9369 10.8664 18.5167C10.8664 19.0964 11.3367 19.5667 11.9164 19.5667C12.4962 19.5667 12.9664 19.0964 12.9664 18.5167Z" fill="white" fill-opacity="0.2" stroke="white"/>
</svg>
