<svg width="22" height="18" viewBox="0 0 22 18" fill="none" xmlns="http://www.w3.org/2000/svg">
<g clip-path="url(#clip0_245_390)">
<path d="M4.91076 14.1261L4.91331 12.8761H17.1V14.1261H4.91076ZM4.91375 12.6573C4.91375 12.6577 4.91375 12.658 4.91375 12.6583V12.6573ZM4.90045 17.5011L4.90299 16.2511H17.1V17.5011H4.90045ZM4.90344 16.0323C4.90344 16.0327 4.90344 16.033 4.90344 16.0333V16.0323ZM4.91763 10.7511L4.92018 9.50108H17.1V10.7511H4.91763ZM4.92063 9.28233C4.92063 9.28267 4.92063 9.28301 4.92063 9.28335V9.28233ZM11.4372 0.591441L20.7881 4.57354C20.7884 4.57367 20.7887 4.57381 20.789 4.57395C21.2144 4.75772 21.5 5.18693 21.5 5.67178V17.5011H19.2V9.00108C19.2 8.10873 18.4768 7.37608 17.5794 7.37608H4.42063C3.5232 7.37608 2.8 8.10873 2.8 9.00108V17.5011H0.5V5.67178C0.5 5.18689 0.785625 4.75765 1.21109 4.5739C1.21137 4.57378 1.21165 4.57366 1.21193 4.57354L10.5593 0.591441C10.5594 0.591409 10.5595 0.591377 10.5596 0.591345C10.699 0.532228 10.848 0.501953 10.9983 0.501953C11.1486 0.501953 11.2977 0.532248 11.4371 0.591403C11.4372 0.591416 11.4372 0.591428 11.4372 0.591441Z" fill="white" fill-opacity="0.2" stroke="white"/>
</g>
<defs>
<clipPath id="clip0_245_390">
<rect width="22" height="18" fill="white"/>
</clipPath>
</defs>
</svg>
