<svg width="36" height="36" viewBox="0 0 36 36" fill="none" xmlns="http://www.w3.org/2000/svg">
<path d="M27.9 11.4C30.3853 11.4 32.4 9.38528 32.4 6.89999C32.4 4.41471 30.3853 2.39999 27.9 2.39999C25.4147 2.39999 23.4 4.41471 23.4 6.89999C23.4 9.38528 25.4147 11.4 27.9 11.4Z" stroke="#3178F6" stroke-width="1.3" stroke-miterlimit="10"/>
<path d="M30.6 10.5006V13.2" stroke="#3178F6" stroke-width="1.3" stroke-miterlimit="10"/>
<path d="M30.6 14.4V17.4L27.9 15.6L25.2 17.4V10.5006" stroke="#3178F6" stroke-width="1.3" stroke-miterlimit="10"/>
<path d="M21.5376 6.65278L17.1732 5.01538C15.7362 4.47598 14.214 4.19998 12.6792 4.19998C11.0418 4.19998 9.4194 4.51438 7.9008 5.12638L4.8 6.37498V17.8224" stroke="#3178F6" stroke-width="1.3" stroke-miterlimit="10"/>
<path d="M16.0524 25.0512C16.4334 25.155 16.8096 25.2768 17.1798 25.416L22.4268 27.3846C23.8638 27.924 25.386 28.2 26.9208 28.2C28.5582 28.2 30.1806 27.8856 31.6992 27.2736L34.8 26.025V5.39999" stroke="#3178F6" stroke-width="1.3" stroke-miterlimit="10"/>
<path d="M9.012 19.5792L3.6 20.6208V23.5422L10.8 22.0578V19.2" stroke="#3178F6" stroke-width="1.3" stroke-miterlimit="10"/>
<path d="M12.3954 16.2C12.3384 16.2 12.2814 16.206 12.2256 16.218L2.1468 18.3954C1.5942 18.5148 1.2 19.0032 1.2 19.5684V24.3048C1.2 24.882 1.4082 25.44 1.7862 25.8768L8.3622 33.4644C8.7672 33.9312 9.3552 34.2 9.9738 34.2C10.1238 34.2 10.2738 34.1844 10.4208 34.1526L20.8512 31.9182C21.288 31.8246 21.6 31.4388 21.6 30.9924C21.6 30.741 21.5004 30.5004 21.3228 30.3228L13.9032 22.9032C13.4526 22.4526 13.2 21.8424 13.2 21.2058V17.0046C13.2 16.56 12.84 16.2 12.3954 16.2V16.2Z" stroke="#3178F6" stroke-width="1.3" stroke-miterlimit="10"/>
<path d="M11.2686 30.9564L9.6378 31.2876" stroke="#3178F6" stroke-width="1.3" stroke-miterlimit="10"/>
<path d="M14.3442 30.2916L12.7134 30.6228" stroke="#3178F6" stroke-width="1.3" stroke-miterlimit="10"/>
<path d="M17.3448 29.6436L15.7134 29.9748" stroke="#3178F6" stroke-width="1.3" stroke-miterlimit="10"/>
<path d="M9.4686 28.5906L7.8378 28.9218" stroke="#3178F6" stroke-width="1.3" stroke-miterlimit="10"/>
<path d="M12.5442 27.9264L10.9134 28.2576" stroke="#3178F6" stroke-width="1.3" stroke-miterlimit="10"/>
<path d="M15.5448 27.2778L13.9134 27.609" stroke="#3178F6" stroke-width="1.3" stroke-miterlimit="10"/>
<path d="M7.0782 26.1624L5.4468 26.4936" stroke="#3178F6" stroke-width="1.3" stroke-miterlimit="10"/>
<path d="M10.1538 25.4982L8.5224 25.8294" stroke="#3178F6" stroke-width="1.3" stroke-miterlimit="10"/>
<path d="M13.1544 24.8502L11.523 25.1814" stroke="#3178F6" stroke-width="1.3" stroke-miterlimit="10"/>
<path d="M26.8206 5.09821C26.2092 5.46541 25.8 6.13501 25.8 6.90001C25.8 6.97621 25.8042 7.05181 25.812 7.12621" stroke="#3178F6" stroke-width="1.3" stroke-miterlimit="10"/>
</svg>
