<svg width="36" height="36" viewBox="0 0 36 36" fill="none" xmlns="http://www.w3.org/2000/svg">
<path d="M13.2 7.20001V7.80001C13.2 9.45721 11.8572 10.8 10.2 10.8C8.5428 10.8 7.2 9.45721 7.2 7.80001V5.04361C7.2 3.58381 8.3838 2.40001 9.8436 2.40001H10.2C12 2.40001 13.8 1.20001 13.8 1.20001C13.8 1.20001 14.4 1.80001 14.4 3.00001C14.4 4.80001 13.2 6.00001 11.4 6.00001" stroke="#3178F6" stroke-width="1.3" stroke-miterlimit="10"/>
<path d="M13.2 7.80004V5.48584" stroke="#3178F6" stroke-width="1.3" stroke-miterlimit="10"/>
<path d="M12 12.6C12 12.6 11.4 13.2 10.2 13.2C9 13.2 8.4 12.6 8.4 12.6" stroke="#3178F6" stroke-width="1.3" stroke-miterlimit="10"/>
<path d="M8.4 10.2V12.6L5.9376 13.3032C4.8624 13.611 4.032 14.4684 3.7614 15.5538L1.9068 22.9722C1.836 23.2566 1.8 23.5476 1.8 23.8404C1.8 24.9228 2.6772 25.8 3.7596 25.8C4.0494 25.8 4.3362 25.7358 4.5984 25.6116L9.555 23.2638C9.9456 23.079 10.2 22.6626 10.2 22.2C10.2 21.5376 9.6624 21 9 21C8.871 21 8.748 21.0222 8.631 21.0582L4.3482 22.3626" stroke="#3178F6" stroke-width="1.3" stroke-miterlimit="10"/>
<path d="M12 10.2V12.6L14.4624 13.3032C15.5376 13.611 16.3674 14.4684 16.6386 15.5538L16.6764 15.702" stroke="#3178F6" stroke-width="1.3" stroke-miterlimit="10"/>
<path d="M6 17.4V21.8592" stroke="#3178F6" stroke-width="1.3" stroke-miterlimit="10"/>
<path d="M6 24.9474V36" stroke="#3178F6" stroke-width="1.3" stroke-miterlimit="10"/>
<path d="M15.6 34.2V36" stroke="#3178F6" stroke-width="1.3" stroke-miterlimit="10"/>
<path d="M25.2 28.8H18.6C15.3 28.8 13.4178 23.1282 12.5634 19.5834C12.1692 17.9454 10.6848 16.8 9 16.8" stroke="#3178F6" stroke-width="1.3" stroke-miterlimit="10"/>
<path d="M15.6 31.8V33" stroke="#3178F6" stroke-width="1.3" stroke-miterlimit="10"/>
<path d="M8.4 23.8116V30H16.2" stroke="#3178F6" stroke-width="1.3" stroke-miterlimit="10"/>
<path d="M29.9202 12.6936C29.025 15.5166 28.2 19.7586 28.2 25.8C28.2 27.4572 26.8572 28.8 25.2 28.8C21.7662 28.8 19.8678 22.0452 19.065 18.1998C18.7482 16.6818 17.4024 15.6 15.8514 15.6H11.4C9.7428 15.6 8.4 16.9428 8.4 18.6V21.1284" stroke="#3178F6" stroke-width="1.3" stroke-miterlimit="10"/>
<path d="M30.843 10.2576C30.7026 10.5678 30.5568 10.9134 30.4098 11.295" stroke="#3178F6" stroke-width="1.3" stroke-miterlimit="10"/>
<path d="M32.139 7.99384C32.139 7.99384 31.9086 8.26324 31.5594 8.85784" stroke="#3178F6" stroke-width="1.3" stroke-miterlimit="10"/>
<path d="M26.7378 5.6532C26.7378 5.6532 23.4 8.6436 23.4 14.4V22.8C23.4 24.0798 22.599 25.1718 21.471 25.6032" stroke="#3178F6" stroke-width="1.3" stroke-miterlimit="10"/>
<path d="M19.8 1.79999V3.59999" stroke="#3178F6" stroke-width="1.3" stroke-miterlimit="10"/>
<path d="M18 7.20004C18 7.86244 18.5376 8.40004 19.2 8.40004H20.4C21.0624 8.40004 21.6 7.86244 21.6 7.20004C21.6 6.53764 21.0624 6.00004 20.4 6.00004H19.2C18.5376 6.00004 18 5.46244 18 4.80004C18 4.13764 18.5376 3.60004 19.2 3.60004H20.4C21.0624 3.60004 21.6 4.13764 21.6 4.80004" stroke="#3178F6" stroke-width="1.3" stroke-miterlimit="10"/>
<path d="M19.8 10.2V8.40002" stroke="#3178F6" stroke-width="1.3" stroke-miterlimit="10"/>
<path d="M30.6 27.6V29.4" stroke="#3178F6" stroke-width="1.3" stroke-miterlimit="10"/>
<path d="M28.8 33C28.8 33.6624 29.3376 34.2 30 34.2H31.2C31.8624 34.2 32.4 33.6624 32.4 33C32.4 32.3376 31.8624 31.8 31.2 31.8H30C29.3376 31.8 28.8 31.2624 28.8 30.6C28.8 29.9376 29.3376 29.4 30 29.4H31.2C31.8624 29.4 32.4 29.9376 32.4 30.6" stroke="#3178F6" stroke-width="1.3" stroke-miterlimit="10"/>
<path d="M30.6 36V34.2" stroke="#3178F6" stroke-width="1.3" stroke-miterlimit="10"/>
<path d="M33 15V16.8" stroke="#3178F6" stroke-width="1.3" stroke-miterlimit="10"/>
<path d="M31.2 20.4C31.2 21.0624 31.7376 21.6 32.4 21.6H33.6C34.2624 21.6 34.8 21.0624 34.8 20.4C34.8 19.7376 34.2624 19.2 33.6 19.2H32.4C31.7376 19.2 31.2 18.6624 31.2 18C31.2 17.3376 31.7376 16.8 32.4 16.8H33.6C34.2624 16.8 34.8 17.3376 34.8 18" stroke="#3178F6" stroke-width="1.3" stroke-miterlimit="10"/>
<path d="M33 23.4V21.6" stroke="#3178F6" stroke-width="1.3" stroke-miterlimit="10"/>
</svg>
