<svg width="36" height="36" viewBox="0 0 36 36" fill="none" xmlns="http://www.w3.org/2000/svg">
<path d="M7.8 27.6C7.8 28.5942 8.8746 29.4 10.2 29.4C11.5254 29.4 12.6 28.5942 12.6 27.6C12.6 26.6058 11.5254 25.8 10.2 25.8C8.8746 25.8 7.8 24.9942 7.8 24C7.8 23.0058 8.8746 22.2 10.2 22.2C11.5254 22.2 12.6 23.0058 12.6 24" stroke="#3178F6" stroke-width="1.3" stroke-miterlimit="10"/>
<path d="M10.2 22.2V20.4" stroke="#3178F6" stroke-width="1.3" stroke-miterlimit="10"/>
<path d="M10.2 31.2V29.4" stroke="#3178F6" stroke-width="1.3" stroke-miterlimit="10"/>
<path d="M24.3 33H7.5C6.3402 33 5.4 32.0598 5.4 30.9V12.6" stroke="#3178F6" stroke-width="1.3" stroke-miterlimit="10"/>
<path d="M9.6 5.4V5.1C9.6 3.9402 10.5402 3 11.7 3H28.5" stroke="#3178F6" stroke-width="1.3" stroke-miterlimit="10"/>
<path d="M28.2 21.6H32.7C33.8598 21.6 34.8 20.6598 34.8 19.5V18H30.6" stroke="#3178F6" stroke-width="1.3" stroke-miterlimit="10"/>
<path d="M9 10.8H1.2V9.30001C1.2 8.14021 2.1402 7.20001 3.3 7.20001H20.1" stroke="#3178F6" stroke-width="1.3" stroke-miterlimit="10"/>
<path d="M32.7 21.6C31.5402 21.6 30.6 20.6598 30.6 19.5V5.1C30.6 3.9402 29.6598 3 28.5 3C27.3402 3 26.4 3.9402 26.4 5.1V30.9C26.4 32.0598 25.4598 33 24.3 33C23.1402 33 22.2 32.0598 22.2 30.9V9.3C22.2 8.1402 21.2598 7.2 20.1 7.2C18.9402 7.2 18 8.1402 18 9.3V10.8H8.3976" stroke="#3178F6" stroke-width="1.3" stroke-miterlimit="10"/>
<path d="M30 25.2H28.8V26.4H30V25.2Z" fill="#3178F6"/>
<path d="M30 27.6H28.8V28.8H30V27.6Z" fill="#3178F6"/>
<path d="M30 30H28.8V31.2H30V30Z" fill="#3178F6"/>
</svg>
