<svg width="36" height="36" viewBox="0 0 36 36" fill="none" xmlns="http://www.w3.org/2000/svg">
<g clip-path="url(#clip0_1191_792)">
<path d="M9.94981 28.2858L11.5008 34.491C11.6346 35.025 12.1146 35.4 12.6648 35.4H15.6C15.9312 35.4 16.2 35.1312 16.2 34.8C16.2 34.095 15.72 33.48 15.036 33.309L14.25 33.1122L11.4006 21.7122V19.8" stroke="#3178F6" stroke-width="1.3" stroke-miterlimit="10"/>
<path d="M4.8 13.8V33L4.1382 33.2208C3.4584 33.447 3 34.0836 3 34.8C3 35.1312 3.2688 35.4 3.6 35.4H6.6C7.263 35.4 7.8 34.863 7.8 34.2V22.2" stroke="#3178F6" stroke-width="1.3" stroke-miterlimit="10"/>
<path d="M7.8 7.79998C6.1434 7.79998 4.8 6.45658 4.8 4.79998V3.59998C4.8 1.94338 6.1434 0.599976 7.8 0.599976C9.4566 0.599976 10.8 1.94338 10.8 3.59998V4.79998C10.8 6.45658 9.4566 7.79998 7.8 7.79998Z" stroke="#3178F6" stroke-width="1.3" stroke-miterlimit="10"/>
<path d="M26.4 34.2C30.7078 34.2 34.2 30.7078 34.2 26.4C34.2 22.0922 30.7078 18.6 26.4 18.6C22.0922 18.6 18.6 22.0922 18.6 26.4C18.6 30.7078 22.0922 34.2 26.4 34.2Z" stroke="#3178F6" stroke-width="1.3" stroke-miterlimit="10"/>
<path d="M29.8836 33.3809L27.4836 34.5809C26.4348 35.1047 25.2522 35.3999 24 35.3999C19.692 35.3999 16.2 31.9079 16.2 27.5999C16.2 24.5441 17.9574 21.8987 20.5164 20.6189L22.9164 19.4189" stroke="#3178F6" stroke-width="1.3" stroke-miterlimit="10"/>
<path d="M16.2216 28.1879L18.6132 26.8589" stroke="#3178F6" stroke-width="1.3" stroke-miterlimit="10"/>
<path d="M17.1246 31.2864L19.47 29.9832" stroke="#3178F6" stroke-width="1.3" stroke-miterlimit="10"/>
<path d="M19.1886 33.7398L21.4902 32.4612" stroke="#3178F6" stroke-width="1.3" stroke-miterlimit="10"/>
<path d="M11.196 13.3182L13.8696 20.8038C14.0358 21.267 14.4798 21.6 15 21.6C15.663 21.6 16.2 21.063 16.2 20.4C16.2 20.259 16.1754 20.1222 16.1304 19.9962L13.1994 11.7924C12.858 10.8372 11.9538 10.2 10.9392 10.2H5.2632C4.263 10.2 3.3672 10.8204 3.0162 11.757L2.0934 14.2188C1.899 14.7354 1.8 15.2826 1.8 15.8346C1.8 16.7262 2.0598 17.5986 2.5464 18.345L4.8 21.7998" stroke="#3178F6" stroke-width="1.3" stroke-miterlimit="10"/>
<path d="M22.2186 16.0404L21.5106 13.317" stroke="#3178F6" stroke-width="1.3" stroke-miterlimit="10"/>
<path d="M28.0878 15.4404L28.5 12.717" stroke="#3178F6" stroke-width="1.3" stroke-miterlimit="10"/>
<path d="M32.8404 17.7378L34.6218 15.7686" stroke="#3178F6" stroke-width="1.3" stroke-miterlimit="10"/>
<path d="M24 1.79999V4.79999" stroke="#3178F6" stroke-width="1.3" stroke-miterlimit="10"/>
<path d="M24 7.19995V10.2" stroke="#3178F6" stroke-width="1.3" stroke-miterlimit="10"/>
<path d="M28.2 6H25.2" stroke="#3178F6" stroke-width="1.3" stroke-miterlimit="10"/>
<path d="M22.8 6H19.8" stroke="#3178F6" stroke-width="1.3" stroke-miterlimit="10"/>
<path d="M26.5 22.0312C25.6162 22.0312 24.7522 22.2933 24.0173 22.7844C23.2824 23.2754 22.7096 23.9733 22.3714 24.7899C22.0332 25.6064 21.9447 26.505 22.1171 27.3718C22.2895 28.2387 22.7152 29.0349 23.3401 29.6599C23.9651 30.2848 24.7613 30.7105 25.6282 30.8829C26.495 31.0553 27.3936 30.9668 28.2101 30.6286C29.0267 30.2904 29.7246 29.7176 30.2156 28.9827C30.7067 28.2478 30.9688 27.3838 30.9688 26.5C30.9674 25.3152 30.4961 24.1794 29.6584 23.3416C28.8206 22.5039 27.6848 22.0326 26.5 22.0312ZM26.5 30.2812C25.7521 30.2812 25.0211 30.0595 24.3993 29.644C23.7774 29.2285 23.2928 28.638 23.0066 27.947C22.7204 27.2561 22.6455 26.4958 22.7914 25.7623C22.9373 25.0288 23.2974 24.3551 23.8263 23.8263C24.3551 23.2974 25.0288 22.9373 25.7623 22.7914C26.4958 22.6455 27.2561 22.7204 27.947 23.0066C28.638 23.2928 29.2285 23.7774 29.644 24.3993C30.0595 25.0211 30.2813 25.7521 30.2813 26.5C30.2802 27.5025 29.8814 28.4637 29.1725 29.1725C28.4637 29.8814 27.5025 30.2802 26.5 30.2812Z" fill="#3178F6"/>
<path d="M25.125 26.1562C25.329 26.1562 25.5284 26.0957 25.6979 25.9824C25.8675 25.8691 25.9997 25.7081 26.0778 25.5196C26.1558 25.3312 26.1762 25.1238 26.1364 24.9238C26.0967 24.7237 25.9984 24.54 25.8542 24.3958C25.71 24.2515 25.5262 24.1533 25.3262 24.1135C25.1262 24.0737 24.9188 24.0942 24.7304 24.1722C24.5419 24.2503 24.3809 24.3825 24.2676 24.552C24.1542 24.7216 24.0938 24.921 24.0938 25.125C24.0938 25.3985 24.2024 25.6608 24.3958 25.8542C24.5892 26.0476 24.8515 26.1562 25.125 26.1562ZM25.125 24.7812C25.193 24.7812 25.2595 24.8014 25.316 24.8392C25.3725 24.8769 25.4166 24.9306 25.4426 24.9934C25.4686 25.0562 25.4754 25.1254 25.4622 25.192C25.4489 25.2587 25.4162 25.32 25.3681 25.368C25.32 25.4161 25.2588 25.4489 25.1921 25.4621C25.1254 25.4754 25.0563 25.4686 24.9935 25.4426C24.9306 25.4165 24.877 25.3725 24.8392 25.316C24.8014 25.2594 24.7813 25.193 24.7813 25.125C24.7813 25.0338 24.8175 24.9464 24.8819 24.8819C24.9464 24.8174 25.0338 24.7812 25.125 24.7812ZM27.875 26.8437C27.671 26.8437 27.4717 26.9042 27.3021 27.0175C27.1325 27.1308 27.0003 27.2919 26.9223 27.4803C26.8442 27.6688 26.8238 27.8761 26.8636 28.0762C26.9034 28.2762 27.0016 28.46 27.1458 28.6042C27.29 28.7484 27.4738 28.8466 27.6738 28.8864C27.8739 28.9262 28.0812 28.9058 28.2697 28.8277C28.4581 28.7497 28.6191 28.6175 28.7325 28.4479C28.8458 28.2783 28.9063 28.0789 28.9063 27.875C28.9063 27.6015 28.7976 27.3392 28.6042 27.1458C28.4108 26.9524 28.1485 26.8437 27.875 26.8437ZM27.875 28.2187C27.807 28.2187 27.7406 28.1986 27.684 28.1608C27.6275 28.123 27.5834 28.0693 27.5574 28.0065C27.5314 27.9437 27.5246 27.8746 27.5379 27.8079C27.5511 27.7412 27.5839 27.68 27.6319 27.6319C27.68 27.5838 27.7413 27.5511 27.8079 27.5378C27.8746 27.5246 27.9437 27.5314 28.0066 27.5574C28.0694 27.5834 28.1231 27.6275 28.1608 27.684C28.1986 27.7405 28.2188 27.807 28.2188 27.875C28.2188 27.9661 28.1825 28.0536 28.1181 28.118C28.0536 28.1825 27.9662 28.2187 27.875 28.2187ZM28.7956 23.8414C28.7286 23.7796 28.6398 23.7468 28.5487 23.7505C28.4576 23.7541 28.3717 23.7937 28.3099 23.8607L24.1849 28.3294C24.123 28.3964 24.0903 28.4853 24.0939 28.5764C24.0976 28.6675 24.1373 28.7534 24.2043 28.8153C24.2713 28.8772 24.3601 28.9099 24.4512 28.9062C24.5424 28.9026 24.6283 28.8629 24.6902 28.7959L28.8152 24.3271C28.877 24.2601 28.9096 24.1713 28.906 24.0802C28.9023 23.9891 28.8626 23.9032 28.7956 23.8414Z" fill="#3178F6"/>
</g>
<defs>
<clipPath id="clip0_1191_792">
<rect width="36" height="36" fill="white"/>
</clipPath>
</defs>
</svg>
