<svg width="36" height="36" viewBox="0 0 36 36" fill="none" xmlns="http://www.w3.org/2000/svg">
<path d="M3 27.6V14.46C3 7.26 9.06 1.2 16.2 1.2V0C8.4 0 1.8 6.6 1.8 14.46V28.2C1.8 28.56 2.04 28.8 2.4 28.8H15V36H16.2V28.8H18.6V27.6H15.6H3Z" fill="#3178F6"/>
<path d="M6.6 17.4V22.2C6.6 22.56 6.84 22.8 7.2 22.8H9.6V21.6H7.8V17.4H6.6Z" fill="#3178F6"/>
<path d="M30 10.2H24C21.66 10.2 19.8 12.06 19.8 14.4V22.8H21V14.4C21 12.72 22.32 11.4 24 11.4H26.4V14.4H27.6V11.4H30C31.68 11.4 33 12.72 33 14.4V22.8H34.2V14.4C34.2 12.06 32.34 10.2 30 10.2Z" fill="#3178F6"/>
<path d="M30 34.8H27.6V23.4H26.4V34.8H24V15H22.8V35.4C22.8 35.76 23.04 36 23.4 36H27H30.6C30.96 36 31.2 35.76 31.2 35.4V15H30V34.8Z" fill="#3178F6"/>
<path d="M26.4 9.59999H27.6C29.28 9.59999 30.6 8.27999 30.6 6.59999V4.79999C30.6 3.11999 29.28 1.79999 27.6 1.79999H26.4C24.72 1.79999 23.4 3.11999 23.4 4.79999V6.59999C23.4 8.27999 24.72 9.59999 26.4 9.59999ZM24.6 4.79999C24.6 3.77999 25.38 2.99999 26.4 2.99999H27.6C28.62 2.99999 29.4 3.77999 29.4 4.79999V6.59999C29.4 7.61999 28.62 8.39999 27.6 8.39999H26.4C25.38 8.39999 24.6 7.61999 24.6 6.59999V4.79999Z" fill="#3178F6"/>
<path d="M21.6 3H15.6V4.2H21.6V3Z" fill="#3178F6"/>
<path d="M21.6 5.40002H10.8V6.60002H21.6V5.40002Z" fill="#3178F6"/>
<path d="M21.6 7.79999H10.8V8.99999H21.6V7.79999Z" fill="#3178F6"/>
<path d="M12 10.2H10.8V11.4H12V10.2Z" fill="#3178F6"/>
<path d="M14.4 10.2H13.2V11.4H14.4V10.2Z" fill="#3178F6"/>
<path d="M16.8 10.2H15.6V11.4H16.8V10.2Z" fill="#3178F6"/>
<path d="M27.6 20.4H26.4V21.6H27.6V20.4Z" fill="#3178F6"/>
<path d="M27.6 18H26.4V19.2H27.6V18Z" fill="#3178F6"/>
<path d="M27.6 15.6H26.4V16.8H27.6V15.6Z" fill="#3178F6"/>
</svg>
