<svg width="36" height="36" viewBox="0 0 36 36" fill="none" xmlns="http://www.w3.org/2000/svg">
<g clip-path="url(#clip0_1191_790)">
<path d="M15 34.8V32.1C15 31.6032 15.4032 31.2 15.9 31.2H23.7C24.1968 31.2 24.6 31.6032 24.6 32.1V34.8" stroke="#3178F6" stroke-width="1.3" stroke-miterlimit="10"/>
<path d="M16.725 31.2C16.725 31.2 12.4302 24.3876 11.0286 22.0968C10.887 21.864 10.8 21.5928 10.8 21.3C10.8 20.4714 11.4714 19.8 12.3 19.8C12.8178 19.8 13.2738 20.0628 13.5438 20.4618L15.3372 23.3334C15.4128 23.454 15.6 23.4006 15.6 23.2578V15C15.6 14.3376 16.1376 13.8 16.8 13.8C17.4624 13.8 18 14.3376 18 15V20.2872L22.458 20.7691C23.6766 20.9011 24.6 21.93 24.6 23.1552V25.1502C24.6 25.9794 24.477 26.8038 24.2358 27.5964L23.1384 31.2" stroke="#3178F6" stroke-width="1.3" stroke-miterlimit="10"/>
<path d="M15.6024 16.9908C12.8046 16.0032 10.8 13.3362 10.8 10.2C10.8 6.2238 14.0238 3 18 3C21.9762 3 25.2 6.2238 25.2 10.2C25.2 14.1762 21.9762 17.4 18 17.4" stroke="#3178F6" stroke-width="1.3" stroke-miterlimit="10"/>
<path d="M9.5532 15.168C8.8218 15.447 8.0286 15.6 7.2 15.6C3.555 15.6 0.6 12.645 0.6 9.00002C0.6 5.35502 3.555 2.40002 7.2 2.40002C8.7318 2.40002 10.1412 2.92202 11.262 3.79742" stroke="#3178F6" stroke-width="1.3" stroke-miterlimit="10"/>
<path d="M27.0738 6.4674C27.789 6.1662 28.575 6 29.4 6C32.7132 6 35.4 8.6868 35.4 12C35.4 15.3132 32.7132 18 29.4 18C27.858 18 26.4516 17.418 25.3884 16.4622" stroke="#3178F6" stroke-width="1.3" stroke-miterlimit="10"/>
<path d="M8.1246 23.6118L6.2244 26.1624" stroke="#3178F6" stroke-width="1.3" stroke-miterlimit="10"/>
<path d="M5.1876 20.7126L2.625 22.4628" stroke="#3178F6" stroke-width="1.3" stroke-miterlimit="10"/>
<path d="M27.8748 23.6118L29.7756 26.1624" stroke="#3178F6" stroke-width="1.3" stroke-miterlimit="10"/>
<path d="M30.8124 20.7126L33.375 22.4628" stroke="#3178F6" stroke-width="1.3" stroke-miterlimit="10"/>
<path d="M14 8V10.9809H15.2321C15.8601 10.9809 16.25 10.6696 16.25 10.1592C16.25 9.75943 16.0254 9.47251 15.6518 9.40446C15.9539 9.3279 16.1429 9.08122 16.1429 8.74522C16.1429 8.28164 15.7817 8 15.2054 8H14ZM16.75 8V9.74841C16.75 10.5267 17.2041 11 17.9554 11C18.7066 11 19.1696 10.5267 19.1696 9.74841V8H18.6964V9.74841C18.6964 10.2545 18.4174 10.551 17.9643 10.551C17.5072 10.551 17.2143 10.2503 17.2143 9.74841V8H16.75ZM19.4732 8L20.5179 10.0064V10.9809H20.9821V9.98726L22 8H21.5268L20.7411 9.45223L19.9464 8H19.4732ZM14.4732 8.44904H15.1875C15.4856 8.44904 15.6607 8.5803 15.6607 8.83121C15.6607 9.08216 15.4856 9.23248 15.1875 9.23248H14.4732V8.44904ZM14.4732 9.67197H15.1875C15.5532 9.67197 15.7679 9.83822 15.7679 10.1019C15.7679 10.3826 15.5532 10.5318 15.1875 10.5318H14.4732V9.67197Z" fill="#3178F6"/>
</g>
<defs>
<clipPath id="clip0_1191_790">
<rect width="36" height="36" fill="white"/>
</clipPath>
</defs>
</svg>
