<svg width="36" height="36" viewBox="0 0 36 36" fill="none" xmlns="http://www.w3.org/2000/svg">
<g clip-path="url(#clip0_1191_788)">
<path d="M23.9148 28.9464L25.3008 34.491C25.4346 35.025 25.9146 35.4 26.4648 35.4H29.4C29.7312 35.4 30 35.1312 30 34.8C30 34.095 29.52 33.48 28.836 33.309L28.05 33.1122L25.2 21.7146V13.8" stroke="#3178F6" stroke-width="1.3" stroke-miterlimit="10"/>
<path d="M19.2 13.8V33L18.5382 33.2208C17.8584 33.447 17.4 34.0836 17.4 34.8C17.4 35.1312 17.6688 35.4 18 35.4H21C21.663 35.4 22.2 34.863 22.2 34.2V22.2" stroke="#3178F6" stroke-width="1.3" stroke-miterlimit="10"/>
<path d="M22.2 7.79998C20.5434 7.79998 19.2 6.45658 19.2 4.79998V3.59998C19.2 1.94338 20.5434 0.599976 22.2 0.599976C23.8566 0.599976 25.2 1.94338 25.2 3.59998V4.79998C25.2 6.45658 23.8566 7.79998 22.2 7.79998Z" stroke="#3178F6" stroke-width="1.3" stroke-miterlimit="10"/>
<path d="M25.2168 21.78L27.4572 18.3444C27.9444 17.5974 28.2036 16.725 28.2036 15.8334C28.2036 15.282 28.1046 14.7354 27.9108 14.2194L26.9874 11.757C26.6364 10.8204 25.7412 10.2 24.7404 10.2H19.6596C18.6594 10.2 17.7636 10.8204 17.4126 11.757L16.4892 14.2194C16.2954 14.7354 16.1964 15.282 16.1964 15.8334C16.1964 16.725 16.4556 17.5974 16.9428 18.3444L19.1964 21.7998" stroke="#3178F6" stroke-width="1.3" stroke-miterlimit="10"/>
<path d="M13.5576 13.1184L10.7364 11.4H1.8C1.137 11.4 0.599998 10.863 0.599998 10.2V1.79998C0.599998 1.13698 1.137 0.599976 1.8 0.599976H13.2C13.863 0.599976 14.4 1.13698 14.4 1.79998V12.645C14.4 13.077 13.9266 13.3428 13.5576 13.1184Z" stroke="#3178F6" stroke-width="1.3" stroke-miterlimit="10"/>
<path d="M9 23.4C10.9882 23.4 12.6 21.7882 12.6 19.8C12.6 17.8117 10.9882 16.2 9 16.2C7.01178 16.2 5.4 17.8117 5.4 19.8C5.4 21.7882 7.01178 23.4 9 23.4Z" stroke="#3178F6" stroke-width="1.3" stroke-miterlimit="10"/>
<path d="M31.8 9C33.4569 9 34.8 7.65685 34.8 6C34.8 4.34315 33.4569 3 31.8 3C30.1431 3 28.8 4.34315 28.8 6C28.8 7.65685 30.1431 9 31.8 9Z" stroke="#3178F6" stroke-width="1.3" stroke-miterlimit="10"/>
<path d="M32.4 25.8C34.0568 25.8 35.4 24.4568 35.4 22.8C35.4 21.1431 34.0568 19.8 32.4 19.8C30.7431 19.8 29.4 21.1431 29.4 22.8C29.4 24.4568 30.7431 25.8 32.4 25.8Z" stroke="#3178F6" stroke-width="1.3" stroke-miterlimit="10"/>
<path d="M33 10.8V14.4" stroke="#3178F6" stroke-width="1.3" stroke-miterlimit="10"/>
<path d="M33 15.6V16.8" stroke="#3178F6" stroke-width="1.3" stroke-miterlimit="10"/>
<path d="M31.2 28.2V30.6" stroke="#3178F6" stroke-width="1.3" stroke-miterlimit="10"/>
<path d="M34.2 29.4V32.4" stroke="#3178F6" stroke-width="1.3" stroke-miterlimit="10"/>
<path d="M34.2 33.6V34.8" stroke="#3178F6" stroke-width="1.3" stroke-miterlimit="10"/>
<path d="M3 14.4V18.6" stroke="#3178F6" stroke-width="1.3" stroke-miterlimit="10"/>
<path d="M3 19.8V21" stroke="#3178F6" stroke-width="1.3" stroke-miterlimit="10"/>
<path d="M3 22.2V23.4" stroke="#3178F6" stroke-width="1.3" stroke-miterlimit="10"/>
<path d="M12.6 24.6V28.8" stroke="#3178F6" stroke-width="1.3" stroke-miterlimit="10"/>
<path d="M12.6 30V31.2" stroke="#3178F6" stroke-width="1.3" stroke-miterlimit="10"/>
<path d="M4.8 27V30.6" stroke="#3178F6" stroke-width="1.3" stroke-miterlimit="10"/>
<path d="M8.4 28.8V30" stroke="#3178F6" stroke-width="1.3" stroke-miterlimit="10"/>
<path d="M8.4 31.2V32.3999" stroke="#3178F6" stroke-width="1.3" stroke-miterlimit="10"/>
<path d="M8.4 33.6V34.8" stroke="#3178F6" stroke-width="1.3" stroke-miterlimit="10"/>
<path d="M8.77711 4.31714H6.76134M9.4123 4.31714H10.2858C10.4254 4.31714 10.5385 4.43022 10.5385 4.56983V7.61483C10.5385 7.75329 10.4254 7.86637 10.2858 7.86637H5.25153C5.11192 7.86637 4.99999 7.75329 4.99999 7.61483V4.56983C4.99999 4.43022 5.11192 4.31714 5.25153 4.31714H6.12499H9.4123Z" stroke="#3178F6" stroke-width="0.6" stroke-miterlimit="10" stroke-linecap="round" stroke-linejoin="round"/>
<path d="M5.66714 6.59175C5.75137 6.64368 5.87437 6.68683 6.00406 6.68683C6.19606 6.68683 6.30833 6.58529 6.30833 6.43852C6.30833 6.30237 6.23067 6.22471 6.03417 6.14937C5.79671 6.06514 5.64994 5.94202 5.64994 5.73687C5.64994 5.51014 5.83767 5.34179 6.12048 5.34179C6.26944 5.34179 6.37744 5.37641 6.44217 5.4131L6.39025 5.56645C6.30538 5.52073 6.21042 5.49697 6.11402 5.49733C5.91556 5.49733 5.83987 5.61595 5.83987 5.71541C5.83987 5.85133 5.92837 5.91814 6.12914 5.99602C6.37525 6.09098 6.50044 6.2096 6.50044 6.42341C6.50044 6.64806 6.33429 6.84225 5.99091 6.84225C5.85071 6.84225 5.69737 6.80118 5.61971 6.74948L5.66714 6.59175ZM6.99325 6.36295L6.8421 6.82068H6.64791L7.10575 5.47298C7.09763 5.44917 7.09531 5.42376 7.09898 5.39886C7.10264 5.37397 7.11219 5.3503 7.12683 5.32983C7.14146 5.30937 7.16077 5.29268 7.18314 5.28116C7.20552 5.26965 7.23031 5.26363 7.25547 5.26361C7.28064 5.26359 7.30544 5.26957 7.32783 5.28105C7.35023 5.29254 7.36956 5.30919 7.38423 5.32964C7.39889 5.35008 7.40848 5.37373 7.41218 5.39862C7.41588 5.42351 7.4136 5.44892 7.40552 5.47275L7.86544 6.82068H7.66467L7.50925 6.36295H6.99325ZM7.47037 6.21606L7.32787 5.79745C7.29556 5.70225 7.27398 5.61595 7.25241 5.53183H7.24802C7.22635 5.62035 7.20188 5.70817 7.17464 5.79514L7.03214 6.21606H7.47037ZM8.07994 5.36545H8.26779V6.66295H8.88948V6.82068H8.07994V5.36545ZM9.85283 6.13852H9.36879C9.34719 6.13855 9.32649 6.14715 9.31122 6.16242C9.29595 6.17769 9.28736 6.19839 9.28733 6.21998V6.58148C9.28733 6.62648 9.32379 6.66295 9.36879 6.66295H9.91768V6.82068H9.18094C9.15933 6.82065 9.13861 6.81204 9.12333 6.79674C9.10806 6.78145 9.09948 6.76071 9.09948 6.7391V5.44702C9.09948 5.40202 9.13594 5.36545 9.18094 5.36545H9.88537V5.52318H9.36879C9.34717 5.52321 9.32645 5.53181 9.31118 5.54711C9.29591 5.56241 9.28733 5.58314 9.28733 5.60475V5.90152C9.28733 5.94652 9.32379 5.98298 9.36879 5.98298H9.85283V6.13841V6.13852Z" fill="#3178F6"/>
<path d="M8.77711 4.31714H6.76134M9.4123 4.31714H10.2858C10.4254 4.31714 10.5385 4.43022 10.5385 4.56983V7.61483C10.5385 7.75329 10.4254 7.86637 10.2858 7.86637H5.25153C5.11192 7.86637 4.99999 7.75329 4.99999 7.61483V4.56983C4.99999 4.43022 5.11192 4.31714 5.25153 4.31714H6.12499H9.4123Z" stroke="#3178F6" stroke-width="0.1" stroke-miterlimit="10" stroke-linecap="round" stroke-linejoin="round"/>
<path d="M5.66714 6.59175C5.75137 6.64368 5.87437 6.68683 6.00406 6.68683C6.19606 6.68683 6.30833 6.58529 6.30833 6.43852C6.30833 6.30237 6.23067 6.22471 6.03417 6.14937C5.79671 6.06514 5.64994 5.94202 5.64994 5.73687C5.64994 5.51014 5.83767 5.34179 6.12048 5.34179C6.26944 5.34179 6.37744 5.37641 6.44217 5.4131L6.39025 5.56645C6.30538 5.52073 6.21042 5.49697 6.11402 5.49733C5.91556 5.49733 5.83987 5.61595 5.83987 5.71541C5.83987 5.85133 5.92837 5.91814 6.12914 5.99602C6.37525 6.09098 6.50044 6.2096 6.50044 6.42341C6.50044 6.64806 6.33429 6.84225 5.99091 6.84225C5.85071 6.84225 5.69737 6.80118 5.61971 6.74948L5.66714 6.59175ZM6.99325 6.36295L6.8421 6.82068H6.64791L7.10575 5.47298C7.09763 5.44917 7.09531 5.42376 7.09898 5.39886C7.10264 5.37397 7.11219 5.3503 7.12683 5.32983C7.14146 5.30937 7.16077 5.29268 7.18314 5.28116C7.20552 5.26965 7.23031 5.26363 7.25547 5.26361C7.28064 5.26359 7.30544 5.26957 7.32783 5.28105C7.35023 5.29254 7.36956 5.30919 7.38423 5.32964C7.39889 5.35008 7.40848 5.37373 7.41218 5.39862C7.41588 5.42351 7.4136 5.44892 7.40552 5.47275L7.86544 6.82068H7.66467L7.50925 6.36295H6.99325ZM7.47037 6.21606L7.32787 5.79745C7.29556 5.70225 7.27398 5.61595 7.25241 5.53183H7.24802C7.22635 5.62035 7.20188 5.70817 7.17464 5.79514L7.03214 6.21606H7.47037ZM8.07994 5.36545H8.26779V6.66295H8.88948V6.82068H8.07994V5.36545ZM9.85283 6.13852H9.36879C9.34719 6.13855 9.32649 6.14715 9.31122 6.16242C9.29595 6.17769 9.28736 6.19839 9.28733 6.21998V6.58148C9.28733 6.62648 9.32379 6.66295 9.36879 6.66295H9.91768V6.82068H9.18094C9.15933 6.82065 9.13861 6.81204 9.12333 6.79674C9.10806 6.78145 9.09948 6.76071 9.09948 6.7391V5.44702C9.09948 5.40202 9.13594 5.36545 9.18094 5.36545H9.88537V5.52318H9.36879C9.34717 5.52321 9.32645 5.53181 9.31118 5.54711C9.29591 5.56241 9.28733 5.58314 9.28733 5.60475V5.90152C9.28733 5.94652 9.32379 5.98298 9.36879 5.98298H9.85283V6.13841V6.13852Z" fill="#3178F6"/>
<path d="M9.09497 4.63554C9.27047 4.63554 9.41274 4.49327 9.41274 4.31777C9.41274 4.14227 9.27047 4 9.09497 4C8.91947 4 8.7772 4.14227 8.7772 4.31777C8.7772 4.49327 8.91947 4.63554 9.09497 4.63554Z" stroke="#3178F6" stroke-width="0.1" stroke-miterlimit="10" stroke-linecap="round" stroke-linejoin="round"/>
<path d="M6.44343 4.63554C6.61893 4.63554 6.7612 4.49327 6.7612 4.31777C6.7612 4.14227 6.61893 4 6.44343 4C6.26793 4 6.12566 4.14227 6.12566 4.31777C6.12566 4.49327 6.26793 4.63554 6.44343 4.63554Z" stroke="#3178F6" stroke-width="0.1" stroke-miterlimit="10" stroke-linecap="round" stroke-linejoin="round"/>
</g>
<defs>
<clipPath id="clip0_1191_788">
<rect width="36" height="36" fill="white"/>
</clipPath>
</defs>
</svg>
