<svg width="36" height="36" viewBox="0 0 36 36" fill="none" xmlns="http://www.w3.org/2000/svg">
<path d="M1.43276 9.00234C1.30944 9.02581 1.1984 9.09198 1.11924 9.18917C1.04007 9.28635 0.997871 9.40831 1.00008 9.53352V25.4688C1.0001 25.6097 1.05621 25.7448 1.15607 25.8444C1.25593 25.944 1.39137 26 1.5326 26H27.0936C27.1706 25.9976 27.2462 25.9786 27.3152 25.9442C27.3842 25.9098 27.4448 25.8609 27.493 25.8008L33.8832 17.8332C33.9588 17.7389 34 17.6219 34 17.5012C34 17.3805 33.9588 17.2634 33.8832 17.1692L27.493 9.20153C27.4448 9.14147 27.3842 9.09256 27.3152 9.05817C27.2462 9.02378 27.1706 9.00473 27.0936 9.00234H1.5326C1.49939 8.99922 1.46596 8.99922 1.43276 9.00234ZM2.06512 10.0647H26.8606L32.8182 17.5012L26.8606 24.9376H2.06512V10.0647ZM7.02422 13.6833C5.88462 13.6833 5.29353 14.3858 5.29353 15.5757C5.29353 17.7004 7.59002 17.9633 7.59002 19.4931C7.59002 20.0243 7.3637 20.2235 6.99093 20.2235C6.61817 20.2235 6.35857 20.0243 6.35857 19.4931V18.9619H5.26024V19.4267C5.26024 20.6165 5.84069 21.2858 6.99093 21.2858C8.14118 21.2858 8.75491 20.6165 8.75491 19.4267C8.75491 17.302 6.45841 17.0058 6.45841 15.4761C6.45841 14.9449 6.68473 14.7457 7.0575 14.7457C7.43026 14.7457 7.6233 14.9449 7.6233 15.4761V15.808H8.75491V15.5757C8.75491 14.3858 8.16381 13.6833 7.02422 13.6833ZM10.2859 13.7829L9.12101 21.2194H10.1861L10.3857 19.8583H11.8169L12.0166 21.2194H13.2148L12.0166 13.7829H10.2859ZM13.7473 13.7829V21.2194H16.8426V20.1571H14.9122V13.7829H13.7473ZM17.3751 13.7829V21.2194H20.5702V20.1571H18.54V17.966H20.1375V16.9036H18.54V14.8453H20.5702V13.7829H17.3751ZM11.0847 15.0777L11.6505 18.8623H10.5189L11.0847 15.0777ZM26.561 15.4097C25.3909 15.4097 24.431 16.3673 24.431 17.5344C24.431 18.7015 25.3909 19.6591 26.561 19.6591C27.7311 19.6591 28.6911 18.7015 28.6911 17.5344C28.6911 16.3673 27.7311 15.4097 26.561 15.4097ZM26.561 16.472C27.1555 16.472 27.6261 16.9414 27.6261 17.5344C27.6261 18.1274 27.1555 18.5967 26.561 18.5967C25.9666 18.5967 25.496 18.1274 25.496 17.5344C25.496 16.9414 25.9666 16.472 26.561 16.472Z" fill="#3178F6"/>
</svg>
