<svg width="36" height="36" viewBox="0 0 36 36" fill="none" xmlns="http://www.w3.org/2000/svg">
<path d="M1.44587 9.00248C1.31882 9.02733 1.20441 9.09744 1.12285 9.20034C1.04129 9.30325 0.997806 9.43233 1.00009 9.5649V26.4376C1.0001 26.5867 1.05791 26.7298 1.1608 26.8352C1.26369 26.9407 1.40323 27 1.54874 27H27.8843C27.9637 26.9975 28.0416 26.9774 28.1126 26.941C28.1837 26.9045 28.2462 26.8527 28.2958 26.7891L34.8797 18.3528C34.9576 18.253 35 18.129 35 18.0012C35 17.8735 34.9576 17.7495 34.8797 17.6497L28.2958 9.21339C28.2462 9.14979 28.1837 9.098 28.1126 9.06159C28.0416 9.02517 27.9637 9.00501 27.8843 9.00248H1.54874C1.51453 8.99917 1.48008 8.99917 1.44587 9.00248ZM2.0974 10.1273H27.6442L33.7823 18.0012L27.6442 25.8752H2.0974V10.1273ZM5.38934 14.0291V21.903H7.27535C8.4824 21.903 9.12707 21.2197 9.12707 20.0049V19.3721C9.12707 18.5398 8.88291 17.9436 8.2355 17.6849C8.77318 17.4262 8.9899 16.913 8.9899 16.1031V15.8219C8.9899 14.607 8.45771 14.0291 7.20677 14.0291H5.38934ZM9.7786 14.0291V20.0049C9.7786 21.2647 10.4109 21.9733 11.596 21.9733C12.7811 21.9733 13.3792 21.2647 13.3792 20.0049V14.0291H12.2476V20.0752C12.2476 20.6376 12.0144 20.8485 11.6303 20.8485C11.2463 20.8485 11.0131 20.6376 11.0131 20.0752V14.0291H9.7786ZM13.8249 14.0291L15.3337 19.2667V21.903H16.5682V19.2667L18.077 14.0291H16.9454L16.0196 17.6146L15.0937 14.0291H13.8249ZM6.58953 15.154H7.17248C7.60043 15.154 7.78972 15.4 7.78972 15.9625V16.3843C7.78972 17.0142 7.5195 17.2279 7.0696 17.2279H6.58953V15.154ZM27.3356 15.7515C26.1301 15.7515 25.141 16.7655 25.141 18.0012C25.141 19.237 26.1301 20.2509 27.3356 20.2509C28.5412 20.2509 29.5303 19.237 29.5303 18.0012C29.5303 16.7655 28.5412 15.7515 27.3356 15.7515ZM27.3356 16.8764C27.9481 16.8764 28.4329 17.3734 28.4329 18.0012C28.4329 18.6291 27.9481 19.1261 27.3356 19.1261C26.7231 19.1261 26.2383 18.6291 26.2383 18.0012C26.2383 17.3734 26.7231 16.8764 27.3356 16.8764ZM6.58953 18.3528H7.13819C7.68684 18.3528 7.92688 18.5707 7.92688 19.3018V19.9697C7.92688 20.5546 7.68136 20.7782 7.27535 20.7782H6.58953V18.3528Z" fill="#3178F6"/>
</svg>
