<svg width="36" height="36" viewBox="0 0 36 36" fill="none" xmlns="http://www.w3.org/2000/svg">
<path d="M4.2 29.1C4.2 27.609 5.409 26.4 6.9 26.4H25.2L29.0574 29.1L25.2 31.8H6.9C5.409 31.8 4.2 30.591 4.2 29.1Z" stroke="#3178F6" stroke-width="1.3" stroke-miterlimit="10"/>
<path d="M25.2 26.4V31.8" stroke="#3178F6" stroke-width="1.3" stroke-miterlimit="10"/>
<path d="M7.8 26.4V30" stroke="#3178F6" stroke-width="1.3" stroke-miterlimit="10"/>
<path d="M16.6524 4.79999H34.2V7.79999" stroke="#3178F6" stroke-width="1.3" stroke-miterlimit="10"/>
<path d="M11.4 26.4V16.1754" stroke="#3178F6" stroke-width="1.3" stroke-miterlimit="10"/>
<path d="M34.2 16.2V34.2H11.4V31.8" stroke="#3178F6" stroke-width="1.3" stroke-miterlimit="10"/>
<path d="M34.2 9V10.2" stroke="#3178F6" stroke-width="1.3" stroke-miterlimit="10"/>
<path d="M34.2 11.4V12.6" stroke="#3178F6" stroke-width="1.3" stroke-miterlimit="10"/>
<path d="M34.2 13.8V15" stroke="#3178F6" stroke-width="1.3" stroke-miterlimit="10"/>
<path d="M13.5606 11.7606L10.8 9.00001V4.20001" stroke="#3178F6" stroke-width="1.3" stroke-miterlimit="10"/>
<path d="M4.2 15H3V16.2H4.2V15Z" fill="#3178F6"/>
<path d="M1.80001 8.40002H0.600006V9.60003H1.80001V8.40002Z" fill="#3178F6"/>
<path d="M2.4 12H1.2V13.2H2.4V12Z" fill="#3178F6"/>
<path d="M2.4 4.79999H1.2V5.99999H2.4V4.79999Z" fill="#3178F6"/>
<path d="M4.2 1.79999H3V2.99999H4.2V1.79999Z" fill="#3178F6"/>
<path d="M18.6 2.40002H25.8" stroke="#3178F6" stroke-width="1.3" stroke-miterlimit="10"/>
<path d="M27 2.40002H28.8" stroke="#3178F6" stroke-width="1.3" stroke-miterlimit="10"/>
<path d="M27 12.6V12.9C27 13.7286 27.6714 14.4 28.5 14.4H30.3C31.1286 14.4 31.8 13.7286 31.8 12.9C31.8 12.0714 31.1286 11.4 30.3 11.4H28.5C27.6714 11.4 27 10.7286 27 9.90002C27 9.07142 27.6714 8.40002 28.5 8.40002H30.3C31.1286 8.40002 31.8 9.07142 31.8 9.90002V10.2" stroke="#3178F6" stroke-width="1.3" stroke-miterlimit="10"/>
<path d="M29.4 14.4V16.2" stroke="#3178F6" stroke-width="1.3" stroke-miterlimit="10"/>
<path d="M29.4 8.39997V6.59998" stroke="#3178F6" stroke-width="1.3" stroke-miterlimit="10"/>
<path d="M18 15.6H24" stroke="#3178F6" stroke-width="1.3" stroke-miterlimit="10"/>
<path d="M18 18H24" stroke="#3178F6" stroke-width="1.3" stroke-miterlimit="10"/>
<path d="M15 21.6H25.8" stroke="#3178F6" stroke-width="1.3" stroke-miterlimit="10"/>
<path d="M27.8394 21.2394L29.4 22.8L32.1606 20.0394" stroke="#3178F6" stroke-width="1.3" stroke-miterlimit="10"/>
<path d="M10.8 16.2C14.7765 16.2 18 12.9764 18 8.99999C18 5.02354 14.7765 1.79999 10.8 1.79999C6.82356 1.79999 3.60001 5.02354 3.60001 8.99999C3.60001 12.9764 6.82356 16.2 10.8 16.2Z" stroke="#3178F6" stroke-width="1.3" stroke-miterlimit="10"/>
</svg>
