<svg width="36" height="36" viewBox="0 0 36 36" fill="none" xmlns="http://www.w3.org/2000/svg">
<path d="M29.9448 2.62295H23.3132V0.703125C23.3132 0.314852 22.9983 0 22.6101 0H13.3899C13.0017 0 12.6868 0.314852 12.6868 0.703125V2.62295H6.05524C5.66696 2.62295 5.35211 2.9378 5.35211 3.32608V35.2969C5.35211 35.6851 5.66696 36 6.05524 36H29.9448C30.333 36 30.6479 35.6851 30.6479 35.2969V3.32608C30.6479 2.93773 30.333 2.62295 29.9448 2.62295ZM14.0931 1.40625H21.9069V5.4584H14.0931V1.40625ZM29.2416 34.5938H6.75836V4.0292H12.6868V6.1616C12.6868 6.54987 13.0017 6.86472 13.3899 6.86472H22.6101C22.9983 6.86472 23.3132 6.54987 23.3132 6.1616V4.0292H29.2416V34.5938Z" fill="#3178F6"/>
<path d="M9.74146 10.48H20.5874C20.9757 10.48 21.2905 10.1651 21.2905 9.77685C21.2905 9.38858 20.9757 9.07373 20.5874 9.07373H9.74146C9.35319 9.07373 9.03834 9.38858 9.03834 9.77685C9.03834 10.1651 9.35319 10.48 9.74146 10.48Z" fill="#3178F6"/>
<path d="M26.4712 12.689H9.74146C9.35319 12.689 9.03834 13.0039 9.03834 13.3922C9.03834 13.7804 9.35319 14.0953 9.74146 14.0953H26.4712C26.8595 14.0953 27.1744 13.7804 27.1744 13.3922C27.1744 13.0039 26.8595 12.689 26.4712 12.689Z" fill="#3178F6"/>
<path d="M26.4712 16.3044H9.74146C9.35319 16.3044 9.03834 16.6193 9.03834 17.0076C9.03834 17.3958 9.35319 17.7107 9.74146 17.7107H26.4712C26.8595 17.7107 27.1744 17.3958 27.1744 17.0076C27.1744 16.6193 26.8595 16.3044 26.4712 16.3044Z" fill="#3178F6"/>
<path d="M26.4712 19.707H9.74146C9.35319 19.707 9.03834 20.0219 9.03834 20.4102C9.03834 20.7984 9.35319 21.1133 9.74146 21.1133H26.4712C26.8595 21.1133 27.1744 20.7984 27.1744 20.4102C27.1744 20.0219 26.8595 19.707 26.4712 19.707Z" fill="#3178F6"/>
<path d="M24.1319 10.48H26.4712C26.8595 10.48 27.1744 10.1651 27.1744 9.77685C27.1744 9.38858 26.8595 9.07373 26.4712 9.07373H24.1319C23.7436 9.07373 23.4288 9.38858 23.4288 9.77685C23.4288 10.1651 23.7436 10.48 24.1319 10.48Z" fill="#3178F6"/>
<path d="M19.3641 27.6676C19.3641 27.4799 19.289 27.2999 19.1556 27.1679L16.4743 24.514C16.2087 24.2511 15.7837 24.2418 15.507 24.4932C14.5784 25.3364 14.0458 26.5354 14.0458 27.7826C14.0458 28.9754 14.5147 30.0964 15.3661 30.9391C15.5031 31.0747 15.6819 31.1425 15.8607 31.1425C16.0395 31.1425 16.2184 31.0747 16.3554 30.9391L19.1556 28.1673C19.2891 28.0352 19.3641 27.8553 19.3641 27.6676ZM15.9167 29.3946C15.6141 28.9155 15.4522 28.3613 15.4522 27.7826C15.4522 27.154 15.6509 26.5428 16.0107 26.0336L17.6616 27.6676L15.9167 29.3946Z" fill="#3178F6"/>
<path d="M25.287 24.6263V24.6262L25.2869 24.6262C24.4374 23.7854 23.3087 23.3224 22.1083 23.3224C20.9808 23.3224 19.9019 23.7382 19.0705 24.4932C18.9276 24.6229 18.8444 24.8057 18.8402 24.9986C18.836 25.1916 18.9114 25.3777 19.0486 25.5134L21.225 27.6676L18.9296 29.9396C18.7961 30.0716 18.7211 30.2516 18.7211 30.4393C18.7211 30.627 18.7961 30.8069 18.9296 30.9391C19.779 31.7798 20.908 32.2429 22.1084 32.2429C24.5891 32.2429 26.6074 30.242 26.6074 27.7826C26.6072 26.5899 26.1383 25.469 25.287 24.6263ZM20.6298 25.0999C21.0795 24.8578 21.5862 24.7287 22.1082 24.7287C22.6918 24.7287 23.2508 24.8872 23.7345 25.1836L22.2244 26.6783L20.6298 25.0999ZM22.1082 30.8366C21.5245 30.8366 20.9656 30.6781 20.482 30.3817L23.2657 27.6263L24.7363 26.1707C25.039 26.6498 25.201 27.204 25.201 27.7826C25.201 29.4666 23.8136 30.8366 22.1082 30.8366Z" fill="#3178F6"/>
<path d="M18.3516 2.53125H15.9609C15.5727 2.53125 15.2578 2.8461 15.2578 3.23438C15.2578 3.62265 15.5727 3.9375 15.9609 3.9375H18.3516C18.7398 3.9375 19.0547 3.62265 19.0547 3.23438C19.0547 2.8461 18.7398 2.53125 18.3516 2.53125Z" fill="#3178F6"/>
</svg>
