<svg width="36" height="36" viewBox="0 0 36 36" fill="none" xmlns="http://www.w3.org/2000/svg">
<g clip-path="url(#clip0_1195_389)">
<path d="M6.60001 22.8V36" stroke="#3178F6" stroke-width="1.3" stroke-miterlimit="10"/>
<path d="M17.4 22.8V36" stroke="#3178F6" stroke-width="1.3" stroke-miterlimit="10"/>
<path d="M3.95641 30.9564L1.27501 27.8436C0.839406 27.3384 0.600006 26.694 0.600006 26.0274C0.600006 25.4406 0.785406 24.8694 1.12981 24.3942L5.12101 18.8856C5.60161 18.2232 6.26341 17.7138 7.02781 17.4198L10.2 16.2V13.9182" stroke="#3178F6" stroke-width="1.3" stroke-miterlimit="10"/>
<path d="M6.6 29.1654L3.8154 25.9332" stroke="#3178F6" stroke-width="1.3" stroke-miterlimit="10"/>
<path d="M2.5758 29.3544C2.0988 29.7378 1.8 30.288 1.8 30.9C1.8 32.0604 2.8746 33 4.2 33C5.5254 33 6.6 31.9254 6.6 30.6" stroke="#3178F6" stroke-width="1.3" stroke-miterlimit="10"/>
<path d="M17.4 24.4878L20.6238 27.1686C20.967 27.453 21.4194 27.6 21.9 27.6C22.521 27.6 23.0796 27.3306 23.4636 26.9016L27.1404 22.8012C27.4266 22.4826 27.6 22.062 27.6 21.6C27.6 20.6058 26.7936 19.8 25.8 19.8C25.338 19.8 24.9174 19.9734 24.5988 20.2596L21.735 22.8276L18.879 18.8862C18.3984 18.2238 17.7366 17.7144 16.9722 17.4204L13.8 16.2V13.9182" stroke="#3178F6" stroke-width="1.3" stroke-miterlimit="10"/>
<path d="M24.0972 20.7144L22.5738 16.6662L30.7398 13.5918L34.9464 24.7632L26.7798 27.8382L25.5516 24.5772" stroke="#3178F6" stroke-width="1.3" stroke-miterlimit="10"/>
<path d="M29.562 24.2268L32.3094 23.1918" stroke="#3178F6" stroke-width="1.3" stroke-miterlimit="10"/>
<path d="M29.8428 16.494L25.3344 18.1908" stroke="#3178F6" stroke-width="1.3" stroke-miterlimit="10"/>
<path d="M30.6 18.9516L27.0378 20.2926" stroke="#3178F6" stroke-width="1.3" stroke-miterlimit="10"/>
<path d="M8.40001 9.59999V6.80939" stroke="#3178F6" stroke-width="1.3" stroke-miterlimit="10"/>
<path d="M10.8 7.80004C9.1686 7.80004 7.8 6.86224 7.8 5.01244C7.8 4.20004 8.4 3.60004 8.4 3.60004C8.4 3.60004 9.6 4.80004 11.4 4.80004H12.2496C14.1 4.80004 15.6 6.30004 15.6 8.14984V10.8C15.6 12.7878 13.9878 14.4 12 14.4C10.0116 14.4 8.4 12.7878 8.4 10.8V9.00004" stroke="#3178F6" stroke-width="1.3" stroke-miterlimit="10"/>
<path d="M24 2.40002V4.20002" stroke="#3178F6" stroke-width="1.3" stroke-miterlimit="10"/>
<path d="M22.2 7.80001C22.2 8.46241 22.7376 9.00001 23.4 9.00001H24.6C25.2624 9.00001 25.8 8.46241 25.8 7.80001C25.8 7.13761 25.2624 6.60001 24.6 6.60001H23.4C22.7376 6.60001 22.2 6.06241 22.2 5.40001C22.2 4.73761 22.7376 4.20001 23.4 4.20001H24.6C25.2624 4.20001 25.8 4.73761 25.8 5.40001" stroke="#3178F6" stroke-width="1.3" stroke-miterlimit="10"/>
<path d="M24 10.8V9" stroke="#3178F6" stroke-width="1.3" stroke-miterlimit="10"/>
<path d="M20.3892 11.7912L17.9526 12.579C17.6244 12.6852 17.3148 12.3744 17.4204 12.0462L18.2082 9.61021C18.0732 9.23221 18 8.82541 18 8.40001V4.80001C18 2.81221 19.6116 1.20001 21.6 1.20001H26.4C28.3878 1.20001 30 2.81221 30 4.80001V8.40001C30 10.3878 28.3878 12 26.4 12H21.6C21.1758 12 20.7672 11.9262 20.3892 11.7912Z" stroke="#3178F6" stroke-width="1.3" stroke-miterlimit="10"/>
<path d="M13.8 16.2C13.8 16.2 13.2 17.4 12 17.4C10.8 17.4 10.2 16.2 10.2 16.2" stroke="#3178F6" stroke-width="1.3" stroke-miterlimit="10"/>
</g>
<defs>
<clipPath id="clip0_1195_389">
<rect width="36" height="36" fill="white"/>
</clipPath>
</defs>
</svg>
