<svg width="36" height="36" viewBox="0 0 36 36" fill="none" xmlns="http://www.w3.org/2000/svg">
<path d="M16.3337 3.00143C11.4019 2.91893 6.80959 6.41388 5.64466 11.0989C4.65276 14.7257 5.78325 18.7501 8.50501 21.3858C10.3506 23.5038 12.2987 25.5276 14.0925 27.6111C14.0993 27.6241 14.1062 27.6275 14.1134 27.6341C14.6766 28.2299 15.2369 28.951 15.908 29.5779C16.1797 29.8315 16.6114 29.816 16.864 29.5446C17.7345 28.6043 18.5735 27.6566 19.4214 26.7082C19.2344 26.2576 19.0644 25.7833 18.912 25.2887C18.0669 26.2335 17.2187 27.1859 16.3625 28.12C15.9586 27.6855 15.5632 27.2393 15.1165 26.7645L15.106 26.7517C15.1024 26.7517 15.099 26.7523 15.0956 26.7389C13.2752 24.6263 11.3335 22.606 9.52377 20.5289C9.51053 20.5145 9.49651 20.5011 9.48197 20.488C7.08835 18.2079 6.06763 14.6044 6.93508 11.4391L6.94031 11.4212C7.94265 7.3606 12.0465 4.23427 16.3155 4.30839H16.3285C18.242 4.30839 20.1637 4.87695 21.7462 5.92993H21.7567C25.0601 8.03837 26.7227 12.3267 25.7481 16.0531C25.8396 16.0216 25.9477 15.9834 26.0354 15.9533C26.2228 15.8878 26.4191 15.85 26.6179 15.8408C26.797 15.8277 26.9762 15.854 27.1508 15.8894C28.0194 11.7289 26.1598 7.19325 22.4959 4.84805H22.4907C20.6832 3.64709 18.5161 3.00032 16.3337 3.00399V3.00143ZM16.3207 9.18325C14.6022 9.17015 12.9888 10.1234 12.1804 11.6002C10.7633 13.9974 12.0349 17.259 14.709 18.1427C17.3393 19.1628 20.4507 17.4548 20.9495 14.7333C21.6196 11.9411 19.248 9.09813 16.3207 9.18325ZM16.3207 10.4825V10.4876C16.3303 10.4878 16.3398 10.4878 16.3494 10.4876C18.3505 10.4222 20.1181 12.5397 19.6486 14.4469C19.6455 14.46 19.6431 14.4747 19.6408 14.4878C19.3082 16.3537 16.9813 17.6312 15.1844 16.9227C15.1715 16.9227 15.1585 16.91 15.1452 16.9048C13.3113 16.3078 12.3632 13.8751 13.3402 12.2396C13.3447 12.2265 13.349 12.2219 13.3532 12.2141C13.9191 11.1763 15.1214 10.4706 16.3207 10.4825ZM26.678 17.1503C26.6122 17.1503 26.547 17.1652 26.4847 17.1861C24.8023 17.7738 22.2114 18.7463 20.0849 18.7463C19.7155 18.7463 19.4162 19.0395 19.4161 19.401C19.4161 21.2947 19.6318 22.9399 20.0039 24.3756C20.0523 24.566 20.0697 24.6266 20.1136 24.7542C20.5939 26.4303 21.2892 27.8159 22.1224 28.9564C22.1682 29.0677 22.2441 29.1635 22.3418 29.2352C23.5323 30.7682 24.9566 31.8584 26.375 32.6598C26.5819 32.7764 26.8368 32.7764 27.0437 32.6598C29.0458 31.5288 31.0877 29.7949 32.4379 27.0126C32.5099 26.884 32.5138 26.8749 32.5711 26.7312C33.2092 25.3337 33.6696 23.6788 33.8746 21.7131C33.8829 21.6044 33.8875 21.5093 33.9034 21.4062C33.9603 20.7674 34 20.1058 34 19.401C34 19.0395 33.7006 18.7463 33.3313 18.7463C30.484 18.7463 28.4543 17.7376 26.9392 17.1887C26.8556 17.1585 26.7668 17.1464 26.678 17.1503ZM26.6989 18.5007C27.9532 18.9741 29.9707 19.7805 32.5999 19.9458C32.5904 20.3232 32.5425 20.6478 32.5163 21.0021L32.5058 21.0047C32.5061 21.0271 32.51 21.2497 32.4666 21.7515C32.4633 21.8771 32.4628 21.8698 32.4457 22.0021C32.4328 22.1307 32.4116 22.2476 32.3961 22.373C32.3955 22.3782 32.3942 22.3831 32.3935 22.3883C32.2131 23.8337 31.8727 25.0777 31.4061 26.1327C31.353 26.2327 31.3522 26.2603 31.299 26.3655C30.8586 27.3024 30.3219 28.0863 29.7369 28.7594C29.5528 28.9712 29.3633 29.1638 29.1701 29.3528C28.4013 30.1382 27.5671 30.7825 26.7094 31.2941C25.7473 30.7214 24.8181 30.0017 23.9822 29.097L24.011 29.0894C23.7479 28.8129 23.4928 28.516 23.2508 28.1942C23.1729 28.1031 23.1495 28.0557 23.0758 27.964C22.4709 27.109 21.9656 26.0769 21.5895 24.859C21.5526 24.7397 21.5087 24.6292 21.4745 24.5061C21.4395 24.4011 21.4269 24.3507 21.3883 24.194C20.9415 22.8158 20.9205 21.2668 20.8137 19.9407C23.015 19.7746 25.215 19.0261 26.6989 18.5007ZM26.631 20.2092V20.2271C25.9084 20.2271 25.1928 20.2838 24.4786 20.3832C23.8692 20.4683 23.264 20.5887 22.6631 20.7412C22.6351 20.7543 22.6048 20.7526 22.5769 20.7566C22.5535 20.7566 22.5314 20.7704 22.509 20.7796C22.4908 20.7927 22.4742 20.7948 22.4567 20.8026H22.4541C22.4394 20.8157 22.4238 20.8178 22.4097 20.8256H22.3993C22.3853 20.8387 22.3732 20.8433 22.3601 20.8538C22.2039 20.9664 22.1101 21.1446 22.1093 21.3346C22.1376 22.7337 22.342 24.0957 22.7885 25.2529C23.5852 27.3582 24.9854 28.6323 26.3724 29.4167C26.4797 29.477 26.6018 29.504 26.725 29.4935C26.7455 29.4935 26.7675 29.4938 26.7877 29.4807C26.864 29.4676 26.9352 29.4445 27.0019 29.4065C27.0701 29.3685 27.1374 29.3113 27.2057 29.271C27.4336 29.1345 27.6638 28.9873 27.8901 28.8234C28.3502 28.4901 28.7951 28.1023 29.2066 27.6315C29.2264 27.6093 29.2445 27.5847 29.2641 27.5625C29.478 27.3117 29.6812 27.0423 29.8701 26.7466C29.8733 26.7466 29.8774 26.7325 29.8806 26.7312C29.8822 26.7312 29.8842 26.7315 29.8858 26.7184C30.2006 26.2216 30.4795 25.6654 30.6956 25.0253C31.1577 23.8888 31.2278 22.4021 31.2337 21.3193C31.2334 21.0462 31.0464 20.8078 30.7766 20.7387C29.3784 20.3793 27.997 20.2061 26.631 20.2092ZM27.2945 21.4727C28.1714 21.5264 29.055 21.6544 29.9511 21.8538C29.9161 22.7846 29.7991 23.5724 29.6167 24.2529H27.2945V21.4727ZM26.0668 21.5085V24.258H23.768C23.5719 23.5774 23.4533 22.7713 23.4128 21.8564C24.2886 21.6602 25.1723 21.5447 26.0668 21.5085ZM24.2252 25.4601H26.0668V27.6878C25.3508 27.1518 24.7064 26.4426 24.2252 25.4601ZM27.2945 25.4601H29.0734C28.5918 26.4219 27.9954 27.1547 27.2945 27.6852V25.4601ZM6.85411 26.4703C6.61839 26.4702 6.40006 26.5922 6.27942 26.79L3.09516 32.0102C2.82974 32.4468 3.151 33 3.66984 33H24.4629C23.9147 32.6163 23.3751 32.1817 22.8512 31.6905H4.84794L7.23287 27.7799H11.8617C12.766 27.793 12.766 26.4578 11.8617 26.4703H6.85411Z" fill="#3178F6"/>
</svg>
