<svg width="36" height="36" viewBox="0 0 36 36" fill="none" xmlns="http://www.w3.org/2000/svg">
<path d="M16.3125 13.5C16.3125 14.4304 17.0696 15.1875 18 15.1875C18.9304 15.1875 19.6875 14.4304 19.6875 13.5C19.6875 12.5696 18.9304 11.8125 18 11.8125C17.0696 11.8125 16.3125 12.5696 16.3125 13.5ZM18.5625 13.5C18.5625 13.8105 18.3105 14.0625 18 14.0625C17.6895 14.0625 17.4375 13.8105 17.4375 13.5C17.4375 13.1895 17.6895 12.9375 18 12.9375C18.3105 12.9375 18.5625 13.1895 18.5625 13.5Z" fill="#3178F6"/>
<path d="M17.6299 9.13894L13.1299 13.0764C13.0072 13.1839 12.9375 13.338 12.9375 13.5V24.75C12.9375 25.0611 13.1889 25.3125 13.5 25.3125H22.5C22.8111 25.3125 23.0625 25.0611 23.0625 24.75V13.5C23.0625 13.338 22.9928 13.1839 22.8701 13.0764L18.3701 9.13894C18.1581 8.95332 17.8419 8.95332 17.6299 9.13894ZM21.9375 13.7554V24.1875H14.0625V13.7554L18 10.3101L21.9375 13.7554Z" fill="#3178F6"/>
<path d="M18 18C18.3105 18 18.5625 18.252 18.5625 18.5625H19.6875C19.6875 17.8301 19.2156 17.2114 18.5625 16.9785V16.3125H17.4375V16.9785C16.7844 17.2114 16.3125 17.8301 16.3125 18.5625C16.3125 19.4929 17.0696 20.25 18 20.25C18.3105 20.25 18.5625 20.502 18.5625 20.8125C18.5625 21.123 18.3105 21.375 18 21.375C17.6895 21.375 17.4375 21.123 17.4375 20.8125H16.3125C16.3125 21.5449 16.7844 22.1636 17.4375 22.3965V23.0625H18.5625V22.3965C19.2156 22.1636 19.6875 21.5449 19.6875 20.8125C19.6875 19.8821 18.9304 19.125 18 19.125C17.6895 19.125 17.4375 18.873 17.4375 18.5625C17.4375 18.252 17.6895 18 18 18ZM30.375 0.5625C27.5833 0.5625 25.3125 2.83331 25.3125 5.625C25.3125 8.41669 27.5833 10.6875 30.375 10.6875C33.1667 10.6875 35.4375 8.41669 35.4375 5.625C35.4375 2.83331 33.1667 0.5625 30.375 0.5625ZM30.375 9.5625C29.5464 9.5625 28.7781 9.30375 28.143 8.865C28.2364 7.99875 29.1954 7.3125 30.375 7.3125C30.996 7.3125 31.5799 7.50319 32.0119 7.84462C32.3646 8.13094 32.5659 8.48925 32.6076 8.86444C31.9725 9.30375 31.2036 9.5625 30.375 9.5625ZM29.25 5.0625C29.25 4.44206 29.7546 3.9375 30.375 3.9375C30.9954 3.9375 31.5 4.44206 31.5 5.0625C31.5 5.68294 30.9954 6.1875 30.375 6.1875C29.7546 6.1875 29.25 5.68294 29.25 5.0625ZM33.5205 7.983C33.3461 7.60613 33.0767 7.26019 32.715 6.96712C32.5103 6.80512 32.2796 6.67631 32.0394 6.56269C32.3994 6.16388 32.625 5.64075 32.625 5.0625C32.625 3.82162 31.6159 2.8125 30.375 2.8125C29.1341 2.8125 28.125 3.82162 28.125 5.0625C28.125 5.63906 28.3489 6.15994 28.7066 6.55819C28.0378 6.87713 27.513 7.38056 27.2306 7.98525C26.7351 7.32656 26.4375 6.51094 26.4375 5.625C26.4375 3.45431 28.2043 1.6875 30.375 1.6875C32.5457 1.6875 34.3125 3.45431 34.3125 5.625C34.3125 6.50981 34.0155 7.32488 33.5205 7.983ZM5.625 10.6875C8.41669 10.6875 10.6875 8.41669 10.6875 5.625C10.6875 2.83331 8.41669 0.5625 5.625 0.5625C2.83331 0.5625 0.5625 2.83331 0.5625 5.625C0.5625 8.41669 2.83331 10.6875 5.625 10.6875ZM5.625 9.5625C4.79644 9.5625 4.02806 9.30375 3.393 8.865C3.48638 7.99875 4.44544 7.3125 5.625 7.3125C6.246 7.3125 6.82987 7.50319 7.26188 7.84462C7.61456 8.13094 7.81594 8.48925 7.85756 8.86444C7.2225 9.30375 6.45356 9.5625 5.625 9.5625ZM4.5 5.0625C4.5 4.44206 5.00456 3.9375 5.625 3.9375C6.24544 3.9375 6.75 4.44206 6.75 5.0625C6.75 5.68294 6.24544 6.1875 5.625 6.1875C5.00456 6.1875 4.5 5.68294 4.5 5.0625ZM5.625 1.6875C7.79569 1.6875 9.5625 3.45431 9.5625 5.625C9.5625 6.50981 9.2655 7.32488 8.7705 7.983C8.59612 7.60613 8.32669 7.26019 7.965 6.96712C7.76025 6.80512 7.52962 6.67631 7.28944 6.56269C7.64944 6.16388 7.875 5.64075 7.875 5.0625C7.875 3.82162 6.86588 2.8125 5.625 2.8125C4.38412 2.8125 3.375 3.82162 3.375 5.0625C3.375 5.63906 3.59888 6.15994 3.95662 6.55819C3.28781 6.87713 2.763 7.38056 2.48062 7.98525C1.98506 7.32656 1.6875 6.51094 1.6875 5.625C1.6875 3.45431 3.45431 1.6875 5.625 1.6875ZM30.375 25.3125C27.5833 25.3125 25.3125 27.5833 25.3125 30.375C25.3125 33.1667 27.5833 35.4375 30.375 35.4375C33.1667 35.4375 35.4375 33.1667 35.4375 30.375C35.4375 27.5833 33.1667 25.3125 30.375 25.3125ZM30.375 34.3125C29.5464 34.3125 28.7781 34.0537 28.143 33.615C28.2364 32.7487 29.1954 32.0625 30.375 32.0625C30.996 32.0625 31.5799 32.2532 32.0119 32.5946C32.3646 32.8809 32.5659 33.2393 32.6076 33.6144C31.9725 34.0537 31.2036 34.3125 30.375 34.3125ZM29.25 29.8125C29.25 29.1921 29.7546 28.6875 30.375 28.6875C30.9954 28.6875 31.5 29.1921 31.5 29.8125C31.5 30.4329 30.9954 30.9375 30.375 30.9375C29.7546 30.9375 29.25 30.4329 29.25 29.8125ZM33.5205 32.733C33.3461 32.3561 33.0767 32.0102 32.715 31.7171C32.5103 31.5551 32.2796 31.4263 32.0394 31.3127C32.3994 30.9139 32.625 30.3908 32.625 29.8125C32.625 28.5716 31.6159 27.5625 30.375 27.5625C29.1341 27.5625 28.125 28.5716 28.125 29.8125C28.125 30.3891 28.3489 30.9099 28.7066 31.3082C28.0378 31.6271 27.513 32.1306 27.2306 32.7352C26.7351 32.0766 26.4375 31.2609 26.4375 30.375C26.4375 28.2043 28.2043 26.4375 30.375 26.4375C32.5457 26.4375 34.3125 28.2043 34.3125 30.375C34.3125 31.2598 34.0155 32.0749 33.5205 32.733ZM5.625 25.3125C2.83331 25.3125 0.5625 27.5833 0.5625 30.375C0.5625 33.1667 2.83331 35.4375 5.625 35.4375C8.41669 35.4375 10.6875 33.1667 10.6875 30.375C10.6875 27.5833 8.41669 25.3125 5.625 25.3125ZM5.625 34.3125C4.79644 34.3125 4.02806 34.0537 3.393 33.615C3.48638 32.7487 4.44544 32.0625 5.625 32.0625C6.246 32.0625 6.82987 32.2532 7.26188 32.5946C7.61456 32.8809 7.81594 33.2393 7.85756 33.6144C7.2225 34.0537 6.45356 34.3125 5.625 34.3125ZM4.5 29.8125C4.5 29.1921 5.00456 28.6875 5.625 28.6875C6.24544 28.6875 6.75 29.1921 6.75 29.8125C6.75 30.4329 6.24544 30.9375 5.625 30.9375C5.00456 30.9375 4.5 30.4329 4.5 29.8125ZM8.7705 32.733C8.59612 32.3561 8.32669 32.0102 7.965 31.7171C7.76025 31.5551 7.52962 31.4263 7.28944 31.3127C7.64944 30.9139 7.875 30.3908 7.875 29.8125C7.875 28.5716 6.86588 27.5625 5.625 27.5625C4.38412 27.5625 3.375 28.5716 3.375 29.8125C3.375 30.3891 3.59888 30.9099 3.95662 31.3082C3.28781 31.6271 2.763 32.1306 2.48062 32.7352C1.98506 32.0766 1.6875 31.2609 1.6875 30.375C1.6875 28.2043 3.45431 26.4375 5.625 26.4375C7.79569 26.4375 9.5625 28.2043 9.5625 30.375C9.5625 31.2598 9.2655 32.0749 8.7705 32.733ZM11.0087 3.25744L11.4907 4.27387C13.5326 3.30413 15.7219 2.8125 18 2.8125C20.2781 2.8125 22.4674 3.30413 24.5087 4.27387L24.9908 3.25744C22.7981 2.21569 20.4463 1.6875 18 1.6875C15.5537 1.6875 13.2019 2.21569 11.0087 3.25744ZM3.25744 11.0087C2.21569 13.2019 1.6875 15.5537 1.6875 18C1.6875 20.4463 2.21569 22.7981 3.25744 24.9913L4.27387 24.5092C3.30413 22.4674 2.8125 20.2781 2.8125 18C2.8125 15.7219 3.30413 13.5326 4.27387 11.4913L3.25744 11.0087ZM18 33.1875C15.7219 33.1875 13.5326 32.6959 11.4913 31.7261L11.0093 32.7426C13.2019 33.7843 15.5537 34.3125 18 34.3125C20.4463 34.3125 22.7981 33.7843 24.9913 32.7426L24.5092 31.7261C22.4674 32.6959 20.2781 33.1875 18 33.1875ZM32.7426 24.9913C33.7843 22.7981 34.3125 20.4463 34.3125 18C34.3125 15.5537 33.7843 13.2019 32.7426 11.0087L31.7261 11.4907C32.6959 13.5326 33.1875 15.7219 33.1875 18C33.1875 20.2781 32.6959 22.4674 31.7261 24.5087L32.7426 24.9913Z" fill="#3178F6"/>
<path d="M6.75 18C6.75 24.2033 11.7968 29.25 18 29.25C24.2033 29.25 29.25 24.2033 29.25 18C29.25 11.7968 24.2033 6.75 18 6.75C11.7968 6.75 6.75 11.7968 6.75 18ZM28.125 18C28.125 23.5828 23.5828 28.125 18 28.125C12.4172 28.125 7.875 23.5828 7.875 18C7.875 12.4172 12.4172 7.875 18 7.875C23.5828 7.875 28.125 12.4172 28.125 18Z" fill="#3178F6"/>
</svg>
