<svg width="36" height="36" viewBox="0 0 36 36" fill="none" xmlns="http://www.w3.org/2000/svg">
<path d="M27.0714 11.9026C26.9605 11.9026 26.7386 11.9026 26.6277 11.7917C26.4058 11.5698 26.4058 11.2369 26.6277 11.0151L29.9559 7.6868C30.1778 7.46491 30.5106 7.46491 30.7325 7.6868C30.9544 7.90868 30.9544 8.24151 30.7325 8.46339L27.4042 11.7917C27.4042 11.9026 27.1824 11.9026 27.0714 11.9026ZM13.2037 25.5485H12.9818C12.6489 25.4375 9.43163 23.8843 9.43163 21.7764V19.4467C9.43163 19.1138 9.65351 18.892 9.98634 18.892C10.3192 18.892 10.541 19.1138 10.541 19.4467V21.7764C10.541 22.8859 12.3161 23.9953 13.2037 24.4391C14.0912 23.9953 15.8663 22.8859 15.8663 21.7764V19.4467C15.8663 19.1138 16.0882 18.892 16.421 18.892C16.7538 18.892 16.9757 19.1138 16.9757 19.4467V21.7764C16.9757 23.8843 13.7584 25.3266 13.4255 25.5485H13.2037Z" fill="#3178F6"/>
<path d="M13.2036 20.778C9.54254 20.778 6.5471 17.7825 6.5471 14.1214V12.4573C6.5471 12.1245 6.76899 11.9026 7.10181 11.9026C7.43464 11.9026 7.65653 12.1245 7.65653 12.4573V14.1214C7.65653 17.2278 10.0973 19.6685 13.2036 19.6685C16.31 19.6685 18.7507 17.2278 18.7507 14.1214V12.4573C18.7507 12.1245 18.9726 11.9026 19.3054 11.9026C19.6383 11.9026 19.8602 12.1245 19.8602 12.4573V14.1214C19.8602 17.7825 16.8647 20.778 13.2036 20.778Z" fill="#3178F6"/>
<path d="M19.3054 12.7901H18.9726C18.6398 12.7901 18.4179 12.5683 18.4179 12.2354C18.4179 11.9026 18.6398 11.6807 18.8617 11.6807L19.7492 9.01812C19.8601 8.57435 19.7492 8.01964 19.4164 7.68681C19.1945 7.1321 18.6398 6.91022 18.196 6.91022C17.8632 6.91022 17.6413 6.68833 17.6413 6.35551C17.6413 5.68985 17.3085 5.0242 16.8647 4.58043C16.4209 4.13666 15.7553 4.02572 15.0896 4.13666L8.43309 5.24609C7.87838 5.35703 7.32367 5.68985 6.99085 6.13362C6.65802 6.57739 6.54708 7.24304 6.65802 7.79775L7.6565 11.5698C7.87838 11.5698 8.10027 11.7917 8.10027 12.1245C8.10027 12.4573 7.87838 12.6792 7.54556 12.6792H7.10179C6.87991 12.6792 6.65802 12.4573 6.54708 12.2354L5.43766 8.01964C5.21577 7.1321 5.43766 6.24456 5.99237 5.46797C6.54708 4.69137 7.32367 4.24761 8.21121 4.13666L14.8677 3.02724C15.8662 2.9163 16.7538 3.13818 17.5303 3.80384C18.196 4.35855 18.5288 5.13514 18.6398 5.91174C19.3054 6.02268 19.8601 6.35551 20.3039 6.91022C20.8586 7.57587 21.0805 8.46341 20.8586 9.24L19.7492 12.3464C19.7492 12.5683 19.5273 12.7901 19.3054 12.7901Z" fill="#3178F6"/>
<path d="M19.1945 12.7901H18.8617C18.0851 12.7901 17.3085 12.1245 17.3085 11.2369V9.46185C15.3115 10.9041 12.6489 11.4588 10.2082 11.015L9.32066 10.9041C9.20972 10.9041 8.98783 11.126 8.98783 11.3479C8.98783 12.1245 8.32218 12.9011 7.43464 12.9011H7.10182C6.76899 12.9011 6.54711 12.6792 6.54711 12.3464C6.54711 12.0135 6.76899 11.7916 7.10182 11.7916H7.43464C7.65653 11.7916 7.87841 11.5698 7.87841 11.3479C7.87841 10.5713 8.54407 9.79468 9.4316 9.79468L10.541 10.0166C12.7599 10.4603 15.0897 9.90562 16.8647 8.57432C17.1976 8.35243 17.6413 8.35243 17.9741 8.46338C18.307 8.68526 18.5289 9.01809 18.5289 9.35091V11.2369C18.5289 11.4588 18.7507 11.6807 18.9726 11.6807H19.3055C19.6383 11.6807 19.8602 11.9026 19.8602 12.2354C19.8602 12.5682 19.5273 12.7901 19.1945 12.7901ZM24.8526 32.9816H1.55471C1.22188 32.9816 1 32.7597 1 32.4269V28.322C1 26.1032 2.44225 24.1062 4.55015 23.3296L9.76443 21.5545C10.0973 21.4436 10.3191 21.6655 10.4301 21.8874C10.541 22.2202 10.3191 22.4421 10.0973 22.553L4.88297 24.439C3.21884 24.9938 2.10942 26.5469 2.10942 28.322V31.8722H24.2978V28.322C24.2978 26.5469 23.1884 24.9938 21.5243 24.439L16.31 22.664C15.9772 22.553 15.8662 22.2202 15.9772 21.9983C16.0881 21.6655 16.421 21.5545 16.6428 21.6655L21.8571 23.4406C23.965 24.1062 25.4073 26.1032 25.4073 28.433V32.4269C25.4073 32.7597 25.1854 32.9816 24.8526 32.9816Z" fill="#3178F6"/>
<path d="M24.8526 32.9816H19.3055C18.9726 32.9816 18.7507 32.7597 18.7507 32.4269V31.5394C18.7507 28.433 21.0805 25.7704 24.1869 25.4375C24.4088 25.4375 24.6307 25.5485 24.7416 25.6594C25.1854 26.436 25.5182 27.4345 25.5182 28.322V32.4269C25.4073 32.7597 25.1854 32.9816 24.8526 32.9816ZM19.8602 31.8722H24.2978V28.322C24.2978 27.7673 24.1869 27.1017 23.8541 26.547C21.5243 26.9907 19.7492 29.0986 19.7492 31.5394V31.8722H19.8602ZM7.10182 32.9816H1.55471C1.22188 32.9816 1 32.7597 1 32.4269V28.322C1 27.4345 1.22188 26.436 1.77659 25.6594C1.88754 25.4375 2.10942 25.3266 2.33131 25.4375C5.43769 25.7704 7.76747 28.433 7.76747 31.5394V32.4269C7.65653 32.7597 7.43464 32.9816 7.10182 32.9816ZM2.10942 31.8722H6.54711V31.5394C6.54711 29.0986 4.77203 27.1017 2.44225 26.547C2.22036 27.1017 1.99848 27.7673 1.99848 28.322V31.8722H2.10942ZM7.10182 15.2309H5.9924C5.10486 15.2309 4.32826 14.4543 4.32826 13.5667V12.4573C4.32826 11.5698 5.10486 10.7932 5.9924 10.7932H6.54711C6.87993 10.7932 7.10182 11.0151 7.10182 11.3479C7.10182 11.6807 6.87993 11.9026 6.54711 11.9026H5.9924C5.65957 11.9026 5.43769 12.1245 5.43769 12.4573V13.5667C5.43769 13.8995 5.65957 14.1214 5.9924 14.1214H6.54711V13.012C6.54711 12.6792 6.76899 12.4573 7.10182 12.4573C7.43464 12.4573 7.65653 12.6792 7.65653 13.012V14.6761C7.65653 15.009 7.43464 15.2309 7.10182 15.2309ZM20.4149 15.2309H19.3055C18.9726 15.2309 18.7507 15.009 18.7507 14.6761V13.012C18.7507 12.6792 18.9726 12.4573 19.3055 12.4573C19.6383 12.4573 19.8602 12.6792 19.8602 13.012V14.1214H20.4149C20.7477 14.1214 20.9696 13.8995 20.9696 13.5667V12.4573C20.9696 12.1245 20.7477 11.9026 20.4149 11.9026H19.8602C19.5273 11.9026 19.3055 11.6807 19.3055 11.3479C19.3055 11.0151 19.5273 10.7932 19.8602 10.7932H20.4149C21.3024 10.7932 22.079 11.5698 22.079 12.4573V13.5667C22.079 14.4543 21.3024 15.2309 20.4149 15.2309ZM25.962 16.3403C25.851 16.3403 25.7401 16.3403 25.7401 16.2293C25.5182 16.1184 25.4073 15.8965 25.4073 15.7856V14.1214H24.8526C23.965 14.1214 23.1884 13.3448 23.1884 12.4573V6.9102C23.1884 6.02266 23.965 5.24606 24.8526 5.24606H32.6185C33.506 5.24606 34.2826 6.02266 34.2826 6.9102V12.4573C34.2826 13.3448 33.506 14.1214 32.6185 14.1214H29.5121L26.2948 16.2293C26.1839 16.3403 26.0729 16.3403 25.962 16.3403ZM24.8526 6.35548C24.5197 6.35548 24.2978 6.57737 24.2978 6.9102V12.4573C24.2978 12.7901 24.5197 13.012 24.8526 13.012H25.962C26.2948 13.012 26.5167 13.2339 26.5167 13.5667V14.7871L28.9574 13.123C29.0684 13.012 29.1793 13.012 29.2902 13.012H32.6185C32.9513 13.012 33.1732 12.7901 33.1732 12.4573V6.9102C33.1732 6.57737 32.9513 6.35548 32.6185 6.35548H24.8526Z" fill="#3178F6"/>
<path d="M27.4042 9.23998C27.8944 9.23998 28.2918 8.84262 28.2918 8.35244C28.2918 7.86227 27.8944 7.4649 27.4042 7.4649C26.9141 7.4649 26.5167 7.86227 26.5167 8.35244C26.5167 8.84262 26.9141 9.23998 27.4042 9.23998Z" fill="#3178F6"/>
<path d="M30.0668 12.0135C30.557 12.0135 30.9544 11.6162 30.9544 11.126C30.9544 10.6358 30.557 10.2385 30.0668 10.2385C29.5767 10.2385 29.1793 10.6358 29.1793 11.126C29.1793 11.6162 29.5767 12.0135 30.0668 12.0135Z" fill="#3178F6"/>
<path d="M12.6489 24.9938H13.7583V32.4269H12.6489V24.9938Z" fill="#3178F6"/>
</svg>
