<svg width="36" height="36" viewBox="0 0 36 36" fill="none" xmlns="http://www.w3.org/2000/svg">
<path d="M19.2 15.6V12.5394C19.9422 11.7816 20.4 10.7442 20.4 9.6C20.4 7.2804 18.5196 5.4 16.2 5.4C16.2 5.4 13.8 5.4 12 5.4C9.60001 5.4 7.59361 4.0872 5.62921 2.3154C5.62921 2.3154 3.60001 4.4142 3.60001 7.8C3.60001 10.4508 6.28621 12.6 9.60001 12.6" stroke="#3178F6" stroke-width="1.5" stroke-miterlimit="10"/>
<path d="M6 11.6406V16.2C6 19.845 8.955 22.8 12.6 22.8C16.245 22.8 19.2 19.845 19.2 16.2V15" stroke="#3178F6" stroke-width="1.5" stroke-miterlimit="10"/>
<path d="M10.9698 20.0718C11.4714 20.283 12.0222 20.4 12.6 20.4C14.2176 20.4 15.6216 19.4856 16.3236 18.1452" stroke="#3178F6" stroke-width="1.5" stroke-miterlimit="10"/>
<path d="M10.2 22.35V24.2628C10.2 24.8136 9.825 25.2936 9.291 25.4268L5.727 26.3178C4.1244 26.7192 3 28.1586 3 29.811V34.8" stroke="#3178F6" stroke-width="1.5" stroke-miterlimit="10"/>
<path d="M15 22.35V24.2628C15 24.8136 15.375 25.2936 15.909 25.4268L19.473 26.3178C19.62 26.3544 19.7598 26.3988 19.8984 26.4528" stroke="#3178F6" stroke-width="1.5" stroke-miterlimit="10"/>
<path d="M8.0004 25.7502C9.1878 26.8974 10.8186 27.6 12.6 27.6C14.3814 27.6 16.0098 26.8968 17.1972 25.749" stroke="#3178F6" stroke-width="1.5" stroke-miterlimit="10"/>
<path d="M26.4 34.2C30.0451 34.2 33 31.2451 33 27.6C33 23.9549 30.0451 21 26.4 21C22.7549 21 19.8 23.9549 19.8 27.6C19.8 31.2451 22.7549 34.2 26.4 34.2Z" stroke="#3178F6" stroke-width="1.5" stroke-miterlimit="10"/>
<path d="M26.4 23.4V31.8" stroke="#3178F6" stroke-width="1.5" stroke-miterlimit="10"/>
<path d="M22.2 27.6H30.6" stroke="#3178F6" stroke-width="1.5" stroke-miterlimit="10"/>
<path d="M27.5106 18.6678C27.1464 18.6228 26.7762 18.6 26.4 18.6" stroke="#3178F6" stroke-width="1.5" stroke-miterlimit="10"/>
<path d="M33.9126 22.6422C32.7636 20.9046 31.0272 19.5888 28.9866 18.9774" stroke="#3178F6" stroke-width="1.5" stroke-miterlimit="10"/>
<path d="M27.6 13.8H31.2" stroke="#3178F6" stroke-width="1.5" stroke-miterlimit="10"/>
<path d="M26.616 9.51839L29.8278 7.66379" stroke="#3178F6" stroke-width="1.5" stroke-miterlimit="10"/>
<path d="M23.4642 6.4146L25.3362 3.1716" stroke="#3178F6" stroke-width="1.5" stroke-miterlimit="10"/>
</svg>
