<svg width="36" height="36" viewBox="0 0 36 36" fill="none" xmlns="http://www.w3.org/2000/svg">
<path d="M35.4168 1.55505H32.9287C32.6067 1.55505 32.3456 1.81615 32.3456 2.13821V10.8855H29.7797V4.0043C29.7797 3.68224 29.5186 3.42114 29.1965 3.42114H21.7322H14.2678H6.80346C6.4814 3.42114 6.2203 3.68224 6.2203 4.0043V10.8855H3.65443V2.13821C3.65443 1.81615 3.39333 1.55505 3.07127 1.55505H0.583153C0.261097 1.55505 0 1.81615 0 2.13821V33.8617C0 34.1838 0.261097 34.4449 0.583153 34.4449H3.07127C3.39333 34.4449 3.65443 34.1838 3.65443 33.8617V31.9568H32.3456V33.8617C32.3456 34.1838 32.6067 34.4449 32.9287 34.4449H35.4168C35.7389 34.4449 36 34.1838 36 33.8617V2.13821C36 1.81615 35.7389 1.55505 35.4168 1.55505ZM22.3153 9.56369H28.6134V10.8855H22.3153V9.56369ZM28.6134 8.39739H22.3153V4.58745H24.8812V5.24836C24.8812 5.57041 25.1423 5.83151 25.4644 5.83151C25.7864 5.83151 26.0475 5.57041 26.0475 5.24836V4.58745H28.6134V8.39739ZM21.149 10.8855H14.851V4.58745H17.4168V5.24836C17.4168 5.57041 17.6779 5.83151 18 5.83151C18.3221 5.83151 18.5832 5.57041 18.5832 5.24836V4.58745H21.149V10.8855ZM7.38661 4.58745H9.95248V5.24836C9.95248 5.57041 10.2136 5.83151 10.5356 5.83151C10.8577 5.83151 11.1188 5.57041 11.1188 5.24836V4.58745H13.6847V10.8855H7.38661V4.58745ZM32.3456 12.0518V20.838H29.7797V13.9568C29.7797 13.6347 29.5186 13.3736 29.1965 13.3736H21.7322H14.2678H6.80346C6.4814 13.3736 6.2203 13.6347 6.2203 13.9568V20.838H3.65443V12.0518H32.3456ZM7.38661 20.838V19.5162H13.6847V20.838H7.38661ZM10.5356 15.784C10.8577 15.784 11.1188 15.5229 11.1188 15.2008V14.5399H13.6847V18.3499H7.38661V14.5399H9.95248V15.2008C9.95248 15.5229 10.2136 15.784 10.5356 15.784ZM22.3153 14.5399H24.8812V15.2008C24.8812 15.5229 25.1423 15.784 25.4644 15.784C25.7864 15.784 26.0475 15.5229 26.0475 15.2008V14.5399H28.6134V20.838H22.3153V14.5399ZM2.48812 33.2786H1.16631V2.72136H2.48812V33.2786ZM10.5356 25.7365C10.8577 25.7365 11.1188 25.4754 11.1188 25.1533V24.4924H13.6847V30.7905H7.38661V24.4924H9.95248V25.1533C9.95248 25.4754 10.2136 25.7365 10.5356 25.7365ZM14.851 24.4924H17.4168V25.1533C17.4168 25.4754 17.6779 25.7365 18 25.7365C18.3221 25.7365 18.5832 25.4754 18.5832 25.1533V24.4924H21.149V28.3024H14.851V24.4924ZM14.851 29.4687H21.149V30.7905H14.851V29.4687ZM22.3153 30.7905V24.4924H24.8812V25.1533C24.8812 25.4754 25.1423 25.7365 25.4644 25.7365C25.7864 25.7365 26.0475 25.4754 26.0475 25.1533V24.4924H28.6134V30.7905H22.3153ZM29.7797 30.7905V23.9093C29.7797 23.5872 29.5186 23.3261 29.1965 23.3261H21.7322H14.2678H6.80346C6.4814 23.3261 6.2203 23.5872 6.2203 23.9093V30.7905H3.65443V22.0043H32.3456V30.7905H29.7797ZM34.8337 33.2786H33.5119V2.72136H34.8337V33.2786Z" fill="#3178F6"/>
<path d="M17.855 16.8333H19.0217C19.099 16.8333 19.1732 16.8026 19.2279 16.7479C19.2826 16.6932 19.3134 16.619 19.3134 16.5417C19.3134 16.4643 19.2826 16.3901 19.2279 16.3354C19.1732 16.2807 19.099 16.25 19.0217 16.25H18.4384V15.9583C18.4384 15.881 18.4076 15.8068 18.3529 15.7521C18.2982 15.6974 18.224 15.6667 18.1467 15.6667C18.0693 15.6667 17.9951 15.6974 17.9404 15.7521C17.8857 15.8068 17.855 15.881 17.855 15.9583V16.25C17.623 16.25 17.4004 16.3422 17.2363 16.5063C17.0722 16.6704 16.98 16.8929 16.98 17.125C16.98 17.3571 17.0722 17.5796 17.2363 17.7437C17.4004 17.9078 17.623 18 17.855 18H18.4384C18.5157 18 18.5899 18.0307 18.6446 18.0854C18.6993 18.1401 18.73 18.2143 18.73 18.2917C18.73 18.369 18.6993 18.4432 18.6446 18.4979C18.5899 18.5526 18.5157 18.5833 18.4384 18.5833H17.2717C17.1943 18.5833 17.1201 18.6141 17.0654 18.6688C17.0107 18.7235 16.98 18.7976 16.98 18.875C16.98 18.9524 17.0107 19.0265 17.0654 19.0812C17.1201 19.1359 17.1943 19.1667 17.2717 19.1667H17.855V19.4583C17.855 19.5357 17.8857 19.6099 17.9404 19.6646C17.9951 19.7193 18.0693 19.75 18.1467 19.75C18.224 19.75 18.2982 19.7193 18.3529 19.6646C18.4076 19.6099 18.4384 19.5357 18.4384 19.4583V19.1667C18.6704 19.1667 18.893 19.0745 19.0571 18.9104C19.2212 18.7463 19.3134 18.5237 19.3134 18.2917C19.3134 18.0596 19.2212 17.837 19.0571 17.6729C18.893 17.5089 18.6704 17.4167 18.4384 17.4167H17.855C17.7777 17.4167 17.7035 17.3859 17.6488 17.3312C17.5941 17.2765 17.5634 17.2024 17.5634 17.125C17.5634 17.0476 17.5941 16.9735 17.6488 16.9188C17.7035 16.8641 17.7777 16.8333 17.855 16.8333ZM18.1467 14.5C17.5121 14.5 16.8918 14.6882 16.3642 15.0407C15.8366 15.3932 15.4254 15.8943 15.1826 16.4806C14.9397 17.0668 14.8762 17.7119 15 18.3342C15.1238 18.9566 15.4294 19.5283 15.8781 19.977C16.3267 20.4257 16.8984 20.7312 17.5208 20.855C18.1431 20.9788 18.7882 20.9153 19.3745 20.6724C19.9607 20.4296 20.4618 20.0184 20.8143 19.4908C21.1669 18.9632 21.355 18.3429 21.355 17.7083C21.355 16.8574 21.017 16.0414 20.4153 15.4397C19.8136 14.838 18.9976 14.5 18.1467 14.5ZM18.1467 20.3333C17.6275 20.3333 17.12 20.1794 16.6883 19.8909C16.2566 19.6025 15.9202 19.1925 15.7215 18.7129C15.5228 18.2332 15.4708 17.7054 15.5721 17.1962C15.6734 16.687 15.9234 16.2193 16.2905 15.8522C16.6576 15.4851 17.1254 15.2351 17.6346 15.1338C18.1438 15.0325 18.6716 15.0845 19.1512 15.2831C19.6309 15.4818 20.0409 15.8183 20.3293 16.25C20.6177 16.6816 20.7717 17.1892 20.7717 17.7083C20.7717 18.4045 20.4951 19.0722 20.0028 19.5645C19.5106 20.0568 18.8429 20.3333 18.1467 20.3333Z" fill="white"/>
</svg>
