<svg width="36" height="36" viewBox="0 0 36 36" fill="none" xmlns="http://www.w3.org/2000/svg">
<g clip-path="url(#clip0_1195_388)">
<path d="M23.676 18H33.9C34.7286 18 35.4 17.3286 35.4 16.5C35.4 15.6714 34.7286 15 33.9 15H18L16.5 16.5L18 18H21" stroke="#3178F6" stroke-width="1.3" stroke-miterlimit="10"/>
<path d="M32.0904 27.6C32.9982 25.3872 33.6246 23.4498 33.6 21V18" stroke="#3178F6" stroke-width="1.3" stroke-miterlimit="10"/>
<path d="M27 13.8V15" stroke="#3178F6" stroke-width="1.3" stroke-miterlimit="10"/>
<path d="M27 18L27.0006 21.1068C27.0006 21.408 26.7576 21.6 26.508 21.6C26.3628 21.6 26.211 21.5382 26.1072 21.3936L23.1786 17.3052C22.9176 16.938 22.455 16.7238 21.9522 16.8246C21.5082 16.9134 21.1368 17.2704 21.0336 17.7114C20.958 18.036 21.0138 18.345 21.159 18.597L24.1398 23.7828C24.756 24.8544 26.2248 26.7372 27.162 27.6" stroke="#3178F6" stroke-width="1.3" stroke-miterlimit="10"/>
<path d="M21.9816 15L25.7874 11.8992C26.1834 11.5764 26.679 11.4 27.1902 11.4C27.4608 11.4 27.7296 11.4504 27.9822 11.547L31.719 12.9768C32.283 13.1928 32.745 13.6134 33.0126 14.1546L33.4314 15" stroke="#3178F6" stroke-width="1.3" stroke-miterlimit="10"/>
<path d="M6.71339 6.15783L22.2918 2.96283L24.4236 13.0104" stroke="#3178F6" stroke-width="1.3" stroke-miterlimit="10"/>
<path d="M25.095 4.89124L25.9386 8.87103" stroke="#3178F6" stroke-width="1.3" stroke-miterlimit="10"/>
<path d="M24.4578 1.88342L24.804 3.51602" stroke="#3178F6" stroke-width="1.3" stroke-miterlimit="10"/>
<path d="M6.06719 28.692L1.63139 7.20003L5.30099 6.44763" stroke="#3178F6" stroke-width="1.3" stroke-miterlimit="10"/>
<path d="M8.98739 14.475L8.45939 11.892C8.39159 11.559 8.06939 11.3442 7.73939 11.4126L5.88719 11.7966C5.55659 11.865 5.34419 12.1914 5.41259 12.525L5.94059 15.108C6.00839 15.441 6.33059 15.6558 6.66059 15.5874L8.51279 15.2034C8.84279 15.135 9.05519 14.8086 8.98739 14.475Z" stroke="#3178F6" stroke-width="1.3" stroke-miterlimit="10"/>
<path d="M3.2118 26.3088L2.3808 22.3206" stroke="#3178F6" stroke-width="1.3" stroke-miterlimit="10"/>
<path d="M4.9482 34.6452L3.5022 27.702" stroke="#3178F6" stroke-width="1.3" stroke-miterlimit="10"/>
<path d="M24 30.5856L7.19999 34.1796L6.35579 30.0894" stroke="#3178F6" stroke-width="1.3" stroke-miterlimit="10"/>
<path d="M10.9692 13.2918L20.2518 11.2776" stroke="#3178F6" stroke-width="1.3" stroke-miterlimit="10"/>
<path d="M24 32.4V28.8C24 28.137 24.537 27.6 25.2 27.6H33.6C34.263 27.6 34.8 28.137 34.8 28.8V32.4" stroke="#3178F6" stroke-width="1.3" stroke-miterlimit="10"/>
<path d="M27 29.4H25.8V30.6H27V29.4Z" fill="#3178F6"/>
<path d="M13.3692 22.2918L19.6608 20.8404" stroke="#3178F6" stroke-width="1.3" stroke-miterlimit="10"/>
<path d="M7.4868 22.5108L9.6 23.625L11.5026 20.4636" stroke="#3178F6" stroke-width="1.3" stroke-miterlimit="10"/>
<path d="M18 28.8H16.8V30H18V28.8Z" fill="#3178F6"/>
<path d="M21 28.2H19.8V29.4H21V28.2Z" fill="#3178F6"/>
<path d="M15 29.4H13.8V30.6H15V29.4Z" fill="#3178F6"/>
</g>
<defs>
<clipPath id="clip0_1195_388">
<rect width="36" height="36" fill="white"/>
</clipPath>
</defs>
</svg>
