<svg width="36" height="36" viewBox="0 0 36 36" fill="none" xmlns="http://www.w3.org/2000/svg">
<g clip-path="url(#clip0_1195_394)">
<path d="M32.7 28.125L32.0574 26.1768C31.8888 25.6644 31.8 25.1328 31.8 24.6C31.8 24.0588 31.8654 23.5302 32.0244 23.013C32.2734 22.2006 32.4006 21.3558 32.4 20.5062V16.8" stroke="#3178F6" stroke-width="1.3" stroke-miterlimit="10"/>
<path d="M25.8 29.4L24.9024 28.1094C24.1956 27.0924 23.748 26.6148 22.6026 25.8C20.9706 24.6396 20.4888 23.3646 20.0436 21.8148L18.0816 14.988C18.0288 14.8038 18 14.6058 18 14.4C18 13.4058 18.6714 12.6 19.5 12.6C20.0178 12.6 20.4744 12.915 20.7438 13.3938L23.3454 18.0318C23.5542 18.4038 23.8584 18.714 24.2268 18.9294L26.259 20.118" stroke="#3178F6" stroke-width="1.3" stroke-miterlimit="10"/>
<path d="M18.0852 13.8H15L13.5 15.3L15 16.8H18.6024" stroke="#3178F6" stroke-width="1.3" stroke-miterlimit="10"/>
<path d="M22.6548 16.8H33.9C34.7286 16.8 35.4 16.1286 35.4 15.3C35.4 14.4714 34.7286 13.8 33.9 13.8H20.9718" stroke="#3178F6" stroke-width="1.3" stroke-miterlimit="10"/>
<path d="M23.9436 32.9142L23.415 30.573C23.3418 30.2496 23.5446 29.9286 23.868 29.8554L33.7902 27.6144C34.1136 27.5412 34.4346 27.744 34.5078 28.0674L35.055 30.4908" stroke="#3178F6" stroke-width="1.3" stroke-miterlimit="10"/>
<path d="M27 31.2H25.8V32.4H27V31.2Z" fill="#3178F6"/>
<path d="M3.6 17.4H2.4V18.6H3.6V17.4Z" fill="#3178F6"/>
<path d="M3.6 15H2.4V16.2H3.6V15Z" fill="#3178F6"/>
<path d="M3.6 12.6H2.4V13.8H3.6V12.6Z" fill="#3178F6"/>
<path d="M0.599998 31.8V20.4H4.2V31.8" stroke="#3178F6" stroke-width="1.3" stroke-miterlimit="10"/>
<path d="M6.6 30V13.8H10.2V30" stroke="#3178F6" stroke-width="1.3" stroke-miterlimit="10"/>
<path d="M16.2 18.6V28.2" stroke="#3178F6" stroke-width="1.3" stroke-miterlimit="10"/>
<path d="M12.6 12.6V6.59998H16.2V8.99998" stroke="#3178F6" stroke-width="1.3" stroke-miterlimit="10"/>
<path d="M12.6 28.2V17.4" stroke="#3178F6" stroke-width="1.3" stroke-miterlimit="10"/>
<path d="M9.6 9H8.4V10.2H9.6V9Z" fill="#3178F6"/>
<path d="M9.6 6.59998H8.4V7.79998H9.6V6.59998Z" fill="#3178F6"/>
<path d="M9.6 4.20001H8.4V5.40001H9.6V4.20001Z" fill="#3178F6"/>
<path d="M21.6 7.20001H20.4V8.40001H21.6V7.20001Z" fill="#3178F6"/>
<path d="M21.6 4.79999H20.4V5.99999H21.6V4.79999Z" fill="#3178F6"/>
<path d="M21.6 2.40002H20.4V3.60002H21.6V2.40002Z" fill="#3178F6"/>
<path d="M16.6584 13.8C16.3734 13.482 16.2 13.0614 16.2 12.6C16.2 11.6874 16.8792 10.9332 17.7594 10.8162L26.565 9.62098C26.6646 9.60718 26.7654 9.59998 26.8656 9.59998C27.5382 9.60058 28.1742 9.90658 28.5942 10.4316L31.2936 13.8" stroke="#3178F6" stroke-width="1.3" stroke-miterlimit="10"/>
</g>
<defs>
<clipPath id="clip0_1195_394">
<rect width="36" height="36" fill="white"/>
</clipPath>
</defs>
</svg>
