<svg width="36" height="36" viewBox="0 0 36 36" fill="none" xmlns="http://www.w3.org/2000/svg">
<g clip-path="url(#clip0_1191_791)">
<path d="M5.5128 20.4875L4.6866 25.2815L14.094 22.8479" stroke="#3178F6" stroke-width="1.3" stroke-miterlimit="10"/>
<path d="M10.6758 23.7324L5.1714 22.467" stroke="#3178F6" stroke-width="1.3" stroke-miterlimit="10"/>
<path d="M5.4 9.6V7.0116" stroke="#3178F6" stroke-width="1.3" stroke-miterlimit="10"/>
<path d="M7.6374 8.09997L6.0906 7.42497C4.9416 6.92397 4.2 5.78997 4.2 4.53777C4.2 4.01217 4.302 3.72957 4.8 1.43457C5.6574 2.18037 6.39 2.99997 7.8552 2.99997C8.9262 2.99997 9.5964 2.39997 11.5524 2.39997C12.7932 2.39997 13.8 3.40617 13.8 4.64697V10.2C13.8 12.5196 11.9196 14.4 9.6 14.4C7.281 14.4 5.4 12.5196 5.4 10.2V8.99997" stroke="#3178F6" stroke-width="1.3" stroke-miterlimit="10"/>
<path d="M4.2 29.3928V36" stroke="#3178F6" stroke-width="1.3" stroke-miterlimit="10"/>
<path d="M15 29.3928V36" stroke="#3178F6" stroke-width="1.3" stroke-miterlimit="10"/>
<path d="M19.8 21H35.4V22.2C35.4 22.8624 34.8624 23.4 34.2 23.4H20.4" stroke="#3178F6" stroke-width="1.3" stroke-miterlimit="10"/>
<path d="M17.4 15.6V12C17.4 11.3376 17.9376 10.8 18.6 10.8H33C33.6624 10.8 34.2 11.3376 34.2 12V21" stroke="#3178F6" stroke-width="1.3" stroke-miterlimit="10"/>
<path d="M33.6 25.8H32.4" stroke="#3178F6" stroke-width="1.3" stroke-miterlimit="10"/>
<path d="M31.2 25.8H22.8" stroke="#3178F6" stroke-width="1.3" stroke-miterlimit="10"/>
<path d="M25.8 8.39996V5.39996" stroke="#3178F6" stroke-width="1.3" stroke-miterlimit="10"/>
<path d="M22.5456 8.74555L20.6532 6.85315" stroke="#3178F6" stroke-width="1.3" stroke-miterlimit="10"/>
<path d="M29.0544 8.74555L30.9468 6.85315" stroke="#3178F6" stroke-width="1.3" stroke-miterlimit="10"/>
<path d="M13.6878 20.4876L14.5584 25.5378L5.5884 29.0874C5.067 29.2938 4.5126 29.4 3.9516 29.4C2.1006 29.4 0.599998 27.8994 0.599998 26.0478C0.599998 25.8834 0.611998 25.7178 0.636598 25.5546L1.5504 19.4148C1.7346 18.1824 2.6604 17.1918 3.8778 16.926L7.2 16.2L7.635 13.9122" stroke="#3178F6" stroke-width="1.3" stroke-miterlimit="10"/>
<path d="M9.6 27.4998L13.6116 29.0874C14.133 29.2938 14.6874 29.4 15.2484 29.4C17.0988 29.4 18.6 27.8994 18.6 26.0478C18.6 25.8834 18.5874 25.7178 18.5634 25.5546L17.6496 19.4148C17.4654 18.1824 16.5396 17.1918 15.3222 16.926L12 16.2L11.5656 13.9122" stroke="#3178F6" stroke-width="1.3" stroke-miterlimit="10"/>
<path d="M25.4248 12.6562L25.3496 12.6631H25.3428L25.1992 12.6768L25.0898 12.6836L25.1104 12.9023L25.2197 12.8887L25.3564 12.8818L25.4316 12.875H25.541L25.5342 12.6562H25.4248ZM25.7734 12.6699L25.7461 12.8887L25.8555 12.9023H25.8965H25.9033L26.0605 12.9365L26.1699 12.957L26.2109 12.7383L26.1016 12.7178L25.9375 12.6904H25.9307L25.876 12.6836L25.7734 12.6699ZM24.8574 12.7246L24.748 12.7588L24.5977 12.8066H24.5908L24.5361 12.8271L24.4336 12.8613L24.5088 13.0664L24.6113 13.0322L24.6592 13.0117L24.8164 12.9639L24.9189 12.9365L24.8574 12.7246ZM26.4365 12.8135L26.3545 13.0186L26.457 13.0596L26.5732 13.1074H26.5801L26.6484 13.1416L26.751 13.1895L26.8467 12.9912L26.7441 12.9434L26.6689 12.9092L26.6621 12.9023L26.5391 12.8545L26.4365 12.8135ZM24.2217 12.9639L24.126 13.0117L24.0781 13.0391H24.0713L23.9277 13.1279L23.8389 13.1895L23.9551 13.374L24.0439 13.3125L24.1875 13.2305L24.2285 13.2031L24.3242 13.1553L24.2217 12.9639ZM27.0449 13.1143L26.9219 13.2988L27.0176 13.3604L27.0244 13.3672H27.0312L27.168 13.4697L27.1748 13.4834L27.2568 13.5518L27.4004 13.3877L27.3184 13.3193L27.3115 13.3057H27.3047L27.1611 13.1895H27.1543L27.1338 13.1758L27.0449 13.1143ZM23.6475 13.3398L23.5723 13.415L23.4766 13.5039L23.4697 13.5107L23.4082 13.5723L23.333 13.6543L23.4971 13.8047L23.5723 13.7227L23.627 13.6611L23.6338 13.6543L23.7227 13.5723L23.7979 13.4971L23.6475 13.3398ZM27.5713 13.5518L27.4072 13.6953L27.4756 13.7773L27.5439 13.8525L27.6123 13.9414L27.6738 14.0303L27.8516 13.9004L27.7832 13.8115L27.7148 13.7158L27.708 13.709L27.6465 13.6338L27.5713 13.5518ZM23.1963 13.8389L23.1279 13.9277L23.1143 13.9551L23.1074 13.9619L23.0117 14.1191L22.957 14.2148L23.1416 14.3242L23.2031 14.2354L23.2988 14.0713L23.3125 14.0508L23.374 13.9619L23.1963 13.8389ZM27.9746 14.0986L27.7832 14.2012L27.8311 14.2969L27.8379 14.3037L27.8926 14.3994L28.084 14.29L28.0293 14.1943H28.0225L27.9746 14.0986ZM22.4375 14.4268V16.5596H23.3809C23.8617 16.5596 24.1602 16.3368 24.1602 15.9717C24.1602 15.6856 23.9882 15.4803 23.7021 15.4316C23.9334 15.3769 24.0781 15.2004 24.0781 14.96C24.0781 14.6283 23.8016 14.4268 23.3604 14.4268H22.4375ZM24.543 14.4268V15.6777C24.543 16.2346 24.8907 16.5732 25.4658 16.5732C26.041 16.5732 26.3955 16.2346 26.3955 15.6777V14.4268H26.0332V15.6777C26.0332 16.0399 25.8196 16.252 25.4727 16.252C25.1227 16.252 24.8984 16.0368 24.8984 15.6777V14.4268H24.543ZM26.6279 14.4268L27.4277 15.8623V16.5596H27.7832V15.8486L28.5625 14.4268H28.2002L27.5986 15.4658L26.9902 14.4268H26.6279ZM22.7998 14.748H23.3467C23.5749 14.748 23.709 14.842 23.709 15.0215C23.709 15.201 23.5749 15.3086 23.3467 15.3086H22.7998V14.748ZM22.7998 15.623H23.3467C23.6266 15.623 23.791 15.742 23.791 15.9307C23.791 16.1315 23.6266 16.2383 23.3467 16.2383H22.7998V15.623ZM28.1045 15.7871L28.0977 15.8965L28.0908 15.9033V15.9102L28.0566 16.1016L28.0361 16.2109L28.248 16.252L28.2686 16.1426L28.3096 15.9375V15.9307V15.9238L28.3232 15.8145L28.1045 15.7871ZM27.9678 16.3955L27.9268 16.498L27.9199 16.5186L27.8379 16.6895L27.79 16.792L27.9883 16.8809L28.0361 16.7852L28.1182 16.6074L28.125 16.6006L28.1318 16.5801L28.166 16.4775L27.9678 16.3955ZM23.1553 16.6895L22.9707 16.792L23.0186 16.8877L23.0869 16.9971V17.0039L23.1416 17.0859L23.2031 17.1748L23.3809 17.0518L23.3193 16.9629L23.2715 16.8877L23.21 16.7852L23.1553 16.6895ZM27.6807 16.9561L27.6191 17.0518L27.6055 17.0654V17.0723L27.4893 17.2158L27.4209 17.2979L27.5918 17.4346L27.6602 17.3525L27.7764 17.2021L27.7832 17.1953L27.7969 17.1748L27.8584 17.0791L27.6807 16.9561ZM23.5039 17.209L23.3467 17.3594L23.4219 17.4414L23.5176 17.5439H23.5244L23.5859 17.5986L23.668 17.6738L23.8115 17.5098L23.7295 17.4346L23.6748 17.3867L23.5791 17.291L23.5039 17.209ZM27.2705 17.4346L27.1885 17.5098L27.1748 17.5234H27.168L27.0244 17.6396L26.9355 17.7012L27.0654 17.8789L27.1543 17.8105L27.3115 17.6943L27.3184 17.6875L27.332 17.6738L27.4141 17.5986L27.2705 17.4346ZM23.9688 17.6328L23.8525 17.8174L23.9414 17.8789L24.0645 17.9541L24.0713 17.9609L24.1396 17.9951L24.2354 18.043L24.3379 17.8516L24.2422 17.8037L24.1807 17.7695L24.1738 17.7627L24.0645 17.6943L23.9688 17.6328ZM26.7578 17.8037L26.6621 17.8516L26.6416 17.8652L26.4707 17.9404L26.3682 17.9814L26.457 18.1797L26.5596 18.1387L26.7305 18.0635L26.7373 18.0566L26.7646 18.043L26.8604 17.9951L26.7578 17.8037ZM24.5225 17.9404L24.4541 18.1455L24.5566 18.1797L24.6865 18.2275H24.6934L24.7686 18.248L24.8779 18.2754L24.9326 18.0635L24.8232 18.0361L24.7617 18.0156L24.625 17.9746L24.5225 17.9404ZM26.1768 18.0361L26.0742 18.0635L26.0264 18.0703L25.8623 18.0977L25.7598 18.1182L25.7939 18.3301L25.8965 18.3164L26.0674 18.2891L26.0742 18.2822L26.1221 18.2754L26.2314 18.248L26.1768 18.0361ZM25.1309 18.0977L25.1104 18.3164L25.2197 18.3301L25.3633 18.3438H25.3701H25.4453H25.5547V18.125H25.4453H25.377L25.2402 18.1113L25.1309 18.0977Z" fill="#3178F6"/>
</g>
<defs>
<clipPath id="clip0_1191_791">
<rect width="36" height="36" fill="white"/>
</clipPath>
</defs>
</svg>
