<svg width="36" height="36" viewBox="0 0 36 36" fill="none" xmlns="http://www.w3.org/2000/svg">
<g clip-path="url(#clip0_1189_525)">
<path d="M9.6 9.59999V6.78659" stroke="#3178F6" stroke-width="1.3" stroke-miterlimit="10"/>
<path d="M9.7128 20.4876L8.8866 25.2816L18.294 22.848" stroke="#3178F6" stroke-width="1.3" stroke-miterlimit="10"/>
<path d="M14.8758 23.7324L9.3714 22.467" stroke="#3178F6" stroke-width="1.3" stroke-miterlimit="10"/>
<path d="M12.6 7.79999C9.7746 7.79999 8.4024 5.80499 8.4 4.54439C8.3988 4.01399 8.4996 3.73919 9 1.43399C9.8574 2.18039 10.59 2.99999 12.0552 2.99999H14.4C16.3878 2.99999 18 4.61219 18 6.59999V10.2C18 12.5196 16.1196 14.4 13.8 14.4C11.481 14.4 9.6 12.5196 9.6 10.2V8.99999" stroke="#3178F6" stroke-width="1.3" stroke-miterlimit="10"/>
<path d="M8.4 29.3928V36" stroke="#3178F6" stroke-width="1.3" stroke-miterlimit="10"/>
<path d="M19.2 29.3928V36" stroke="#3178F6" stroke-width="1.3" stroke-miterlimit="10"/>
<path d="M17.8878 20.4876L18.7584 25.5378L9.789 29.088C9.267 29.2938 8.7126 29.4 8.1516 29.4C6.3006 29.4 4.8 27.8994 4.8 26.0478C4.8 25.8834 4.812 25.7178 4.8366 25.5546L5.7504 19.4148C5.934 18.1824 6.8604 17.1918 8.0778 16.926L11.4 16.2L11.835 13.9122" stroke="#3178F6" stroke-width="1.3" stroke-miterlimit="10"/>
<path d="M13.8 27.4998L17.8116 29.0874C18.333 29.2938 18.8874 29.4 19.4484 29.4C21.2988 29.4 22.8 27.8994 22.8 26.0478C22.8 25.8834 22.7874 25.7178 22.7634 25.5546L21.8496 19.4148C21.6654 18.1824 20.7396 17.1918 19.5222 16.926L16.2 16.2L15.7656 13.9122" stroke="#3178F6" stroke-width="1.3" stroke-miterlimit="10"/>
<path d="M16.2 16.2C16.2 16.2 15.2814 17.4 13.8 17.4C12.3186 17.4 11.4 16.2 11.4 16.2" stroke="#3178F6" stroke-width="1.3" stroke-miterlimit="10"/>
<path d="M4.2 15C5.19411 15 6 14.1941 6 13.2C6 12.2059 5.19411 11.4 4.2 11.4C3.20589 11.4 2.4 12.2059 2.4 13.2C2.4 14.1941 3.20589 15 4.2 15Z" stroke="#3178F6" stroke-width="1.3" stroke-miterlimit="10"/>
<path d="M24.6 14.4C25.5941 14.4 26.4 13.5941 26.4 12.6C26.4 11.6059 25.5941 10.8 24.6 10.8C23.6059 10.8 22.8 11.6059 22.8 12.6C22.8 13.5941 23.6059 14.4 24.6 14.4Z" stroke="#3178F6" stroke-width="1.3" stroke-miterlimit="10"/>
<path d="M31.8 8.39999C32.7941 8.39999 33.6 7.5941 33.6 6.59999C33.6 5.60588 32.7941 4.79999 31.8 4.79999C30.8059 4.79999 30 5.60588 30 6.59999C30 7.5941 30.8059 8.39999 31.8 8.39999Z" stroke="#3178F6" stroke-width="1.3" stroke-miterlimit="10"/>
<path d="M5.583 12.048L7.5072 10.4436" stroke="#3178F6" stroke-width="1.3" stroke-miterlimit="10"/>
<path d="M25.9818 11.448L30.4188 7.75079" stroke="#3178F6" stroke-width="1.3" stroke-miterlimit="10"/>
<path d="M19.9626 9.9252L23.0412 11.7006" stroke="#3178F6" stroke-width="1.3" stroke-miterlimit="10"/>
<path d="M24.6 16.2V23.4" stroke="#3178F6" stroke-width="1.3" stroke-miterlimit="10"/>
<path d="M31.8 10.2V23.4" stroke="#3178F6" stroke-width="1.3" stroke-miterlimit="10"/>
<path d="M28.2 13.2V23.4" stroke="#3178F6" stroke-width="1.3" stroke-miterlimit="10"/>
</g>
<defs>
<clipPath id="clip0_1189_525">
<rect width="36" height="36" fill="white"/>
</clipPath>
</defs>
</svg>
