<svg width="36" height="36" viewBox="0 0 36 36" fill="none" xmlns="http://www.w3.org/2000/svg">
<path d="M12.6 9.60001V10.8C12.6 12.7884 10.9884 14.4 9 14.4C7.1748 14.4 5.667 13.0416 5.4318 11.2812L4.8282 6.73621C4.8096 6.59341 4.8 6.44761 4.8 6.30001C4.8 4.47721 6.2772 3.00001 8.1 3.00001H9C11.7252 3.00001 13.2 1.20001 13.2 1.20001C13.6686 2.03461 13.8 2.68261 13.8 3.60001C13.8 6.52501 9.7002 7.39981 9.7002 7.39981" stroke="#3178F6" stroke-width="1.3" stroke-miterlimit="10"/>
<path d="M12.6 10.2V6.00659" stroke="#3178F6" stroke-width="1.3" stroke-miterlimit="10"/>
<path d="M10.8 13.9182V17.2308" stroke="#3178F6" stroke-width="1.3" stroke-miterlimit="10"/>
<path d="M6.9258 13.7418L6.7578 15.0108C6.4866 17.0574 4.2 17.1576 4.2 19.8V36" stroke="#3178F6" stroke-width="1.3" stroke-miterlimit="10"/>
<path d="M8.4 16.8H9.6318C10.3206 16.8 10.9488 17.193 11.25 17.8122L16.014 27.6H22.5C23.6598 27.6 24.6 28.5402 24.6 29.7C24.6 30.8598 23.6598 31.8 22.5 31.8H14.7C13.9344 31.8 13.2828 31.38 12.8982 30.7788L8.7096 24.2436" stroke="#3178F6" stroke-width="1.3" stroke-miterlimit="10"/>
<path d="M14.4 36V31.7778" stroke="#3178F6" stroke-width="1.3" stroke-miterlimit="10"/>
<path d="M29.4 19.8V27.6H22.5" stroke="#3178F6" stroke-width="1.3" stroke-miterlimit="10"/>
<path d="M17.4 27.6V19.8" stroke="#3178F6" stroke-width="1.3" stroke-miterlimit="10"/>
<path d="M15.1374 21.2748L17.4 19.8H29.4L31.6626 21.2748" stroke="#3178F6" stroke-width="1.3" stroke-miterlimit="10"/>
<path d="M17.4 19.8C17.4 17.2686 15.6 16.2 15.6 16.2L19.2 13.2C19.2 13.2 21 16.875 21 19.8" stroke="#3178F6" stroke-width="1.3" stroke-miterlimit="10"/>
<path d="M29.4 19.8C29.4 17.2686 31.3128 15 31.3128 15L27.6 13.2C27.6 13.2 26.6388 14.502 26.1264 16.1412" stroke="#3178F6" stroke-width="1.3" stroke-miterlimit="10"/>
<path d="M26.0628 19.8L27.6 16.2C27.6 16.2 25.6752 16.3248 24 15.6L22.4532 19.8" stroke="#3178F6" stroke-width="1.3" stroke-miterlimit="10"/>
<path d="M24.8982 15.9096L24.375 12.1128L19.671 14.2716" stroke="#3178F6" stroke-width="1.3" stroke-miterlimit="10"/>
<path d="M16.8 3V4.2" stroke="#3178F6" stroke-width="1.3" stroke-miterlimit="10"/>
<path d="M16.8 5.40002V6.60002" stroke="#3178F6" stroke-width="1.3" stroke-miterlimit="10"/>
<path d="M16.8 7.79999V11.4" stroke="#3178F6" stroke-width="1.3" stroke-miterlimit="10"/>
<path d="M21.6 7.20002V2.40002" stroke="#3178F6" stroke-width="1.3" stroke-miterlimit="10"/>
<path d="M21.6 1.2V0" stroke="#3178F6" stroke-width="1.3" stroke-miterlimit="10"/>
<path d="M26.4 2.40002V3.60002" stroke="#3178F6" stroke-width="1.3" stroke-miterlimit="10"/>
<path d="M26.4 4.79999V5.99999" stroke="#3178F6" stroke-width="1.3" stroke-miterlimit="10"/>
<path d="M30 4.20001V9.60001" stroke="#3178F6" stroke-width="1.3" stroke-miterlimit="10"/>
<path d="M33 1.20001V4.80001" stroke="#3178F6" stroke-width="1.3" stroke-miterlimit="10"/>
<path d="M33 6V7.2" stroke="#3178F6" stroke-width="1.3" stroke-miterlimit="10"/>
<path d="M24.7771 22.3172H22.7614M25.4123 22.3172H26.2858C26.4254 22.3172 26.5385 22.4303 26.5385 22.5699V25.6149C26.5385 25.7534 26.4254 25.8664 26.2858 25.8664H21.2515C21.1119 25.8664 21 25.7534 21 25.6149V22.5699C21 22.4303 21.1119 22.3172 21.2515 22.3172H22.125H25.4123Z" stroke="#3178F6" stroke-width="0.6" stroke-miterlimit="10" stroke-linecap="round" stroke-linejoin="round"/>
<path d="M21.6671 24.5918C21.7514 24.6437 21.8744 24.6869 22.0041 24.6869C22.1961 24.6869 22.3083 24.5854 22.3083 24.4386C22.3083 24.3024 22.2307 24.2248 22.0342 24.1494C21.7967 24.0652 21.65 23.9421 21.65 23.7369C21.65 23.5102 21.8377 23.3419 22.1205 23.3419C22.2695 23.3419 22.3775 23.3765 22.4422 23.4132L22.3903 23.5665C22.3054 23.5208 22.2104 23.497 22.114 23.4974C21.9156 23.4974 21.8399 23.616 21.8399 23.7155C21.8399 23.8514 21.9284 23.9182 22.1291 23.9961C22.3753 24.091 22.5005 24.2097 22.5005 24.4235C22.5005 24.6481 22.3343 24.8423 21.9909 24.8423C21.8507 24.8423 21.6974 24.8012 21.6197 24.7495L21.6671 24.5918ZM22.9933 24.363L22.8421 24.8207H22.6479L23.1058 23.473C23.0976 23.4492 23.0953 23.4238 23.099 23.3989C23.1027 23.374 23.1122 23.3504 23.1268 23.3299C23.1415 23.3094 23.1608 23.2927 23.1832 23.2812C23.2055 23.2697 23.2303 23.2637 23.2555 23.2637C23.2806 23.2637 23.3055 23.2696 23.3278 23.2811C23.3502 23.2926 23.3696 23.3093 23.3842 23.3297C23.3989 23.3501 23.4085 23.3738 23.4122 23.3987C23.4159 23.4236 23.4136 23.449 23.4055 23.4728L23.8655 24.8207H23.6647L23.5093 24.363H22.9933ZM23.4704 24.2161L23.3279 23.7975C23.2956 23.7023 23.274 23.616 23.2524 23.5319H23.248C23.2264 23.6204 23.2019 23.7082 23.1746 23.7952L23.0321 24.2161H23.4704ZM24.08 23.3655H24.2678V24.663H24.8895V24.8207H24.08V23.3655ZM25.8528 24.1386H25.3688C25.3472 24.1386 25.3265 24.1472 25.3112 24.1625C25.296 24.1777 25.2874 24.1984 25.2873 24.22V24.5815C25.2873 24.6265 25.3238 24.663 25.3688 24.663H25.9177V24.8207H25.181C25.1593 24.8207 25.1386 24.8121 25.1233 24.7968C25.1081 24.7815 25.0995 24.7608 25.0995 24.7392V23.4471C25.0995 23.4021 25.136 23.3655 25.181 23.3655H25.8854V23.5232H25.3688C25.3472 23.5233 25.3265 23.5319 25.3112 23.5472C25.2959 23.5625 25.2873 23.5832 25.2873 23.6048V23.9016C25.2873 23.9466 25.3238 23.983 25.3688 23.983H25.8528V24.1385V24.1386Z" fill="#3178F6"/>
<path d="M25.095 22.6355C25.2705 22.6355 25.4128 22.4933 25.4128 22.3178C25.4128 22.1423 25.2705 22 25.095 22C24.9195 22 24.7772 22.1423 24.7772 22.3178C24.7772 22.4933 24.9195 22.6355 25.095 22.6355Z" stroke="#3178F6" stroke-width="0.7" stroke-miterlimit="10" stroke-linecap="round" stroke-linejoin="round"/>
<path d="M22.4435 22.6355C22.619 22.6355 22.7612 22.4933 22.7612 22.3178C22.7612 22.1423 22.619 22 22.4435 22C22.268 22 22.1257 22.1423 22.1257 22.3178C22.1257 22.4933 22.268 22.6355 22.4435 22.6355Z" stroke="#3178F6" stroke-width="0.7" stroke-miterlimit="10" stroke-linecap="round" stroke-linejoin="round"/>
<path d="M24.7771 22.3172H22.7614M25.4123 22.3172H26.2858C26.4254 22.3172 26.5385 22.4303 26.5385 22.5699V25.6149C26.5385 25.7534 26.4254 25.8664 26.2858 25.8664H21.2515C21.1119 25.8664 21 25.7534 21 25.6149V22.5699C21 22.4303 21.1119 22.3172 21.2515 22.3172H22.125H25.4123Z" stroke="#3178F6" stroke-width="0.1" stroke-miterlimit="10" stroke-linecap="round" stroke-linejoin="round"/>
<path d="M21.6671 24.5918C21.7514 24.6437 21.8744 24.6869 22.0041 24.6869C22.1961 24.6869 22.3083 24.5854 22.3083 24.4386C22.3083 24.3024 22.2307 24.2248 22.0342 24.1494C21.7967 24.0652 21.65 23.9421 21.65 23.7369C21.65 23.5102 21.8377 23.3419 22.1205 23.3419C22.2695 23.3419 22.3775 23.3765 22.4422 23.4132L22.3903 23.5665C22.3054 23.5208 22.2104 23.497 22.114 23.4974C21.9156 23.4974 21.8399 23.616 21.8399 23.7155C21.8399 23.8514 21.9284 23.9182 22.1291 23.9961C22.3753 24.091 22.5005 24.2097 22.5005 24.4235C22.5005 24.6481 22.3343 24.8423 21.9909 24.8423C21.8507 24.8423 21.6974 24.8012 21.6197 24.7495L21.6671 24.5918ZM22.9933 24.363L22.8421 24.8207H22.6479L23.1058 23.473C23.0976 23.4492 23.0953 23.4238 23.099 23.3989C23.1027 23.374 23.1122 23.3504 23.1268 23.3299C23.1415 23.3094 23.1608 23.2927 23.1832 23.2812C23.2055 23.2697 23.2303 23.2637 23.2555 23.2637C23.2806 23.2637 23.3055 23.2696 23.3278 23.2811C23.3502 23.2926 23.3696 23.3093 23.3842 23.3297C23.3989 23.3501 23.4085 23.3738 23.4122 23.3987C23.4159 23.4236 23.4136 23.449 23.4055 23.4728L23.8655 24.8207H23.6647L23.5093 24.363H22.9933ZM23.4704 24.2161L23.3279 23.7975C23.2956 23.7023 23.274 23.616 23.2524 23.5319H23.248C23.2264 23.6204 23.2019 23.7082 23.1746 23.7952L23.0321 24.2161H23.4704ZM24.08 23.3655H24.2678V24.663H24.8895V24.8207H24.08V23.3655ZM25.8528 24.1386H25.3688C25.3472 24.1386 25.3265 24.1472 25.3112 24.1625C25.296 24.1777 25.2874 24.1984 25.2873 24.22V24.5815C25.2873 24.6265 25.3238 24.663 25.3688 24.663H25.9177V24.8207H25.181C25.1593 24.8207 25.1386 24.8121 25.1233 24.7968C25.1081 24.7815 25.0995 24.7608 25.0995 24.7392V23.4471C25.0995 23.4021 25.136 23.3655 25.181 23.3655H25.8854V23.5232H25.3688C25.3472 23.5233 25.3265 23.5319 25.3112 23.5472C25.2959 23.5625 25.2873 23.5832 25.2873 23.6048V23.9016C25.2873 23.9466 25.3238 23.983 25.3688 23.983H25.8528V24.1385V24.1386Z" fill="#3178F6"/>
<path d="M25.095 22.6355C25.2705 22.6355 25.4128 22.4933 25.4128 22.3178C25.4128 22.1423 25.2705 22 25.095 22C24.9195 22 24.7772 22.1423 24.7772 22.3178C24.7772 22.4933 24.9195 22.6355 25.095 22.6355Z" stroke="#3178F6" stroke-width="0.1" stroke-miterlimit="10" stroke-linecap="round" stroke-linejoin="round"/>
<path d="M22.4435 22.6355C22.619 22.6355 22.7612 22.4933 22.7612 22.3178C22.7612 22.1423 22.619 22 22.4435 22C22.268 22 22.1257 22.1423 22.1257 22.3178C22.1257 22.4933 22.268 22.6355 22.4435 22.6355Z" stroke="#3178F6" stroke-width="0.1" stroke-miterlimit="10" stroke-linecap="round" stroke-linejoin="round"/>
</svg>
