<svg width="36" height="36" viewBox="0 0 36 36" fill="none" xmlns="http://www.w3.org/2000/svg">
<g clip-path="url(#clip0_1191_793)">
<path d="M12 34.2C16.3078 34.2 19.8 30.7078 19.8 26.4C19.8 22.0922 16.3078 18.6 12 18.6C7.69219 18.6 4.20001 22.0922 4.20001 26.4C4.20001 30.7078 7.69219 34.2 12 34.2Z" stroke="#3178F6" stroke-width="1.3" stroke-miterlimit="10"/>
<path d="M8.5164 33.381L10.9164 34.581C11.9652 35.1048 13.1478 35.4 14.4 35.4C18.708 35.4 22.2 31.908 22.2 27.6C22.2 24.5442 20.4426 21.8988 17.8836 20.619L15.4836 19.419" stroke="#3178F6" stroke-width="1.3" stroke-miterlimit="10"/>
<path d="M22.1784 28.188L19.7868 26.859" stroke="#3178F6" stroke-width="1.3" stroke-miterlimit="10"/>
<path d="M21.2754 31.2864L18.93 29.9832" stroke="#3178F6" stroke-width="1.3" stroke-miterlimit="10"/>
<path d="M19.2114 33.7398L16.9098 32.4612" stroke="#3178F6" stroke-width="1.3" stroke-miterlimit="10"/>
<path d="M24.4146 23.508L27.2496 32.8824C27.8592 33.0858 28.2618 33.2196 28.2618 33.2196C28.9446 33.447 29.4042 34.089 29.4 34.8096C29.3982 35.1366 29.1264 35.4 28.8 35.4H25.8C25.2588 35.4 24.801 35.04 24.651 34.548L21.4878 24.0888C21.1644 23.0184 21 21.9066 21 20.7888C21 19.734 21.1296 18.6828 21.3852 17.6592L22.485 13.2594C22.6704 12.519 23.3352 12 24.0978 12C24.6822 12 25.224 12.3072 25.5246 12.8088L28.0974 17.1084L30.1548 16.2858C30.2982 16.2246 30.4344 16.2 30.6 16.2C31.263 16.2 31.8 16.737 31.8 17.4C31.8 17.9052 31.4874 18.3378 31.0452 18.5148L28.0452 19.7148C27.9078 19.7694 27.7572 19.8 27.6 19.8C27.1626 19.8 26.7798 19.5666 26.5704 19.2168L24.4632 15.705" stroke="#3178F6" stroke-width="1.3" stroke-miterlimit="10"/>
<path d="M30.1548 16.2852L34.0206 14.739" stroke="#3178F6" stroke-width="1.3" stroke-miterlimit="10"/>
<path d="M25.968 18.2124L25.3254 20.043C25.2426 20.2794 25.2 20.5278 25.2 20.7786C25.2 21.309 25.3896 21.8214 25.7346 22.224L28.257 25.167C28.6074 25.5756 28.8 26.0958 28.8 26.634C28.8 26.8764 28.761 27.117 28.6842 27.3468L27.054 32.2368" stroke="#3178F6" stroke-width="1.3" stroke-miterlimit="10"/>
<path d="M25.815 6.01496C26.1948 5.63516 26.7198 5.39996 27.3 5.39996C28.4598 5.39996 29.4 6.34016 29.4 7.49996C29.4 8.07956 29.1648 8.60456 28.785 8.98496L28.185 9.58496C27.8052 9.96476 27.2802 10.2 26.7 10.2C25.5402 10.2 24.6 9.25976 24.6 8.09996C24.6 7.52036 24.8352 6.99536 25.215 6.61496L25.815 6.01496Z" stroke="#3178F6" stroke-width="1.3" stroke-miterlimit="10"/>
<path d="M5.40001 8.39996V11.4" stroke="#3178F6" stroke-width="1.3" stroke-miterlimit="10"/>
<path d="M5.40001 13.8V16.8" stroke="#3178F6" stroke-width="1.3" stroke-miterlimit="10"/>
<path d="M9.60001 12.6H6.60001" stroke="#3178F6" stroke-width="1.3" stroke-miterlimit="10"/>
<path d="M4.20001 12.6H1.20001" stroke="#3178F6" stroke-width="1.3" stroke-miterlimit="10"/>
<path d="M16.2 1.79999V4.79999" stroke="#3178F6" stroke-width="1.3" stroke-miterlimit="10"/>
<path d="M16.2 7.20001V10.2" stroke="#3178F6" stroke-width="1.3" stroke-miterlimit="10"/>
<path d="M20.4 6H17.4" stroke="#3178F6" stroke-width="1.3" stroke-miterlimit="10"/>
<path d="M15 6H12" stroke="#3178F6" stroke-width="1.3" stroke-miterlimit="10"/>
<path d="M22.2 35.4H34.8" stroke="#3178F6" stroke-width="1.3" stroke-miterlimit="10"/>
<path d="M14.4 35.4H3" stroke="#3178F6" stroke-width="1.3" stroke-miterlimit="10"/>
<path d="M1.80001 35.4H0.600006" stroke="#3178F6" stroke-width="1.3" stroke-miterlimit="10"/>
<path d="M11.5 22.0312C10.6162 22.0312 9.75218 22.2933 9.0173 22.7844C8.28242 23.2754 7.70964 23.9733 7.37142 24.7899C7.03319 25.6064 6.94469 26.505 7.11712 27.3718C7.28955 28.2387 7.71515 29.0349 8.34012 29.6599C8.96508 30.2848 9.76134 30.7105 10.6282 30.8829C11.495 31.0553 12.3936 30.9668 13.2101 30.6286C14.0267 30.2904 14.7246 29.7176 15.2156 28.9827C15.7067 28.2478 15.9688 27.3838 15.9688 26.5C15.9674 25.3152 15.4961 24.1794 14.6584 23.3416C13.8206 22.5039 12.6848 22.0326 11.5 22.0312ZM11.5 30.2812C10.7521 30.2812 10.0211 30.0595 9.39925 29.644C8.77743 29.2285 8.29278 28.638 8.00658 27.947C7.72039 27.2561 7.64551 26.4958 7.79141 25.7623C7.93731 25.0288 8.29744 24.3551 8.82625 23.8263C9.35507 23.2974 10.0288 22.9373 10.7623 22.7914C11.4958 22.6455 12.2561 22.7204 12.947 23.0066C13.638 23.2928 14.2285 23.7774 14.644 24.3993C15.0595 25.0211 15.2813 25.7521 15.2813 26.5C15.2802 27.5025 14.8814 28.4637 14.1725 29.1725C13.4637 29.8814 12.5025 30.2802 11.5 30.2812Z" fill="#3178F6"/>
<path d="M10.125 26.1563C10.329 26.1563 10.5284 26.0958 10.6979 25.9825C10.8675 25.8692 10.9997 25.7081 11.0778 25.5197C11.1558 25.3312 11.1762 25.1239 11.1364 24.9239C11.0967 24.7238 10.9984 24.5401 10.8542 24.3958C10.71 24.2516 10.5262 24.1534 10.3262 24.1136C10.1262 24.0738 9.9188 24.0942 9.73037 24.1723C9.54193 24.2503 9.38087 24.3825 9.26756 24.5521C9.15424 24.7217 9.09376 24.9211 9.09376 25.125C9.09376 25.3985 9.20241 25.6608 9.39581 25.8542C9.5892 26.0476 9.85151 26.1563 10.125 26.1563ZM10.125 24.7813C10.193 24.7813 10.2595 24.8014 10.316 24.8392C10.3725 24.877 10.4166 24.9307 10.4426 24.9935C10.4686 25.0563 10.4754 25.1254 10.4622 25.1921C10.4489 25.2588 10.4162 25.32 10.3681 25.3681C10.32 25.4162 10.2588 25.4489 10.1921 25.4622C10.1254 25.4754 10.0563 25.4686 9.99346 25.4426C9.93065 25.4166 9.87696 25.3725 9.83919 25.316C9.80142 25.2595 9.78126 25.193 9.78126 25.125C9.78126 25.0339 9.81748 24.9464 9.88194 24.882C9.94641 24.8175 10.0338 24.7813 10.125 24.7813ZM12.875 26.8438C12.671 26.8438 12.4717 26.9043 12.3021 27.0176C12.1325 27.1309 12.0003 27.292 11.9223 27.4804C11.8442 27.6688 11.8238 27.8762 11.8636 28.0762C11.9034 28.2763 12.0016 28.46 12.1458 28.6042C12.29 28.7485 12.4738 28.8467 12.6738 28.8865C12.8739 28.9263 13.0812 28.9058 13.2697 28.8278C13.4581 28.7497 13.6191 28.6176 13.7325 28.448C13.8458 28.2784 13.9063 28.079 13.9063 27.875C13.9063 27.6015 13.7976 27.3392 13.6042 27.1458C13.4108 26.9524 13.1485 26.8438 12.875 26.8438ZM12.875 28.2188C12.807 28.2188 12.7406 28.1986 12.684 28.1609C12.6275 28.1231 12.5834 28.0694 12.5574 28.0066C12.5314 27.9438 12.5246 27.8747 12.5379 27.808C12.5511 27.7413 12.5839 27.68 12.6319 27.632C12.68 27.5839 12.7413 27.5512 12.8079 27.5379C12.8746 27.5246 12.9437 27.5314 13.0066 27.5575C13.0694 27.5835 13.1231 27.6275 13.1608 27.6841C13.1986 27.7406 13.2188 27.807 13.2188 27.875C13.2188 27.9662 13.1825 28.0536 13.1181 28.1181C13.0536 28.1826 12.9662 28.2188 12.875 28.2188ZM13.7956 23.8415C13.7286 23.7796 13.6398 23.7469 13.5487 23.7505C13.4576 23.7541 13.3717 23.7938 13.3099 23.8607L9.18485 28.3295C9.123 28.3965 9.09029 28.4853 9.09393 28.5764C9.09758 28.6676 9.13727 28.7535 9.20428 28.8154C9.27128 28.8772 9.36012 28.9099 9.45124 28.9063C9.54237 28.9026 9.62831 28.863 9.69017 28.7959L13.8152 24.3272C13.877 24.2602 13.9096 24.1714 13.906 24.0803C13.9023 23.9892 13.8626 23.9033 13.7956 23.8415Z" fill="#3178F6"/>
</g>
<defs>
<clipPath id="clip0_1191_793">
<rect width="36" height="36" fill="white"/>
</clipPath>
</defs>
</svg>
