<svg width="36" height="36" viewBox="0 0 36 36" fill="none" xmlns="http://www.w3.org/2000/svg">
<path d="M35.1464 24.7918C34.8389 24.7918 34.5897 25.041 34.5897 25.3485V29.765H30.0247C29.7172 29.765 29.468 30.0142 29.468 30.3217V34.8867H12.2474V29.613C13.2266 29.8122 14.2302 29.9135 15.2536 29.9135C18.9721 29.9135 22.4554 28.5473 25.1296 26.1972C25.1527 26.2001 25.1761 26.2022 25.2 26.2022H29.6536C29.9612 26.2022 30.2103 25.953 30.2103 25.6454C30.2103 25.3379 29.9612 25.0888 29.6536 25.0888H26.2633C26.6342 24.6853 26.9841 24.2603 27.311 23.8146C27.3484 23.8225 27.3871 23.8269 27.4268 23.8269H29.6536C29.9612 23.8269 30.2103 23.5777 30.2103 23.2701C30.2103 22.9626 29.9612 22.7134 29.6536 22.7134H28.0463C28.4188 22.0979 28.7507 21.4505 29.0367 20.7737C29.0941 20.6376 29.0953 20.4844 29.0396 20.3475C28.9841 20.2106 28.8764 20.1016 28.7404 20.0441L16.066 14.6952L22.1034 4.82463H23.2004L17.7478 13.7393C17.6632 13.8776 17.643 14.046 17.6927 14.2003C17.7425 14.3546 17.8568 14.4797 18.0063 14.5427L31.2766 20.1431C31.3473 20.1728 31.4206 20.187 31.4928 20.187C31.7099 20.187 31.916 20.0592 32.0058 19.8468C32.7846 18.0039 33.1794 16.0469 33.1794 14.0298C33.1794 11.4242 32.4991 8.8586 31.2118 6.61015C30.8543 5.9857 30.4508 5.38973 30.0085 4.82463H34.5898V22.8246C34.5898 23.1322 34.8389 23.3813 35.1465 23.3813C35.454 23.3813 35.7032 23.1321 35.7032 22.8246V4.26804C35.7032 3.96049 35.454 3.7113 35.1465 3.7113H29.2083C29.1585 3.7113 29.1105 3.71841 29.0645 3.73078C28.1655 2.78487 27.145 1.95434 26.0281 1.2697C25.9021 1.19257 25.7507 1.16852 25.607 1.20312C25.4633 1.23764 25.3394 1.32792 25.2622 1.45392L23.8815 3.7113H22.7845L23.2431 2.96156C23.4033 2.69944 23.321 2.35702 23.0591 2.19642C20.7146 0.759516 18.0156 0 15.2536 0C7.00643 0 0.29686 6.70957 0.29686 14.9567C0.29686 19.5678 2.37628 23.8515 6.00181 26.7093C6.24326 26.8997 6.59335 26.8583 6.78361 26.6168C6.97395 26.3753 6.93253 26.0253 6.69108 25.8351C3.33506 23.1896 1.41026 19.2246 1.41026 14.9567C1.41026 7.32347 7.6204 1.1134 15.2535 1.1134C17.6236 1.1134 19.9431 1.71738 21.9971 2.86474L14.7786 14.6663C14.6941 14.8046 14.6739 14.9729 14.7236 15.1272C14.7732 15.2816 14.8877 15.4067 15.0371 15.4697L27.7841 20.8492C25.5046 25.6975 20.6459 28.8 15.2536 28.8C13.025 28.8 10.8975 28.2868 8.93011 27.2747C8.65667 27.1339 8.321 27.2417 8.18037 27.515C8.03967 27.7884 8.14732 28.1241 8.4207 28.2647C9.29714 28.7156 10.2033 29.0733 11.134 29.3399V35.4432C11.134 35.7507 11.3832 35.9999 11.6907 35.9999H30.0247C30.2241 35.9999 30.3639 35.8913 30.4951 35.7602C30.6099 35.6453 35.532 30.7314 35.5856 30.6629C35.6612 30.566 35.7032 30.4445 35.7032 30.3215V25.3483C35.7032 25.041 35.454 24.7918 35.1464 24.7918ZM25.9155 2.51944C29.7776 5.09899 32.066 9.36112 32.066 14.0299C32.066 15.7097 31.7704 17.3442 31.1865 18.8967L19.035 13.7685L25.9155 2.51944ZM30.5814 34.0994V30.8784H33.8025L30.5814 34.0994Z" fill="#3178F6"/>
<path d="M27.7237 29.8392H19.1134C18.8059 29.8392 18.5567 30.0884 18.5567 30.3959C18.5567 30.7035 18.8059 30.9526 19.1134 30.9526H27.7237C28.0313 30.9526 28.2805 30.7035 28.2805 30.3959C28.2805 30.0884 28.0312 29.8392 27.7237 29.8392Z" fill="#3178F6"/>
<path d="M27.7237 32.2145H19.1134C18.8059 32.2145 18.5567 32.4637 18.5567 32.7712C18.5567 33.0788 18.8059 33.3279 19.1134 33.3279H27.7237C28.0313 33.3279 28.2805 33.0788 28.2805 32.7712C28.2805 32.4637 28.0312 32.2145 27.7237 32.2145Z" fill="#3178F6"/>
<path d="M24.9031 8.16498C23.9413 8.16498 23.1588 8.94749 23.1588 9.90929C23.1588 10.8711 23.9413 11.6536 24.9031 11.6536C25.8649 11.6536 26.6474 10.8711 26.6474 9.90929C26.6474 8.94749 25.8649 8.16498 24.9031 8.16498ZM24.9031 10.5402C24.5552 10.5402 24.2722 10.2572 24.2722 9.90929C24.2722 9.56138 24.5552 9.27838 24.9031 9.27838C25.251 9.27838 25.534 9.56138 25.534 9.90929C25.534 10.2572 25.251 10.5402 24.9031 10.5402Z" fill="#3178F6"/>
<path d="M28.892 12.1539C27.9302 12.1539 27.1477 12.9364 27.1477 13.8982C27.1477 14.86 27.9302 15.6425 28.892 15.6425C29.8538 15.6425 30.6364 14.86 30.6364 13.8982C30.6364 12.9364 29.8538 12.1539 28.892 12.1539ZM28.892 14.5292C28.5441 14.5292 28.2611 14.2462 28.2611 13.8983C28.2611 13.5503 28.5441 13.2673 28.892 13.2673C29.2399 13.2673 29.523 13.5503 29.523 13.8983C29.523 14.2462 29.2399 14.5292 28.892 14.5292Z" fill="#3178F6"/>
<path d="M30.2525 8.54887C30.035 8.33153 29.6826 8.33153 29.4652 8.54887L23.6756 14.3385C23.4581 14.556 23.4581 14.9084 23.6755 15.1259C23.7843 15.2346 23.9267 15.2889 24.0692 15.2889C24.2116 15.2889 24.3541 15.2345 24.4628 15.1259L30.2525 9.33623C30.4699 9.11868 30.4699 8.76627 30.2525 8.54887Z" fill="#3178F6"/>
<path d="M9.76078 12.8413C10.0683 12.8413 10.3175 12.5921 10.3175 12.2845C10.3175 11.977 10.0683 11.7279 9.76078 11.7279H8.23915V11.097C8.23915 10.7894 7.98989 10.5402 7.68241 10.5402C7.37494 10.5402 7.12575 10.7894 7.12575 11.097V11.7279H6.64327C5.92706 11.7279 5.34431 12.3106 5.34431 13.0268V14.2145C5.34431 14.9307 5.92706 15.5134 6.64327 15.5134H7.12575V17.0722H5.60412C5.29664 17.0722 5.04738 17.3214 5.04738 17.6289C5.04738 17.9365 5.29664 18.1856 5.60412 18.1856H7.12575V18.8165C7.12575 19.124 7.37501 19.3732 7.68241 19.3732C7.98989 19.3732 8.23915 19.124 8.23915 18.8165V18.1856H8.72163C9.43784 18.1856 10.0206 17.6028 10.0206 16.8866V15.699C10.0206 14.9828 9.43784 14.4 8.72163 14.4H8.23915V12.8413H9.76078ZM7.12575 14.4H6.64327C6.54096 14.4 6.45771 14.3168 6.45771 14.2145V13.0268C6.45771 12.9244 6.54096 12.8413 6.64327 12.8413H7.12575V14.4ZM8.72163 15.5134C8.82394 15.5134 8.90719 15.5966 8.90719 15.699V16.8866C8.90719 16.989 8.82394 17.0722 8.72163 17.0722H8.23915V15.5134H8.72163Z" fill="#3178F6"/>
<path d="M16.8865 21.6C17.194 21.6 17.4432 21.3508 17.4432 21.0433C17.4432 20.7357 17.1939 20.4865 16.8865 20.4865H15.3649V19.8556C15.3649 19.5481 15.1156 19.2989 14.8082 19.2989C14.5007 19.2989 14.2514 19.5481 14.2514 19.8556V20.4865H13.7689C13.0527 20.4865 12.47 21.0693 12.47 21.7855V22.9731C12.47 23.6893 13.0527 24.2721 13.7689 24.2721H14.2514V25.8309H12.7298C12.4223 25.8309 12.1731 26.08 12.1731 26.3875C12.1731 26.6951 12.4223 26.9442 12.7298 26.9442H14.2514V27.5752C14.2514 27.8827 14.5007 28.1319 14.8082 28.1319C15.1156 28.1319 15.3649 27.8827 15.3649 27.5752V26.9442H15.8474C16.5636 26.9442 17.1463 26.3615 17.1463 25.6453V24.4576C17.1463 23.7414 16.5636 23.1587 15.8474 23.1587H15.3649V21.6H16.8865ZM14.2515 23.1588H13.769C13.6667 23.1588 13.5835 23.0756 13.5835 22.9732V21.7856C13.5835 21.6832 13.6667 21.6 13.769 21.6H14.2515V23.1588ZM15.8474 24.2722C15.9497 24.2722 16.0329 24.3553 16.0329 24.4577V25.6454C16.0329 25.7477 15.9496 25.8309 15.8474 25.8309H15.3649V24.2722H15.8474Z" fill="#3178F6"/>
<path d="M16.8865 4.67629C17.194 4.67629 17.4432 4.4271 17.4432 4.11963C17.4432 3.81208 17.1939 3.56289 16.8865 3.56289H15.3649V2.93198C15.3649 2.62443 15.1156 2.37524 14.8082 2.37524C14.5007 2.37524 14.2514 2.62443 14.2514 2.93198V3.56289H13.7689C13.0527 3.56289 12.47 4.14564 12.47 4.86185V6.04949C12.47 6.7657 13.0527 7.34845 13.7689 7.34845H14.2514V8.9072H12.7298C12.4223 8.9072 12.1731 9.15639 12.1731 9.46394C12.1731 9.77149 12.4223 10.0206 12.7298 10.0206H14.2514V10.6515C14.2514 10.9591 14.5007 11.2083 14.8082 11.2083C15.1156 11.2083 15.3649 10.9591 15.3649 10.6515V10.0206H15.8474C16.5636 10.0206 17.1463 9.43785 17.1463 8.72165V7.534C17.1463 6.8178 16.5636 6.23505 15.8474 6.23505H15.3649V4.67629H16.8865ZM14.2515 6.23505H13.769C13.6667 6.23505 13.5835 6.15187 13.5835 6.04949V4.86185C13.5835 4.75947 13.6667 4.67629 13.769 4.67629H14.2515V6.23505ZM15.8474 7.34845C15.9497 7.34845 16.0329 7.43163 16.0329 7.534V8.72165C16.0329 8.82402 15.9496 8.9072 15.8474 8.9072H15.3649V7.34845H15.8474Z" fill="#3178F6"/>
</svg>
