<svg width="36" height="36" viewBox="0 0 36 36" fill="none" xmlns="http://www.w3.org/2000/svg">
<path d="M30.0251 0H5.97495C5.00105 0 4.20877 0.792281 4.20877 1.76618V34.2338C4.20877 35.2077 5.00105 36 5.97495 36H24.6138C24.7633 36 24.9067 35.9407 25.0123 35.8349L31.6262 29.2211C31.7319 29.1154 31.7912 28.9721 31.7912 28.8226V1.76618C31.7912 0.792281 30.999 0 30.0251 0ZM25.1774 34.0755V30.0251C25.1774 29.6728 25.464 29.3862 25.8163 29.3862H29.8668L25.1774 34.0755ZM30.6639 28.2589H25.8163C24.8424 28.2589 24.0501 29.0512 24.0501 30.0251V34.8727H5.97495C5.62268 34.8727 5.33609 34.5861 5.33609 34.2338V1.76618C5.33609 1.41391 5.62268 1.12732 5.97495 1.12732H30.0251C30.3773 1.12732 30.6639 1.41391 30.6639 1.76618V28.2589Z" fill="#3178F6"/>
<path d="M14.3925 4.81H9.58246C9.27119 4.81 9.01877 5.06235 9.01877 5.37369C9.01877 5.68504 9.27112 5.93739 9.58246 5.93739H11.4238V11.3863C11.4238 11.6975 11.6762 11.95 11.9875 11.95C12.2988 11.95 12.5512 11.6976 12.5512 11.3863V5.93739H14.3925C14.7038 5.93739 14.9562 5.68504 14.9562 5.37369C14.9562 5.06235 14.7037 4.81 14.3925 4.81Z" fill="#3178F6"/>
<path d="M20.3437 11.2243L18.6684 5.64018C18.5194 5.14363 18.071 4.81 17.5526 4.81H17.2448C16.7264 4.81 16.278 5.14363 16.129 5.64018L14.4537 11.2243C14.3643 11.5224 14.5335 11.8367 14.8317 11.9261C15.1299 12.0158 15.4441 11.8464 15.5335 11.5483L15.7737 10.7474H19.0235L19.2637 11.5482C19.337 11.7924 19.5609 11.95 19.8034 11.95C19.857 11.95 19.9116 11.9423 19.9657 11.9261C20.2639 11.8367 20.4332 11.5224 20.3437 11.2243ZM16.112 9.62L17.2088 5.96411C17.2135 5.94836 17.2283 5.93732 17.2448 5.93732H17.5526C17.5691 5.93732 17.5839 5.94829 17.5886 5.96411L18.6853 9.62H16.112Z" fill="#3178F6"/>
<path d="M26.278 11.063L24.3998 8.37999L26.278 5.697C26.4565 5.44198 26.3945 5.09049 26.1395 4.91196C25.8845 4.73344 25.533 4.79538 25.3545 5.05048L23.7118 7.39709L22.0692 5.05048C21.8907 4.79538 21.5391 4.73337 21.2842 4.91196C21.0291 5.09049 20.967 5.44198 21.1456 5.697L23.0238 8.37999L21.1458 11.063C20.9673 11.318 21.0293 11.6695 21.2843 11.848C21.3827 11.9169 21.4954 11.9499 21.607 11.9499C21.7847 11.9499 21.9596 11.8661 22.0693 11.7094L23.7119 9.36281L25.3545 11.7094C25.4642 11.8661 25.6391 11.9499 25.8168 11.9499C25.9284 11.9499 26.0412 11.9168 26.1395 11.848C26.3945 11.6695 26.4566 11.318 26.278 11.063Z" fill="#3178F6"/>
<path d="M9.58246 15.0313H8.37998C8.06871 15.0313 7.81628 15.2837 7.81628 15.595C7.81628 15.9064 8.06864 16.1587 8.37998 16.1587H9.58246C9.89374 16.1587 10.1462 15.9064 10.1462 15.595C10.1462 15.2837 9.89374 15.0313 9.58246 15.0313Z" fill="#3178F6"/>
<path d="M9.58246 17.4363H8.37998C8.06871 17.4363 7.81628 17.6887 7.81628 18C7.81628 18.3113 8.06864 18.5637 8.37998 18.5637H9.58246C9.89374 18.5637 10.1462 18.3113 10.1462 18C10.1462 17.6887 9.89374 17.4363 9.58246 17.4363Z" fill="#3178F6"/>
<path d="M9.58246 19.8413H8.37998C8.06871 19.8413 7.81628 20.0937 7.81628 20.405C7.81628 20.7164 8.06864 20.9687 8.37998 20.9687H9.58246C9.89374 20.9687 10.1462 20.7164 10.1462 20.405C10.1462 20.0937 9.89374 19.8413 9.58246 19.8413Z" fill="#3178F6"/>
<path d="M27.62 15.0313H26.4175C26.1063 15.0313 25.8538 15.2837 25.8538 15.595C25.8538 15.9064 26.1062 16.1587 26.4175 16.1587H27.62C27.9313 16.1587 28.1837 15.9064 28.1837 15.595C28.1837 15.2837 27.9314 15.0313 27.62 15.0313Z" fill="#3178F6"/>
<path d="M27.62 17.4363H26.4175C26.1063 17.4363 25.8538 17.6887 25.8538 18C25.8538 18.3113 26.1062 18.5637 26.4175 18.5637H27.62C27.9313 18.5637 28.1837 18.3113 28.1837 18C28.1837 17.6887 27.9314 17.4363 27.62 17.4363Z" fill="#3178F6"/>
<path d="M27.62 19.8413H26.4175C26.1063 19.8413 25.8538 20.0937 25.8538 20.405C25.8538 20.7164 26.1062 20.9687 26.4175 20.9687H27.62C27.9313 20.9687 28.1837 20.7164 28.1837 20.405C28.1837 20.0937 27.9314 19.8413 27.62 19.8413Z" fill="#3178F6"/>
<path d="M19.2025 15.0313H11.9875C11.6762 15.0313 11.4238 15.2837 11.4238 15.595C11.4238 15.9064 11.6762 16.1587 11.9875 16.1587H19.2026C19.5138 16.1587 19.7663 15.9064 19.7663 15.595C19.7663 15.2837 19.5138 15.0313 19.2025 15.0313Z" fill="#3178F6"/>
<path d="M16.7975 17.4363H11.9875C11.6762 17.4363 11.4238 17.6887 11.4238 18C11.4238 18.3113 11.6762 18.5637 11.9875 18.5637H16.7975C17.1088 18.5637 17.3612 18.3113 17.3612 18C17.3612 17.6887 17.1088 17.4363 16.7975 17.4363Z" fill="#3178F6"/>
<path d="M19.2025 19.8413H11.9875C11.6762 19.8413 11.4238 20.0937 11.4238 20.405C11.4238 20.7164 11.6762 20.9687 11.9875 20.9687H19.2026C19.5138 20.9687 19.7663 20.7164 19.7663 20.405C19.7663 20.0937 19.5138 19.8413 19.2025 19.8413Z" fill="#3178F6"/>
<path d="M10.7474 27.2236V25.2648C11.1627 25.4009 11.4238 25.6749 11.4238 25.929C11.4238 26.2403 11.6762 26.4927 11.9875 26.4927C12.2988 26.4927 12.5512 26.2403 12.5512 25.929C12.5512 25.0301 11.7941 24.2979 10.7475 24.102V24.0125C10.7475 23.7012 10.4951 23.4488 10.1838 23.4488C9.87243 23.4488 9.62008 23.7011 9.62008 24.0125V24.102C8.57348 24.2979 7.81635 25.0301 7.81635 25.929C7.81635 27.1849 8.81936 27.7128 9.62008 28.0166V29.9754C9.20475 29.8393 8.94367 29.5652 8.94367 29.3112C8.94367 28.9999 8.69132 28.7475 8.37998 28.7475C8.06864 28.7475 7.81628 28.9998 7.81628 29.3112C7.81628 30.21 8.57341 30.9423 9.62001 31.1382V31.2277C9.62001 31.539 9.87236 31.7914 10.1837 31.7914C10.4951 31.7914 10.7474 31.539 10.7474 31.2277V31.1382C11.794 30.9423 12.5511 30.21 12.5511 29.3112C12.5511 28.0552 11.5481 27.5273 10.7474 27.2236ZM9.62001 26.7867C9.05807 26.5113 8.9436 26.2708 8.9436 25.929C8.9436 25.6749 9.20467 25.4009 9.62001 25.2648V26.7867ZM10.7474 29.9753V28.4534C11.3093 28.7287 11.4238 28.9692 11.4238 29.311C11.4238 29.5651 11.1627 29.8392 10.7474 29.9753Z" fill="#3178F6"/>
<path d="M18.6012 24.6513H14.3925C14.0812 24.6513 13.8288 24.9037 13.8288 25.215C13.8288 25.5264 14.0811 25.7787 14.3925 25.7787H18.6012C18.9125 25.7787 19.1649 25.5264 19.1649 25.215C19.1649 24.9037 18.9126 24.6513 18.6012 24.6513Z" fill="#3178F6"/>
<path d="M16.7975 29.4614H14.3925C14.0812 29.4614 13.8288 29.7137 13.8288 30.0251C13.8288 30.3363 14.0811 30.5888 14.3925 30.5888H16.7975C17.1088 30.5888 17.3612 30.3364 17.3612 30.0251C17.3611 29.7138 17.1088 29.4614 16.7975 29.4614Z" fill="#3178F6"/>
<path d="M20.405 29.4614H19.2026C18.8913 29.4614 18.6389 29.7137 18.6389 30.0251C18.6389 30.3363 18.8912 30.5888 19.2026 30.5888H20.405C20.7163 30.5888 20.9687 30.3364 20.9687 30.0251C20.9687 29.7138 20.7163 29.4614 20.405 29.4614Z" fill="#3178F6"/>
<path d="M22.2088 27.0564H14.3925C14.0812 27.0564 13.8288 27.3087 13.8288 27.6201C13.8288 27.9314 14.0811 28.1838 14.3925 28.1838H22.2088C22.52 28.1838 22.7725 27.9314 22.7725 27.6201C22.7725 27.3087 22.52 27.0564 22.2088 27.0564Z" fill="#3178F6"/>
<path d="M19.2025 18.5637C19.5138 18.5637 19.7662 18.3113 19.7662 18C19.7662 17.6887 19.5138 17.4363 19.2025 17.4363C18.8912 17.4363 18.6388 17.6887 18.6388 18C18.6388 18.3113 18.8912 18.5637 19.2025 18.5637Z" fill="#3178F6"/>
<path d="M21.6075 18.5637C21.9188 18.5637 22.1712 18.3113 22.1712 18C22.1712 17.6887 21.9188 17.4363 21.6075 17.4363C21.2962 17.4363 21.0438 17.6887 21.0438 18C21.0438 18.3113 21.2962 18.5637 21.6075 18.5637Z" fill="#3178F6"/>
<path d="M24.0125 18.5637C24.3238 18.5637 24.5762 18.3113 24.5762 18C24.5762 17.6887 24.3238 17.4363 24.0125 17.4363C23.7012 17.4363 23.4488 17.6887 23.4488 18C23.4488 18.3113 23.7012 18.5637 24.0125 18.5637Z" fill="#3178F6"/>
<path d="M21.6075 16.1586C21.9188 16.1586 22.1712 15.9063 22.1712 15.5949C22.1712 15.2836 21.9188 15.0312 21.6075 15.0312C21.2962 15.0312 21.0438 15.2836 21.0438 15.5949C21.0438 15.9063 21.2962 16.1586 21.6075 16.1586Z" fill="#3178F6"/>
<path d="M24.0125 16.1586C24.3238 16.1586 24.5762 15.9063 24.5762 15.5949C24.5762 15.2836 24.3238 15.0312 24.0125 15.0312C23.7012 15.0312 23.4488 15.2836 23.4488 15.5949C23.4488 15.9063 23.7012 16.1586 24.0125 16.1586Z" fill="#3178F6"/>
<path d="M21.6075 20.9687C21.9188 20.9687 22.1712 20.7164 22.1712 20.405C22.1712 20.0937 21.9188 19.8413 21.6075 19.8413C21.2962 19.8413 21.0438 20.0937 21.0438 20.405C21.0438 20.7164 21.2962 20.9687 21.6075 20.9687Z" fill="#3178F6"/>
<path d="M24.0125 20.9687C24.3238 20.9687 24.5762 20.7164 24.5762 20.405C24.5762 20.0937 24.3238 19.8413 24.0125 19.8413C23.7012 19.8413 23.4488 20.0937 23.4488 20.405C23.4488 20.7164 23.7012 20.9687 24.0125 20.9687Z" fill="#3178F6"/>
</svg>
