<svg width="36" height="36" viewBox="0 0 36 36" fill="none" xmlns="http://www.w3.org/2000/svg">
<path d="M25.939 12.9305H30.3082C30.6402 12.9305 30.9689 12.8652 31.2756 12.7382C31.5823 12.6112 31.861 12.425 32.0958 12.1903C32.3305 11.9556 32.5167 11.6769 32.6437 11.3702C32.7707 11.0634 32.836 10.7347 32.8359 10.4027C32.8366 9.83157 32.6816 9.271 32.3878 8.78122C32.0939 8.29143 31.6722 7.89091 31.168 7.62266L29.956 6.97668C29.9563 6.96299 29.9573 6.94933 29.9573 6.93563V6.36986C30.3361 6.0857 30.6435 5.71728 30.8552 5.29377C31.067 4.87026 31.1772 4.40327 31.1773 3.92978V3.05372C31.1769 2.24408 30.855 1.46773 30.2823 0.89536C29.7097 0.322994 28.9332 0.00146484 28.1236 0.00146484C27.3139 0.00146484 26.5374 0.322994 25.9648 0.89536C25.3921 1.46773 25.0702 2.24408 25.0698 3.05372V3.92978C25.07 4.41264 25.1847 4.88857 25.4046 5.31845C25.6246 5.74832 25.9434 6.11986 26.3348 6.40252V6.93563C26.3348 6.94163 26.3353 6.9476 26.3354 6.9536L25.0792 7.62266C24.5754 7.89142 24.1541 8.29206 23.8603 8.78173C23.5665 9.2714 23.4113 9.8317 23.4113 10.4027C23.412 11.0729 23.6786 11.7154 24.1525 12.1893C24.6263 12.6632 25.2688 12.9297 25.939 12.9305ZM26.1245 3.92978V3.05372C26.1245 2.53534 26.3258 2.0372 26.686 1.66445C27.0463 1.29169 27.5372 1.07347 28.0553 1.05584C28.5734 1.03821 29.0781 1.22256 29.4628 1.56996C29.8476 1.91737 30.0823 2.40067 30.1175 2.91786C29.6109 3.05634 29.0774 3.06282 28.5676 2.93668C28.2815 2.86345 28.0078 2.74798 27.7557 2.59408C27.6965 2.5581 27.6308 2.53413 27.5624 2.52353C27.494 2.51293 27.4241 2.51592 27.3568 2.53232C27.2896 2.54872 27.2262 2.57821 27.1703 2.61911C27.1144 2.66001 27.0671 2.71151 27.0311 2.77068C26.9952 2.82985 26.9712 2.89553 26.9606 2.96397C26.95 3.0324 26.953 3.10225 26.9694 3.16953C26.9858 3.23681 27.0153 3.3002 27.0562 3.35609C27.0971 3.41197 27.1486 3.45925 27.2077 3.49523C27.5493 3.70355 27.92 3.85979 28.3077 3.95882C28.6304 4.04094 28.9621 4.08238 29.2951 4.08218C29.5724 4.08166 29.849 4.05377 30.1208 3.9989C30.1028 4.52276 29.8797 5.01856 29.4996 5.37949C29.1195 5.74042 28.6128 5.93759 28.0887 5.92852C27.5646 5.91946 27.0651 5.70488 26.6977 5.33102C26.3303 4.95716 26.1244 4.45394 26.1245 3.92978H26.1245ZM28.9027 6.8824V6.93563C28.9027 7.13629 28.823 7.32872 28.6811 7.4706C28.5392 7.61249 28.3468 7.6922 28.1461 7.6922C27.9454 7.6922 27.753 7.61249 27.6111 7.4706C27.4692 7.32872 27.3895 7.13629 27.3895 6.93563V6.89372C27.8869 7.01714 28.4072 7.01324 28.9027 6.8824V6.8824ZM24.765 9.32382C24.9601 8.99828 25.2402 8.73198 25.5752 8.55347L26.6628 7.97418C26.8286 8.21134 27.0488 8.40528 27.3051 8.53973C27.5613 8.67417 27.846 8.74519 28.1354 8.74684C28.4247 8.74848 28.7103 8.6807 28.968 8.54917C29.2257 8.41765 29.4482 8.22622 29.6166 7.99096L30.6718 8.55334C31.0072 8.7318 31.2877 8.99824 31.4832 9.32406C31.6786 9.64989 31.7817 10.0228 31.7813 10.4027C31.7813 10.5962 31.7433 10.7878 31.6693 10.9666C31.5953 11.1453 31.4868 11.3077 31.35 11.4445C31.2132 11.5813 31.0508 11.6898 30.872 11.7638C30.6932 11.8378 30.5017 11.8759 30.3082 11.8758H25.939C25.5485 11.8753 25.174 11.72 24.8979 11.4438C24.6217 11.1677 24.4664 10.7933 24.4659 10.4027C24.466 10.0227 24.5694 9.64973 24.765 9.32382ZM3.92645 23.4032C3.93458 23.4077 3.94241 23.4125 3.95086 23.4165C3.95618 23.4191 3.96166 23.4208 3.96702 23.4232C3.97538 23.4269 3.98375 23.4304 3.99222 23.4336C4.00446 23.4383 4.01676 23.4424 4.02914 23.4461C4.03745 23.4486 4.04571 23.4512 4.05408 23.4532C4.06799 23.4567 4.08193 23.4592 4.09592 23.4614C4.10276 23.4625 4.10955 23.464 4.11641 23.4649C4.13732 23.4675 4.15837 23.4689 4.17944 23.469C4.18214 23.469 4.18479 23.4684 4.18749 23.4684C4.20828 23.4682 4.22904 23.4667 4.24966 23.4641C4.25825 23.4629 4.26659 23.4607 4.2751 23.4591C4.28975 23.4564 4.30441 23.4538 4.31877 23.4499C4.32791 23.4474 4.3367 23.4439 4.34569 23.4409C4.35906 23.4365 4.3724 23.4321 4.38539 23.4266C4.39441 23.4228 4.40302 23.4182 4.41183 23.4139C4.42417 23.4078 4.43646 23.4018 4.44834 23.3948C4.45712 23.3896 4.46546 23.3837 4.47395 23.378C4.48505 23.3706 4.49603 23.363 4.50658 23.3547C4.51503 23.348 4.52304 23.3408 4.5311 23.3336C4.54074 23.3249 4.55018 23.3162 4.55923 23.3067C4.56714 23.2985 4.57462 23.2899 4.58203 23.2811C4.59023 23.2714 4.59813 23.2614 4.6057 23.251C4.61261 23.2415 4.61915 23.2317 4.62548 23.2216C4.62894 23.2161 4.63299 23.2112 4.63627 23.2056C4.64111 23.1972 4.64503 23.1885 4.64937 23.18C4.65106 23.1767 4.65325 23.1738 4.65488 23.1704L5.6716 21.0611C5.73222 20.9351 5.74034 20.7902 5.69417 20.6582C5.648 20.5263 5.55131 20.418 5.42537 20.3573C5.29942 20.2966 5.15453 20.2884 5.02254 20.3345C4.89055 20.3806 4.78226 20.4772 4.72148 20.6031L4.25959 21.5614C3.90688 20.2158 3.75457 18.8256 3.80756 17.4355C3.9488 13.6708 5.56582 10.1695 8.36077 7.57659C11.1557 4.98374 14.7685 3.63408 18.5331 3.77477C19.9806 3.82882 21.4113 4.10424 22.7754 4.59143C22.9071 4.63845 23.0521 4.63122 23.1785 4.57133C23.3049 4.51144 23.4023 4.40379 23.4493 4.27207C23.4963 4.14035 23.4891 3.99535 23.4292 3.86896C23.3693 3.74257 23.2617 3.64515 23.13 3.59813C21.6646 3.07474 20.1276 2.77888 18.5727 2.72083C14.5261 2.56874 10.645 4.01894 7.64347 6.80339C4.64197 9.58784 2.90541 13.3497 2.75362 17.396C2.69744 18.873 2.85704 20.3503 3.22737 21.7812L2.41707 21.3124C2.35712 21.2776 2.29091 21.255 2.22222 21.2458C2.15353 21.2367 2.08371 21.2411 2.01675 21.259C1.94979 21.2768 1.887 21.3077 1.83197 21.3498C1.77695 21.3919 1.73076 21.4445 1.69606 21.5045C1.66135 21.5644 1.63881 21.6307 1.62972 21.6994C1.62063 21.7681 1.62517 21.8379 1.64308 21.9048C1.66099 21.9718 1.69192 22.0345 1.7341 22.0895C1.77628 22.1445 1.82888 22.1906 1.8889 22.2253L3.91574 23.3979C3.91924 23.3999 3.92293 23.4013 3.92645 23.4032ZM25.5093 18C25.5093 16.5148 25.0689 15.063 24.2438 13.8281C23.4186 12.5932 22.2458 11.6307 20.8737 11.0623C19.5015 10.494 17.9917 10.3452 16.535 10.635C15.0784 10.9247 13.7403 11.6399 12.6901 12.6901C11.6399 13.7403 10.9247 15.0783 10.635 16.535C10.3453 17.9917 10.494 19.5015 11.0623 20.8737C11.6307 22.2458 12.5932 23.4186 13.8281 24.2437C15.063 25.0689 16.5148 25.5093 18 25.5093C19.9909 25.507 21.8996 24.7152 23.3074 23.3074C24.7152 21.8996 25.507 19.9909 25.5093 18ZM11.5454 18C11.5454 16.7234 11.924 15.4755 12.6332 14.414C13.3424 13.3526 14.3505 12.5253 15.5299 12.0367C16.7094 11.5482 18.0072 11.4204 19.2592 11.6694C20.5113 11.9185 21.6614 12.5332 22.5641 13.4359C23.4668 14.3386 24.0815 15.4887 24.3306 16.7408C24.5796 17.9928 24.4518 19.2906 23.9633 20.4701C23.4747 21.6495 22.6474 22.6576 21.586 23.3668C20.5245 24.076 19.2766 24.4546 18 24.4546C16.2887 24.4527 14.6481 23.772 13.438 22.562C12.228 21.3519 11.5473 19.7113 11.5454 18ZM34.4712 15.4445L32.6072 14.0273C32.602 14.0233 32.5964 14.02 32.5911 14.0163C32.5856 14.0124 32.5804 14.0081 32.5747 14.0044C32.5728 14.0032 32.5707 14.0023 32.5688 14.001C32.5604 13.9957 32.5518 13.991 32.5432 13.9862C32.5363 13.9824 32.5295 13.9785 32.5226 13.975C32.5137 13.9705 32.5046 13.9667 32.4956 13.9628C32.4885 13.9598 32.4814 13.9566 32.4743 13.9538C32.4654 13.9505 32.4565 13.9477 32.4475 13.9449C32.4399 13.9425 32.4323 13.9399 32.4246 13.9378C32.416 13.9355 32.4074 13.9338 32.3988 13.9319C32.3905 13.9302 32.3824 13.9283 32.3741 13.9269C32.3658 13.9255 32.3575 13.9247 32.3491 13.9237C32.3405 13.9228 32.332 13.9216 32.3234 13.9211C32.3151 13.9205 32.3068 13.9205 32.2985 13.9203C32.2899 13.9202 32.2813 13.9199 32.2727 13.9201C32.2643 13.9204 32.2558 13.9212 32.2474 13.9218C32.2391 13.9225 32.2307 13.923 32.2224 13.924C32.2137 13.9251 32.2051 13.9268 32.1964 13.9283C32.1886 13.9297 32.1807 13.9309 32.1729 13.9327C32.164 13.9346 32.1553 13.9372 32.1465 13.9396C32.139 13.9417 32.1316 13.9436 32.1242 13.946C32.1154 13.9489 32.1069 13.9523 32.0983 13.9556C32.0911 13.9584 32.0838 13.961 32.0768 13.9641C32.0685 13.9677 32.0604 13.9718 32.0522 13.9759C32.0451 13.9795 32.0379 13.9829 32.0309 13.9868C32.0233 13.991 32.016 13.9957 32.0087 14.0003C32.0014 14.0049 31.9941 14.0093 31.987 14.0142C31.9804 14.0188 31.974 14.0239 31.9675 14.0289C31.9601 14.0345 31.9527 14.0401 31.9456 14.0462C31.9398 14.0512 31.9343 14.0565 31.9287 14.0618C31.9214 14.0686 31.9142 14.0753 31.9073 14.0826C31.902 14.088 31.8971 14.0939 31.892 14.0997C31.8854 14.1073 31.8788 14.1148 31.8725 14.1229C31.8711 14.1246 31.8696 14.1261 31.8683 14.1279C31.8643 14.1331 31.861 14.1386 31.8573 14.144C31.8534 14.1495 31.8491 14.1546 31.8454 14.1604L30.5726 16.1258C30.5349 16.1839 30.5091 16.2489 30.4965 16.317C30.484 16.3851 30.485 16.455 30.4995 16.5227C30.514 16.5905 30.5416 16.6547 30.5809 16.7117C30.6202 16.7687 30.6704 16.8174 30.7285 16.8551C30.7866 16.8927 30.8516 16.9186 30.9197 16.9311C30.9878 16.9436 31.0577 16.9426 31.1254 16.9282C31.1932 16.9137 31.2574 16.886 31.3144 16.8467C31.3714 16.8074 31.4201 16.7573 31.4578 16.6991L32.0326 15.8116C32.1286 16.4243 32.1843 17.0426 32.1995 17.6626C32.2898 21.429 30.8909 25.023 28.2605 27.7827C25.6301 30.5423 22.1072 32.1118 18.3409 32.2021C17.0551 32.2331 15.7711 32.0891 14.5242 31.7742C14.3886 31.7399 14.2449 31.761 14.1248 31.8326C14.0047 31.9043 13.918 32.0208 13.8838 32.1564C13.8495 32.292 13.8706 32.4356 13.9423 32.5557C14.0139 32.6758 14.1304 32.7626 14.266 32.7968C15.4869 33.105 16.7413 33.2609 18.0005 33.2609C18.1224 33.2609 18.2443 33.2594 18.3662 33.2565C22.4141 33.1594 26.1991 31.4739 29.0239 28.5103C31.8487 25.5468 33.351 21.6854 33.2539 17.6374C33.238 16.9936 33.1813 16.3515 33.0843 15.7149L33.8329 16.2841C33.888 16.326 33.9509 16.3567 34.0179 16.3744C34.0849 16.392 34.1547 16.3963 34.2233 16.387C34.292 16.3777 34.3581 16.3549 34.4179 16.32C34.4778 16.2851 34.5302 16.2388 34.5721 16.1836C34.614 16.1285 34.6447 16.0656 34.6623 15.9986C34.6799 15.9316 34.6842 15.8618 34.6748 15.7932C34.6654 15.7245 34.6426 15.6584 34.6077 15.5986C34.5728 15.5388 34.5264 15.4864 34.4712 15.4445L34.4712 15.4445ZM10.9208 30.6922L9.70881 30.0462C9.70912 30.0325 9.71017 30.0189 9.71017 30.0052V29.4393C10.0889 29.1552 10.3964 28.7867 10.6081 28.3632C10.8199 27.9397 10.9301 27.4727 10.9302 26.9992V26.1231C10.9302 25.7221 10.8512 25.325 10.6977 24.9545C10.5442 24.584 10.3193 24.2474 10.0358 23.9638C9.75219 23.6802 9.41555 23.4553 9.04505 23.3018C8.67456 23.1484 8.27747 23.0694 7.87645 23.0694C7.47543 23.0694 7.07833 23.1484 6.70784 23.3018C6.33734 23.4553 6.0007 23.6802 5.71714 23.9638C5.43358 24.2474 5.20864 24.584 5.05518 24.9545C4.90171 25.325 4.82273 25.7221 4.82273 26.1231V26.9992C4.82287 27.482 4.93761 27.9579 5.15751 28.3878C5.37741 28.8177 5.6962 29.1892 6.08767 29.4719V30.0052C6.08767 30.0112 6.08816 30.0171 6.08822 30.0231L4.83176 30.6924C4.328 30.9611 3.90674 31.3618 3.613 31.8514C3.31926 32.341 3.16409 32.9013 3.16407 33.4722C3.16482 34.1424 3.43138 34.7849 3.90526 35.2588C4.37914 35.7327 5.02165 35.9992 5.69182 36H10.061C10.393 36.0001 10.7217 35.9348 11.0284 35.8078C11.3352 35.6808 11.6138 35.4946 11.8486 35.2598C12.0833 35.0251 12.2695 34.7464 12.3965 34.4397C12.5235 34.133 12.5888 33.8042 12.5888 33.4722C12.5895 32.9011 12.4346 32.3404 12.1408 31.8506C11.8469 31.3608 11.4251 30.9604 10.9208 30.6922V30.6922ZM5.87742 26.9992V26.1231C5.87735 25.6047 6.07868 25.1066 6.43892 24.7338C6.79917 24.3611 7.29014 24.1429 7.80823 24.1252C8.32632 24.1076 8.83099 24.292 9.21573 24.6394C9.60047 24.9868 9.83519 25.4701 9.87035 25.9873C9.36382 26.1258 8.83028 26.1322 8.32054 26.0061C8.03438 25.9329 7.76073 25.8174 7.50861 25.6635C7.44944 25.6275 7.38376 25.6035 7.31533 25.593C7.24689 25.5823 7.17704 25.5853 7.10975 25.6017C7.04247 25.6181 6.97907 25.6476 6.92318 25.6885C6.8673 25.7294 6.82001 25.7809 6.78403 25.8401C6.74805 25.8993 6.72407 25.9649 6.71347 26.0334C6.70287 26.1018 6.70585 26.1717 6.72225 26.2389C6.73865 26.3062 6.76813 26.3696 6.80903 26.4255C6.84993 26.4814 6.90143 26.5287 6.9606 26.5647C7.58907 26.9489 8.31147 27.152 9.04807 27.1516C9.32536 27.1511 9.60192 27.1232 9.87372 27.0683C9.85567 27.5922 9.63255 28.088 9.25245 28.4489C8.87234 28.8098 8.36567 29.007 7.84159 28.9979C7.3175 28.9888 6.81795 28.7743 6.45056 28.4004C6.08317 28.0266 5.87734 27.5233 5.87742 26.9992ZM8.65548 29.9518V30.0052C8.65548 30.2058 8.57577 30.3983 8.43389 30.5401C8.29201 30.682 8.09957 30.7617 7.89892 30.7617C7.69827 30.7617 7.50583 30.682 7.36395 30.5401C7.22207 30.3983 7.14236 30.2058 7.14236 30.0052V29.9631C7.63967 30.0865 8.16007 30.0826 8.65548 29.9518V29.9518ZM11.1028 34.5141C10.9663 34.6513 10.8039 34.76 10.6251 34.834C10.4463 34.9081 10.2545 34.9459 10.061 34.9453H5.69182C5.30127 34.9449 4.92685 34.7895 4.6507 34.5134C4.37454 34.2372 4.2192 33.8628 4.21875 33.4722C4.2188 33.0924 4.32202 32.7198 4.51738 32.3941C4.71275 32.0684 4.99294 31.8019 5.328 31.623L6.41572 31.0437C6.58148 31.2808 6.80171 31.4748 7.05793 31.6092C7.31415 31.7437 7.59888 31.8147 7.88823 31.8164C8.17758 31.818 8.4631 31.7502 8.72084 31.6187C8.97857 31.4872 9.201 31.2958 9.36944 31.0605L10.4247 31.6229C10.7602 31.8013 11.0407 32.0678 11.2362 32.3936C11.4316 32.7194 11.5346 33.0923 11.5341 33.4722C11.5346 33.6658 11.4968 33.8575 11.4228 34.0363C11.3488 34.2152 11.24 34.3775 11.1028 34.5141H11.1028ZM18.879 22.5266C18.9822 22.5266 19.0832 22.4963 19.1694 22.4394C19.2556 22.3825 19.3232 22.3016 19.3638 22.2066C19.4044 22.1117 19.4162 22.0069 19.3978 21.9053C19.3794 21.8037 19.3316 21.7097 19.2602 21.6351L17.2563 19.537C17.7709 19.4392 18.2449 19.1908 18.6181 18.8233C18.9913 18.4558 19.247 17.9857 19.3526 17.4727H19.9336C20.0735 17.4727 20.2076 17.4171 20.3065 17.3182C20.4054 17.2193 20.4609 17.0852 20.4609 16.9453C20.4609 16.8055 20.4054 16.6713 20.3065 16.5724C20.2076 16.4735 20.0735 16.418 19.9336 16.418H19.3532C19.275 16.0354 19.1125 15.6751 18.8775 15.3633H19.9336C20.0735 15.3633 20.2076 15.3077 20.3065 15.2088C20.4054 15.1099 20.4609 14.9758 20.4609 14.8359C20.4609 14.6961 20.4054 14.5619 20.3065 14.463C20.2076 14.3642 20.0735 14.3086 19.9336 14.3086H16.0664C15.9265 14.3086 15.7924 14.3642 15.6935 14.463C15.5946 14.5619 15.5391 14.6961 15.5391 14.8359C15.5391 14.9758 15.5946 15.1099 15.6935 15.2088C15.7924 15.3077 15.9265 15.3633 16.0664 15.3633H16.7695C17.0966 15.3637 17.4155 15.4653 17.6825 15.6541C17.9495 15.8429 18.1515 16.1098 18.2609 16.418H16.0664C15.9265 16.418 15.7924 16.4735 15.6935 16.5724C15.5946 16.6713 15.5391 16.8055 15.5391 16.9453C15.5391 17.0852 15.5946 17.2193 15.6935 17.3182C15.7924 17.4171 15.9265 17.4727 16.0664 17.4727H18.2609C18.1515 17.7809 17.9495 18.0477 17.6825 18.2365C17.4155 18.4253 17.0966 18.5269 16.7695 18.5273H16.0664C15.9631 18.5273 15.8622 18.5577 15.776 18.6145C15.6898 18.6714 15.6222 18.7524 15.5816 18.8473C15.541 18.9423 15.5291 19.047 15.5475 19.1486C15.5659 19.2503 15.6138 19.3442 15.6851 19.4189L18.4976 22.3635C18.5468 22.4152 18.6059 22.4562 18.6715 22.4843C18.7371 22.5123 18.8077 22.5267 18.879 22.5266Z" fill="#3178F6"/>
</svg>
