<svg width="36" height="36" viewBox="0 0 36 36" fill="none" xmlns="http://www.w3.org/2000/svg">
<path d="M28.6188 13.3956L32.577 19.8282C32.7882 20.1714 33.1674 20.4 33.6 20.4C34.2624 20.4 34.8 19.8624 34.8 19.2C34.8 18.9696 34.7352 18.7548 34.623 18.5718L29.9976 11.0568C29.6706 10.5246 29.0898 10.2 28.4646 10.2H24.882C24.5094 10.2 24.1422 10.287 23.8086 10.4532L21.0648 11.8254L16.8348 9.1818C16.6506 9.0666 16.4334 9 16.2 9C15.5376 9 15 9.5376 15 10.2C15 10.6296 15.2256 11.0064 15.5646 11.2182L20.3646 14.2182C20.5488 14.3334 20.7666 14.4 21 14.4C21.1914 14.4 21.3726 14.355 21.5334 14.2752L23.4 13.3416V31.8L22.7382 32.0202C22.0584 32.247 21.6 32.8836 21.6 33.6C21.6 33.9318 21.8682 34.2 22.2 34.2H25.2C25.8624 34.2 26.4 33.6624 26.4 33V21" stroke="#3178F6" stroke-width="1.3" stroke-miterlimit="10"/>
<path d="M26.4 1.79999C25.0746 1.79999 24 2.91899 24 4.29959V5.29979C24 6.68099 25.0746 7.79999 26.4 7.79999C27.7254 7.79999 28.8 6.68099 28.8 5.29979V4.29959C28.8 2.91899 27.7254 1.79999 26.4 1.79999Z" stroke="#3178F6" stroke-width="1.3" stroke-miterlimit="10"/>
<path d="M29.4 18.6V20.5128L32.25 31.9128L33.036 32.109C33.72 32.28 34.2 32.8944 34.2 33.6C34.2 33.9318 33.9318 34.2 33.6 34.2H30.6654C30.1146 34.2 29.634 33.825 29.5008 33.291L28.1148 27.7464" stroke="#3178F6" stroke-width="1.3" stroke-miterlimit="10"/>
<path d="M16.2 19.8H19.8C20.1318 19.8 20.4 20.0682 20.4 20.4V21.6C20.4 21.9318 20.1318 22.2 19.8 22.2H1.8C1.4682 22.2 1.2 21.9318 1.2 21.6V20.4C1.2 20.0682 1.4682 19.8 1.8 19.8H12.6" stroke="#3178F6" stroke-width="1.3" stroke-miterlimit="10"/>
<path d="M19.2 13.4898V19.8" stroke="#3178F6" stroke-width="1.3" stroke-miterlimit="10"/>
<path d="M16.2 3H18C18.6624 3 19.2 3.5376 19.2 4.2V10.6602" stroke="#3178F6" stroke-width="1.3" stroke-miterlimit="10"/>
<path d="M2.39999 19.8V4.2C2.39999 3.5376 2.93759 3 3.59999 3H12.6" stroke="#3178F6" stroke-width="1.3" stroke-miterlimit="10"/>
<path d="M10.8 25.2V22.2" stroke="#3178F6" stroke-width="1.3" stroke-miterlimit="10"/>
<path d="M10.8 26.4C11.1314 26.4 11.4 26.1314 11.4 25.8C11.4 25.4686 11.1314 25.2 10.8 25.2C10.4686 25.2 10.2 25.4686 10.2 25.8C10.2 26.1314 10.4686 26.4 10.8 26.4Z" stroke="#3178F6" stroke-width="1.3" stroke-miterlimit="10"/>
<path d="M6.6 4.79999V6.59999" stroke="#3178F6" stroke-width="1.3" stroke-miterlimit="10"/>
<path d="M4.8 10.2C4.8 10.8624 5.3376 11.4 6 11.4H7.2C7.86239 11.4 8.39999 10.8624 8.39999 10.2C8.39999 9.53758 7.86239 8.99998 7.2 8.99998H6C5.3376 8.99998 4.8 8.46238 4.8 7.79998C4.8 7.13758 5.3376 6.59998 6 6.59998H7.2C7.86239 6.59998 8.39999 7.13758 8.39999 7.79998" stroke="#3178F6" stroke-width="1.3" stroke-miterlimit="10"/>
<path d="M6.6 13.2V11.4" stroke="#3178F6" stroke-width="1.3" stroke-miterlimit="10"/>
<path d="M17.4 5.39996H10.8" stroke="#3178F6" stroke-width="1.3" stroke-miterlimit="10"/>
<path d="M13.8 3H15" stroke="#3178F6" stroke-width="1.3" stroke-miterlimit="10"/>
<path d="M13.8 19.8H15" stroke="#3178F6" stroke-width="1.3" stroke-miterlimit="10"/>
<path d="M5.4 16.8H4.2V18H5.4V16.8Z" fill="#3178F6"/>
<path d="M7.8 16.8H6.6V18H7.8V16.8Z" fill="#3178F6"/>
<path d="M10.2 16.8H9V18H10.2V16.8Z" fill="#3178F6"/>
<path d="M10.8 7.79999H14.4" stroke="#3178F6" stroke-width="2" stroke-miterlimit="10"/>
</svg>
