<svg width="36" height="36" viewBox="0 0 36 36" fill="none" xmlns="http://www.w3.org/2000/svg">
<g clip-path="url(#clip0_1181_461)">
<path d="M33.6 35.4H2.40001C1.40581 35.4 0.600006 34.5942 0.600006 33.6V31.8H35.4V33.6C35.4 34.5942 34.5942 35.4 33.6 35.4Z" stroke="#3178F6" stroke-width="1.5" stroke-miterlimit="10"/>
<path d="M33 33.6V35.4" stroke="#3178F6" stroke-width="1.5" stroke-miterlimit="10"/>
<path d="M30.6 33.6V35.4" stroke="#3178F6" stroke-width="1.5" stroke-miterlimit="10"/>
<path d="M28.2 33.6V35.4" stroke="#3178F6" stroke-width="1.5" stroke-miterlimit="10"/>
<path d="M32.4 20.4V30" stroke="#3178F6" stroke-width="1.5" stroke-miterlimit="10"/>
<path d="M3.60001 30V12.6C3.60001 11.2746 4.67461 10.2 6.00001 10.2H13.8" stroke="#3178F6" stroke-width="1.5" stroke-miterlimit="10"/>
<path d="M23.1324 20.0544L18.8376 23.8716C18.513 24.1602 18 23.9298 18 23.4954V21C18 20.6688 17.7312 20.4 17.4 20.4H15.6C14.6058 20.4 13.8 19.5942 13.8 18.6V6.59999C13.8 5.60579 14.6058 4.79999 15.6 4.79999H33.6C34.5942 4.79999 35.4 5.60579 35.4 6.59999V18.6C35.4 19.5942 34.5942 20.4 33.6 20.4H24.603" stroke="#3178F6" stroke-width="1.5" stroke-miterlimit="10"/>
<path d="M24.6 12H31.8V17.4H24.6V12Z" stroke="#3178F6" stroke-width="1.5" stroke-miterlimit="10"/>
<path d="M28.2 13.8V15" stroke="#3178F6" stroke-width="1.5" stroke-miterlimit="10"/>
<path d="M30.6 12V10.2C30.6 8.87459 29.5254 7.79999 28.2 7.79999C26.8746 7.79999 25.8 8.87459 25.8 10.2V12" stroke="#3178F6" stroke-width="1.5" stroke-miterlimit="10"/>
<path d="M19.8 12.6C21.1255 12.6 22.2 11.5255 22.2 10.2C22.2 8.8745 21.1255 7.79999 19.8 7.79999C18.4745 7.79999 17.4 8.8745 17.4 10.2C17.4 11.5255 18.4745 12.6 19.8 12.6Z" stroke="#3178F6" stroke-width="1.5" stroke-miterlimit="10"/>
<path d="M19.8 12.6V17.4H16.8" stroke="#3178F6" stroke-width="1.5" stroke-miterlimit="10"/>
<path d="M19.8 15H18" stroke="#3178F6" stroke-width="1.5" stroke-miterlimit="10"/>
<path d="M6 13.8V15.6" stroke="#3178F6" stroke-width="1.5" stroke-miterlimit="10"/>
<path d="M6 16.8V24" stroke="#3178F6" stroke-width="1.5" stroke-miterlimit="10"/>
<path d="M18.6 27.6H17.4V28.8H18.6V27.6Z" fill="#3178F6"/>
<path d="M22.2 27.6H21V28.8H22.2V27.6Z" fill="#3178F6"/>
<path d="M15 27.6H13.8V28.8H15V27.6Z" fill="#3178F6"/>
<path d="M36 2.39999H34.2" stroke="#3178F6" stroke-width="1.5" stroke-miterlimit="10"/>
<path d="M33 2.39999H28.2" stroke="#3178F6" stroke-width="1.5" stroke-miterlimit="10"/>
<path d="M12.9042 3.90421L10.4952 1.49521" stroke="#3178F6" stroke-width="1.5" stroke-miterlimit="10"/>
<path d="M15 3V0" stroke="#3178F6" stroke-width="1.5" stroke-miterlimit="10"/>
<path d="M12 6H9" stroke="#3178F6" stroke-width="1.5" stroke-miterlimit="10"/>
</g>
<defs>
<clipPath id="clip0_1181_461">
<rect width="36" height="36" fill="white"/>
</clipPath>
</defs>
</svg>
