<svg width="36" height="36" viewBox="0 0 36 36" fill="none" xmlns="http://www.w3.org/2000/svg">
<path d="M1.185 29.8998L1.4634 28.8726C1.5894 28.392 2.0808 28.104 2.562 28.2294L9.528 30.051C10.0092 30.177 10.2966 30.6684 10.1712 31.1496L9.8736 32.2884" stroke="#3178F6" stroke-width="1.5" stroke-miterlimit="10"/>
<path d="M19.0212 25.74L12.4278 23.8938" stroke="#3178F6" stroke-width="1.5" stroke-miterlimit="10"/>
<path d="M17.3586 27.738L16.2504 27.4278" stroke="#3178F6" stroke-width="1.5" stroke-miterlimit="10"/>
<path d="M22.7292 31.5864L10.0842 28.0458" stroke="#3178F6" stroke-width="1.5" stroke-miterlimit="10"/>
<path d="M22.8 19.4178L14.4828 17.0892L16.1826 11.061L25.1754 13.5792L24.4152 16.2738" stroke="#3178F6" stroke-width="1.5" stroke-miterlimit="10"/>
<path d="M19.6164 15.48L20.0532 13.8792" stroke="#3178F6" stroke-width="1.5" stroke-miterlimit="10"/>
<path d="M9.5676 7.65719L11.4996 0.807587" stroke="#3178F6" stroke-width="1.5" stroke-miterlimit="10"/>
<path d="M8.3718 11.8968L9.147 9.14758" stroke="#3178F6" stroke-width="1.5" stroke-miterlimit="10"/>
<path d="M10.836 12.9996L7.059 15.2964C4.911 16.6026 3.6 18.9348 3.6 21.4482V24.729C3.6 25.4382 3.4854 26.1432 3.2616 26.8164L2.772 28.2846" stroke="#3178F6" stroke-width="1.5" stroke-miterlimit="10"/>
<path d="M22.2 36V34.8C22.2 34.137 22.737 33.6 23.4 33.6H30.6C31.263 33.6 31.8 34.137 31.8 34.8V36" stroke="#3178F6" stroke-width="1.5" stroke-miterlimit="10"/>
<path d="M31.3608 5.83917L33.159 7.63737C33.4314 7.90917 33.6 8.28477 33.6 8.69997C33.6 8.84157 33.5802 8.97837 33.5436 9.10797L29.5332 23.3274" stroke="#3178F6" stroke-width="1.5" stroke-miterlimit="10"/>
<path d="M17.886 11.538L18.7266 8.73658C19.0968 7.50058 20.2434 6.59998 21.6 6.59998C23.2566 6.59998 24.6 7.94338 24.6 9.59998C24.6 9.89998 24.5562 10.1898 24.474 10.4634L23.6664 13.1562" stroke="#3178F6" stroke-width="1.5" stroke-miterlimit="10"/>
<path d="M9.1614 29.955C9.1614 29.955 9.1614 29.955 9.462 29.1198C10.0776 27.4092 11.2752 27.7374 12.0006 24.321L14.5614 21.7602C14.832 21.489 15 21.114 15 20.7C15 19.8714 14.3286 19.2 13.5 19.2C13.0854 19.2 12.7104 19.368 12.4392 19.6398L9.8064 22.2732C9.4686 22.6104 9.0108 22.8 8.5332 22.8H8.0718L13.8564 2.29198C14.034 1.66198 14.613 1.19998 15.3 1.19998C15.4392 1.19998 15.5736 1.21918 15.702 1.25458L30.702 5.45458C31.335 5.62978 31.8 6.21058 31.8 6.89998C31.8 7.04158 31.7802 7.17838 31.7436 7.30798L27.3228 22.9824" stroke="#3178F6" stroke-width="1.5" stroke-miterlimit="10"/>
<path d="M30.2436 33.6L30.828 32.0232C31.4706 30.2886 31.8 28.4532 31.8 26.6028V25.7352C31.8 24.5526 30.939 23.5464 29.7708 23.364L25.2 22.65V17.4C25.2 16.737 24.663 16.2 24 16.2C23.337 16.2 22.8 16.737 22.8 17.4V24.8406C22.8 25.1988 22.3332 25.3356 22.1394 25.0344L20.7624 22.8924C20.496 22.4766 20.031 22.2 19.5 22.2C18.6714 22.2 18 22.8714 18 23.7C18 23.9976 18.087 24.2754 18.2364 24.5082C19.686 26.775 24 33.5994 24 33.5994" stroke="#3178F6" stroke-width="1.5" stroke-miterlimit="10"/>
</svg>
