<svg width="100" height="129" viewBox="0 0 100 129" fill="none" xmlns="http://www.w3.org/2000/svg">
<path fill-rule="evenodd" clip-rule="evenodd" d="M47.3337 31.6141L16.1617 49.6469C15.3231 50.1151 14.6271 50.8019 14.1474 51.6343C13.6678 52.4668 13.4226 53.4137 13.4378 54.3744L13.4589 91.0711C13.4448 92.0317 13.691 92.9782 14.1715 93.8101C14.652 94.6419 15.3488 95.3279 16.1877 95.7951L27.7195 102.645L27.6512 61.6914L42.3958 55.6888L42.2423 126.271L34.245 121.726L2.75966 103.561C1.92056 103.094 1.22366 102.408 0.74305 101.576C0.262441 100.744 0.0160871 99.7973 0.0301605 98.8365L0.000662868 46.6187C-0.0145017 45.658 0.23078 44.711 0.710448 43.8786C1.19012 43.0462 1.88624 42.3594 2.72482 41.8912L41.8756 19.2433L49.8746 14.1477C49.8746 14.1477 50.0579 21.9578 50.0579 23.9676V26.8896C50.0726 27.8499 49.8271 28.7962 49.3475 29.6281C48.8678 30.4599 48.1719 31.1463 47.3337 31.6141Z" fill="white"/>
<path fill-rule="evenodd" clip-rule="evenodd" d="M52.6662 111.534L83.8382 93.5009C84.6768 93.0328 85.3729 92.346 85.8526 91.5135C86.3323 90.6811 86.5775 89.7342 86.5623 88.7734L86.541 52.0772C86.555 51.1165 86.3087 50.1699 85.8281 49.338C85.3475 48.5061 84.6506 47.8202 83.8115 47.3529L72.2796 40.5033L72.3477 85.1754C72.3477 85.1754 71.2701 85.2844 70.2167 84.284C66.5434 80.3047 57.8356 69.1021 57.8356 69.1021L57.7132 31.6463L66.6841 37.2235C66.6841 37.2235 78.8453 30.7198 78.8469 30.7168C78.8448 30.7203 97.2402 39.5872 97.2402 39.5872C98.0794 40.0543 98.7763 40.7403 99.2568 41.5722C99.7373 42.4041 99.9835 43.3508 99.969 44.3115L99.9992 96.5291C100.015 97.49 99.7699 98.4371 99.2901 99.2696C98.8104 100.102 98.114 100.789 97.275 101.257L58.1254 123.904L50.1253 129C50.1253 129 49.942 121.19 49.942 119.18V116.258C49.9274 115.298 50.173 114.352 50.6526 113.52C51.1323 112.688 51.8281 112.002 52.6662 111.534Z" fill="white"/>
<path fill-rule="evenodd" clip-rule="evenodd" d="M76.2534 28.1099L66.812 33.1077L57.7656 27.4251L58.1604 16.7444L67.6019 11.7466L76.6482 17.4294L76.2534 28.1099Z" fill="white"/>
<path fill-rule="evenodd" clip-rule="evenodd" d="M64.8017 9.78299L59.1569 12.7712L53.7485 9.37354L53.9847 2.98795L59.6295 0L65.0381 3.39764L64.8017 9.78299Z" fill="white"/>
<path fill-rule="evenodd" clip-rule="evenodd" d="M87.4586 24.1349L83.5909 26.1822L79.8853 23.8544L80.0478 19.4792L83.9153 17.4319L87.6211 19.7599L87.4586 24.1349Z" fill="white"/>
<path fill-rule="evenodd" clip-rule="evenodd" d="M70.301 88.0854L62.6924 94.4062C61.6547 95.2456 60.3456 95.6753 59.0126 95.614C57.6797 95.5527 56.4154 95.0047 55.4591 94.0736C55.1793 93.8361 54.9226 93.5726 54.6927 93.2866L31.1365 64.0029C29.0382 61.284 28.8125 61.5808 27.6875 62.8087C27.858 59.7731 29.7567 58.3595 29.7567 58.3595L37.2495 52.0387C37.8005 51.5783 38.44 51.2358 39.1284 51.0323C39.8169 50.8288 40.5397 50.7686 41.2523 50.8555C42.5296 50.9907 43.6637 51.7016 44.5406 52.5751C44.8204 52.8126 45.077 53.0761 45.307 53.3622L68.8054 82.442C70.9036 85.1609 71.2455 84.8644 72.3702 83.6365C72.2868 86.7299 70.301 88.0854 70.301 88.0854Z" fill="white"/>
</svg>
