<svg width="36" height="36" viewBox="0 0 36 36" fill="none" xmlns="http://www.w3.org/2000/svg">
<path d="M18 3.65625C15.1631 3.65625 12.3899 4.4975 10.031 6.07361C7.67222 7.64972 5.83375 9.88991 4.7481 12.5109C3.66246 15.1319 3.3784 18.0159 3.93186 20.7983C4.48532 23.5807 5.85143 26.1366 7.85744 28.1426C9.86345 30.1486 12.4193 31.5147 15.2017 32.0681C17.9841 32.6216 20.8681 32.3375 23.4891 31.2519C26.1101 30.1663 28.3503 28.3278 29.9264 25.969C31.5025 23.6101 32.3437 20.8369 32.3437 18C32.3363 14.1981 30.8227 10.554 28.1344 7.86565C25.446 5.17728 21.8019 3.66368 18 3.65625ZM18 30.6562C15.4968 30.6562 13.0499 29.914 10.9686 28.5233C8.88725 27.1326 7.26507 25.156 6.30715 22.8433C5.34923 20.5307 5.09859 17.986 5.58694 15.5309C6.07528 13.0758 7.28067 10.8207 9.05068 9.05068C10.8207 7.28067 13.0758 6.07528 15.5309 5.58694C17.986 5.09859 20.5307 5.34923 22.8433 6.30715C25.156 7.26507 27.1326 8.88725 28.5233 10.9686C29.914 13.0499 30.6562 15.4968 30.6562 18C30.6525 21.3555 29.3179 24.5725 26.9452 26.9452C24.5725 29.3179 21.3555 30.6525 18 30.6562ZM23.3437 15.75C23.34 14.6323 22.8944 13.5614 22.104 12.771C21.3136 11.9806 20.2427 11.535 19.125 11.5312H14.625C14.4012 11.5312 14.1866 11.6201 14.0284 11.7784C13.8701 11.9366 13.7812 12.1512 13.7812 12.375V23.625C13.7812 23.8488 13.8701 24.0634 14.0284 24.2216C14.1866 24.3799 14.4012 24.4688 14.625 24.4688C14.8488 24.4688 15.0634 24.3799 15.2216 24.2216C15.3799 24.0634 15.4687 23.8488 15.4687 23.625V19.9688H18.9141L21.8109 24.1031C21.8729 24.1946 21.9526 24.2727 22.0452 24.333C22.1377 24.3933 22.2414 24.4344 22.3502 24.4541C22.4589 24.4737 22.5704 24.4715 22.6783 24.4474C22.7861 24.4234 22.888 24.378 22.9781 24.3141C23.0696 24.2521 23.1477 24.1724 23.208 24.0798C23.2683 23.9873 23.3094 23.8836 23.3291 23.7748C23.3487 23.6661 23.3465 23.5546 23.3224 23.4467C23.2984 23.3389 23.253 23.237 23.1891 23.1469L20.7422 19.6453C21.5133 19.3273 22.1724 18.7871 22.6356 18.0935C23.0989 17.3998 23.3454 16.5841 23.3437 15.75ZM19.125 18.2812H15.4687V13.2188H19.125C19.7963 13.2188 20.4402 13.4854 20.9149 13.9601C21.3896 14.4348 21.6562 15.0787 21.6562 15.75C21.6562 16.4213 21.3896 17.0652 20.9149 17.5399C20.4402 18.0146 19.7963 18.2812 19.125 18.2812Z" fill="#3178F6"/>
</svg>
