<svg width="24" height="24" viewBox="0 0 24 24" fill="none" xmlns="http://www.w3.org/2000/svg">
<path d="M10.3316 0.341064H1.092C0.868219 0.341064 0.653608 0.429959 0.495374 0.588193C0.33714 0.746427 0.248245 0.961038 0.248245 1.18481V10.425C0.248245 10.6488 0.33714 10.8634 0.495374 11.0216C0.653608 11.1799 0.868219 11.2688 1.092 11.2688H10.3316C10.5554 11.2688 10.77 11.1799 10.9282 11.0216C11.0865 10.8634 11.1754 10.6488 11.1754 10.425V1.18481C11.1754 0.961038 11.0865 0.746427 10.9282 0.588193C10.77 0.429959 10.5554 0.341064 10.3316 0.341064ZM9.48787 9.58125H1.93575V2.02856H9.48787V9.58125ZM10.3316 12.7746H1.092C0.868219 12.7746 0.653608 12.8635 0.495374 13.0217C0.33714 13.1799 0.248245 13.3945 0.248245 13.6183V22.8563C0.248245 23.08 0.33714 23.2946 0.495374 23.4529C0.653608 23.6111 0.868219 23.7 1.092 23.7H10.3316C10.5554 23.7 10.77 23.6111 10.9282 23.4529C11.0865 23.2946 11.1754 23.08 11.1754 22.8563V13.6172C11.1754 13.3934 11.0865 13.1788 10.9282 13.0206C10.77 12.8623 10.5554 12.7734 10.3316 12.7734V12.7746ZM9.48787 22.0125H1.93575V14.4609H9.48787V22.0125ZM22.7629 12.7734H13.5244C13.3006 12.7734 13.086 12.8623 12.9277 13.0206C12.7695 13.1788 12.6806 13.3934 12.6806 13.6172V22.8563C12.6806 23.08 12.7695 23.2946 12.9277 23.4529C13.086 23.6111 13.3006 23.7 13.5244 23.7H22.7634C22.9872 23.7 23.2018 23.6111 23.3601 23.4529C23.5183 23.2946 23.6072 23.08 23.6072 22.8563V13.6172C23.6072 13.3934 23.5183 13.1788 23.3601 13.0206C23.2018 12.8623 22.9872 12.7734 22.7634 12.7734H22.7629ZM21.9197 22.0125H14.3681V14.4609H21.9197V22.0125ZM14.205 5.19938L14.2387 6.58875C13.9294 6.66188 13.6312 7.33125 13.5356 7.65188L14.385 9.0525C14.7169 9.11438 15.4425 9.15375 15.6506 8.91188L16.8712 9.58125C16.7812 9.885 17.2087 10.4756 17.4394 10.7175L19.0762 10.6781C19.2956 10.4306 19.695 9.8175 19.5881 9.51938L20.7806 8.79375C20.9944 9.02438 21.72 8.95125 22.0462 8.8725L22.8337 7.4325C22.7269 7.1175 22.395 6.465 22.08 6.40875L22.0519 5.01938C22.3612 4.94625 22.6594 4.27688 22.755 3.96188L21.9 2.56125C21.5737 2.49375 20.8425 2.45438 20.64 2.69625L19.4137 2.02688C19.5094 1.72313 19.0819 1.1325 18.8512 0.890627L17.2087 0.930002C16.995 1.1775 16.59 1.79063 16.6969 2.08875L15.51 2.81438C15.2906 2.58375 14.565 2.65688 14.2444 2.73563L13.4569 4.17563C13.5637 4.49063 13.8956 5.14313 14.205 5.19938ZM16.86 5.10375C16.9978 4.84921 17.2081 4.6413 17.4642 4.50635C17.7203 4.3714 18.0107 4.31549 18.2986 4.34569C18.5865 4.3759 18.859 4.49086 19.0815 4.67602C19.304 4.86118 19.4666 5.10821 19.5486 5.38582C19.6306 5.66343 19.6284 5.95914 19.5422 6.2355C19.4561 6.51186 19.2898 6.75643 19.0646 6.93825C18.8393 7.12006 18.5652 7.23094 18.2769 7.25684C17.9886 7.28275 17.699 7.22251 17.445 7.08375C17.1054 6.89826 16.8531 6.58573 16.7435 6.21461C16.6338 5.84349 16.6757 5.44403 16.86 5.10375V5.10375Z" fill="#3178F6"/>
</svg>
