<svg width="36" height="36" viewBox="0 0 36 36" fill="none" xmlns="http://www.w3.org/2000/svg">
<g clip-path="url(#clip0_1152_470)">
<path d="M23.0625 14.6777C23.0625 16.7127 25.8202 20.5151 26.6654 21.632C26.7703 21.7706 26.9059 21.883 27.0615 21.9604C27.2172 22.0378 27.3887 22.0781 27.5625 22.0781C27.7363 22.0781 27.9078 22.0378 28.0635 21.9604C28.2191 21.883 28.3547 21.7706 28.4596 21.632C29.3048 20.5151 32.0625 16.7127 32.0625 14.6777C32.0393 13.4996 31.555 12.3776 30.7136 11.5527C29.8722 10.7277 28.7408 10.2656 27.5625 10.2656C26.3842 10.2656 25.2528 10.7277 24.4114 11.5527C23.57 12.3776 23.0857 13.4996 23.0625 14.6777ZM30.9375 14.6777C30.9375 16.4932 27.5625 20.9531 27.5625 20.9531C27.5625 20.9531 24.1875 16.4932 24.1875 14.6777C24.2107 13.7981 24.5765 12.9622 25.2069 12.3482C25.8373 11.7342 26.6825 11.3907 27.5625 11.3907C28.4425 11.3907 29.2877 11.7342 29.9181 12.3482C30.5485 12.9622 30.9143 13.7981 30.9375 14.6777Z" fill="#3178F6"/>
<path d="M25.3125 14.7656C25.3125 15.2106 25.4445 15.6456 25.6917 16.0157C25.9389 16.3857 26.2903 16.6741 26.7015 16.8444C27.1126 17.0147 27.565 17.0592 28.0015 16.9724C28.4379 16.8856 28.8388 16.6713 29.1535 16.3566C29.4682 16.0419 29.6825 15.641 29.7693 15.2046C29.8561 14.7681 29.8115 14.3157 29.6412 13.9046C29.4709 13.4935 29.1825 13.1421 28.8125 12.8948C28.4425 12.6476 28.0075 12.5156 27.5625 12.5156C26.966 12.5163 26.3941 12.7536 25.9723 13.1754C25.5504 13.5972 25.3132 14.1691 25.3125 14.7656ZM28.6875 14.7656C28.6875 14.9881 28.6215 15.2056 28.4979 15.3906C28.3743 15.5756 28.1986 15.7198 27.993 15.805C27.7875 15.8901 27.5613 15.9124 27.343 15.869C27.1248 15.8256 26.9243 15.7185 26.767 15.5611C26.6097 15.4038 26.5025 15.2033 26.4591 14.9851C26.4157 14.7669 26.438 14.5407 26.5231 14.3351C26.6083 14.1295 26.7525 13.9538 26.9375 13.8302C27.1225 13.7066 27.34 13.6406 27.5625 13.6406C27.8609 13.6406 28.147 13.7592 28.358 13.9701C28.569 14.1811 28.6875 14.4673 28.6875 14.7656Z" fill="#3178F6"/>
<path d="M35.3794 0.681892C35.1928 0.588325 34.984 0.548491 34.7761 0.566844C34.5682 0.585196 34.3695 0.661012 34.2023 0.785813L27.4114 5.85257C27.3688 5.84195 27.3251 5.83636 27.2812 5.83594C27.2777 5.83594 27.2744 5.83692 27.2708 5.83699L21.2743 1.36289C21.08 1.2179 20.844 1.13958 20.6016 1.13958C20.3591 1.13958 20.1231 1.2179 19.9288 1.36289L7.80469 10.4089L1.79775 5.927C1.63049 5.80221 1.43181 5.7264 1.22393 5.70805C1.01605 5.68969 0.807166 5.72953 0.620627 5.82309C0.434088 5.91665 0.277249 6.06025 0.167647 6.23784C0.0580448 6.41543 -8.13655e-07 6.62001 0 6.82869L0 29.3287C2.38188e-06 29.5038 0.040888 29.6765 0.119402 29.8331C0.197916 29.9896 0.31189 30.1256 0.45225 30.2304L7.13194 35.2142C7.32626 35.3592 7.56224 35.4375 7.8047 35.4375C8.04716 35.4375 8.28313 35.3592 8.47745 35.2142L20.6016 26.1682L26.6788 30.7025C26.8731 30.8475 27.1091 30.9258 27.3516 30.9258C27.594 30.9258 27.83 30.8475 28.0243 30.7025L35.5478 25.0892C35.6881 24.9844 35.8021 24.8484 35.8806 24.6919C35.9591 24.5353 36 24.3626 36 24.1875V1.6875C36 1.47881 35.942 1.27424 35.8324 1.09665C35.7228 0.91906 35.5659 0.775455 35.3794 0.681892ZM1.125 6.82869L7.3125 11.4453V17.0156C7.31249 17.1196 7.34129 17.2215 7.3957 17.3101C7.45011 17.3986 7.528 17.4704 7.62072 17.5174C7.71344 17.5644 7.81737 17.5847 7.92097 17.5762C8.02457 17.5677 8.12379 17.5307 8.20761 17.4692L13.2188 13.7944V19.2409L7.56738 23.4141L1.14189 19.398C1.13645 19.3946 1.13051 19.3929 1.125 19.3897V6.82869ZM7.53415 28.0995C7.46525 28.1519 7.40939 28.2196 7.37095 28.2972C7.3325 28.3748 7.3125 28.4603 7.3125 28.5469V33.9453L1.125 29.3287V20.7143L7.29561 24.5709C7.39131 24.6307 7.50278 24.6603 7.61554 24.6559C7.72829 24.6515 7.83711 24.6133 7.92786 24.5462L13.2188 20.6391V23.7684L7.53415 28.0995ZM19.9688 25.2367L8.4375 33.8404V28.8254L14.1221 24.4943C14.191 24.4418 14.2469 24.3741 14.2853 24.2965C14.3237 24.2189 14.3438 24.1335 14.3438 24.0469V12.9694L19.9688 8.84441V25.2367ZM34.875 24.1875L27.8438 29.4336V26.5078L34.875 21.2343V24.1875ZM34.875 4.28513L28.1973 9.17836C28.6851 9.23312 29.1636 9.35128 29.6209 9.52985L34.875 5.67984V15.3222L32.6316 16.9467C32.3079 17.7077 31.9308 18.445 31.5032 19.1529L34.875 16.7112V19.8282L26.9437 25.7767C26.8738 25.829 26.8171 25.897 26.7781 25.975C26.739 26.0531 26.7187 26.1393 26.7188 26.2266V29.3287L21.0938 25.1318V12.5148L22.1691 13.1158C22.2771 12.7529 22.4226 12.4023 22.6032 12.0695L21.1807 11.2746C21.1528 11.2596 21.1237 11.2469 21.0938 11.2368V7.73438C21.0938 7.63043 21.065 7.52851 21.0105 7.43994C20.9561 7.35137 20.8783 7.2796 20.7855 7.23262C20.6928 7.18563 20.5889 7.16526 20.4853 7.17376C20.3817 7.18226 20.2825 7.21931 20.1986 7.28078L8.4375 15.9056V11.3403L20.6016 2.26458L26.7188 6.82869V9.20986C26.9979 9.16591 27.2799 9.14277 27.5625 9.14063C27.6574 9.14063 27.75 9.15005 27.8438 9.15465V6.93362L34.875 1.6875V4.28513Z" fill="#3178F6"/>
</g>
<defs>
<clipPath id="clip0_1152_470">
<rect width="36" height="36" fill="white"/>
</clipPath>
</defs>
</svg>
