<svg width="36" height="36" viewBox="0 0 36 36" fill="none" xmlns="http://www.w3.org/2000/svg">
<path d="M6.1875 3.375C5.25712 3.375 4.5 4.13212 4.5 5.0625V21.9375V29.8125C4.5 30.7429 5.25712 31.5 6.1875 31.5H30.9375C31.8679 31.5 32.625 30.7429 32.625 29.8125V21.9375C32.625 21.0071 31.8679 20.25 30.9375 20.25H23.7041L30.4519 13.5044C31.1078 12.8463 31.1078 11.7763 30.4519 11.1182L24.8818 5.55029C24.244 4.91354 23.1324 4.91354 22.4956 5.55029L15.75 12.2959V5.0625C15.75 4.13212 14.9929 3.375 14.0625 3.375H6.1875ZM6.1875 4.5H14.0625C14.373 4.5 14.625 4.75312 14.625 5.0625V12.375H5.625V5.0625C5.625 4.75312 5.877 4.5 6.1875 4.5ZM23.6887 6.18311C23.8329 6.18325 23.9767 6.23658 24.0864 6.3457L29.6543 11.9136C29.8737 12.1329 29.8737 12.4896 29.6543 12.709L24.4841 17.8813L18.1208 11.5159L23.291 6.3457C23.4013 6.23602 23.5446 6.18296 23.6887 6.18311ZM17.3254 12.3113L23.6887 18.6768L22.1133 20.25H14.1262L11.7554 17.8813L17.3254 12.3113V12.3113ZM5.625 13.5H14.5459L7.7959 20.25H6.1875C6.0075 20.25 5.83866 20.2861 5.67554 20.3379C5.65979 20.3435 5.64075 20.341 5.625 20.3467V13.5ZM10.96 18.6768L12.5354 20.25H9.38672L10.96 18.6768ZM6.1875 21.375H8.02881H13.5V30.375H6.1875C5.877 30.375 5.625 30.1219 5.625 29.8125V21.9375C5.625 21.6281 5.877 21.375 6.1875 21.375ZM14.625 21.375H22.3462H22.5V30.375H14.625V21.375ZM23.625 21.375H30.9375C31.248 21.375 31.5 21.6281 31.5 21.9375V29.8125C31.5 30.1219 31.248 30.375 30.9375 30.375H23.625V21.375ZM9.5625 24.1875C8.63212 24.1875 7.875 24.9446 7.875 25.875C7.875 26.8054 8.63212 27.5625 9.5625 27.5625C10.4929 27.5625 11.25 26.8054 11.25 25.875C11.25 24.9446 10.4929 24.1875 9.5625 24.1875ZM9.5625 25.3125C9.873 25.3125 10.125 25.5656 10.125 25.875C10.125 26.1844 9.873 26.4375 9.5625 26.4375C9.252 26.4375 9 26.1844 9 25.875C9 25.5656 9.252 25.3125 9.5625 25.3125Z" fill="#3178F6"/>
</svg>
