<svg width="36" height="36" viewBox="0 0 36 36" fill="none" xmlns="http://www.w3.org/2000/svg">
<g clip-path="url(#clip0_3_124)">
<path d="M18.372 36C18.345 36 18.3195 35.9985 18.2925 35.9955C17.9325 35.922 17.712 35.787 17.5485 35.589C17.3745 35.3805 17.2815 35.118 17.286 34.848C17.2875 34.776 17.3145 34.5855 17.3355 34.5165C17.382 34.3845 17.4345 34.287 17.5035 34.2C17.862 33.6855 18.1605 33.1425 18.393 32.5845C18.5325 32.25 18.6435 31.9125 18.7305 31.5615C18.597 31.5705 18.462 31.5765 18.3255 31.5825C17.8875 31.596 17.4675 31.575 17.0625 31.5225C15.306 31.4205 13.5615 30.948 11.934 30.1275C10.3635 29.3415 8.9835 28.2675 7.8345 26.937C6.6885 25.611 5.8155 24.096 5.2395 22.434C4.641 20.715 4.4025 18.921 4.5345 17.0985C4.5825 16.149 4.74 15.198 5.001 14.289C5.2605 13.38 5.5935 12.5415 6.0255 11.7315C6.6525 10.491 7.377 9.2805 8.175 8.148C8.976 7.0185 9.849 5.9655 10.7685 5.013C11.7105 4.047 12.717 3.153 13.761 2.3535C14.8155 1.5495 15.9285 0.814501 17.07 0.168001C17.28 0.0390014 17.4825 -0.0209986 17.6895 0.00150141C18.084 0.0870014 18.3 0.223501 18.459 0.420001C18.6225 0.616501 18.7155 0.868501 18.7155 1.14C18.7155 1.221 18.684 1.422 18.66 1.4985C18.6255 1.6095 18.561 1.7235 18.4725 1.83C18.1485 2.2935 17.844 2.8425 17.607 3.417C17.469 3.7455 17.3595 4.083 17.2725 4.4385C17.4045 4.4295 17.541 4.4235 17.6775 4.419C18.108 4.4025 18.5235 4.4235 18.936 4.476C20.7015 4.578 22.4445 5.0505 24.0705 5.871C25.638 6.657 27.018 7.7295 28.1685 9.06C29.2965 10.365 30.1695 11.88 30.762 13.5615C31.356 15.2565 31.5945 17.0505 31.4685 18.897C31.4175 19.857 31.26 20.805 31.002 21.7095C30.7515 22.5975 30.408 23.4675 29.982 24.294C29.3475 25.5285 28.623 26.727 27.825 27.852C27.033 28.974 26.16 30.0285 25.23 30.9855C24.2895 31.9545 23.283 32.8515 22.2405 33.6495C21.18 34.455 20.067 35.19 18.93 35.832C18.723 35.952 18.546 36 18.372 36ZM18.105 34.65H18.12H18.105ZM19.4145 29.9955C19.656 29.9955 19.9755 30.135 20.124 30.3045C20.2605 30.429 20.364 30.672 20.364 30.921C20.256 31.764 20.061 32.484 19.779 33.1605C19.6995 33.3495 19.617 33.5355 19.5255 33.72C20.145 33.3195 20.7465 32.8995 21.33 32.4555C22.3125 31.7025 23.2635 30.8565 24.1545 29.937C25.029 29.037 25.8525 28.0425 26.601 26.9835C27.357 25.914 28.0455 24.7785 28.6485 23.6055C29.028 22.8675 29.334 22.0905 29.5575 21.297C29.784 20.5005 29.9235 19.662 29.9685 18.804C30.081 17.151 29.871 15.558 29.3445 14.0565C28.8135 12.5535 28.0365 11.202 27.0315 10.0395C26.0085 8.8605 24.7845 7.908 23.391 7.209C21.948 6.48 20.4015 6.0615 18.795 5.967C18.411 5.9205 18.075 5.901 17.7225 5.9175C17.361 5.928 17.004 5.955 16.6545 6C16.41 6.0285 16.05 5.889 15.885 5.709C15.7365 5.5695 15.636 5.3325 15.636 5.079C15.75 4.209 15.939 3.51 16.218 2.8395C16.2975 2.6505 16.3815 2.4645 16.473 2.28C15.846 2.6835 15.249 3.1035 14.6685 3.5445C13.686 4.3005 12.7335 5.148 11.844 6.0585C10.9785 6.9555 10.1565 7.95 9.4005 9.015C8.646 10.086 7.959 11.232 7.356 12.4215C6.969 13.1505 6.6735 13.8915 6.4425 14.703C6.2145 15.504 6.0765 16.3425 6.033 17.193C5.9145 18.825 6.126 20.4165 6.657 21.942C7.173 23.4255 7.95 24.777 8.97 25.9575C9.9915 27.138 11.2155 28.0905 12.6105 28.7895C14.0565 29.5185 15.603 29.937 17.2065 30.0315C17.5995 30.081 17.94 30.0975 18.2775 30.084C18.636 30.072 18.993 30.0435 19.35 30C19.3695 29.997 19.392 29.9955 19.4145 29.9955ZM17.8815 1.428C17.8755 1.4325 17.868 1.4355 17.8605 1.44C17.868 1.4355 17.8755 1.4325 17.8815 1.428ZM18.0915 23.766C17.94 23.766 17.7885 23.76 17.6355 23.7465C16.0395 23.6655 14.7045 23.0175 13.6695 21.8175C12.66 20.682 12.1515 19.1505 12.279 17.6205C12.33 16.1175 13.0335 14.661 14.205 13.662C15.324 12.645 16.857 12.129 18.3795 12.2565C19.875 12.3045 21.327 13.011 22.323 14.19C23.3355 15.312 23.8515 16.8465 23.7225 18.381C23.613 19.953 22.962 21.285 21.792 22.3275C20.787 23.253 19.458 23.766 18.0915 23.766ZM17.937 13.7385C16.9125 13.7385 15.9405 14.1135 15.1965 14.7885C14.328 15.5295 13.8165 16.5885 13.7775 17.709C13.6815 18.8655 14.055 19.9905 14.8005 20.829C15.5775 21.729 16.53 22.1895 17.724 22.248C17.733 22.248 17.7435 22.248 17.7525 22.2495C18.858 22.3425 19.9665 21.9675 20.787 21.216C21.6765 20.424 22.1445 19.461 22.2285 18.2655C22.323 17.1315 21.9465 16.0095 21.1965 15.1755C20.457 14.301 19.407 13.7895 18.294 13.7535C18.174 13.7445 18.0555 13.7385 17.937 13.7385Z" fill="#3178F6"/>
</g>
<defs>
<clipPath id="clip0_3_124">
<rect width="36" height="36" fill="white"/>
</clipPath>
</defs>
</svg>
