<svg width="36" height="36" viewBox="0 0 36 36" fill="none" xmlns="http://www.w3.org/2000/svg">
<path d="M32.2024 21.4867L29.9524 15.4867C29.8987 15.3437 29.8027 15.2206 29.6772 15.1336C29.5517 15.0466 29.4027 15 29.25 15H6.75C6.59731 15 6.44827 15.0466 6.32277 15.1336C6.19727 15.2206 6.10128 15.3437 6.04762 15.4867L3.79762 21.4867C3.75507 21.6002 3.74066 21.7223 3.75561 21.8425C3.77056 21.9628 3.81443 22.0776 3.88347 22.1773C3.95251 22.2769 4.04467 22.3583 4.15204 22.4145C4.25941 22.4707 4.3788 22.5 4.5 22.5H6V31.5C6.00009 31.6733 6.06019 31.8412 6.17008 31.9752C6.27996 32.1092 6.43286 32.201 6.60277 32.235L17.8528 34.485C17.95 34.5045 18.05 34.5045 18.1472 34.485L29.3972 32.235C29.5671 32.201 29.72 32.1092 29.8299 31.9752C29.9398 31.8412 29.9999 31.6733 30 31.5V22.5H31.5C31.6212 22.5 31.7406 22.4707 31.848 22.4145C31.9553 22.3583 32.0475 22.2769 32.1165 22.1773C32.1856 22.0776 32.2294 21.9628 32.2444 21.8425C32.2593 21.7223 32.2449 21.6002 32.2024 21.4867ZM7.27005 16.5H16.9174L15.2299 21H5.58255L7.27005 16.5ZM7.5 22.5H15.75C15.9027 22.5 16.0517 22.4534 16.1772 22.3664C16.3027 22.2794 16.3987 22.1563 16.4524 22.0133L17.25 19.8863V32.835L7.5 30.885V22.5ZM28.5 30.885L18.75 32.835V19.8863L19.5476 22.0133C19.6013 22.1563 19.6973 22.2794 19.8228 22.3664C19.9483 22.4534 20.0973 22.5 20.25 22.5H28.5V30.885ZM20.7701 21L19.0825 16.5H28.7299L30.4174 21H20.7701ZM17.4353 13.244C17.5058 13.3244 17.5926 13.3889 17.69 13.433C17.7874 13.4772 17.8931 13.5 18 13.5C18.1069 13.5 18.2126 13.4772 18.31 13.433C18.4074 13.3889 18.4942 13.3244 18.5647 13.244L23.8147 7.24403C23.9094 7.13551 23.9709 7.00203 23.9919 6.8595C24.0128 6.71698 23.9923 6.57144 23.9327 6.44027C23.8732 6.3091 23.7772 6.19784 23.6561 6.11977C23.535 6.0417 23.3941 6.00012 23.25 6H21.75V2.25C21.75 2.05109 21.671 1.86032 21.5303 1.71967C21.3897 1.57902 21.1989 1.5 21 1.5H15C14.8011 1.5 14.6103 1.57902 14.4697 1.71967C14.329 1.86032 14.25 2.05109 14.25 2.25V6H12.75C12.6059 6.00012 12.465 6.0417 12.3439 6.11977C12.2228 6.19784 12.1268 6.3091 12.0673 6.44027C12.0077 6.57144 11.9872 6.71698 12.0081 6.8595C12.0291 7.00203 12.0906 7.13551 12.1853 7.24403L17.4353 13.244ZM15 7.5C15.1989 7.5 15.3897 7.42098 15.5303 7.28033C15.671 7.13968 15.75 6.94891 15.75 6.75V3H20.25V6.75C20.25 6.94891 20.329 7.13968 20.4697 7.28033C20.6103 7.42098 20.8011 7.5 21 7.5H21.5969L18 11.611L14.4031 7.5H15Z" fill="#3178F6"/>
</svg>
