<svg width="36" height="36" viewBox="0 0 36 36" fill="none" xmlns="http://www.w3.org/2000/svg">
<path d="M16.5024 1.49998C16.4017 1.5006 16.302 1.52152 16.2095 1.56151L1.95983 7.55743C1.80748 7.62142 1.68052 7.73394 1.59868 7.87752C1.51684 8.0211 1.4847 8.18769 1.50725 8.35141V24.7483C1.50641 24.8954 1.54887 25.0396 1.62935 25.1628C1.70982 25.286 1.82475 25.3828 1.95983 25.4412L16.2095 31.4429C16.212 31.4439 16.2144 31.4448 16.2169 31.4458C16.2332 31.4522 16.2499 31.4581 16.2667 31.4633C16.273 31.4654 16.2793 31.4674 16.2857 31.4693C16.2973 31.4725 16.3091 31.4754 16.3208 31.4781C16.3378 31.4826 16.3549 31.4864 16.3721 31.4897C16.3944 31.4936 16.4169 31.4966 16.4395 31.4985C16.4419 31.499 16.4444 31.4995 16.4468 31.5C16.4581 31.5002 16.4693 31.5002 16.4805 31.5C16.4893 31.5006 16.4981 31.5011 16.5069 31.5015C16.5304 31.5011 16.5538 31.4996 16.5772 31.497C16.5934 31.495 16.6095 31.4926 16.6255 31.4896C16.6378 31.4879 16.65 31.4859 16.6621 31.4836C16.6646 31.4831 16.667 31.4826 16.6695 31.4821C16.6907 31.4772 16.7117 31.4713 16.7324 31.4646C16.7354 31.4636 16.7383 31.4627 16.7412 31.4617C16.7581 31.456 16.7747 31.4496 16.791 31.4427C16.792 31.4422 16.793 31.4417 16.794 31.4412L26.1765 27.4935C26.8863 28.0111 27.7264 28.356 28.6401 28.4633L30.115 32.9547C30.4996 34.1256 31.7838 34.7738 32.955 34.3889C34.1269 34.0038 34.7741 32.7211 34.3889 31.5484L32.8964 27.0174C33.8825 26.0608 34.4987 24.724 34.4987 23.2482C34.4987 21.1622 33.2687 19.3604 31.4991 18.515V8.25033C31.4993 8.10234 31.4558 7.95759 31.3739 7.83429C31.2921 7.711 31.1756 7.61467 31.0392 7.55743L24.2256 4.69058C24.1549 4.64574 24.0772 4.61306 23.9956 4.59389L16.791 1.56151C16.6998 1.5221 16.6017 1.50118 16.5024 1.49998V1.49998ZM16.5024 3.06159L21.8836 5.32928L9.56581 10.5151L4.19198 8.25033L16.5024 3.06159ZM23.8111 6.14085L28.8129 8.25033L16.501 13.4361L11.4992 11.3296L23.8111 6.14085ZM3.00121 9.37978L15.7496 14.7502V29.6206L3.00121 24.2502V9.37978ZM29.9993 9.37978V18.0594C29.7544 18.0241 29.5067 17.9994 29.2523 17.9994C26.3621 17.9994 24.0044 20.3574 24.0044 23.2482C24.0044 23.2521 24.0044 23.256 24.0044 23.2599C24.0055 23.3782 24.0115 23.4964 24.0205 23.6144V23.6247V23.6305V23.6423C24.0108 23.7615 24.0046 23.8815 24.0044 24.0012C24.0053 24.6386 24.2878 25.19 24.624 25.7195C24.7418 25.9395 24.8785 26.1465 25.0253 26.3465L17.2494 29.6206V14.7502L29.9993 9.37978ZM5.3388 18.9003C5.31438 18.8996 5.28994 18.9001 5.26557 18.9018C5.0964 18.9149 4.93666 18.985 4.81246 19.1006C4.68826 19.2163 4.60694 19.3706 4.58178 19.5384C4.55661 19.7063 4.5891 19.8777 4.67393 20.0247C4.75875 20.1716 4.89091 20.2855 5.0488 20.3477L7.87852 21.5372C7.96941 21.5754 8.06694 21.5953 8.16554 21.5959C8.26414 21.5964 8.36188 21.5775 8.45317 21.5402C8.54446 21.5029 8.62752 21.4481 8.6976 21.3787C8.76768 21.3093 8.8234 21.2268 8.86159 21.1359C8.89978 21.045 8.91969 20.9474 8.92017 20.8488C8.92066 20.7502 8.90171 20.6524 8.86442 20.5611C8.82712 20.4698 8.77221 20.3868 8.70282 20.3167C8.63343 20.2467 8.55092 20.191 8.45999 20.1528L5.63027 18.9633C5.53831 18.923 5.4392 18.9016 5.3388 18.9003ZM29.2464 19.5009H29.2479C29.6371 19.5026 30.0221 19.5736 30.3918 19.6943C31.9046 20.1759 32.9989 21.5692 32.9989 23.2482C32.9989 24.4815 32.4042 25.5619 31.4933 26.2454C31.3835 26.3275 31.2693 26.4019 31.152 26.471C31.0799 26.5136 31.006 26.5533 30.9308 26.5911C30.8051 26.6541 30.6774 26.7126 30.5456 26.7611C30.4716 26.7883 30.3948 26.8088 30.3186 26.8314C29.9753 26.9334 29.6195 26.9961 29.2567 26.9969C29.2498 26.9965 29.2417 26.9973 29.2348 26.9969C29.2069 26.9959 29.1791 26.9964 29.1513 26.9984C27.2523 26.9483 25.7124 25.5041 25.5189 23.6452C25.5195 23.6403 25.52 23.6354 25.5204 23.6305V23.6247C25.5194 23.6027 25.5175 23.5807 25.5146 23.5588C25.5051 23.4568 25.4996 23.3508 25.4985 23.2482C25.4985 23.2473 25.4985 23.2463 25.4985 23.2453C25.4985 23.2443 25.4985 23.2434 25.4985 23.2424C25.4987 23.1146 25.505 22.9888 25.5175 22.8644C25.5558 22.485 25.6508 22.12 25.7929 21.7833C25.8442 21.662 25.9171 21.5534 25.9804 21.4391C26.0337 21.3427 26.0772 21.2384 26.1385 21.1476C26.273 20.9486 26.4262 20.7628 26.5955 20.5938C26.7648 20.4248 26.9499 20.2724 27.1492 20.1382H27.1507C27.3503 20.0039 27.5631 19.8884 27.7878 19.794C27.9874 19.7101 28.199 19.6494 28.4147 19.6006C28.4404 19.5948 28.4634 19.5825 28.4894 19.5772C28.4909 19.5769 28.4923 19.576 28.4938 19.5757C28.56 19.5622 28.6284 19.5548 28.6959 19.5449C28.876 19.5184 29.059 19.5012 29.2466 19.5009L29.2464 19.5009ZM5.3388 21.9005C5.31436 21.9002 5.28992 21.9012 5.26557 21.9034C5.097 21.9171 4.93802 21.9875 4.81445 22.103C4.69088 22.2185 4.60998 22.3724 4.58487 22.5397C4.55977 22.7069 4.59193 22.8778 4.67615 23.0245C4.76037 23.1712 4.89169 23.2851 5.0488 23.3478L7.87852 24.5388C7.96941 24.577 8.06693 24.5969 8.16551 24.5974C8.26409 24.5979 8.3618 24.579 8.45307 24.5417C8.54434 24.5044 8.62738 24.4495 8.69744 24.3802C8.7675 24.3108 8.82321 24.2283 8.86139 24.1374C8.89958 24.0465 8.91948 23.949 8.91997 23.8504C8.92047 23.7518 8.90153 23.654 8.86426 23.5628C8.82699 23.4715 8.7721 23.3884 8.70274 23.3184C8.63337 23.2483 8.55089 23.1926 8.45999 23.1544L5.63027 21.9634C5.53831 21.9231 5.4392 21.9017 5.3388 21.9005V21.9005ZM31.6221 27.9286L32.9667 32.0186C33.1001 32.4249 32.8916 32.8313 32.4848 32.965C32.0773 33.0989 31.6713 32.8971 31.5372 32.4889L30.2014 28.412C30.7037 28.3192 31.1803 28.1544 31.6221 27.9286Z" fill="#3178F6"/>
</svg>
