<svg width="36" height="36" viewBox="0 0 36 36" fill="none" xmlns="http://www.w3.org/2000/svg">
<path d="M21.2098 12.0973C20.3449 12.0973 19.4766 12.0973 18.6117 12.0973C17.434 12.0973 16.2563 12.0973 15.0785 12.0973C14.9836 12.0973 14.8922 12.0973 14.7973 12.0973C14.7621 12.0973 14.7305 12.0937 14.6953 12.0937C14.7973 12.1008 14.6637 12.0832 14.6285 12.0762C14.6145 12.0726 14.5195 12.041 14.5828 12.0656C14.6426 12.0867 14.523 12.034 14.523 12.034C14.502 12.0199 14.3859 11.9426 14.4246 11.9742C14.4703 12.0129 14.4141 11.9637 14.407 11.9566C14.3895 11.9355 14.3648 11.9109 14.3438 11.8933C14.3297 11.8793 14.284 11.816 14.3402 11.8969C14.3262 11.8793 14.3121 11.8582 14.3016 11.8406C14.2875 11.816 14.2699 11.7879 14.2559 11.7633C14.2418 11.7387 14.2172 11.6473 14.2453 11.7422C14.2277 11.6894 14.2137 11.6402 14.2031 11.584C14.1891 11.5242 14.2066 11.598 14.2066 11.6086C14.2066 11.5769 14.2031 11.5453 14.2031 11.5137C14.2031 11.5066 14.2031 11.5031 14.2031 11.4961C14.2031 11.4609 14.2031 11.4258 14.2031 11.3906C14.2031 11.2254 14.2031 11.0601 14.2031 10.8949C14.2031 9.62929 14.2031 8.36366 14.2031 7.09804C14.2031 6.56367 14.2031 6.03281 14.2031 5.49843C14.2031 5.37539 14.2031 5.25234 14.2031 5.13281C14.2031 5.12226 14.2031 5.11171 14.2031 5.10117C14.2031 5.08007 14.2102 4.96757 14.2031 5.02031C14.1961 5.07304 14.2277 4.93242 14.2313 4.90781C14.2488 4.81992 14.2383 4.87617 14.2277 4.90429C14.2383 4.8832 14.2453 4.86211 14.2594 4.84453C14.284 4.79882 14.3121 4.75312 14.3438 4.71093C14.284 4.79531 14.407 4.65468 14.4281 4.63359C14.4703 4.59492 14.4176 4.64062 14.4105 4.64414C14.4352 4.62656 14.4598 4.60898 14.4879 4.59492C14.5125 4.58086 14.5406 4.56679 14.5688 4.55273C14.5758 4.54921 14.6461 4.52109 14.5898 4.54218C14.5406 4.55976 14.6777 4.52109 14.7023 4.51406C14.7973 4.48593 14.727 4.51054 14.7023 4.51054C14.734 4.50703 14.7656 4.50703 14.7973 4.50703C14.8184 4.50703 14.8359 4.50703 14.857 4.50703C14.9906 4.50703 15.1242 4.50703 15.2613 4.50703C15.8098 4.50703 16.3582 4.50703 16.9031 4.50703C18.1582 4.50703 19.4098 4.50703 20.6648 4.50703C20.816 4.50703 20.9672 4.50703 21.1219 4.50703C21.1535 4.50703 21.1816 4.50703 21.2133 4.50703C21.2344 4.50703 21.3574 4.51406 21.2941 4.50703C21.2484 4.50351 21.3785 4.53164 21.4066 4.53515C21.4242 4.53867 21.5051 4.57031 21.4102 4.53164C21.4383 4.54218 21.4664 4.55625 21.491 4.57382C21.5156 4.58789 21.6492 4.68984 21.5719 4.61953C21.6105 4.65468 21.6492 4.68984 21.6844 4.72851C21.723 4.7707 21.6773 4.71796 21.6738 4.71093C21.6914 4.73554 21.709 4.76015 21.723 4.78828C21.7441 4.81992 21.7969 4.96406 21.7688 4.86914C21.7863 4.92187 21.8004 4.97461 21.8109 5.02734C21.8285 5.10468 21.8145 4.94648 21.8109 5.02734C21.8109 5.05195 21.8145 5.07656 21.8145 5.10117C21.8145 5.1082 21.8145 5.11171 21.8145 5.11875C21.8145 5.22421 21.8145 5.3332 21.8145 5.43867C21.8145 6.63398 21.8145 7.83281 21.8145 9.02812C21.8145 9.61874 21.8145 10.2129 21.8145 10.8035C21.8145 10.9828 21.8145 11.1656 21.8145 11.3449C21.8145 11.3906 21.8145 11.4363 21.8145 11.482C21.8145 11.5277 21.8004 11.6648 21.818 11.5699C21.8074 11.6226 21.7934 11.6754 21.7793 11.7281C21.7617 11.7844 21.7863 11.7176 21.7898 11.7105C21.7793 11.7387 21.7652 11.7668 21.7477 11.7914C21.7336 11.8195 21.716 11.8441 21.702 11.8687C21.6984 11.8758 21.6527 11.9355 21.6879 11.8898C21.7195 11.8512 21.6246 11.9531 21.607 11.9707C21.5438 12.0375 21.5859 11.9883 21.6105 11.9742C21.5859 11.9918 21.5613 12.0094 21.5332 12.0234C21.5121 12.0375 21.3855 12.0937 21.4313 12.0762C21.4734 12.0586 21.3469 12.0973 21.3188 12.1043C21.2941 12.1113 21.2203 12.1148 21.3188 12.1078C21.273 12.0937 21.2414 12.0973 21.2098 12.0973C20.9355 12.1043 20.6684 12.3363 20.6824 12.6246C20.6965 12.9058 20.9145 13.159 21.2098 13.1519C22.166 13.1308 22.8551 12.3644 22.8551 11.4293C22.8551 11.0144 22.8551 10.5996 22.8551 10.1883C22.8551 8.83124 22.8551 7.47773 22.8551 6.1207C22.8551 5.7832 22.8586 5.44218 22.8551 5.10468C22.841 4.18007 22.1098 3.45234 21.1816 3.44531C20.1445 3.43828 19.1074 3.44531 18.0703 3.44531C16.9945 3.44531 15.9223 3.44179 14.8465 3.44531C13.9184 3.44883 13.1625 4.15195 13.1449 5.09062C13.1414 5.39296 13.1449 5.69882 13.1449 6.00117C13.1449 7.34765 13.1449 8.69413 13.1449 10.0371C13.1449 10.4836 13.1449 10.9301 13.1449 11.3801C13.1449 11.5875 13.1555 11.7984 13.2188 11.9953C13.398 12.5578 13.8902 13.0254 14.4809 13.1203C14.8219 13.1766 15.1734 13.1519 15.518 13.1519C16.1402 13.1519 16.7625 13.1519 17.3883 13.1519C18.5906 13.1519 19.793 13.1519 20.9953 13.1519C21.0656 13.1519 21.1395 13.1519 21.2098 13.1519C21.484 13.1519 21.7512 12.9094 21.7371 12.6246C21.723 12.3398 21.5051 12.0973 21.2098 12.0973ZM21.2098 31.5035C20.3449 31.5035 19.4766 31.5035 18.6117 31.5035C17.434 31.5035 16.2563 31.5035 15.0785 31.5035C14.9836 31.5035 14.8922 31.5035 14.7973 31.5035C14.7621 31.5035 14.7305 31.5 14.6953 31.5C14.7973 31.507 14.6637 31.4894 14.6285 31.4824C14.6145 31.4789 14.5195 31.4472 14.5828 31.4718C14.6426 31.4929 14.523 31.4402 14.523 31.4402C14.502 31.4261 14.3859 31.3488 14.4246 31.3804C14.4703 31.4191 14.4141 31.3699 14.407 31.3629C14.3895 31.3418 14.3648 31.3172 14.3438 31.2996C14.3297 31.2855 14.284 31.2222 14.3402 31.3031C14.3262 31.2855 14.3121 31.2644 14.3016 31.2468C14.2875 31.2222 14.2699 31.1941 14.2559 31.1695C14.2418 31.1449 14.2172 31.0535 14.2453 31.1484C14.2277 31.0957 14.2137 31.0465 14.2031 30.9902C14.1891 30.9304 14.2066 31.0043 14.2066 31.0148C14.2066 30.9832 14.2031 30.9515 14.2031 30.9199C14.2031 30.9129 14.2031 30.9093 14.2031 30.9023C14.2031 30.8672 14.2031 30.832 14.2031 30.7968C14.2031 30.6316 14.2031 30.4664 14.2031 30.3011C14.2031 29.0355 14.2031 27.7699 14.2031 26.5043C14.2031 25.9699 14.2031 25.439 14.2031 24.9047C14.2031 24.7816 14.2031 24.6586 14.2031 24.539C14.2031 24.5285 14.2031 24.5179 14.2031 24.5074C14.2031 24.4863 14.2102 24.3738 14.2031 24.4265C14.1961 24.4793 14.2277 24.3386 14.2313 24.314C14.2488 24.2261 14.2383 24.2824 14.2277 24.3105C14.2383 24.2894 14.2453 24.2683 14.2594 24.2508C14.284 24.2051 14.3121 24.1594 14.3438 24.1172C14.284 24.2015 14.407 24.0609 14.4281 24.0398C14.4703 24.0012 14.4176 24.0469 14.4105 24.0504C14.4352 24.0328 14.4598 24.0152 14.4879 24.0012C14.5125 23.9871 14.5406 23.973 14.5688 23.959C14.5758 23.9554 14.6461 23.9273 14.5898 23.9484C14.5406 23.966 14.6777 23.9273 14.7023 23.9203C14.7973 23.8922 14.727 23.9168 14.7023 23.9168C14.734 23.9133 14.7656 23.9133 14.7973 23.9133C14.8184 23.9133 14.8359 23.9133 14.857 23.9133C14.9906 23.9133 15.1242 23.9133 15.2613 23.9133C15.8098 23.9133 16.3582 23.9133 16.9031 23.9133C18.1582 23.9133 19.4098 23.9133 20.6648 23.9133C20.816 23.9133 20.9672 23.9133 21.1219 23.9133C21.1535 23.9133 21.1816 23.9133 21.2133 23.9133C21.2344 23.9133 21.3574 23.9203 21.2941 23.9133C21.2484 23.9097 21.3785 23.9379 21.4066 23.9414C21.4242 23.9449 21.5051 23.9765 21.4102 23.9379C21.4383 23.9484 21.4664 23.9625 21.491 23.9801C21.5156 23.9941 21.6492 24.0961 21.5719 24.0258C21.6105 24.0609 21.6492 24.0961 21.6844 24.1347C21.723 24.1769 21.6773 24.1242 21.6738 24.1172C21.6914 24.1418 21.709 24.1664 21.723 24.1945C21.7441 24.2262 21.7969 24.3703 21.7688 24.2754C21.7863 24.3281 21.8004 24.3808 21.8109 24.4336C21.8285 24.5109 21.8145 24.3527 21.8109 24.4336C21.8109 24.4582 21.8145 24.4828 21.8145 24.5074C21.8145 24.5144 21.8145 24.5179 21.8145 24.525C21.8145 24.6304 21.8145 24.7394 21.8145 24.8449C21.8145 26.0402 21.8145 27.239 21.8145 28.4343C21.8145 29.025 21.8145 29.6191 21.8145 30.2097C21.8145 30.389 21.8145 30.5718 21.8145 30.7511C21.8145 30.7968 21.8145 30.8426 21.8145 30.8883C21.8145 30.934 21.8004 31.0711 21.818 30.9761C21.8074 31.0289 21.7934 31.0816 21.7793 31.1343C21.7617 31.1906 21.7863 31.1238 21.7898 31.1168C21.7793 31.1449 21.7652 31.173 21.7477 31.1976C21.7336 31.2258 21.716 31.2504 21.702 31.275C21.6984 31.282 21.6527 31.3418 21.6879 31.2961C21.7195 31.2574 21.6246 31.3593 21.607 31.3769C21.5438 31.4437 21.5859 31.3945 21.6105 31.3804C21.5859 31.398 21.5613 31.4156 21.5332 31.4297C21.5121 31.4437 21.3855 31.5 21.4313 31.4824C21.4734 31.4648 21.3469 31.5035 21.3188 31.5105C21.2941 31.5176 21.2203 31.5211 21.3188 31.514C21.273 31.5 21.2414 31.5035 21.2098 31.5035C20.9355 31.5105 20.6684 31.7425 20.6824 32.0308C20.6965 32.3121 20.9145 32.5652 21.2098 32.5582C22.166 32.5371 22.8551 31.7707 22.8551 30.8355C22.8551 30.4207 22.8551 30.0058 22.8551 29.5945C22.8551 28.2375 22.8551 26.884 22.8551 25.5269C22.8551 25.1894 22.8586 24.8484 22.8551 24.5109C22.841 23.5863 22.1098 22.8586 21.1816 22.8515C20.1445 22.8445 19.1074 22.8515 18.0703 22.8515C16.9945 22.8515 15.9223 22.848 14.8465 22.8515C13.9184 22.8551 13.1625 23.5582 13.1449 24.4969C13.1414 24.7992 13.1449 25.1051 13.1449 25.4074C13.1449 26.7539 13.1449 28.1004 13.1449 29.4433C13.1449 29.8898 13.1449 30.3363 13.1449 30.7863C13.1449 30.9937 13.1555 31.2047 13.2188 31.4015C13.398 31.964 13.8902 32.4316 14.4809 32.5265C14.8219 32.5828 15.1734 32.5582 15.518 32.5582C16.1402 32.5582 16.7625 32.5582 17.3883 32.5582C18.5906 32.5582 19.793 32.5582 20.9953 32.5582C21.0656 32.5582 21.1395 32.5582 21.2098 32.5582C21.484 32.5582 21.7512 32.3156 21.7371 32.0308C21.723 31.7461 21.5051 31.5035 21.2098 31.5035ZM8.94375 31.5035C8.07891 31.5035 7.21055 31.5035 6.34571 31.5035C5.16797 31.5035 3.99024 31.5035 2.81251 31.5035C2.71758 31.5035 2.62618 31.5035 2.53126 31.5035C2.4961 31.5035 2.46446 31.5 2.4293 31.5C2.53126 31.507 2.39766 31.4894 2.36251 31.4824C2.34844 31.4789 2.25352 31.4472 2.3168 31.4718C2.37657 31.4929 2.25704 31.4402 2.25704 31.4402C2.23594 31.4261 2.11993 31.3488 2.1586 31.3804C2.2043 31.4191 2.14805 31.3699 2.14102 31.3629C2.12344 31.3418 2.09883 31.3172 2.07774 31.2996C2.06368 31.2855 2.01797 31.2222 2.07422 31.3031C2.06016 31.2855 2.0461 31.2644 2.03555 31.2468C2.02149 31.2222 2.00391 31.1941 1.98985 31.1695C1.97579 31.1449 1.95118 31.0535 1.9793 31.1484C1.96172 31.0957 1.94766 31.0465 1.93712 30.9902C1.92305 30.9304 1.94063 31.0043 1.94063 31.0148C1.94063 30.9832 1.93712 30.9515 1.93712 30.9199C1.93712 30.9129 1.93712 30.9093 1.93712 30.9023C1.93712 30.8672 1.93712 30.832 1.93712 30.7968C1.93712 30.6316 1.93712 30.4664 1.93712 30.3011C1.93712 29.0355 1.93712 27.7699 1.93712 26.5043C1.93712 25.9699 1.93712 25.439 1.93712 24.9047C1.93712 24.7816 1.93712 24.6586 1.93712 24.539C1.93712 24.5285 1.93712 24.5179 1.93712 24.5074C1.93712 24.4863 1.94415 24.3738 1.93712 24.4265C1.93008 24.4793 1.96172 24.3386 1.96524 24.314C1.98282 24.2261 1.97227 24.2824 1.96172 24.3105C1.97227 24.2894 1.9793 24.2683 1.99337 24.2508C2.01797 24.2051 2.0461 24.1594 2.07774 24.1172C2.01797 24.2015 2.14102 24.0609 2.16212 24.0398C2.2043 24.0012 2.15157 24.0469 2.14454 24.0504C2.16915 24.0328 2.19376 24.0152 2.22188 24.0012C2.24649 23.9871 2.27462 23.973 2.30274 23.959C2.30977 23.9554 2.38008 23.9273 2.32383 23.9484C2.27462 23.966 2.41172 23.9273 2.43633 23.9203C2.53126 23.8922 2.46094 23.9168 2.43633 23.9168C2.46797 23.9133 2.49962 23.9133 2.53126 23.9133C2.55235 23.9133 2.56993 23.9133 2.59102 23.9133C2.72461 23.9133 2.85821 23.9133 2.99532 23.9133C3.54376 23.9133 4.09219 23.9133 4.63711 23.9133C5.89219 23.9133 7.14375 23.9133 8.39883 23.9133C8.55 23.9133 8.70118 23.9133 8.85586 23.9133C8.8875 23.9133 8.91563 23.9133 8.94727 23.9133C8.96836 23.9133 9.09141 23.9203 9.02813 23.9133C8.98243 23.9097 9.1125 23.9379 9.14063 23.9414C9.15821 23.9449 9.23907 23.9765 9.14415 23.9379C9.17227 23.9484 9.20039 23.9625 9.225 23.9801C9.24961 23.9941 9.38321 24.0961 9.30586 24.0258C9.34454 24.0609 9.38321 24.0961 9.41836 24.1347C9.45704 24.1769 9.41133 24.1242 9.40782 24.1172C9.4254 24.1418 9.44297 24.1664 9.45704 24.1945C9.47813 24.2262 9.53086 24.3703 9.50274 24.2754C9.52032 24.3281 9.53438 24.3808 9.54493 24.4336C9.5625 24.5109 9.54844 24.3527 9.54493 24.4336C9.54493 24.4582 9.54844 24.4828 9.54844 24.5074C9.54844 24.5144 9.54844 24.5179 9.54844 24.525C9.54844 24.6304 9.54844 24.7394 9.54844 24.8449C9.54844 26.0402 9.54844 27.239 9.54844 28.4343C9.54844 29.025 9.54844 29.6191 9.54844 30.2097C9.54844 30.389 9.54844 30.5718 9.54844 30.7511C9.54844 30.7968 9.54844 30.8426 9.54844 30.8883C9.54844 30.934 9.53438 31.0711 9.55196 30.9761C9.54141 31.0289 9.52735 31.0816 9.51329 31.1343C9.49571 31.1906 9.52032 31.1238 9.52383 31.1168C9.51329 31.1449 9.49922 31.173 9.48165 31.1976C9.46758 31.2258 9.45 31.2504 9.43594 31.275C9.43243 31.282 9.38672 31.3418 9.42188 31.2961C9.45352 31.2574 9.3586 31.3593 9.34102 31.3769C9.27774 31.4437 9.31993 31.3945 9.34454 31.3804C9.31993 31.398 9.29532 31.4156 9.26719 31.4297C9.2461 31.4437 9.11954 31.5 9.16524 31.4824C9.20743 31.4648 9.08086 31.5035 9.05274 31.5105C9.02813 31.5176 8.9543 31.5211 9.05274 31.514C9.00704 31.5 8.97539 31.5035 8.94375 31.5035C8.66954 31.5105 8.40235 31.7425 8.41641 32.0308C8.43047 32.3121 8.64844 32.5652 8.94375 32.5582C9.9 32.5371 10.5891 31.7707 10.5891 30.8355C10.5891 30.4207 10.5891 30.0058 10.5891 29.5945C10.5891 28.2375 10.5891 26.884 10.5891 25.5269C10.5891 25.1894 10.5926 24.8484 10.5891 24.5109C10.575 23.5863 9.84375 22.8586 8.91563 22.8515C7.87852 22.8445 6.84141 22.8515 5.8043 22.8515C4.72852 22.8515 3.65626 22.848 2.58047 22.8515C1.65235 22.8515 0.89649 23.5547 0.878912 24.4969C0.875397 24.7992 0.878912 25.1051 0.878912 25.4074C0.878912 26.7539 0.878912 28.1004 0.878912 29.4433C0.878912 29.8898 0.878912 30.3363 0.878912 30.7863C0.878912 30.9937 0.889459 31.2047 0.95274 31.4015C1.13204 31.964 1.62422 32.4316 2.21485 32.5265C2.55587 32.5828 2.90743 32.5582 3.25196 32.5582C3.87422 32.5582 4.49649 32.5582 5.12227 32.5582C6.32461 32.5582 7.52696 32.5582 8.7293 32.5582C8.79961 32.5582 8.87344 32.5582 8.94375 32.5582C9.21797 32.5582 9.48516 32.3156 9.4711 32.0308C9.45704 31.7461 9.23907 31.5035 8.94375 31.5035ZM33.4758 31.5035C32.6109 31.5035 31.7426 31.5035 30.8777 31.5035C29.7 31.5035 28.5223 31.5035 27.3445 31.5035C27.2496 31.5035 27.1582 31.5035 27.0633 31.5035C27.0281 31.5035 26.9965 31.5 26.9613 31.5C27.0633 31.507 26.9297 31.4894 26.8945 31.4824C26.8805 31.4789 26.7855 31.4472 26.8488 31.4718C26.9086 31.4929 26.7891 31.4402 26.7891 31.4402C26.768 31.4261 26.652 31.3488 26.6906 31.3804C26.7363 31.4191 26.6801 31.3699 26.673 31.3629C26.6555 31.3418 26.6309 31.3172 26.6098 31.2996C26.5957 31.2855 26.55 31.2222 26.6062 31.3031C26.5922 31.2855 26.5781 31.2644 26.5676 31.2468C26.5535 31.2222 26.5359 31.1941 26.5219 31.1695C26.5078 31.1449 26.4832 31.0535 26.5113 31.1484C26.4937 31.0957 26.4797 31.0465 26.4691 30.9902C26.4551 30.9304 26.4727 31.0043 26.4727 31.0148C26.4727 30.9832 26.4691 30.9515 26.4691 30.9199C26.4691 30.9129 26.4691 30.9093 26.4691 30.9023C26.4691 30.8672 26.4691 30.832 26.4691 30.7968C26.4691 30.6316 26.4691 30.4664 26.4691 30.3011C26.4691 29.0355 26.4691 27.7699 26.4691 26.5043C26.4691 25.9699 26.4691 25.439 26.4691 24.9047C26.4691 24.7816 26.4691 24.6586 26.4691 24.539C26.4691 24.5285 26.4691 24.5179 26.4691 24.5074C26.4691 24.4863 26.4762 24.3738 26.4691 24.4265C26.4621 24.4793 26.4938 24.3386 26.4973 24.314C26.5148 24.2261 26.5043 24.2824 26.4937 24.3105C26.5043 24.2894 26.5113 24.2683 26.5254 24.2508C26.55 24.2051 26.5781 24.1594 26.6098 24.1172C26.55 24.2015 26.673 24.0609 26.6941 24.0398C26.7363 24.0012 26.6836 24.0469 26.6766 24.0504C26.7012 24.0328 26.7258 24.0152 26.7539 24.0012C26.7785 23.9871 26.8066 23.973 26.8348 23.959C26.8418 23.9554 26.9121 23.9273 26.8559 23.9484C26.8066 23.966 26.9437 23.9273 26.9684 23.9203C27.0633 23.8922 26.993 23.9168 26.9684 23.9168C27 23.9133 27.0316 23.9133 27.0633 23.9133C27.0844 23.9133 27.102 23.9133 27.123 23.9133C27.2566 23.9133 27.3902 23.9133 27.5273 23.9133C28.0758 23.9133 28.6242 23.9133 29.1691 23.9133C30.4242 23.9133 31.6758 23.9133 32.9309 23.9133C33.082 23.9133 33.2332 23.9133 33.3879 23.9133C33.4195 23.9133 33.4477 23.9133 33.4793 23.9133C33.5004 23.9133 33.6234 23.9203 33.5602 23.9133C33.5145 23.9097 33.6445 23.9379 33.6727 23.9414C33.6902 23.9449 33.7711 23.9765 33.6762 23.9379C33.7043 23.9484 33.7324 23.9625 33.757 23.9801C33.7816 23.9941 33.9152 24.0961 33.8379 24.0258C33.8766 24.0609 33.9152 24.0961 33.9504 24.1347C33.9891 24.1769 33.9434 24.1242 33.9398 24.1172C33.9574 24.1418 33.975 24.1664 33.9891 24.1945C34.0102 24.2262 34.0629 24.3703 34.0348 24.2754C34.0523 24.3281 34.0664 24.3808 34.077 24.4336C34.0945 24.5109 34.0805 24.3527 34.077 24.4336C34.077 24.4582 34.0805 24.4828 34.0805 24.5074C34.0805 24.5144 34.0805 24.5179 34.0805 24.525C34.0805 24.6304 34.0805 24.7394 34.0805 24.8449C34.0805 26.0402 34.0805 27.239 34.0805 28.4343C34.0805 29.025 34.0805 29.6191 34.0805 30.2097C34.0805 30.389 34.0805 30.5718 34.0805 30.7511C34.0805 30.7968 34.0805 30.8426 34.0805 30.8883C34.0805 30.934 34.0664 31.0711 34.084 30.9761C34.0734 31.0289 34.0594 31.0816 34.0453 31.1343C34.0277 31.1906 34.0523 31.1238 34.0559 31.1168C34.0453 31.1449 34.0312 31.173 34.0137 31.1976C33.9996 31.2258 33.982 31.2504 33.968 31.275C33.9645 31.282 33.9187 31.3418 33.9539 31.2961C33.9855 31.2574 33.8906 31.3593 33.873 31.3769C33.8098 31.4437 33.852 31.3945 33.8766 31.3804C33.852 31.398 33.8273 31.4156 33.7992 31.4297C33.7781 31.4437 33.6516 31.5 33.6973 31.4824C33.7395 31.4648 33.6129 31.5035 33.5848 31.5105C33.5602 31.5176 33.4863 31.5211 33.5848 31.514C33.5391 31.5 33.5074 31.5035 33.4758 31.5035C33.2016 31.5105 32.9344 31.7425 32.9484 32.0308C32.9625 32.3121 33.1805 32.5652 33.4758 32.5582C34.432 32.5371 35.1211 31.7707 35.1211 30.8355C35.1211 30.4207 35.1211 30.0058 35.1211 29.5945C35.1211 28.2375 35.1211 26.884 35.1211 25.5269C35.1211 25.1894 35.1246 24.8484 35.1211 24.5109C35.107 23.5863 34.3758 22.8586 33.4477 22.8515C32.4105 22.8445 31.3734 22.8515 30.3363 22.8515C29.2605 22.8515 28.1883 22.848 27.1125 22.8515C26.1844 22.8551 25.4285 23.5582 25.4109 24.4969C25.4074 24.7992 25.4109 25.1051 25.4109 25.4074C25.4109 26.7539 25.4109 28.1004 25.4109 29.4433C25.4109 29.8898 25.4109 30.3363 25.4109 30.7863C25.4109 30.9937 25.4215 31.2047 25.4848 31.4015C25.6641 31.964 26.1562 32.4316 26.7469 32.5265C27.0879 32.5828 27.4395 32.5582 27.784 32.5582C28.4062 32.5582 29.0285 32.5582 29.6543 32.5582C30.8566 32.5582 32.059 32.5582 33.2613 32.5582C33.3316 32.5582 33.4055 32.5582 33.4758 32.5582C33.75 32.5582 34.0172 32.3156 34.0031 32.0308C33.9926 31.7461 33.7711 31.5035 33.4758 31.5035Z" fill="#3178F6"/>
<path d="M18.5273 23.3754C18.5273 22.166 18.5273 20.9566 18.5273 19.7437C18.5273 17.8137 18.5273 15.8836 18.5273 13.9535C18.5273 13.5105 18.5273 13.0641 18.5273 12.6211C18.5273 12.3469 18.2848 12.0797 18 12.0937C17.7152 12.1078 17.4727 12.3258 17.4727 12.6211C17.4727 13.8305 17.4727 15.0398 17.4727 16.2527C17.4727 18.1828 17.4727 20.1129 17.4727 22.043C17.4727 22.4859 17.4727 22.9324 17.4727 23.3754C17.4727 23.6496 17.7152 23.9168 18 23.9027C18.2848 23.8922 18.5273 23.6707 18.5273 23.3754Z" fill="#3178F6"/>
<path d="M6.26132 23.3754C6.26132 21.8109 6.26132 20.243 6.26132 18.6785C6.26132 18.4535 6.26132 18.2285 6.26132 18.0035C6.08554 18.1793 5.90976 18.3551 5.73398 18.5309C5.95195 18.5309 6.16992 18.5309 6.38789 18.5309C6.98554 18.5309 7.57968 18.5309 8.17734 18.5309C9.05625 18.5309 9.93516 18.5309 10.8105 18.5309C11.8863 18.5309 12.9621 18.5309 14.0414 18.5309C15.2156 18.5309 16.3899 18.5309 17.5641 18.5309C18.7488 18.5309 19.9336 18.5309 21.1184 18.5309C22.2293 18.5309 23.3403 18.5309 24.4477 18.5309C25.3828 18.5309 26.3145 18.5309 27.2496 18.5309C27.9246 18.5309 28.5996 18.5309 29.2746 18.5309C29.591 18.5309 29.911 18.5449 30.2274 18.5309C30.2414 18.5309 30.2555 18.5309 30.2696 18.5309C30.0938 18.3551 29.918 18.1793 29.7422 18.0035C29.7422 19.568 29.7422 21.1359 29.7422 22.7004C29.7422 22.9254 29.7422 23.1504 29.7422 23.3754C29.7422 23.6496 29.9848 23.9168 30.2696 23.9027C30.5543 23.8887 30.7969 23.6707 30.7969 23.3754C30.7969 21.8109 30.7969 20.243 30.7969 18.6785C30.7969 18.4535 30.7969 18.2285 30.7969 18.0035C30.7969 17.7187 30.5543 17.4762 30.2696 17.4762C30.0516 17.4762 29.8336 17.4762 29.6156 17.4762C29.018 17.4762 28.4238 17.4762 27.8262 17.4762C26.9473 17.4762 26.0684 17.4762 25.193 17.4762C24.1172 17.4762 23.0414 17.4762 21.9621 17.4762C20.7879 17.4762 19.6137 17.4762 18.4395 17.4762C17.2547 17.4762 16.0699 17.4762 14.8852 17.4762C13.7742 17.4762 12.6633 17.4762 11.5559 17.4762C10.6207 17.4762 9.68906 17.4762 8.7539 17.4762C8.0789 17.4762 7.4039 17.4762 6.7289 17.4762C6.41249 17.4762 6.09257 17.4691 5.77617 17.4762C5.7621 17.4762 5.74804 17.4762 5.73398 17.4762C5.44921 17.4762 5.20663 17.7187 5.20663 18.0035C5.20663 19.568 5.20663 21.1359 5.20663 22.7004C5.20663 22.9254 5.20663 23.1504 5.20663 23.3754C5.20663 23.6496 5.44921 23.9168 5.73398 23.9027C6.01874 23.8922 6.26132 23.6707 6.26132 23.3754Z" fill="#3178F6"/>
</svg>
