<svg width="36" height="36" viewBox="0 0 36 36" fill="none" xmlns="http://www.w3.org/2000/svg">
<path d="M16.7513 22.6125C16.7513 22.9437 16.8828 23.2613 17.117 23.4955C17.3512 23.7297 17.6688 23.8612 18 23.8612C18.3312 23.8612 18.6488 23.7297 18.883 23.4955C19.1172 23.2613 19.2488 22.9437 19.2488 22.6125C19.2474 22.3961 19.1883 22.184 19.0776 21.9981C18.9668 21.8121 18.8084 21.6592 18.6187 21.555C18.8396 21.3473 19.0123 21.0939 19.125 20.8125C19.2938 20.43 18.99 20.0475 18.9 19.6875C18.8079 19.3067 18.6952 18.9311 18.5625 18.5625C18.4163 18.18 18.2925 17.7975 18.1125 17.4375H18.0562C18.0333 17.4161 18.0032 17.4043 17.9719 17.4043C17.9406 17.4043 17.9104 17.4161 17.8875 17.4375C17.7075 17.82 17.5838 18.2025 17.4375 18.5625C17.3048 18.9311 17.1921 19.3067 17.1 19.6875C17.01 20.07 16.7063 20.4525 16.875 20.8125C16.9877 21.0939 17.1604 21.3473 17.3813 21.555C17.1916 21.6592 17.0332 21.8121 16.9224 21.9981C16.8117 22.184 16.7526 22.3961 16.7513 22.6125Z" fill="#3178F6"/>
<path d="M18 27.54C19.2772 27.54 20.5257 27.1613 21.5876 26.4517C22.6495 25.7422 23.4772 24.7336 23.9659 23.5537C24.4547 22.3737 24.5826 21.0753 24.3334 19.8227C24.0843 18.5701 23.4692 17.4195 22.5661 16.5164C21.663 15.6133 20.5124 14.9982 19.2598 14.7491C18.0072 14.4999 16.7088 14.6278 15.5288 15.1166C14.3489 15.6053 13.3403 16.433 12.6308 17.4949C11.9212 18.5568 11.5425 19.8053 11.5425 21.0825C11.5425 22.7951 12.2228 24.4376 13.4339 25.6486C14.6449 26.8597 16.2874 27.54 18 27.54ZM18 16.875C18.8322 16.875 19.6456 17.1218 20.3376 17.5841C21.0295 18.0464 21.5688 18.7035 21.8872 19.4724C22.2057 20.2412 22.289 21.0872 22.1266 21.9033C21.9643 22.7195 21.5636 23.4692 20.9751 24.0577C20.3867 24.6461 19.637 25.0468 18.8208 25.2092C18.0047 25.3715 17.1587 25.2882 16.3899 24.9697C15.621 24.6513 14.9639 24.112 14.5016 23.4201C14.0393 22.7281 13.7925 21.9147 13.7925 21.0825C13.7955 19.9675 14.2397 18.899 15.0281 18.1106C15.8165 17.3222 16.885 16.878 18 16.875Z" fill="#3178F6"/>
<path d="M32.6925 5.47875C32.7016 5.32209 32.6797 5.16518 32.6281 5.01699C32.5764 4.86881 32.4961 4.73228 32.3916 4.61523C32.287 4.49817 32.1604 4.4029 32.019 4.33486C31.8776 4.26682 31.7242 4.22737 31.5675 4.21875C31.2823 4.21805 31.0075 4.32571 30.7986 4.51994C30.5898 4.71417 30.4625 4.98049 30.4425 5.265C29.7563 6.0075 25.47 7.3575 17.9775 7.3575C10.485 7.3575 6.22125 6.0075 5.535 5.265C5.51504 4.98049 5.38776 4.71417 5.1789 4.51994C4.97005 4.32571 4.69522 4.21805 4.41 4.21875C4.25332 4.22737 4.09987 4.26682 3.95847 4.33486C3.81706 4.4029 3.69047 4.49817 3.58596 4.61523C3.48145 4.73228 3.40106 4.86881 3.34942 5.01699C3.29778 5.16518 3.27589 5.32209 3.285 5.47875C3.285 9.21375 13.005 9.7875 16.8525 9.86625V11.1825H9.06751C8.79283 11.1802 8.52679 11.2784 8.31955 11.4587C8.11232 11.639 7.9782 11.8889 7.9425 12.1613L5.70375 30.375C5.68604 30.5328 5.70194 30.6926 5.75042 30.8439C5.79889 30.9951 5.87884 31.1344 5.985 31.2525C6.08917 31.3711 6.21713 31.4664 6.36055 31.5323C6.50398 31.5982 6.65967 31.6332 6.8175 31.635H29.1825C29.3403 31.6332 29.496 31.5982 29.6395 31.5323C29.7829 31.4664 29.9108 31.3711 30.015 31.2525C30.1212 31.1344 30.2011 30.9951 30.2496 30.8439C30.2981 30.6926 30.314 30.5328 30.2963 30.375L28.0463 12.15C28.0106 11.8776 27.8764 11.6278 27.6692 11.4475C27.462 11.2672 27.1959 11.1689 26.9213 11.1712H19.125V9.86625C22.9725 9.7875 32.6925 9.21375 32.6925 5.47875ZM27.9 29.3962H8.1L10.125 13.4325H25.9875L27.9 29.3962Z" fill="#3178F6"/>
</svg>
